ISO-10303-21;
HEADER;
/* Generated by software containing ST-Developer
 * from STEP Tools, Inc. (www.steptools.com) 
 */

FILE_DESCRIPTION(
/* description */ (''),
/* implementation_level */ '2;1');

FILE_NAME(
/* name */ 'basketback.stp',
/* time_stamp */ '2026-04-19T23:52:34+02:00',
/* author */ ('ksawe'),
/* organization */ (''),
/* preprocessor_version */ 'ST-DEVELOPER v20',
/* originating_system */ 'Autodesk Inventor 2025',
/* authorisation */ '');

FILE_SCHEMA (('AUTOMOTIVE_DESIGN { 1 0 10303 214 3 1 1 }'));
ENDSEC;

DATA;
#10=MECHANICAL_DESIGN_GEOMETRIC_PRESENTATION_REPRESENTATION('',(#13),#1655);
#11=SHAPE_REPRESENTATION_RELATIONSHIP('SRR','None',#1662,#12);
#12=ADVANCED_BREP_SHAPE_REPRESENTATION('',(#14),#1654);
#13=STYLED_ITEM('',(#1671),#14);
#14=MANIFOLD_SOLID_BREP('Solid1',#956);
#15=SPHERICAL_SURFACE('',#1037,3.);
#16=SPHERICAL_SURFACE('',#1043,3.);
#17=SPHERICAL_SURFACE('',#1049,3.);
#18=SPHERICAL_SURFACE('',#1056,3.);
#19=CYLINDRICAL_SURFACE('',#984,1.95);
#20=CYLINDRICAL_SURFACE('',#986,1.);
#21=CYLINDRICAL_SURFACE('',#992,1.95);
#22=CYLINDRICAL_SURFACE('',#994,1.);
#23=CYLINDRICAL_SURFACE('',#998,1.95);
#24=CYLINDRICAL_SURFACE('',#1000,1.);
#25=CYLINDRICAL_SURFACE('',#1005,1.95);
#26=CYLINDRICAL_SURFACE('',#1007,1.);
#27=CYLINDRICAL_SURFACE('',#1012,1.95);
#28=CYLINDRICAL_SURFACE('',#1014,1.);
#29=CYLINDRICAL_SURFACE('',#1019,1.95);
#30=CYLINDRICAL_SURFACE('',#1021,1.);
#31=CYLINDRICAL_SURFACE('',#1026,1.95);
#32=CYLINDRICAL_SURFACE('',#1028,1.);
#33=CYLINDRICAL_SURFACE('',#1033,1.95);
#34=CYLINDRICAL_SURFACE('',#1035,1.);
#35=CYLINDRICAL_SURFACE('',#1041,3.);
#36=CYLINDRICAL_SURFACE('',#1047,3.);
#37=CYLINDRICAL_SURFACE('',#1053,3.);
#38=CYLINDRICAL_SURFACE('',#1055,3.);
#39=CYLINDRICAL_SURFACE('',#1060,3.);
#40=CYLINDRICAL_SURFACE('',#1062,3.);
#41=CYLINDRICAL_SURFACE('',#1063,3.);
#42=CYLINDRICAL_SURFACE('',#1064,3.);
#43=CYLINDRICAL_SURFACE('',#1087,1.);
#44=CYLINDRICAL_SURFACE('',#1088,1.);
#45=CYLINDRICAL_SURFACE('',#1089,1.);
#46=CYLINDRICAL_SURFACE('',#1090,1.);
#47=FACE_BOUND('',#161,.T.);
#48=FACE_BOUND('',#166,.T.);
#49=FACE_BOUND('',#170,.T.);
#50=FACE_BOUND('',#174,.T.);
#51=FACE_BOUND('',#178,.T.);
#52=FACE_BOUND('',#182,.T.);
#53=FACE_BOUND('',#186,.T.);
#54=FACE_BOUND('',#190,.T.);
#55=FACE_BOUND('',#206,.T.);
#56=FACE_BOUND('',#207,.T.);
#57=FACE_BOUND('',#208,.T.);
#58=FACE_BOUND('',#209,.T.);
#59=FACE_BOUND('',#210,.T.);
#60=FACE_BOUND('',#211,.T.);
#61=FACE_BOUND('',#214,.T.);
#62=FACE_BOUND('',#215,.T.);
#63=FACE_BOUND('',#216,.T.);
#64=FACE_BOUND('',#217,.T.);
#65=FACE_BOUND('',#218,.T.);
#66=FACE_BOUND('',#221,.T.);
#67=FACE_BOUND('',#222,.T.);
#68=FACE_BOUND('',#223,.T.);
#69=FACE_BOUND('',#224,.T.);
#70=FACE_BOUND('',#225,.T.);
#71=FACE_BOUND('',#226,.T.);
#72=FACE_BOUND('',#229,.T.);
#73=FACE_BOUND('',#230,.T.);
#74=FACE_BOUND('',#231,.T.);
#75=FACE_BOUND('',#233,.T.);
#76=FACE_BOUND('',#234,.T.);
#77=FACE_BOUND('',#235,.T.);
#78=FACE_BOUND('',#236,.T.);
#79=PLANE('',#981);
#80=PLANE('',#989);
#81=PLANE('',#995);
#82=PLANE('',#1002);
#83=PLANE('',#1009);
#84=PLANE('',#1016);
#85=PLANE('',#1023);
#86=PLANE('',#1030);
#87=PLANE('',#1065);
#88=PLANE('',#1066);
#89=PLANE('',#1067);
#90=PLANE('',#1072);
#91=PLANE('',#1073);
#92=PLANE('',#1074);
#93=PLANE('',#1075);
#94=PLANE('',#1076);
#95=PLANE('',#1081);
#96=PLANE('',#1082);
#97=PLANE('',#1083);
#98=PLANE('',#1084);
#99=PLANE('',#1085);
#100=PLANE('',#1086);
#101=PLANE('',#1091);
#102=FACE_OUTER_BOUND('',#159,.T.);
#103=FACE_OUTER_BOUND('',#160,.T.);
#104=FACE_OUTER_BOUND('',#162,.T.);
#105=FACE_OUTER_BOUND('',#163,.T.);
#106=FACE_OUTER_BOUND('',#164,.T.);
#107=FACE_OUTER_BOUND('',#165,.T.);
#108=FACE_OUTER_BOUND('',#167,.T.);
#109=FACE_OUTER_BOUND('',#168,.T.);
#110=FACE_OUTER_BOUND('',#169,.T.);
#111=FACE_OUTER_BOUND('',#171,.T.);
#112=FACE_OUTER_BOUND('',#172,.T.);
#113=FACE_OUTER_BOUND('',#173,.T.);
#114=FACE_OUTER_BOUND('',#175,.T.);
#115=FACE_OUTER_BOUND('',#176,.T.);
#116=FACE_OUTER_BOUND('',#177,.T.);
#117=FACE_OUTER_BOUND('',#179,.T.);
#118=FACE_OUTER_BOUND('',#180,.T.);
#119=FACE_OUTER_BOUND('',#181,.T.);
#120=FACE_OUTER_BOUND('',#183,.T.);
#121=FACE_OUTER_BOUND('',#184,.T.);
#122=FACE_OUTER_BOUND('',#185,.T.);
#123=FACE_OUTER_BOUND('',#187,.T.);
#124=FACE_OUTER_BOUND('',#188,.T.);
#125=FACE_OUTER_BOUND('',#189,.T.);
#126=FACE_OUTER_BOUND('',#191,.T.);
#127=FACE_OUTER_BOUND('',#192,.T.);
#128=FACE_OUTER_BOUND('',#193,.T.);
#129=FACE_OUTER_BOUND('',#194,.T.);
#130=FACE_OUTER_BOUND('',#195,.T.);
#131=FACE_OUTER_BOUND('',#196,.T.);
#132=FACE_OUTER_BOUND('',#197,.T.);
#133=FACE_OUTER_BOUND('',#198,.T.);
#134=FACE_OUTER_BOUND('',#199,.T.);
#135=FACE_OUTER_BOUND('',#200,.T.);
#136=FACE_OUTER_BOUND('',#201,.T.);
#137=FACE_OUTER_BOUND('',#202,.T.);
#138=FACE_OUTER_BOUND('',#203,.T.);
#139=FACE_OUTER_BOUND('',#204,.T.);
#140=FACE_OUTER_BOUND('',#205,.T.);
#141=FACE_OUTER_BOUND('',#212,.T.);
#142=FACE_OUTER_BOUND('',#213,.T.);
#143=FACE_OUTER_BOUND('',#219,.T.);
#144=FACE_OUTER_BOUND('',#220,.T.);
#145=FACE_OUTER_BOUND('',#227,.T.);
#146=FACE_OUTER_BOUND('',#228,.T.);
#147=FACE_OUTER_BOUND('',#232,.T.);
#148=FACE_OUTER_BOUND('',#237,.T.);
#149=FACE_OUTER_BOUND('',#238,.T.);
#150=FACE_OUTER_BOUND('',#239,.T.);
#151=FACE_OUTER_BOUND('',#240,.T.);
#152=FACE_OUTER_BOUND('',#241,.T.);
#153=FACE_OUTER_BOUND('',#242,.T.);
#154=FACE_OUTER_BOUND('',#243,.T.);
#155=FACE_OUTER_BOUND('',#244,.T.);
#156=FACE_OUTER_BOUND('',#245,.T.);
#157=FACE_OUTER_BOUND('',#246,.T.);
#158=FACE_OUTER_BOUND('',#247,.T.);
#159=EDGE_LOOP('',(#647,#648,#649));
#160=EDGE_LOOP('',(#650));
#161=EDGE_LOOP('',(#651));
#162=EDGE_LOOP('',(#652,#653,#654,#655));
#163=EDGE_LOOP('',(#656,#657,#658,#659));
#164=EDGE_LOOP('',(#660,#661,#662));
#165=EDGE_LOOP('',(#663));
#166=EDGE_LOOP('',(#664));
#167=EDGE_LOOP('',(#665,#666,#667,#668));
#168=EDGE_LOOP('',(#669,#670,#671,#672));
#169=EDGE_LOOP('',(#673));
#170=EDGE_LOOP('',(#674));
#171=EDGE_LOOP('',(#675,#676,#677,#678));
#172=EDGE_LOOP('',(#679,#680,#681,#682));
#173=EDGE_LOOP('',(#683));
#174=EDGE_LOOP('',(#684));
#175=EDGE_LOOP('',(#685,#686,#687,#688));
#176=EDGE_LOOP('',(#689,#690,#691,#692));
#177=EDGE_LOOP('',(#693));
#178=EDGE_LOOP('',(#694));
#179=EDGE_LOOP('',(#695,#696,#697,#698));
#180=EDGE_LOOP('',(#699,#700,#701,#702));
#181=EDGE_LOOP('',(#703));
#182=EDGE_LOOP('',(#704));
#183=EDGE_LOOP('',(#705,#706,#707,#708));
#184=EDGE_LOOP('',(#709,#710,#711,#712));
#185=EDGE_LOOP('',(#713));
#186=EDGE_LOOP('',(#714));
#187=EDGE_LOOP('',(#715,#716,#717,#718));
#188=EDGE_LOOP('',(#719,#720,#721,#722));
#189=EDGE_LOOP('',(#723));
#190=EDGE_LOOP('',(#724));
#191=EDGE_LOOP('',(#725,#726,#727,#728));
#192=EDGE_LOOP('',(#729,#730,#731,#732));
#193=EDGE_LOOP('',(#733,#734,#735));
#194=EDGE_LOOP('',(#736,#737,#738,#739));
#195=EDGE_LOOP('',(#740,#741,#742));
#196=EDGE_LOOP('',(#743,#744,#745,#746));
#197=EDGE_LOOP('',(#747,#748,#749));
#198=EDGE_LOOP('',(#750,#751,#752,#753));
#199=EDGE_LOOP('',(#754,#755,#756,#757));
#200=EDGE_LOOP('',(#758,#759,#760));
#201=EDGE_LOOP('',(#761,#762,#763,#764));
#202=EDGE_LOOP('',(#765,#766,#767,#768));
#203=EDGE_LOOP('',(#769,#770,#771,#772));
#204=EDGE_LOOP('',(#773,#774,#775,#776));
#205=EDGE_LOOP('',(#777,#778,#779,#780));
#206=EDGE_LOOP('',(#781));
#207=EDGE_LOOP('',(#782));
#208=EDGE_LOOP('',(#783));
#209=EDGE_LOOP('',(#784));
#210=EDGE_LOOP('',(#785));
#211=EDGE_LOOP('',(#786));
#212=EDGE_LOOP('',(#787,#788,#789,#790));
#213=EDGE_LOOP('',(#791,#792,#793,#794));
#214=EDGE_LOOP('',(#795,#796,#797,#798,#799));
#215=EDGE_LOOP('',(#800));
#216=EDGE_LOOP('',(#801));
#217=EDGE_LOOP('',(#802));
#218=EDGE_LOOP('',(#803));
#219=EDGE_LOOP('',(#804,#805,#806,#807));
#220=EDGE_LOOP('',(#808,#809,#810,#811));
#221=EDGE_LOOP('',(#812));
#222=EDGE_LOOP('',(#813));
#223=EDGE_LOOP('',(#814));
#224=EDGE_LOOP('',(#815));
#225=EDGE_LOOP('',(#816));
#226=EDGE_LOOP('',(#817));
#227=EDGE_LOOP('',(#818,#819,#820,#821));
#228=EDGE_LOOP('',(#822,#823,#824,#825,#826,#827,#828,#829));
#229=EDGE_LOOP('',(#830));
#230=EDGE_LOOP('',(#831));
#231=EDGE_LOOP('',(#832,#833,#834,#835));
#232=EDGE_LOOP('',(#836,#837,#838,#839,#840,#841,#842,#843,#844));
#233=EDGE_LOOP('',(#845));
#234=EDGE_LOOP('',(#846));
#235=EDGE_LOOP('',(#847));
#236=EDGE_LOOP('',(#848));
#237=EDGE_LOOP('',(#849,#850,#851,#852));
#238=EDGE_LOOP('',(#853,#854,#855,#856,#857,#858,#859,#860));
#239=EDGE_LOOP('',(#861,#862,#863,#864));
#240=EDGE_LOOP('',(#865,#866,#867,#868));
#241=EDGE_LOOP('',(#869,#870,#871,#872));
#242=EDGE_LOOP('',(#873,#874,#875,#876));
#243=EDGE_LOOP('',(#877,#878,#879,#880));
#244=EDGE_LOOP('',(#881,#882,#883,#884));
#245=EDGE_LOOP('',(#885,#886,#887,#888));
#246=EDGE_LOOP('',(#889,#890,#891,#892));
#247=EDGE_LOOP('',(#893,#894,#895,#896));
#248=LINE('',#1394,#317);
#249=LINE('',#1403,#318);
#250=LINE('',#1405,#319);
#251=LINE('',#1410,#320);
#252=LINE('',#1419,#321);
#253=LINE('',#1421,#322);
#254=LINE('',#1430,#323);
#255=LINE('',#1433,#324);
#256=LINE('',#1443,#325);
#257=LINE('',#1446,#326);
#258=LINE('',#1456,#327);
#259=LINE('',#1459,#328);
#260=LINE('',#1469,#329);
#261=LINE('',#1472,#330);
#262=LINE('',#1482,#331);
#263=LINE('',#1485,#332);
#264=LINE('',#1495,#333);
#265=LINE('',#1498,#334);
#266=LINE('',#1511,#335);
#267=LINE('',#1512,#336);
#268=LINE('',#1524,#337);
#269=LINE('',#1525,#338);
#270=LINE('',#1537,#339);
#271=LINE('',#1538,#340);
#272=LINE('',#1540,#341);
#273=LINE('',#1541,#342);
#274=LINE('',#1553,#343);
#275=LINE('',#1554,#344);
#276=LINE('',#1556,#345);
#277=LINE('',#1557,#346);
#278=LINE('',#1559,#347);
#279=LINE('',#1560,#348);
#280=LINE('',#1562,#349);
#281=LINE('',#1563,#350);
#282=LINE('',#1565,#351);
#283=LINE('',#1567,#352);
#284=LINE('',#1571,#353);
#285=LINE('',#1573,#354);
#286=LINE('',#1575,#355);
#287=LINE('',#1577,#356);
#288=LINE('',#1578,#357);
#289=LINE('',#1590,#358);
#290=LINE('',#1592,#359);
#291=LINE('',#1594,#360);
#292=LINE('',#1595,#361);
#293=LINE('',#1598,#362);
#294=LINE('',#1600,#363);
#295=LINE('',#1601,#364);
#296=LINE('',#1604,#365);
#297=LINE('',#1606,#366);
#298=LINE('',#1607,#367);
#299=LINE('',#1609,#368);
#300=LINE('',#1610,#369);
#301=LINE('',#1611,#370);
#302=LINE('',#1614,#371);
#303=LINE('',#1616,#372);
#304=LINE('',#1618,#373);
#305=LINE('',#1620,#374);
#306=LINE('',#1622,#375);
#307=LINE('',#1623,#376);
#308=LINE('',#1634,#377);
#309=LINE('',#1635,#378);
#310=LINE('',#1637,#379);
#311=LINE('',#1639,#380);
#312=LINE('',#1641,#381);
#313=LINE('',#1644,#382);
#314=LINE('',#1646,#383);
#315=LINE('',#1648,#384);
#316=LINE('',#1650,#385);
#317=VECTOR('',#1098,0.5);
#318=VECTOR('',#1109,1.95);
#319=VECTOR('',#1112,1.);
#320=VECTOR('',#1117,0.5);
#321=VECTOR('',#1128,1.95);
#322=VECTOR('',#1131,1.);
#323=VECTOR('',#1142,1.95);
#324=VECTOR('',#1145,1.);
#325=VECTOR('',#1158,1.95);
#326=VECTOR('',#1161,1.);
#327=VECTOR('',#1174,1.95);
#328=VECTOR('',#1177,1.);
#329=VECTOR('',#1190,1.95);
#330=VECTOR('',#1193,1.);
#331=VECTOR('',#1206,1.95);
#332=VECTOR('',#1209,1.);
#333=VECTOR('',#1222,1.95);
#334=VECTOR('',#1225,1.);
#335=VECTOR('',#1240,10.);
#336=VECTOR('',#1241,10.);
#337=VECTOR('',#1254,10.);
#338=VECTOR('',#1255,10.);
#339=VECTOR('',#1268,10.);
#340=VECTOR('',#1269,10.);
#341=VECTOR('',#1272,10.);
#342=VECTOR('',#1273,10.);
#343=VECTOR('',#1286,10.);
#344=VECTOR('',#1287,10.);
#345=VECTOR('',#1290,10.);
#346=VECTOR('',#1291,10.);
#347=VECTOR('',#1294,10.);
#348=VECTOR('',#1295,10.);
#349=VECTOR('',#1298,10.);
#350=VECTOR('',#1299,10.);
#351=VECTOR('',#1302,10.);
#352=VECTOR('',#1305,10.);
#353=VECTOR('',#1308,10.);
#354=VECTOR('',#1309,10.);
#355=VECTOR('',#1310,10.);
#356=VECTOR('',#1311,10.);
#357=VECTOR('',#1312,10.);
#358=VECTOR('',#1323,10.);
#359=VECTOR('',#1324,10.);
#360=VECTOR('',#1325,10.);
#361=VECTOR('',#1326,10.);
#362=VECTOR('',#1329,10.);
#363=VECTOR('',#1330,10.);
#364=VECTOR('',#1331,10.);
#365=VECTOR('',#1334,10.);
#366=VECTOR('',#1335,10.);
#367=VECTOR('',#1336,10.);
#368=VECTOR('',#1339,10.);
#369=VECTOR('',#1340,10.);
#370=VECTOR('',#1341,10.);
#371=VECTOR('',#1344,10.);
#372=VECTOR('',#1345,10.);
#373=VECTOR('',#1346,10.);
#374=VECTOR('',#1347,10.);
#375=VECTOR('',#1348,10.);
#376=VECTOR('',#1349,10.);
#377=VECTOR('',#1362,10.);
#378=VECTOR('',#1363,10.);
#379=VECTOR('',#1366,10.);
#380=VECTOR('',#1369,10.);
#381=VECTOR('',#1372,10.);
#382=VECTOR('',#1377,1.);
#383=VECTOR('',#1380,1.);
#384=VECTOR('',#1383,1.);
#385=VECTOR('',#1386,1.);
#386=CIRCLE('',#980,1.);
#387=CIRCLE('',#982,1.95);
#388=CIRCLE('',#983,1.);
#389=CIRCLE('',#985,1.95);
#390=CIRCLE('',#988,1.);
#391=CIRCLE('',#990,1.95);
#392=CIRCLE('',#991,1.);
#393=CIRCLE('',#993,1.95);
#394=CIRCLE('',#996,1.95);
#395=CIRCLE('',#997,1.);
#396=CIRCLE('',#999,1.95);
#397=CIRCLE('',#1001,0.999999999999999);
#398=CIRCLE('',#1003,1.95);
#399=CIRCLE('',#1004,1.);
#400=CIRCLE('',#1006,1.95);
#401=CIRCLE('',#1008,0.999999999999999);
#402=CIRCLE('',#1010,1.95);
#403=CIRCLE('',#1011,1.);
#404=CIRCLE('',#1013,1.95);
#405=CIRCLE('',#1015,0.999999999999999);
#406=CIRCLE('',#1017,1.95);
#407=CIRCLE('',#1018,1.);
#408=CIRCLE('',#1020,1.95);
#409=CIRCLE('',#1022,0.999999999999999);
#410=CIRCLE('',#1024,1.95);
#411=CIRCLE('',#1025,1.);
#412=CIRCLE('',#1027,1.95);
#413=CIRCLE('',#1029,0.999999999999999);
#414=CIRCLE('',#1031,1.95);
#415=CIRCLE('',#1032,1.);
#416=CIRCLE('',#1034,1.95);
#417=CIRCLE('',#1036,0.999999999999999);
#418=CIRCLE('',#1038,3.);
#419=CIRCLE('',#1039,3.);
#420=CIRCLE('',#1040,3.);
#421=CIRCLE('',#1042,3.);
#422=CIRCLE('',#1044,3.);
#423=CIRCLE('',#1045,3.);
#424=CIRCLE('',#1046,3.);
#425=CIRCLE('',#1048,3.);
#426=CIRCLE('',#1050,3.);
#427=CIRCLE('',#1051,3.);
#428=CIRCLE('',#1052,3.);
#429=CIRCLE('',#1054,3.);
#430=CIRCLE('',#1057,3.);
#431=CIRCLE('',#1058,3.);
#432=CIRCLE('',#1059,3.);
#433=CIRCLE('',#1061,3.);
#434=CIRCLE('',#1068,1.);
#435=CIRCLE('',#1069,1.);
#436=CIRCLE('',#1070,1.);
#437=CIRCLE('',#1071,1.);
#438=CIRCLE('',#1077,1.);
#439=CIRCLE('',#1078,1.);
#440=CIRCLE('',#1079,1.);
#441=CIRCLE('',#1080,1.);
#442=VERTEX_POINT('',#1391);
#443=VERTEX_POINT('',#1393);
#444=VERTEX_POINT('',#1396);
#445=VERTEX_POINT('',#1398);
#446=VERTEX_POINT('',#1401);
#447=VERTEX_POINT('',#1407);
#448=VERTEX_POINT('',#1409);
#449=VERTEX_POINT('',#1412);
#450=VERTEX_POINT('',#1414);
#451=VERTEX_POINT('',#1417);
#452=VERTEX_POINT('',#1423);
#453=VERTEX_POINT('',#1425);
#454=VERTEX_POINT('',#1428);
#455=VERTEX_POINT('',#1432);
#456=VERTEX_POINT('',#1436);
#457=VERTEX_POINT('',#1438);
#458=VERTEX_POINT('',#1441);
#459=VERTEX_POINT('',#1445);
#460=VERTEX_POINT('',#1449);
#461=VERTEX_POINT('',#1451);
#462=VERTEX_POINT('',#1454);
#463=VERTEX_POINT('',#1458);
#464=VERTEX_POINT('',#1462);
#465=VERTEX_POINT('',#1464);
#466=VERTEX_POINT('',#1467);
#467=VERTEX_POINT('',#1471);
#468=VERTEX_POINT('',#1475);
#469=VERTEX_POINT('',#1477);
#470=VERTEX_POINT('',#1480);
#471=VERTEX_POINT('',#1484);
#472=VERTEX_POINT('',#1488);
#473=VERTEX_POINT('',#1490);
#474=VERTEX_POINT('',#1493);
#475=VERTEX_POINT('',#1497);
#476=VERTEX_POINT('',#1501);
#477=VERTEX_POINT('',#1502);
#478=VERTEX_POINT('',#1504);
#479=VERTEX_POINT('',#1508);
#480=VERTEX_POINT('',#1509);
#481=VERTEX_POINT('',#1514);
#482=VERTEX_POINT('',#1515);
#483=VERTEX_POINT('',#1517);
#484=VERTEX_POINT('',#1521);
#485=VERTEX_POINT('',#1522);
#486=VERTEX_POINT('',#1527);
#487=VERTEX_POINT('',#1528);
#488=VERTEX_POINT('',#1530);
#489=VERTEX_POINT('',#1534);
#490=VERTEX_POINT('',#1535);
#491=VERTEX_POINT('',#1543);
#492=VERTEX_POINT('',#1544);
#493=VERTEX_POINT('',#1546);
#494=VERTEX_POINT('',#1550);
#495=VERTEX_POINT('',#1551);
#496=VERTEX_POINT('',#1569);
#497=VERTEX_POINT('',#1570);
#498=VERTEX_POINT('',#1572);
#499=VERTEX_POINT('',#1574);
#500=VERTEX_POINT('',#1576);
#501=VERTEX_POINT('',#1579);
#502=VERTEX_POINT('',#1581);
#503=VERTEX_POINT('',#1583);
#504=VERTEX_POINT('',#1585);
#505=VERTEX_POINT('',#1588);
#506=VERTEX_POINT('',#1589);
#507=VERTEX_POINT('',#1591);
#508=VERTEX_POINT('',#1593);
#509=VERTEX_POINT('',#1597);
#510=VERTEX_POINT('',#1599);
#511=VERTEX_POINT('',#1603);
#512=VERTEX_POINT('',#1605);
#513=VERTEX_POINT('',#1613);
#514=VERTEX_POINT('',#1615);
#515=VERTEX_POINT('',#1617);
#516=VERTEX_POINT('',#1619);
#517=VERTEX_POINT('',#1621);
#518=VERTEX_POINT('',#1624);
#519=VERTEX_POINT('',#1626);
#520=VERTEX_POINT('',#1628);
#521=VERTEX_POINT('',#1630);
#522=EDGE_CURVE('',#442,#442,#386,.T.);
#523=EDGE_CURVE('',#442,#443,#248,.T.);
#524=EDGE_CURVE('',#444,#444,#387,.T.);
#525=EDGE_CURVE('',#445,#445,#388,.T.);
#526=EDGE_CURVE('',#446,#446,#389,.T.);
#527=EDGE_CURVE('',#446,#444,#249,.T.);
#528=EDGE_CURVE('',#445,#442,#250,.T.);
#529=EDGE_CURVE('',#447,#447,#390,.T.);
#530=EDGE_CURVE('',#447,#448,#251,.T.);
#531=EDGE_CURVE('',#449,#449,#391,.T.);
#532=EDGE_CURVE('',#450,#450,#392,.T.);
#533=EDGE_CURVE('',#451,#451,#393,.T.);
#534=EDGE_CURVE('',#451,#449,#252,.T.);
#535=EDGE_CURVE('',#450,#447,#253,.T.);
#536=EDGE_CURVE('',#452,#452,#394,.T.);
#537=EDGE_CURVE('',#453,#453,#395,.T.);
#538=EDGE_CURVE('',#454,#454,#396,.T.);
#539=EDGE_CURVE('',#454,#452,#254,.T.);
#540=EDGE_CURVE('',#453,#455,#255,.T.);
#541=EDGE_CURVE('',#455,#455,#397,.T.);
#542=EDGE_CURVE('',#456,#456,#398,.T.);
#543=EDGE_CURVE('',#457,#457,#399,.T.);
#544=EDGE_CURVE('',#458,#458,#400,.T.);
#545=EDGE_CURVE('',#458,#456,#256,.T.);
#546=EDGE_CURVE('',#457,#459,#257,.T.);
#547=EDGE_CURVE('',#459,#459,#401,.T.);
#548=EDGE_CURVE('',#460,#460,#402,.T.);
#549=EDGE_CURVE('',#461,#461,#403,.T.);
#550=EDGE_CURVE('',#462,#462,#404,.T.);
#551=EDGE_CURVE('',#462,#460,#258,.T.);
#552=EDGE_CURVE('',#461,#463,#259,.T.);
#553=EDGE_CURVE('',#463,#463,#405,.T.);
#554=EDGE_CURVE('',#464,#464,#406,.T.);
#555=EDGE_CURVE('',#465,#465,#407,.T.);
#556=EDGE_CURVE('',#466,#466,#408,.T.);
#557=EDGE_CURVE('',#466,#464,#260,.T.);
#558=EDGE_CURVE('',#465,#467,#261,.T.);
#559=EDGE_CURVE('',#467,#467,#409,.T.);
#560=EDGE_CURVE('',#468,#468,#410,.T.);
#561=EDGE_CURVE('',#469,#469,#411,.T.);
#562=EDGE_CURVE('',#470,#470,#412,.T.);
#563=EDGE_CURVE('',#470,#468,#262,.T.);
#564=EDGE_CURVE('',#469,#471,#263,.T.);
#565=EDGE_CURVE('',#471,#471,#413,.T.);
#566=EDGE_CURVE('',#472,#472,#414,.T.);
#567=EDGE_CURVE('',#473,#473,#415,.T.);
#568=EDGE_CURVE('',#474,#474,#416,.T.);
#569=EDGE_CURVE('',#474,#472,#264,.T.);
#570=EDGE_CURVE('',#473,#475,#265,.T.);
#571=EDGE_CURVE('',#475,#475,#417,.T.);
#572=EDGE_CURVE('',#476,#477,#418,.F.);
#573=EDGE_CURVE('',#478,#476,#419,.F.);
#574=EDGE_CURVE('',#477,#478,#420,.F.);
#575=EDGE_CURVE('',#479,#480,#421,.T.);
#576=EDGE_CURVE('',#480,#478,#266,.T.);
#577=EDGE_CURVE('',#476,#479,#267,.T.);
#578=EDGE_CURVE('',#481,#482,#422,.F.);
#579=EDGE_CURVE('',#483,#481,#423,.F.);
#580=EDGE_CURVE('',#482,#483,#424,.F.);
#581=EDGE_CURVE('',#484,#485,#425,.T.);
#582=EDGE_CURVE('',#485,#483,#268,.T.);
#583=EDGE_CURVE('',#481,#484,#269,.T.);
#584=EDGE_CURVE('',#486,#487,#426,.F.);
#585=EDGE_CURVE('',#488,#486,#427,.F.);
#586=EDGE_CURVE('',#487,#488,#428,.F.);
#587=EDGE_CURVE('',#489,#490,#429,.T.);
#588=EDGE_CURVE('',#490,#488,#270,.T.);
#589=EDGE_CURVE('',#486,#489,#271,.T.);
#590=EDGE_CURVE('',#477,#487,#272,.T.);
#591=EDGE_CURVE('',#488,#476,#273,.T.);
#592=EDGE_CURVE('',#491,#492,#430,.F.);
#593=EDGE_CURVE('',#493,#491,#431,.F.);
#594=EDGE_CURVE('',#492,#493,#432,.F.);
#595=EDGE_CURVE('',#494,#495,#433,.T.);
#596=EDGE_CURVE('',#495,#493,#274,.T.);
#597=EDGE_CURVE('',#491,#494,#275,.T.);
#598=EDGE_CURVE('',#487,#492,#276,.T.);
#599=EDGE_CURVE('',#493,#486,#277,.T.);
#600=EDGE_CURVE('',#492,#482,#278,.T.);
#601=EDGE_CURVE('',#483,#491,#279,.T.);
#602=EDGE_CURVE('',#482,#477,#280,.T.);
#603=EDGE_CURVE('',#478,#481,#281,.T.);
#604=EDGE_CURVE('',#479,#490,#282,.T.);
#605=EDGE_CURVE('',#489,#495,#283,.T.);
#606=EDGE_CURVE('',#496,#497,#284,.T.);
#607=EDGE_CURVE('',#497,#498,#285,.T.);
#608=EDGE_CURVE('',#498,#499,#286,.T.);
#609=EDGE_CURVE('',#499,#500,#287,.T.);
#610=EDGE_CURVE('',#500,#496,#288,.T.);
#611=EDGE_CURVE('',#501,#501,#434,.T.);
#612=EDGE_CURVE('',#502,#502,#435,.T.);
#613=EDGE_CURVE('',#503,#503,#436,.T.);
#614=EDGE_CURVE('',#504,#504,#437,.T.);
#615=EDGE_CURVE('',#505,#506,#289,.T.);
#616=EDGE_CURVE('',#505,#507,#290,.T.);
#617=EDGE_CURVE('',#508,#507,#291,.T.);
#618=EDGE_CURVE('',#506,#508,#292,.T.);
#619=EDGE_CURVE('',#506,#509,#293,.T.);
#620=EDGE_CURVE('',#510,#508,#294,.T.);
#621=EDGE_CURVE('',#509,#510,#295,.T.);
#622=EDGE_CURVE('',#509,#511,#296,.T.);
#623=EDGE_CURVE('',#512,#510,#297,.T.);
#624=EDGE_CURVE('',#511,#512,#298,.T.);
#625=EDGE_CURVE('',#494,#485,#299,.T.);
#626=EDGE_CURVE('',#484,#480,#300,.T.);
#627=EDGE_CURVE('',#507,#512,#301,.T.);
#628=EDGE_CURVE('',#513,#505,#302,.T.);
#629=EDGE_CURVE('',#511,#514,#303,.T.);
#630=EDGE_CURVE('',#514,#515,#304,.T.);
#631=EDGE_CURVE('',#515,#516,#305,.T.);
#632=EDGE_CURVE('',#516,#517,#306,.T.);
#633=EDGE_CURVE('',#517,#513,#307,.T.);
#634=EDGE_CURVE('',#518,#518,#438,.T.);
#635=EDGE_CURVE('',#519,#519,#439,.T.);
#636=EDGE_CURVE('',#520,#520,#440,.T.);
#637=EDGE_CURVE('',#521,#521,#441,.T.);
#638=EDGE_CURVE('',#498,#513,#308,.T.);
#639=EDGE_CURVE('',#514,#497,#309,.T.);
#640=EDGE_CURVE('',#499,#517,#310,.T.);
#641=EDGE_CURVE('',#500,#516,#311,.T.);
#642=EDGE_CURVE('',#496,#515,#312,.T.);
#643=EDGE_CURVE('',#518,#501,#313,.T.);
#644=EDGE_CURVE('',#519,#502,#314,.T.);
#645=EDGE_CURVE('',#520,#503,#315,.T.);
#646=EDGE_CURVE('',#521,#504,#316,.T.);
#647=ORIENTED_EDGE('',*,*,#522,.T.);
#648=ORIENTED_EDGE('',*,*,#523,.T.);
#649=ORIENTED_EDGE('',*,*,#523,.F.);
#650=ORIENTED_EDGE('',*,*,#524,.T.);
#651=ORIENTED_EDGE('',*,*,#525,.F.);
#652=ORIENTED_EDGE('',*,*,#526,.F.);
#653=ORIENTED_EDGE('',*,*,#527,.T.);
#654=ORIENTED_EDGE('',*,*,#524,.F.);
#655=ORIENTED_EDGE('',*,*,#527,.F.);
#656=ORIENTED_EDGE('',*,*,#525,.T.);
#657=ORIENTED_EDGE('',*,*,#528,.T.);
#658=ORIENTED_EDGE('',*,*,#522,.F.);
#659=ORIENTED_EDGE('',*,*,#528,.F.);
#660=ORIENTED_EDGE('',*,*,#529,.T.);
#661=ORIENTED_EDGE('',*,*,#530,.T.);
#662=ORIENTED_EDGE('',*,*,#530,.F.);
#663=ORIENTED_EDGE('',*,*,#531,.T.);
#664=ORIENTED_EDGE('',*,*,#532,.F.);
#665=ORIENTED_EDGE('',*,*,#533,.F.);
#666=ORIENTED_EDGE('',*,*,#534,.T.);
#667=ORIENTED_EDGE('',*,*,#531,.F.);
#668=ORIENTED_EDGE('',*,*,#534,.F.);
#669=ORIENTED_EDGE('',*,*,#532,.T.);
#670=ORIENTED_EDGE('',*,*,#535,.T.);
#671=ORIENTED_EDGE('',*,*,#529,.F.);
#672=ORIENTED_EDGE('',*,*,#535,.F.);
#673=ORIENTED_EDGE('',*,*,#536,.T.);
#674=ORIENTED_EDGE('',*,*,#537,.F.);
#675=ORIENTED_EDGE('',*,*,#538,.F.);
#676=ORIENTED_EDGE('',*,*,#539,.T.);
#677=ORIENTED_EDGE('',*,*,#536,.F.);
#678=ORIENTED_EDGE('',*,*,#539,.F.);
#679=ORIENTED_EDGE('',*,*,#537,.T.);
#680=ORIENTED_EDGE('',*,*,#540,.T.);
#681=ORIENTED_EDGE('',*,*,#541,.F.);
#682=ORIENTED_EDGE('',*,*,#540,.F.);
#683=ORIENTED_EDGE('',*,*,#542,.T.);
#684=ORIENTED_EDGE('',*,*,#543,.F.);
#685=ORIENTED_EDGE('',*,*,#544,.F.);
#686=ORIENTED_EDGE('',*,*,#545,.T.);
#687=ORIENTED_EDGE('',*,*,#542,.F.);
#688=ORIENTED_EDGE('',*,*,#545,.F.);
#689=ORIENTED_EDGE('',*,*,#543,.T.);
#690=ORIENTED_EDGE('',*,*,#546,.T.);
#691=ORIENTED_EDGE('',*,*,#547,.F.);
#692=ORIENTED_EDGE('',*,*,#546,.F.);
#693=ORIENTED_EDGE('',*,*,#548,.T.);
#694=ORIENTED_EDGE('',*,*,#549,.F.);
#695=ORIENTED_EDGE('',*,*,#550,.F.);
#696=ORIENTED_EDGE('',*,*,#551,.T.);
#697=ORIENTED_EDGE('',*,*,#548,.F.);
#698=ORIENTED_EDGE('',*,*,#551,.F.);
#699=ORIENTED_EDGE('',*,*,#549,.T.);
#700=ORIENTED_EDGE('',*,*,#552,.T.);
#701=ORIENTED_EDGE('',*,*,#553,.F.);
#702=ORIENTED_EDGE('',*,*,#552,.F.);
#703=ORIENTED_EDGE('',*,*,#554,.T.);
#704=ORIENTED_EDGE('',*,*,#555,.F.);
#705=ORIENTED_EDGE('',*,*,#556,.F.);
#706=ORIENTED_EDGE('',*,*,#557,.T.);
#707=ORIENTED_EDGE('',*,*,#554,.F.);
#708=ORIENTED_EDGE('',*,*,#557,.F.);
#709=ORIENTED_EDGE('',*,*,#555,.T.);
#710=ORIENTED_EDGE('',*,*,#558,.T.);
#711=ORIENTED_EDGE('',*,*,#559,.F.);
#712=ORIENTED_EDGE('',*,*,#558,.F.);
#713=ORIENTED_EDGE('',*,*,#560,.T.);
#714=ORIENTED_EDGE('',*,*,#561,.F.);
#715=ORIENTED_EDGE('',*,*,#562,.F.);
#716=ORIENTED_EDGE('',*,*,#563,.T.);
#717=ORIENTED_EDGE('',*,*,#560,.F.);
#718=ORIENTED_EDGE('',*,*,#563,.F.);
#719=ORIENTED_EDGE('',*,*,#561,.T.);
#720=ORIENTED_EDGE('',*,*,#564,.T.);
#721=ORIENTED_EDGE('',*,*,#565,.F.);
#722=ORIENTED_EDGE('',*,*,#564,.F.);
#723=ORIENTED_EDGE('',*,*,#566,.T.);
#724=ORIENTED_EDGE('',*,*,#567,.F.);
#725=ORIENTED_EDGE('',*,*,#568,.F.);
#726=ORIENTED_EDGE('',*,*,#569,.T.);
#727=ORIENTED_EDGE('',*,*,#566,.F.);
#728=ORIENTED_EDGE('',*,*,#569,.F.);
#729=ORIENTED_EDGE('',*,*,#567,.T.);
#730=ORIENTED_EDGE('',*,*,#570,.T.);
#731=ORIENTED_EDGE('',*,*,#571,.F.);
#732=ORIENTED_EDGE('',*,*,#570,.F.);
#733=ORIENTED_EDGE('',*,*,#572,.F.);
#734=ORIENTED_EDGE('',*,*,#573,.F.);
#735=ORIENTED_EDGE('',*,*,#574,.F.);
#736=ORIENTED_EDGE('',*,*,#575,.T.);
#737=ORIENTED_EDGE('',*,*,#576,.T.);
#738=ORIENTED_EDGE('',*,*,#573,.T.);
#739=ORIENTED_EDGE('',*,*,#577,.T.);
#740=ORIENTED_EDGE('',*,*,#578,.F.);
#741=ORIENTED_EDGE('',*,*,#579,.F.);
#742=ORIENTED_EDGE('',*,*,#580,.F.);
#743=ORIENTED_EDGE('',*,*,#581,.T.);
#744=ORIENTED_EDGE('',*,*,#582,.T.);
#745=ORIENTED_EDGE('',*,*,#579,.T.);
#746=ORIENTED_EDGE('',*,*,#583,.T.);
#747=ORIENTED_EDGE('',*,*,#584,.F.);
#748=ORIENTED_EDGE('',*,*,#585,.F.);
#749=ORIENTED_EDGE('',*,*,#586,.F.);
#750=ORIENTED_EDGE('',*,*,#587,.T.);
#751=ORIENTED_EDGE('',*,*,#588,.T.);
#752=ORIENTED_EDGE('',*,*,#585,.T.);
#753=ORIENTED_EDGE('',*,*,#589,.T.);
#754=ORIENTED_EDGE('',*,*,#572,.T.);
#755=ORIENTED_EDGE('',*,*,#590,.T.);
#756=ORIENTED_EDGE('',*,*,#586,.T.);
#757=ORIENTED_EDGE('',*,*,#591,.T.);
#758=ORIENTED_EDGE('',*,*,#592,.F.);
#759=ORIENTED_EDGE('',*,*,#593,.F.);
#760=ORIENTED_EDGE('',*,*,#594,.F.);
#761=ORIENTED_EDGE('',*,*,#595,.T.);
#762=ORIENTED_EDGE('',*,*,#596,.T.);
#763=ORIENTED_EDGE('',*,*,#593,.T.);
#764=ORIENTED_EDGE('',*,*,#597,.T.);
#765=ORIENTED_EDGE('',*,*,#584,.T.);
#766=ORIENTED_EDGE('',*,*,#598,.T.);
#767=ORIENTED_EDGE('',*,*,#594,.T.);
#768=ORIENTED_EDGE('',*,*,#599,.T.);
#769=ORIENTED_EDGE('',*,*,#592,.T.);
#770=ORIENTED_EDGE('',*,*,#600,.T.);
#771=ORIENTED_EDGE('',*,*,#580,.T.);
#772=ORIENTED_EDGE('',*,*,#601,.T.);
#773=ORIENTED_EDGE('',*,*,#578,.T.);
#774=ORIENTED_EDGE('',*,*,#602,.T.);
#775=ORIENTED_EDGE('',*,*,#574,.T.);
#776=ORIENTED_EDGE('',*,*,#603,.T.);
#777=ORIENTED_EDGE('',*,*,#577,.F.);
#778=ORIENTED_EDGE('',*,*,#591,.F.);
#779=ORIENTED_EDGE('',*,*,#588,.F.);
#780=ORIENTED_EDGE('',*,*,#604,.F.);
#781=ORIENTED_EDGE('',*,*,#538,.T.);
#782=ORIENTED_EDGE('',*,*,#544,.T.);
#783=ORIENTED_EDGE('',*,*,#550,.T.);
#784=ORIENTED_EDGE('',*,*,#556,.T.);
#785=ORIENTED_EDGE('',*,*,#562,.T.);
#786=ORIENTED_EDGE('',*,*,#568,.T.);
#787=ORIENTED_EDGE('',*,*,#589,.F.);
#788=ORIENTED_EDGE('',*,*,#599,.F.);
#789=ORIENTED_EDGE('',*,*,#596,.F.);
#790=ORIENTED_EDGE('',*,*,#605,.F.);
#791=ORIENTED_EDGE('',*,*,#590,.F.);
#792=ORIENTED_EDGE('',*,*,#602,.F.);
#793=ORIENTED_EDGE('',*,*,#600,.F.);
#794=ORIENTED_EDGE('',*,*,#598,.F.);
#795=ORIENTED_EDGE('',*,*,#606,.T.);
#796=ORIENTED_EDGE('',*,*,#607,.T.);
#797=ORIENTED_EDGE('',*,*,#608,.T.);
#798=ORIENTED_EDGE('',*,*,#609,.T.);
#799=ORIENTED_EDGE('',*,*,#610,.T.);
#800=ORIENTED_EDGE('',*,*,#611,.T.);
#801=ORIENTED_EDGE('',*,*,#612,.T.);
#802=ORIENTED_EDGE('',*,*,#613,.T.);
#803=ORIENTED_EDGE('',*,*,#614,.T.);
#804=ORIENTED_EDGE('',*,*,#615,.F.);
#805=ORIENTED_EDGE('',*,*,#616,.T.);
#806=ORIENTED_EDGE('',*,*,#617,.F.);
#807=ORIENTED_EDGE('',*,*,#618,.F.);
#808=ORIENTED_EDGE('',*,*,#619,.F.);
#809=ORIENTED_EDGE('',*,*,#618,.T.);
#810=ORIENTED_EDGE('',*,*,#620,.F.);
#811=ORIENTED_EDGE('',*,*,#621,.F.);
#812=ORIENTED_EDGE('',*,*,#541,.T.);
#813=ORIENTED_EDGE('',*,*,#547,.T.);
#814=ORIENTED_EDGE('',*,*,#553,.T.);
#815=ORIENTED_EDGE('',*,*,#559,.T.);
#816=ORIENTED_EDGE('',*,*,#565,.T.);
#817=ORIENTED_EDGE('',*,*,#571,.T.);
#818=ORIENTED_EDGE('',*,*,#622,.F.);
#819=ORIENTED_EDGE('',*,*,#621,.T.);
#820=ORIENTED_EDGE('',*,*,#623,.F.);
#821=ORIENTED_EDGE('',*,*,#624,.F.);
#822=ORIENTED_EDGE('',*,*,#575,.F.);
#823=ORIENTED_EDGE('',*,*,#604,.T.);
#824=ORIENTED_EDGE('',*,*,#587,.F.);
#825=ORIENTED_EDGE('',*,*,#605,.T.);
#826=ORIENTED_EDGE('',*,*,#595,.F.);
#827=ORIENTED_EDGE('',*,*,#625,.T.);
#828=ORIENTED_EDGE('',*,*,#581,.F.);
#829=ORIENTED_EDGE('',*,*,#626,.T.);
#830=ORIENTED_EDGE('',*,*,#526,.T.);
#831=ORIENTED_EDGE('',*,*,#533,.T.);
#832=ORIENTED_EDGE('',*,*,#617,.T.);
#833=ORIENTED_EDGE('',*,*,#627,.T.);
#834=ORIENTED_EDGE('',*,*,#623,.T.);
#835=ORIENTED_EDGE('',*,*,#620,.T.);
#836=ORIENTED_EDGE('',*,*,#628,.T.);
#837=ORIENTED_EDGE('',*,*,#615,.T.);
#838=ORIENTED_EDGE('',*,*,#619,.T.);
#839=ORIENTED_EDGE('',*,*,#622,.T.);
#840=ORIENTED_EDGE('',*,*,#629,.T.);
#841=ORIENTED_EDGE('',*,*,#630,.T.);
#842=ORIENTED_EDGE('',*,*,#631,.T.);
#843=ORIENTED_EDGE('',*,*,#632,.T.);
#844=ORIENTED_EDGE('',*,*,#633,.T.);
#845=ORIENTED_EDGE('',*,*,#634,.T.);
#846=ORIENTED_EDGE('',*,*,#635,.T.);
#847=ORIENTED_EDGE('',*,*,#636,.T.);
#848=ORIENTED_EDGE('',*,*,#637,.T.);
#849=ORIENTED_EDGE('',*,*,#582,.F.);
#850=ORIENTED_EDGE('',*,*,#625,.F.);
#851=ORIENTED_EDGE('',*,*,#597,.F.);
#852=ORIENTED_EDGE('',*,*,#601,.F.);
#853=ORIENTED_EDGE('',*,*,#638,.F.);
#854=ORIENTED_EDGE('',*,*,#607,.F.);
#855=ORIENTED_EDGE('',*,*,#639,.F.);
#856=ORIENTED_EDGE('',*,*,#629,.F.);
#857=ORIENTED_EDGE('',*,*,#624,.T.);
#858=ORIENTED_EDGE('',*,*,#627,.F.);
#859=ORIENTED_EDGE('',*,*,#616,.F.);
#860=ORIENTED_EDGE('',*,*,#628,.F.);
#861=ORIENTED_EDGE('',*,*,#638,.T.);
#862=ORIENTED_EDGE('',*,*,#633,.F.);
#863=ORIENTED_EDGE('',*,*,#640,.F.);
#864=ORIENTED_EDGE('',*,*,#608,.F.);
#865=ORIENTED_EDGE('',*,*,#640,.T.);
#866=ORIENTED_EDGE('',*,*,#632,.F.);
#867=ORIENTED_EDGE('',*,*,#641,.F.);
#868=ORIENTED_EDGE('',*,*,#609,.F.);
#869=ORIENTED_EDGE('',*,*,#641,.T.);
#870=ORIENTED_EDGE('',*,*,#631,.F.);
#871=ORIENTED_EDGE('',*,*,#642,.F.);
#872=ORIENTED_EDGE('',*,*,#610,.F.);
#873=ORIENTED_EDGE('',*,*,#642,.T.);
#874=ORIENTED_EDGE('',*,*,#630,.F.);
#875=ORIENTED_EDGE('',*,*,#639,.T.);
#876=ORIENTED_EDGE('',*,*,#606,.F.);
#877=ORIENTED_EDGE('',*,*,#634,.F.);
#878=ORIENTED_EDGE('',*,*,#643,.T.);
#879=ORIENTED_EDGE('',*,*,#611,.F.);
#880=ORIENTED_EDGE('',*,*,#643,.F.);
#881=ORIENTED_EDGE('',*,*,#635,.F.);
#882=ORIENTED_EDGE('',*,*,#644,.T.);
#883=ORIENTED_EDGE('',*,*,#612,.F.);
#884=ORIENTED_EDGE('',*,*,#644,.F.);
#885=ORIENTED_EDGE('',*,*,#636,.F.);
#886=ORIENTED_EDGE('',*,*,#645,.T.);
#887=ORIENTED_EDGE('',*,*,#613,.F.);
#888=ORIENTED_EDGE('',*,*,#645,.F.);
#889=ORIENTED_EDGE('',*,*,#637,.F.);
#890=ORIENTED_EDGE('',*,*,#646,.T.);
#891=ORIENTED_EDGE('',*,*,#614,.F.);
#892=ORIENTED_EDGE('',*,*,#646,.F.);
#893=ORIENTED_EDGE('',*,*,#576,.F.);
#894=ORIENTED_EDGE('',*,*,#626,.F.);
#895=ORIENTED_EDGE('',*,*,#583,.F.);
#896=ORIENTED_EDGE('',*,*,#603,.F.);
#897=CONICAL_SURFACE('',#979,0.5,1.02974425867665);
#898=CONICAL_SURFACE('',#987,0.5,1.02974425867665);
#899=ADVANCED_FACE('',(#102),#897,.F.);
#900=ADVANCED_FACE('',(#103,#47),#79,.T.);
#901=ADVANCED_FACE('',(#104),#19,.F.);
#902=ADVANCED_FACE('',(#105),#20,.F.);
#903=ADVANCED_FACE('',(#106),#898,.F.);
#904=ADVANCED_FACE('',(#107,#48),#80,.T.);
#905=ADVANCED_FACE('',(#108),#21,.F.);
#906=ADVANCED_FACE('',(#109),#22,.F.);
#907=ADVANCED_FACE('',(#110,#49),#81,.T.);
#908=ADVANCED_FACE('',(#111),#23,.F.);
#909=ADVANCED_FACE('',(#112),#24,.F.);
#910=ADVANCED_FACE('',(#113,#50),#82,.T.);
#911=ADVANCED_FACE('',(#114),#25,.F.);
#912=ADVANCED_FACE('',(#115),#26,.F.);
#913=ADVANCED_FACE('',(#116,#51),#83,.T.);
#914=ADVANCED_FACE('',(#117),#27,.F.);
#915=ADVANCED_FACE('',(#118),#28,.F.);
#916=ADVANCED_FACE('',(#119,#52),#84,.T.);
#917=ADVANCED_FACE('',(#120),#29,.F.);
#918=ADVANCED_FACE('',(#121),#30,.F.);
#919=ADVANCED_FACE('',(#122,#53),#85,.T.);
#920=ADVANCED_FACE('',(#123),#31,.F.);
#921=ADVANCED_FACE('',(#124),#32,.F.);
#922=ADVANCED_FACE('',(#125,#54),#86,.T.);
#923=ADVANCED_FACE('',(#126),#33,.F.);
#924=ADVANCED_FACE('',(#127),#34,.F.);
#925=ADVANCED_FACE('',(#128),#15,.T.);
#926=ADVANCED_FACE('',(#129),#35,.T.);
#927=ADVANCED_FACE('',(#130),#16,.T.);
#928=ADVANCED_FACE('',(#131),#36,.T.);
#929=ADVANCED_FACE('',(#132),#17,.T.);
#930=ADVANCED_FACE('',(#133),#37,.T.);
#931=ADVANCED_FACE('',(#134),#38,.T.);
#932=ADVANCED_FACE('',(#135),#18,.T.);
#933=ADVANCED_FACE('',(#136),#39,.T.);
#934=ADVANCED_FACE('',(#137),#40,.T.);
#935=ADVANCED_FACE('',(#138),#41,.T.);
#936=ADVANCED_FACE('',(#139),#42,.T.);
#937=ADVANCED_FACE('',(#140,#55,#56,#57,#58,#59,#60),#87,.T.);
#938=ADVANCED_FACE('',(#141),#88,.T.);
#939=ADVANCED_FACE('',(#142,#61,#62,#63,#64,#65),#89,.F.);
#940=ADVANCED_FACE('',(#143),#90,.T.);
#941=ADVANCED_FACE('',(#144,#66,#67,#68,#69,#70,#71),#91,.T.);
#942=ADVANCED_FACE('',(#145),#92,.T.);
#943=ADVANCED_FACE('',(#146,#72,#73,#74),#93,.T.);
#944=ADVANCED_FACE('',(#147,#75,#76,#77,#78),#94,.T.);
#945=ADVANCED_FACE('',(#148),#95,.T.);
#946=ADVANCED_FACE('',(#149),#96,.T.);
#947=ADVANCED_FACE('',(#150),#97,.T.);
#948=ADVANCED_FACE('',(#151),#98,.T.);
#949=ADVANCED_FACE('',(#152),#99,.T.);
#950=ADVANCED_FACE('',(#153),#100,.T.);
#951=ADVANCED_FACE('',(#154),#43,.F.);
#952=ADVANCED_FACE('',(#155),#44,.F.);
#953=ADVANCED_FACE('',(#156),#45,.F.);
#954=ADVANCED_FACE('',(#157),#46,.F.);
#955=ADVANCED_FACE('',(#158),#101,.T.);
#956=CLOSED_SHELL('',(#899,#900,#901,#902,#903,#904,#905,#906,#907,#908,
#909,#910,#911,#912,#913,#914,#915,#916,#917,#918,#919,#920,#921,#922,#923,
#924,#925,#926,#927,#928,#929,#930,#931,#932,#933,#934,#935,#936,#937,#938,
#939,#940,#941,#942,#943,#944,#945,#946,#947,#948,#949,#950,#951,#952,#953,
#954,#955));
#957=DERIVED_UNIT_ELEMENT(#960,1.);
#958=DERIVED_UNIT_ELEMENT(#1657,-3.);
#959=DIMENSIONAL_EXPONENTS(0.,1.,0.,0.,0.,0.,0.);
#960=(
CONVERSION_BASED_UNIT('gram',#962)
MASS_UNIT()
NAMED_UNIT(#959)
);
#961=(
MASS_UNIT()
NAMED_UNIT(*)
SI_UNIT(.KILO.,.GRAM.)
);
#962=MASS_MEASURE_WITH_UNIT(MASS_MEASURE(0.001),#961);
#963=DERIVED_UNIT((#957,#958));
#964=MEASURE_REPRESENTATION_ITEM('density measure',
POSITIVE_RATIO_MEASURE(1.),#963);
#965=PROPERTY_DEFINITION_REPRESENTATION(#970,#967);
#966=PROPERTY_DEFINITION_REPRESENTATION(#971,#968);
#967=REPRESENTATION('material name',(#969),#1654);
#968=REPRESENTATION('density',(#964),#1654);
#969=DESCRIPTIVE_REPRESENTATION_ITEM('Generic','Generic');
#970=PROPERTY_DEFINITION('material property','material name',#1664);
#971=PROPERTY_DEFINITION('material property','density of part',#1664);
#972=DATE_TIME_ROLE('creation_date');
#973=APPLIED_DATE_AND_TIME_ASSIGNMENT(#974,#972,(#1664));
#974=DATE_AND_TIME(#975,#976);
#975=CALENDAR_DATE(2026,5,4);
#976=LOCAL_TIME(0,0,0.,#977);
#977=COORDINATED_UNIVERSAL_TIME_OFFSET(0,0,.BEHIND.);
#978=AXIS2_PLACEMENT_3D('',#1389,#1092,#1093);
#979=AXIS2_PLACEMENT_3D('',#1390,#1094,#1095);
#980=AXIS2_PLACEMENT_3D('',#1392,#1096,#1097);
#981=AXIS2_PLACEMENT_3D('',#1395,#1099,#1100);
#982=AXIS2_PLACEMENT_3D('',#1397,#1101,#1102);
#983=AXIS2_PLACEMENT_3D('',#1399,#1103,#1104);
#984=AXIS2_PLACEMENT_3D('',#1400,#1105,#1106);
#985=AXIS2_PLACEMENT_3D('',#1402,#1107,#1108);
#986=AXIS2_PLACEMENT_3D('',#1404,#1110,#1111);
#987=AXIS2_PLACEMENT_3D('',#1406,#1113,#1114);
#988=AXIS2_PLACEMENT_3D('',#1408,#1115,#1116);
#989=AXIS2_PLACEMENT_3D('',#1411,#1118,#1119);
#990=AXIS2_PLACEMENT_3D('',#1413,#1120,#1121);
#991=AXIS2_PLACEMENT_3D('',#1415,#1122,#1123);
#992=AXIS2_PLACEMENT_3D('',#1416,#1124,#1125);
#993=AXIS2_PLACEMENT_3D('',#1418,#1126,#1127);
#994=AXIS2_PLACEMENT_3D('',#1420,#1129,#1130);
#995=AXIS2_PLACEMENT_3D('',#1422,#1132,#1133);
#996=AXIS2_PLACEMENT_3D('',#1424,#1134,#1135);
#997=AXIS2_PLACEMENT_3D('',#1426,#1136,#1137);
#998=AXIS2_PLACEMENT_3D('',#1427,#1138,#1139);
#999=AXIS2_PLACEMENT_3D('',#1429,#1140,#1141);
#1000=AXIS2_PLACEMENT_3D('',#1431,#1143,#1144);
#1001=AXIS2_PLACEMENT_3D('',#1434,#1146,#1147);
#1002=AXIS2_PLACEMENT_3D('',#1435,#1148,#1149);
#1003=AXIS2_PLACEMENT_3D('',#1437,#1150,#1151);
#1004=AXIS2_PLACEMENT_3D('',#1439,#1152,#1153);
#1005=AXIS2_PLACEMENT_3D('',#1440,#1154,#1155);
#1006=AXIS2_PLACEMENT_3D('',#1442,#1156,#1157);
#1007=AXIS2_PLACEMENT_3D('',#1444,#1159,#1160);
#1008=AXIS2_PLACEMENT_3D('',#1447,#1162,#1163);
#1009=AXIS2_PLACEMENT_3D('',#1448,#1164,#1165);
#1010=AXIS2_PLACEMENT_3D('',#1450,#1166,#1167);
#1011=AXIS2_PLACEMENT_3D('',#1452,#1168,#1169);
#1012=AXIS2_PLACEMENT_3D('',#1453,#1170,#1171);
#1013=AXIS2_PLACEMENT_3D('',#1455,#1172,#1173);
#1014=AXIS2_PLACEMENT_3D('',#1457,#1175,#1176);
#1015=AXIS2_PLACEMENT_3D('',#1460,#1178,#1179);
#1016=AXIS2_PLACEMENT_3D('',#1461,#1180,#1181);
#1017=AXIS2_PLACEMENT_3D('',#1463,#1182,#1183);
#1018=AXIS2_PLACEMENT_3D('',#1465,#1184,#1185);
#1019=AXIS2_PLACEMENT_3D('',#1466,#1186,#1187);
#1020=AXIS2_PLACEMENT_3D('',#1468,#1188,#1189);
#1021=AXIS2_PLACEMENT_3D('',#1470,#1191,#1192);
#1022=AXIS2_PLACEMENT_3D('',#1473,#1194,#1195);
#1023=AXIS2_PLACEMENT_3D('',#1474,#1196,#1197);
#1024=AXIS2_PLACEMENT_3D('',#1476,#1198,#1199);
#1025=AXIS2_PLACEMENT_3D('',#1478,#1200,#1201);
#1026=AXIS2_PLACEMENT_3D('',#1479,#1202,#1203);
#1027=AXIS2_PLACEMENT_3D('',#1481,#1204,#1205);
#1028=AXIS2_PLACEMENT_3D('',#1483,#1207,#1208);
#1029=AXIS2_PLACEMENT_3D('',#1486,#1210,#1211);
#1030=AXIS2_PLACEMENT_3D('',#1487,#1212,#1213);
#1031=AXIS2_PLACEMENT_3D('',#1489,#1214,#1215);
#1032=AXIS2_PLACEMENT_3D('',#1491,#1216,#1217);
#1033=AXIS2_PLACEMENT_3D('',#1492,#1218,#1219);
#1034=AXIS2_PLACEMENT_3D('',#1494,#1220,#1221);
#1035=AXIS2_PLACEMENT_3D('',#1496,#1223,#1224);
#1036=AXIS2_PLACEMENT_3D('',#1499,#1226,#1227);
#1037=AXIS2_PLACEMENT_3D('',#1500,#1228,#1229);
#1038=AXIS2_PLACEMENT_3D('',#1503,#1230,#1231);
#1039=AXIS2_PLACEMENT_3D('',#1505,#1232,#1233);
#1040=AXIS2_PLACEMENT_3D('',#1506,#1234,#1235);
#1041=AXIS2_PLACEMENT_3D('',#1507,#1236,#1237);
#1042=AXIS2_PLACEMENT_3D('',#1510,#1238,#1239);
#1043=AXIS2_PLACEMENT_3D('',#1513,#1242,#1243);
#1044=AXIS2_PLACEMENT_3D('',#1516,#1244,#1245);
#1045=AXIS2_PLACEMENT_3D('',#1518,#1246,#1247);
#1046=AXIS2_PLACEMENT_3D('',#1519,#1248,#1249);
#1047=AXIS2_PLACEMENT_3D('',#1520,#1250,#1251);
#1048=AXIS2_PLACEMENT_3D('',#1523,#1252,#1253);
#1049=AXIS2_PLACEMENT_3D('',#1526,#1256,#1257);
#1050=AXIS2_PLACEMENT_3D('',#1529,#1258,#1259);
#1051=AXIS2_PLACEMENT_3D('',#1531,#1260,#1261);
#1052=AXIS2_PLACEMENT_3D('',#1532,#1262,#1263);
#1053=AXIS2_PLACEMENT_3D('',#1533,#1264,#1265);
#1054=AXIS2_PLACEMENT_3D('',#1536,#1266,#1267);
#1055=AXIS2_PLACEMENT_3D('',#1539,#1270,#1271);
#1056=AXIS2_PLACEMENT_3D('',#1542,#1274,#1275);
#1057=AXIS2_PLACEMENT_3D('',#1545,#1276,#1277);
#1058=AXIS2_PLACEMENT_3D('',#1547,#1278,#1279);
#1059=AXIS2_PLACEMENT_3D('',#1548,#1280,#1281);
#1060=AXIS2_PLACEMENT_3D('',#1549,#1282,#1283);
#1061=AXIS2_PLACEMENT_3D('',#1552,#1284,#1285);
#1062=AXIS2_PLACEMENT_3D('',#1555,#1288,#1289);
#1063=AXIS2_PLACEMENT_3D('',#1558,#1292,#1293);
#1064=AXIS2_PLACEMENT_3D('',#1561,#1296,#1297);
#1065=AXIS2_PLACEMENT_3D('',#1564,#1300,#1301);
#1066=AXIS2_PLACEMENT_3D('',#1566,#1303,#1304);
#1067=AXIS2_PLACEMENT_3D('',#1568,#1306,#1307);
#1068=AXIS2_PLACEMENT_3D('',#1580,#1313,#1314);
#1069=AXIS2_PLACEMENT_3D('',#1582,#1315,#1316);
#1070=AXIS2_PLACEMENT_3D('',#1584,#1317,#1318);
#1071=AXIS2_PLACEMENT_3D('',#1586,#1319,#1320);
#1072=AXIS2_PLACEMENT_3D('',#1587,#1321,#1322);
#1073=AXIS2_PLACEMENT_3D('',#1596,#1327,#1328);
#1074=AXIS2_PLACEMENT_3D('',#1602,#1332,#1333);
#1075=AXIS2_PLACEMENT_3D('',#1608,#1337,#1338);
#1076=AXIS2_PLACEMENT_3D('',#1612,#1342,#1343);
#1077=AXIS2_PLACEMENT_3D('',#1625,#1350,#1351);
#1078=AXIS2_PLACEMENT_3D('',#1627,#1352,#1353);
#1079=AXIS2_PLACEMENT_3D('',#1629,#1354,#1355);
#1080=AXIS2_PLACEMENT_3D('',#1631,#1356,#1357);
#1081=AXIS2_PLACEMENT_3D('',#1632,#1358,#1359);
#1082=AXIS2_PLACEMENT_3D('',#1633,#1360,#1361);
#1083=AXIS2_PLACEMENT_3D('',#1636,#1364,#1365);
#1084=AXIS2_PLACEMENT_3D('',#1638,#1367,#1368);
#1085=AXIS2_PLACEMENT_3D('',#1640,#1370,#1371);
#1086=AXIS2_PLACEMENT_3D('',#1642,#1373,#1374);
#1087=AXIS2_PLACEMENT_3D('',#1643,#1375,#1376);
#1088=AXIS2_PLACEMENT_3D('',#1645,#1378,#1379);
#1089=AXIS2_PLACEMENT_3D('',#1647,#1381,#1382);
#1090=AXIS2_PLACEMENT_3D('',#1649,#1384,#1385);
#1091=AXIS2_PLACEMENT_3D('',#1651,#1387,#1388);
#1092=DIRECTION('axis',(0.,0.,1.));
#1093=DIRECTION('refdir',(1.,0.,0.));
#1094=DIRECTION('center_axis',(0.,1.,0.));
#1095=DIRECTION('ref_axis',(1.,0.,0.));
#1096=DIRECTION('center_axis',(0.,1.,0.));
#1097=DIRECTION('ref_axis',(1.,0.,0.));
#1098=DIRECTION('',(0.857167300702112,-0.515038074910054,-1.04972719113862E-16));
#1099=DIRECTION('center_axis',(0.,1.,0.));
#1100=DIRECTION('ref_axis',(1.,0.,0.));
#1101=DIRECTION('center_axis',(0.,1.,0.));
#1102=DIRECTION('ref_axis',(1.,0.,0.));
#1103=DIRECTION('center_axis',(0.,1.,0.));
#1104=DIRECTION('ref_axis',(1.,0.,0.));
#1105=DIRECTION('center_axis',(0.,1.,0.));
#1106=DIRECTION('ref_axis',(1.,0.,0.));
#1107=DIRECTION('center_axis',(0.,-1.,0.));
#1108=DIRECTION('ref_axis',(1.,0.,0.));
#1109=DIRECTION('',(0.,-1.,0.));
#1110=DIRECTION('center_axis',(0.,1.,0.));
#1111=DIRECTION('ref_axis',(1.,0.,0.));
#1112=DIRECTION('',(0.,-1.,0.));
#1113=DIRECTION('center_axis',(0.,1.,0.));
#1114=DIRECTION('ref_axis',(1.,0.,0.));
#1115=DIRECTION('center_axis',(0.,1.,0.));
#1116=DIRECTION('ref_axis',(1.,0.,0.));
#1117=DIRECTION('',(0.857167300702112,-0.515038074910054,-1.04972719113862E-16));
#1118=DIRECTION('center_axis',(0.,1.,0.));
#1119=DIRECTION('ref_axis',(1.,0.,0.));
#1120=DIRECTION('center_axis',(0.,1.,0.));
#1121=DIRECTION('ref_axis',(1.,0.,0.));
#1122=DIRECTION('center_axis',(0.,1.,0.));
#1123=DIRECTION('ref_axis',(1.,0.,0.));
#1124=DIRECTION('center_axis',(0.,1.,0.));
#1125=DIRECTION('ref_axis',(1.,0.,0.));
#1126=DIRECTION('center_axis',(0.,-1.,0.));
#1127=DIRECTION('ref_axis',(1.,0.,0.));
#1128=DIRECTION('',(0.,-1.,0.));
#1129=DIRECTION('center_axis',(0.,1.,0.));
#1130=DIRECTION('ref_axis',(1.,0.,0.));
#1131=DIRECTION('',(0.,-1.,0.));
#1132=DIRECTION('center_axis',(1.,0.,0.));
#1133=DIRECTION('ref_axis',(0.,0.,-1.));
#1134=DIRECTION('center_axis',(1.,0.,0.));
#1135=DIRECTION('ref_axis',(0.,0.,-1.));
#1136=DIRECTION('center_axis',(1.,0.,0.));
#1137=DIRECTION('ref_axis',(0.,0.,-1.));
#1138=DIRECTION('center_axis',(1.,0.,0.));
#1139=DIRECTION('ref_axis',(0.,0.,-1.));
#1140=DIRECTION('center_axis',(-1.,0.,0.));
#1141=DIRECTION('ref_axis',(0.,0.,-1.));
#1142=DIRECTION('',(-1.,0.,0.));
#1143=DIRECTION('center_axis',(1.,0.,0.));
#1144=DIRECTION('ref_axis',(0.,0.,-1.));
#1145=DIRECTION('',(-1.,0.,0.));
#1146=DIRECTION('center_axis',(1.,0.,0.));
#1147=DIRECTION('ref_axis',(0.,0.,-1.));
#1148=DIRECTION('center_axis',(1.,0.,0.));
#1149=DIRECTION('ref_axis',(0.,0.,-1.));
#1150=DIRECTION('center_axis',(1.,0.,0.));
#1151=DIRECTION('ref_axis',(0.,0.,-1.));
#1152=DIRECTION('center_axis',(1.,0.,0.));
#1153=DIRECTION('ref_axis',(0.,0.,-1.));
#1154=DIRECTION('center_axis',(1.,0.,0.));
#1155=DIRECTION('ref_axis',(0.,0.,-1.));
#1156=DIRECTION('center_axis',(-1.,0.,0.));
#1157=DIRECTION('ref_axis',(0.,0.,-1.));
#1158=DIRECTION('',(-1.,0.,0.));
#1159=DIRECTION('center_axis',(1.,0.,0.));
#1160=DIRECTION('ref_axis',(0.,0.,-1.));
#1161=DIRECTION('',(-1.,0.,0.));
#1162=DIRECTION('center_axis',(1.,0.,0.));
#1163=DIRECTION('ref_axis',(0.,0.,-1.));
#1164=DIRECTION('center_axis',(1.,0.,0.));
#1165=DIRECTION('ref_axis',(0.,0.,-1.));
#1166=DIRECTION('center_axis',(1.,0.,0.));
#1167=DIRECTION('ref_axis',(0.,0.,-1.));
#1168=DIRECTION('center_axis',(1.,0.,0.));
#1169=DIRECTION('ref_axis',(0.,0.,-1.));
#1170=DIRECTION('center_axis',(1.,0.,0.));
#1171=DIRECTION('ref_axis',(0.,0.,-1.));
#1172=DIRECTION('center_axis',(-1.,0.,0.));
#1173=DIRECTION('ref_axis',(0.,0.,-1.));
#1174=DIRECTION('',(-1.,0.,0.));
#1175=DIRECTION('center_axis',(1.,0.,0.));
#1176=DIRECTION('ref_axis',(0.,0.,-1.));
#1177=DIRECTION('',(-1.,0.,0.));
#1178=DIRECTION('center_axis',(1.,0.,0.));
#1179=DIRECTION('ref_axis',(0.,0.,-1.));
#1180=DIRECTION('center_axis',(1.,0.,0.));
#1181=DIRECTION('ref_axis',(0.,0.,-1.));
#1182=DIRECTION('center_axis',(1.,0.,0.));
#1183=DIRECTION('ref_axis',(0.,0.,-1.));
#1184=DIRECTION('center_axis',(1.,0.,0.));
#1185=DIRECTION('ref_axis',(0.,0.,-1.));
#1186=DIRECTION('center_axis',(1.,0.,0.));
#1187=DIRECTION('ref_axis',(0.,0.,-1.));
#1188=DIRECTION('center_axis',(-1.,0.,0.));
#1189=DIRECTION('ref_axis',(0.,0.,-1.));
#1190=DIRECTION('',(-1.,0.,0.));
#1191=DIRECTION('center_axis',(1.,0.,0.));
#1192=DIRECTION('ref_axis',(0.,0.,-1.));
#1193=DIRECTION('',(-1.,0.,0.));
#1194=DIRECTION('center_axis',(1.,0.,0.));
#1195=DIRECTION('ref_axis',(0.,0.,-1.));
#1196=DIRECTION('center_axis',(1.,0.,0.));
#1197=DIRECTION('ref_axis',(0.,0.,-1.));
#1198=DIRECTION('center_axis',(1.,0.,0.));
#1199=DIRECTION('ref_axis',(0.,0.,-1.));
#1200=DIRECTION('center_axis',(1.,0.,0.));
#1201=DIRECTION('ref_axis',(0.,0.,-1.));
#1202=DIRECTION('center_axis',(1.,0.,0.));
#1203=DIRECTION('ref_axis',(0.,0.,-1.));
#1204=DIRECTION('center_axis',(-1.,0.,0.));
#1205=DIRECTION('ref_axis',(0.,0.,-1.));
#1206=DIRECTION('',(-1.,0.,0.));
#1207=DIRECTION('center_axis',(1.,0.,0.));
#1208=DIRECTION('ref_axis',(0.,0.,-1.));
#1209=DIRECTION('',(-1.,0.,0.));
#1210=DIRECTION('center_axis',(1.,0.,0.));
#1211=DIRECTION('ref_axis',(0.,0.,-1.));
#1212=DIRECTION('center_axis',(1.,0.,0.));
#1213=DIRECTION('ref_axis',(0.,0.,-1.));
#1214=DIRECTION('center_axis',(1.,0.,0.));
#1215=DIRECTION('ref_axis',(0.,0.,-1.));
#1216=DIRECTION('center_axis',(1.,0.,0.));
#1217=DIRECTION('ref_axis',(0.,0.,-1.));
#1218=DIRECTION('center_axis',(1.,0.,0.));
#1219=DIRECTION('ref_axis',(0.,0.,-1.));
#1220=DIRECTION('center_axis',(-1.,0.,0.));
#1221=DIRECTION('ref_axis',(0.,0.,-1.));
#1222=DIRECTION('',(-1.,0.,0.));
#1223=DIRECTION('center_axis',(1.,0.,0.));
#1224=DIRECTION('ref_axis',(0.,0.,-1.));
#1225=DIRECTION('',(-1.,0.,0.));
#1226=DIRECTION('center_axis',(1.,0.,0.));
#1227=DIRECTION('ref_axis',(0.,0.,-1.));
#1228=DIRECTION('center_axis',(-0.408248290463863,-0.816496580927726,-0.408248290463863));
#1229=DIRECTION('ref_axis',(0.577350269189625,-0.577350269189626,0.577350269189626));
#1230=DIRECTION('center_axis',(0.,0.,1.));
#1231=DIRECTION('ref_axis',(1.,0.,0.));
#1232=DIRECTION('center_axis',(0.,-1.,0.));
#1233=DIRECTION('ref_axis',(0.,0.,1.));
#1234=DIRECTION('center_axis',(1.,0.,0.));
#1235=DIRECTION('ref_axis',(0.,-1.,0.));
#1236=DIRECTION('center_axis',(0.,-1.,0.));
#1237=DIRECTION('ref_axis',(0.707106781186547,0.,0.707106781186547));
#1238=DIRECTION('center_axis',(0.,-1.,0.));
#1239=DIRECTION('ref_axis',(0.707106781186547,0.,0.707106781186547));
#1240=DIRECTION('',(0.,-1.,0.));
#1241=DIRECTION('',(0.,1.,0.));
#1242=DIRECTION('center_axis',(-0.408248290463863,-0.408248290463862,-0.816496580927727));
#1243=DIRECTION('ref_axis',(-0.577350269189627,-0.577350269189626,0.577350269189625));
#1244=DIRECTION('center_axis',(-1.,1.48029736616688E-15,0.));
#1245=DIRECTION('ref_axis',(0.,0.,1.));
#1246=DIRECTION('center_axis',(0.,-1.,0.));
#1247=DIRECTION('ref_axis',(-1.,0.,0.));
#1248=DIRECTION('center_axis',(-7.40148683083438E-16,0.,1.));
#1249=DIRECTION('ref_axis',(0.,-1.,0.));
#1250=DIRECTION('center_axis',(0.,1.,0.));
#1251=DIRECTION('ref_axis',(-0.707106781186547,0.,0.707106781186547));
#1252=DIRECTION('center_axis',(0.,-1.,0.));
#1253=DIRECTION('ref_axis',(-0.707106781186547,0.,0.707106781186547));
#1254=DIRECTION('',(0.,-1.,0.));
#1255=DIRECTION('',(0.,1.,0.));
#1256=DIRECTION('center_axis',(-0.408248290463862,-0.816496580927726,0.408248290463863));
#1257=DIRECTION('ref_axis',(0.577350269189625,-0.577350269189626,-0.577350269189627));
#1258=DIRECTION('center_axis',(1.,0.,0.));
#1259=DIRECTION('ref_axis',(0.,0.,-1.));
#1260=DIRECTION('center_axis',(0.,-1.,0.));
#1261=DIRECTION('ref_axis',(1.,0.,0.));
#1262=DIRECTION('center_axis',(0.,0.,-1.));
#1263=DIRECTION('ref_axis',(0.,-1.,0.));
#1264=DIRECTION('center_axis',(0.,1.,0.));
#1265=DIRECTION('ref_axis',(0.707106781186547,0.,-0.707106781186547));
#1266=DIRECTION('center_axis',(0.,-1.,0.));
#1267=DIRECTION('ref_axis',(0.707106781186547,0.,-0.707106781186547));
#1268=DIRECTION('',(0.,-1.,0.));
#1269=DIRECTION('',(0.,1.,0.));
#1270=DIRECTION('center_axis',(0.,0.,1.));
#1271=DIRECTION('ref_axis',(0.707106781186547,-0.707106781186548,0.));
#1272=DIRECTION('',(0.,0.,-1.));
#1273=DIRECTION('',(0.,0.,1.));
#1274=DIRECTION('center_axis',(-0.816496580927726,0.408248290463863,0.408248290463863));
#1275=DIRECTION('ref_axis',(-0.577350269189626,-0.577350269189626,-0.577350269189626));
#1276=DIRECTION('center_axis',(0.,0.,-1.));
#1277=DIRECTION('ref_axis',(-1.,0.,0.));
#1278=DIRECTION('center_axis',(0.,-1.,0.));
#1279=DIRECTION('ref_axis',(0.,0.,-1.));
#1280=DIRECTION('center_axis',(-1.,0.,0.));
#1281=DIRECTION('ref_axis',(0.,-1.,0.));
#1282=DIRECTION('center_axis',(0.,1.,0.));
#1283=DIRECTION('ref_axis',(-0.707106781186547,0.,-0.707106781186547));
#1284=DIRECTION('center_axis',(0.,-1.,0.));
#1285=DIRECTION('ref_axis',(-0.707106781186547,0.,-0.707106781186547));
#1286=DIRECTION('',(0.,-1.,0.));
#1287=DIRECTION('',(0.,1.,0.));
#1288=DIRECTION('center_axis',(1.,0.,2.42230478100034E-16));
#1289=DIRECTION('ref_axis',(0.,-0.707106781186548,-0.707106781186547));
#1290=DIRECTION('',(-1.,0.,-2.42230478100034E-16));
#1291=DIRECTION('',(1.,0.,2.42230478100034E-16));
#1292=DIRECTION('center_axis',(-2.3373116307898E-16,0.,-1.));
#1293=DIRECTION('ref_axis',(-0.707106781186547,-0.707106781186548,0.));
#1294=DIRECTION('',(2.3373116307898E-16,0.,1.));
#1295=DIRECTION('',(-2.3373116307898E-16,0.,-1.));
#1296=DIRECTION('center_axis',(-1.,0.,2.42230478100034E-16));
#1297=DIRECTION('ref_axis',(0.,-0.707106781186547,0.707106781186548));
#1298=DIRECTION('',(1.,0.,-2.42230478100034E-16));
#1299=DIRECTION('',(-1.,0.,2.42230478100034E-16));
#1300=DIRECTION('center_axis',(1.,0.,0.));
#1301=DIRECTION('ref_axis',(0.,0.,-1.));
#1302=DIRECTION('',(0.,0.,-1.));
#1303=DIRECTION('center_axis',(2.42230478100034E-16,0.,-1.));
#1304=DIRECTION('ref_axis',(-1.,0.,-2.42230478100034E-16));
#1305=DIRECTION('',(-1.,0.,-2.42230478100034E-16));
#1306=DIRECTION('center_axis',(0.,1.,0.));
#1307=DIRECTION('ref_axis',(0.,0.,1.));
#1308=DIRECTION('',(-1.,0.,0.));
#1309=DIRECTION('',(0.,0.,1.));
#1310=DIRECTION('',(1.,0.,0.));
#1311=DIRECTION('',(0.604080797135164,0.,-0.796923076923077));
#1312=DIRECTION('',(-0.604080797135164,0.,-0.796923076923077));
#1313=DIRECTION('center_axis',(0.,1.,0.));
#1314=DIRECTION('ref_axis',(1.,0.,0.));
#1315=DIRECTION('center_axis',(0.,1.,0.));
#1316=DIRECTION('ref_axis',(1.,0.,0.));
#1317=DIRECTION('center_axis',(0.,1.,0.));
#1318=DIRECTION('ref_axis',(1.,0.,0.));
#1319=DIRECTION('center_axis',(0.,1.,0.));
#1320=DIRECTION('ref_axis',(1.,0.,0.));
#1321=DIRECTION('center_axis',(0.,0.,-1.));
#1322=DIRECTION('ref_axis',(-1.,0.,0.));
#1323=DIRECTION('',(1.,0.,0.));
#1324=DIRECTION('',(0.,1.,0.));
#1325=DIRECTION('',(-1.,0.,0.));
#1326=DIRECTION('',(0.,1.,0.));
#1327=DIRECTION('center_axis',(-1.,0.,0.));
#1328=DIRECTION('ref_axis',(0.,0.,1.));
#1329=DIRECTION('',(0.,0.,-1.));
#1330=DIRECTION('',(0.,0.,1.));
#1331=DIRECTION('',(0.,1.,0.));
#1332=DIRECTION('center_axis',(0.,0.,1.));
#1333=DIRECTION('ref_axis',(1.,0.,0.));
#1334=DIRECTION('',(-1.,0.,0.));
#1335=DIRECTION('',(1.,0.,0.));
#1336=DIRECTION('',(0.,1.,0.));
#1337=DIRECTION('center_axis',(0.,1.,0.));
#1338=DIRECTION('ref_axis',(0.,0.,1.));
#1339=DIRECTION('',(2.3373116307898E-16,0.,1.));
#1340=DIRECTION('',(1.,0.,-2.42230478100034E-16));
#1341=DIRECTION('',(0.,0.,-1.));
#1342=DIRECTION('center_axis',(0.,1.,0.));
#1343=DIRECTION('ref_axis',(0.,0.,1.));
#1344=DIRECTION('',(0.,0.,1.));
#1345=DIRECTION('',(0.,0.,1.));
#1346=DIRECTION('',(1.,0.,0.));
#1347=DIRECTION('',(0.604080797135164,0.,0.796923076923077));
#1348=DIRECTION('',(-0.604080797135164,0.,0.796923076923077));
#1349=DIRECTION('',(-1.,0.,0.));
#1350=DIRECTION('center_axis',(0.,-1.,0.));
#1351=DIRECTION('ref_axis',(1.,0.,0.));
#1352=DIRECTION('center_axis',(0.,-1.,0.));
#1353=DIRECTION('ref_axis',(1.,0.,0.));
#1354=DIRECTION('center_axis',(0.,-1.,0.));
#1355=DIRECTION('ref_axis',(1.,0.,0.));
#1356=DIRECTION('center_axis',(0.,-1.,0.));
#1357=DIRECTION('ref_axis',(1.,0.,0.));
#1358=DIRECTION('center_axis',(-1.,0.,2.3373116307898E-16));
#1359=DIRECTION('ref_axis',(2.3373116307898E-16,0.,1.));
#1360=DIRECTION('center_axis',(1.,0.,0.));
#1361=DIRECTION('ref_axis',(0.,0.,-1.));
#1362=DIRECTION('',(0.,1.,0.));
#1363=DIRECTION('',(0.,-1.,0.));
#1364=DIRECTION('center_axis',(0.,0.,-1.));
#1365=DIRECTION('ref_axis',(-1.,0.,0.));
#1366=DIRECTION('',(0.,1.,0.));
#1367=DIRECTION('center_axis',(-0.796923076923077,0.,-0.604080797135164));
#1368=DIRECTION('ref_axis',(-0.604080797135164,0.,0.796923076923077));
#1369=DIRECTION('',(0.,1.,0.));
#1370=DIRECTION('center_axis',(-0.796923076923077,0.,0.604080797135164));
#1371=DIRECTION('ref_axis',(0.604080797135164,0.,0.796923076923077));
#1372=DIRECTION('',(0.,1.,0.));
#1373=DIRECTION('center_axis',(0.,0.,1.));
#1374=DIRECTION('ref_axis',(1.,0.,0.));
#1375=DIRECTION('center_axis',(0.,1.,0.));
#1376=DIRECTION('ref_axis',(1.,0.,0.));
#1377=DIRECTION('',(0.,-1.,0.));
#1378=DIRECTION('center_axis',(0.,1.,0.));
#1379=DIRECTION('ref_axis',(1.,0.,0.));
#1380=DIRECTION('',(0.,-1.,0.));
#1381=DIRECTION('center_axis',(0.,1.,0.));
#1382=DIRECTION('ref_axis',(1.,0.,0.));
#1383=DIRECTION('',(0.,-1.,0.));
#1384=DIRECTION('center_axis',(0.,1.,0.));
#1385=DIRECTION('ref_axis',(1.,0.,0.));
#1386=DIRECTION('',(0.,-1.,0.));
#1387=DIRECTION('center_axis',(2.42230478100034E-16,0.,1.));
#1388=DIRECTION('ref_axis',(1.,0.,-2.42230478100034E-16));
#1389=CARTESIAN_POINT('',(0.,0.,0.));
#1390=CARTESIAN_POINT('Origin',(12.75,28.6995696904862,-16.));
#1391=CARTESIAN_POINT('',(11.75,29.,-16.));
#1392=CARTESIAN_POINT('Origin',(12.75,29.,-16.));
#1393=CARTESIAN_POINT('',(12.75,28.3991393809724,-16.));
#1394=CARTESIAN_POINT('',(12.25,28.6995696904862,-16.));
#1395=CARTESIAN_POINT('Origin',(12.75,31.2,-16.));
#1396=CARTESIAN_POINT('',(10.8,31.2,-16.));
#1397=CARTESIAN_POINT('Origin',(12.75,31.2,-16.));
#1398=CARTESIAN_POINT('',(11.75,31.2,-16.));
#1399=CARTESIAN_POINT('Origin',(12.75,31.2,-16.));
#1400=CARTESIAN_POINT('Origin',(12.75,33.1,-16.));
#1401=CARTESIAN_POINT('',(10.8,35.,-16.));
#1402=CARTESIAN_POINT('Origin',(12.75,35.,-16.));
#1403=CARTESIAN_POINT('',(10.8,33.1,-16.));
#1404=CARTESIAN_POINT('Origin',(12.75,32.,-16.));
#1405=CARTESIAN_POINT('',(11.75,32.,-16.));
#1406=CARTESIAN_POINT('Origin',(12.75,28.6995696904862,16.));
#1407=CARTESIAN_POINT('',(11.75,29.,16.));
#1408=CARTESIAN_POINT('Origin',(12.75,29.,16.));
#1409=CARTESIAN_POINT('',(12.75,28.3991393809724,16.));
#1410=CARTESIAN_POINT('',(12.25,28.6995696904862,16.));
#1411=CARTESIAN_POINT('Origin',(12.75,31.2,16.));
#1412=CARTESIAN_POINT('',(10.8,31.2,16.));
#1413=CARTESIAN_POINT('Origin',(12.75,31.2,16.));
#1414=CARTESIAN_POINT('',(11.75,31.2,16.));
#1415=CARTESIAN_POINT('Origin',(12.75,31.2,16.));
#1416=CARTESIAN_POINT('Origin',(12.75,33.1,16.));
#1417=CARTESIAN_POINT('',(10.8,35.,16.));
#1418=CARTESIAN_POINT('Origin',(12.75,35.,16.));
#1419=CARTESIAN_POINT('',(10.8,33.1,16.));
#1420=CARTESIAN_POINT('Origin',(12.75,32.,16.));
#1421=CARTESIAN_POINT('',(11.75,32.,16.));
#1422=CARTESIAN_POINT('Origin',(24.95,17.25,-7.));
#1423=CARTESIAN_POINT('',(24.95,17.25,-5.05));
#1424=CARTESIAN_POINT('Origin',(24.95,17.25,-7.));
#1425=CARTESIAN_POINT('',(24.95,17.25,-6.));
#1426=CARTESIAN_POINT('Origin',(24.95,17.25,-7.));
#1427=CARTESIAN_POINT('Origin',(26.85,17.25,-7.));
#1428=CARTESIAN_POINT('',(28.75,17.25,-5.05));
#1429=CARTESIAN_POINT('Origin',(28.75,17.25,-7.));
#1430=CARTESIAN_POINT('',(26.85,17.25,-5.05));
#1431=CARTESIAN_POINT('Origin',(25.75,17.25,-7.));
#1432=CARTESIAN_POINT('',(22.75,17.25,-6.));
#1433=CARTESIAN_POINT('',(25.75,17.25,-6.));
#1434=CARTESIAN_POINT('Origin',(22.75,17.25,-7.));
#1435=CARTESIAN_POINT('Origin',(24.95,17.25,7.));
#1436=CARTESIAN_POINT('',(24.95,17.25,8.95));
#1437=CARTESIAN_POINT('Origin',(24.95,17.25,7.));
#1438=CARTESIAN_POINT('',(24.95,17.25,8.));
#1439=CARTESIAN_POINT('Origin',(24.95,17.25,7.));
#1440=CARTESIAN_POINT('Origin',(26.85,17.25,7.));
#1441=CARTESIAN_POINT('',(28.75,17.25,8.95));
#1442=CARTESIAN_POINT('Origin',(28.75,17.25,7.));
#1443=CARTESIAN_POINT('',(26.85,17.25,8.95));
#1444=CARTESIAN_POINT('Origin',(25.75,17.25,7.));
#1445=CARTESIAN_POINT('',(22.75,17.25,8.));
#1446=CARTESIAN_POINT('',(25.75,17.25,8.));
#1447=CARTESIAN_POINT('Origin',(22.75,17.25,7.));
#1448=CARTESIAN_POINT('Origin',(24.95,24.25,7.));
#1449=CARTESIAN_POINT('',(24.95,24.25,8.95));
#1450=CARTESIAN_POINT('Origin',(24.95,24.25,7.));
#1451=CARTESIAN_POINT('',(24.95,24.25,8.));
#1452=CARTESIAN_POINT('Origin',(24.95,24.25,7.));
#1453=CARTESIAN_POINT('Origin',(26.85,24.25,7.));
#1454=CARTESIAN_POINT('',(28.75,24.25,8.95));
#1455=CARTESIAN_POINT('Origin',(28.75,24.25,7.));
#1456=CARTESIAN_POINT('',(26.85,24.25,8.95));
#1457=CARTESIAN_POINT('Origin',(25.75,24.25,7.));
#1458=CARTESIAN_POINT('',(22.75,24.25,8.));
#1459=CARTESIAN_POINT('',(25.75,24.25,8.));
#1460=CARTESIAN_POINT('Origin',(22.75,24.25,7.));
#1461=CARTESIAN_POINT('Origin',(24.95,24.25,-7.));
#1462=CARTESIAN_POINT('',(24.95,24.25,-5.05));
#1463=CARTESIAN_POINT('Origin',(24.95,24.25,-7.));
#1464=CARTESIAN_POINT('',(24.95,24.25,-6.));
#1465=CARTESIAN_POINT('Origin',(24.95,24.25,-7.));
#1466=CARTESIAN_POINT('Origin',(26.85,24.25,-7.));
#1467=CARTESIAN_POINT('',(28.75,24.25,-5.05));
#1468=CARTESIAN_POINT('Origin',(28.75,24.25,-7.));
#1469=CARTESIAN_POINT('',(26.85,24.25,-5.05));
#1470=CARTESIAN_POINT('Origin',(25.75,24.25,-7.));
#1471=CARTESIAN_POINT('',(22.75,24.25,-6.));
#1472=CARTESIAN_POINT('',(25.75,24.25,-6.));
#1473=CARTESIAN_POINT('Origin',(22.75,24.25,-7.));
#1474=CARTESIAN_POINT('Origin',(24.95,31.25,-7.));
#1475=CARTESIAN_POINT('',(24.95,31.25,-5.05));
#1476=CARTESIAN_POINT('Origin',(24.95,31.25,-7.));
#1477=CARTESIAN_POINT('',(24.95,31.25,-6.));
#1478=CARTESIAN_POINT('Origin',(24.95,31.25,-7.));
#1479=CARTESIAN_POINT('Origin',(26.85,31.25,-7.));
#1480=CARTESIAN_POINT('',(28.75,31.25,-5.05));
#1481=CARTESIAN_POINT('Origin',(28.75,31.25,-7.));
#1482=CARTESIAN_POINT('',(26.85,31.25,-5.05));
#1483=CARTESIAN_POINT('Origin',(25.75,31.25,-7.));
#1484=CARTESIAN_POINT('',(22.75,31.25,-6.));
#1485=CARTESIAN_POINT('',(25.75,31.25,-6.));
#1486=CARTESIAN_POINT('Origin',(22.75,31.25,-7.));
#1487=CARTESIAN_POINT('Origin',(24.95,31.25,7.));
#1488=CARTESIAN_POINT('',(24.95,31.25,8.95));
#1489=CARTESIAN_POINT('Origin',(24.95,31.25,7.));
#1490=CARTESIAN_POINT('',(24.95,31.25,8.));
#1491=CARTESIAN_POINT('Origin',(24.95,31.25,7.));
#1492=CARTESIAN_POINT('Origin',(26.85,31.25,7.));
#1493=CARTESIAN_POINT('',(28.75,31.25,8.95));
#1494=CARTESIAN_POINT('Origin',(28.75,31.25,7.));
#1495=CARTESIAN_POINT('',(26.85,31.25,8.95));
#1496=CARTESIAN_POINT('Origin',(25.75,31.25,7.));
#1497=CARTESIAN_POINT('',(22.75,31.25,8.));
#1498=CARTESIAN_POINT('',(25.75,31.25,8.));
#1499=CARTESIAN_POINT('Origin',(22.75,31.25,7.));
#1500=CARTESIAN_POINT('Origin',(25.75,2.5,16.));
#1501=CARTESIAN_POINT('',(28.75,2.5,16.));
#1502=CARTESIAN_POINT('',(25.75,-0.5,16.));
#1503=CARTESIAN_POINT('Origin',(25.75,2.5,16.));
#1504=CARTESIAN_POINT('',(25.75,2.5,19.));
#1505=CARTESIAN_POINT('Origin',(25.75,2.5,16.));
#1506=CARTESIAN_POINT('Origin',(25.75,2.5,16.));
#1507=CARTESIAN_POINT('Origin',(25.75,0.,16.));
#1508=CARTESIAN_POINT('',(28.75,35.,16.));
#1509=CARTESIAN_POINT('',(25.75,35.,19.));
#1510=CARTESIAN_POINT('Origin',(25.75,35.,16.));
#1511=CARTESIAN_POINT('',(25.75,0.,19.));
#1512=CARTESIAN_POINT('',(28.75,0.,16.));
#1513=CARTESIAN_POINT('Origin',(-23.25,2.5,16.));
#1514=CARTESIAN_POINT('',(-23.25,2.5,19.));
#1515=CARTESIAN_POINT('',(-23.25,-0.5,16.));
#1516=CARTESIAN_POINT('Origin',(-23.25,2.5,16.));
#1517=CARTESIAN_POINT('',(-26.25,2.5,16.));
#1518=CARTESIAN_POINT('Origin',(-23.25,2.5,16.));
#1519=CARTESIAN_POINT('Origin',(-23.25,2.5,16.));
#1520=CARTESIAN_POINT('Origin',(-23.25,0.,16.));
#1521=CARTESIAN_POINT('',(-23.25,35.,19.));
#1522=CARTESIAN_POINT('',(-26.25,35.,16.));
#1523=CARTESIAN_POINT('Origin',(-23.25,35.,16.));
#1524=CARTESIAN_POINT('',(-26.25,0.,16.));
#1525=CARTESIAN_POINT('',(-23.25,0.,19.));
#1526=CARTESIAN_POINT('Origin',(25.75,2.5,-16.));
#1527=CARTESIAN_POINT('',(25.75,2.5,-19.));
#1528=CARTESIAN_POINT('',(25.75,-0.5,-16.));
#1529=CARTESIAN_POINT('Origin',(25.75,2.5,-16.));
#1530=CARTESIAN_POINT('',(28.75,2.5,-16.));
#1531=CARTESIAN_POINT('Origin',(25.75,2.5,-16.));
#1532=CARTESIAN_POINT('Origin',(25.75,2.5,-16.));
#1533=CARTESIAN_POINT('Origin',(25.75,0.,-16.));
#1534=CARTESIAN_POINT('',(25.75,35.,-19.));
#1535=CARTESIAN_POINT('',(28.75,35.,-16.));
#1536=CARTESIAN_POINT('Origin',(25.75,35.,-16.));
#1537=CARTESIAN_POINT('',(28.75,0.,-16.));
#1538=CARTESIAN_POINT('',(25.75,0.,-19.));
#1539=CARTESIAN_POINT('Origin',(25.75,2.5,9.5));
#1540=CARTESIAN_POINT('',(25.75,-0.5,9.5));
#1541=CARTESIAN_POINT('',(28.75,2.5,9.5));
#1542=CARTESIAN_POINT('Origin',(-23.25,2.5,-16.));
#1543=CARTESIAN_POINT('',(-26.25,2.5,-16.));
#1544=CARTESIAN_POINT('',(-23.25,-0.5,-16.));
#1545=CARTESIAN_POINT('Origin',(-23.25,2.5,-16.));
#1546=CARTESIAN_POINT('',(-23.25,2.5,-19.));
#1547=CARTESIAN_POINT('Origin',(-23.25,2.5,-16.));
#1548=CARTESIAN_POINT('Origin',(-23.25,2.5,-16.));
#1549=CARTESIAN_POINT('Origin',(-23.25,0.,-16.));
#1550=CARTESIAN_POINT('',(-26.25,35.,-16.));
#1551=CARTESIAN_POINT('',(-23.25,35.,-19.));
#1552=CARTESIAN_POINT('Origin',(-23.25,35.,-16.));
#1553=CARTESIAN_POINT('',(-23.25,0.,-19.));
#1554=CARTESIAN_POINT('',(-26.25,0.,-16.));
#1555=CARTESIAN_POINT('Origin',(15.,2.5,-16.));
#1556=CARTESIAN_POINT('',(15.,-0.5,-16.));
#1557=CARTESIAN_POINT('',(15.,2.5,-19.));
#1558=CARTESIAN_POINT('Origin',(-23.25,2.5,-9.5));
#1559=CARTESIAN_POINT('',(-23.25,-0.5,-9.5));
#1560=CARTESIAN_POINT('',(-26.25,2.5,-9.5));
#1561=CARTESIAN_POINT('Origin',(-12.5,2.5,16.));
#1562=CARTESIAN_POINT('',(-12.5,-0.5,16.));
#1563=CARTESIAN_POINT('',(-12.5,2.5,19.));
#1564=CARTESIAN_POINT('Origin',(28.75,0.,19.));
#1565=CARTESIAN_POINT('',(28.75,35.,19.));
#1566=CARTESIAN_POINT('Origin',(28.75,0.,-19.));
#1567=CARTESIAN_POINT('',(28.75,35.,-19.));
#1568=CARTESIAN_POINT('Origin',(1.25,-0.5,0.));
#1569=CARTESIAN_POINT('',(-7.74999999999999,-0.5,-10.36));
#1570=CARTESIAN_POINT('',(-22.75,-0.5,-10.36));
#1571=CARTESIAN_POINT('',(-22.75,-0.5,-10.36));
#1572=CARTESIAN_POINT('',(-22.75,-0.5,10.36));
#1573=CARTESIAN_POINT('',(-22.75,-0.5,12.36));
#1574=CARTESIAN_POINT('',(-7.74999999999999,-0.5,10.36));
#1575=CARTESIAN_POINT('',(-7.74999999999999,-0.5,10.36));
#1576=CARTESIAN_POINT('',(0.103050362757142,-0.5,0.));
#1577=CARTESIAN_POINT('',(0.103050362757143,-0.5,0.));
#1578=CARTESIAN_POINT('',(-7.74999999999999,-0.5,-10.36));
#1579=CARTESIAN_POINT('',(15.36,-0.5,-10.25));
#1580=CARTESIAN_POINT('Origin',(16.36,-0.5,-10.25));
#1581=CARTESIAN_POINT('',(15.36,-0.5,10.25));
#1582=CARTESIAN_POINT('Origin',(16.36,-0.5,10.25));
#1583=CARTESIAN_POINT('',(-5.34,-0.5,-10.36));
#1584=CARTESIAN_POINT('Origin',(-4.33999999999999,-0.5,-10.36));
#1585=CARTESIAN_POINT('',(-5.34,-0.5,10.36));
#1586=CARTESIAN_POINT('Origin',(-4.33999999999999,-0.5,10.36));
#1587=CARTESIAN_POINT('Origin',(22.75,0.,12.36));
#1588=CARTESIAN_POINT('',(-22.75,0.5,12.36));
#1589=CARTESIAN_POINT('',(22.75,0.5,12.36));
#1590=CARTESIAN_POINT('',(12.,0.5,12.36));
#1591=CARTESIAN_POINT('',(-22.75,35.,12.36));
#1592=CARTESIAN_POINT('',(-22.75,0.,12.36));
#1593=CARTESIAN_POINT('',(22.75,35.,12.36));
#1594=CARTESIAN_POINT('',(22.75,35.,12.36));
#1595=CARTESIAN_POINT('',(22.75,0.,12.36));
#1596=CARTESIAN_POINT('Origin',(22.75,0.,-12.36));
#1597=CARTESIAN_POINT('',(22.75,0.5,-12.36));
#1598=CARTESIAN_POINT('',(22.75,0.5,-6.18));
#1599=CARTESIAN_POINT('',(22.75,35.,-12.36));
#1600=CARTESIAN_POINT('',(22.75,35.,-12.36));
#1601=CARTESIAN_POINT('',(22.75,0.,-12.36));
#1602=CARTESIAN_POINT('Origin',(-22.75,0.,-12.36));
#1603=CARTESIAN_POINT('',(-22.75,0.5,-12.36));
#1604=CARTESIAN_POINT('',(-10.75,0.5,-12.36));
#1605=CARTESIAN_POINT('',(-22.75,35.,-12.36));
#1606=CARTESIAN_POINT('',(-22.75,35.,-12.36));
#1607=CARTESIAN_POINT('',(-22.75,0.,-12.36));
#1608=CARTESIAN_POINT('Origin',(1.25,35.,0.));
#1609=CARTESIAN_POINT('',(-26.25,35.,-19.));
#1610=CARTESIAN_POINT('',(-26.25,35.,19.));
#1611=CARTESIAN_POINT('',(-22.75,35.,12.36));
#1612=CARTESIAN_POINT('Origin',(1.25,0.5,0.));
#1613=CARTESIAN_POINT('',(-22.75,0.5,10.36));
#1614=CARTESIAN_POINT('',(-22.75,0.5,6.18));
#1615=CARTESIAN_POINT('',(-22.75,0.5,-10.36));
#1616=CARTESIAN_POINT('',(-22.75,0.5,6.18));
#1617=CARTESIAN_POINT('',(-7.74999999999999,0.5,-10.36));
#1618=CARTESIAN_POINT('',(-22.75,0.5,-10.36));
#1619=CARTESIAN_POINT('',(0.103050362757142,0.5,0.));
#1620=CARTESIAN_POINT('',(-7.74999999999999,0.5,-10.36));
#1621=CARTESIAN_POINT('',(-7.74999999999999,0.5,10.36));
#1622=CARTESIAN_POINT('',(0.103050362757143,0.5,0.));
#1623=CARTESIAN_POINT('',(-7.74999999999999,0.5,10.36));
#1624=CARTESIAN_POINT('',(15.36,0.5,-10.25));
#1625=CARTESIAN_POINT('Origin',(16.36,0.5,-10.25));
#1626=CARTESIAN_POINT('',(15.36,0.5,10.25));
#1627=CARTESIAN_POINT('Origin',(16.36,0.5,10.25));
#1628=CARTESIAN_POINT('',(-5.34,0.5,-10.36));
#1629=CARTESIAN_POINT('Origin',(-4.33999999999999,0.5,-10.36));
#1630=CARTESIAN_POINT('',(-5.34,0.5,10.36));
#1631=CARTESIAN_POINT('Origin',(-4.33999999999999,0.5,10.36));
#1632=CARTESIAN_POINT('Origin',(-26.25,0.,-19.));
#1633=CARTESIAN_POINT('Origin',(-22.75,0.,10.36));
#1634=CARTESIAN_POINT('',(-22.75,0.,10.36));
#1635=CARTESIAN_POINT('',(-22.75,0.,-10.36));
#1636=CARTESIAN_POINT('Origin',(-7.74999999999999,0.,10.36));
#1637=CARTESIAN_POINT('',(-7.74999999999999,0.,10.36));
#1638=CARTESIAN_POINT('Origin',(0.103050362757143,0.,-1.17420662092746E-31));
#1639=CARTESIAN_POINT('',(0.103050362757143,0.,-1.84889274661175E-31));
#1640=CARTESIAN_POINT('Origin',(-7.74999999999999,0.,-10.36));
#1641=CARTESIAN_POINT('',(-7.74999999999999,0.,-10.36));
#1642=CARTESIAN_POINT('Origin',(-22.75,0.,-10.36));
#1643=CARTESIAN_POINT('Origin',(16.36,0.,-10.25));
#1644=CARTESIAN_POINT('',(15.36,0.,-10.25));
#1645=CARTESIAN_POINT('Origin',(16.36,0.,10.25));
#1646=CARTESIAN_POINT('',(15.36,0.,10.25));
#1647=CARTESIAN_POINT('Origin',(-4.33999999999999,0.,-10.36));
#1648=CARTESIAN_POINT('',(-5.34,0.,-10.36));
#1649=CARTESIAN_POINT('Origin',(-4.33999999999999,0.,10.36));
#1650=CARTESIAN_POINT('',(-5.34,0.,10.36));
#1651=CARTESIAN_POINT('Origin',(-26.25,0.,19.));
#1652=UNCERTAINTY_MEASURE_WITH_UNIT(LENGTH_MEASURE(0.01),#1656,
'DISTANCE_ACCURACY_VALUE',
'Maximum model space distance between geometric entities at asserted c
onnectivities');
#1653=UNCERTAINTY_MEASURE_WITH_UNIT(LENGTH_MEASURE(0.01),#1656,
'DISTANCE_ACCURACY_VALUE',
'Maximum model space distance between geometric entities at asserted c
onnectivities');
#1654=(
GEOMETRIC_REPRESENTATION_CONTEXT(3)
GLOBAL_UNCERTAINTY_ASSIGNED_CONTEXT((#1652))
GLOBAL_UNIT_ASSIGNED_CONTEXT((#1656,#1658,#1659))
REPRESENTATION_CONTEXT('','3D')
);
#1655=(
GEOMETRIC_REPRESENTATION_CONTEXT(3)
GLOBAL_UNCERTAINTY_ASSIGNED_CONTEXT((#1653))
GLOBAL_UNIT_ASSIGNED_CONTEXT((#1656,#1658,#1659))
REPRESENTATION_CONTEXT('','3D')
);
#1656=(
LENGTH_UNIT()
NAMED_UNIT(*)
SI_UNIT(.MILLI.,.METRE.)
);
#1657=(
LENGTH_UNIT()
NAMED_UNIT(*)
SI_UNIT(.CENTI.,.METRE.)
);
#1658=(
NAMED_UNIT(*)
PLANE_ANGLE_UNIT()
SI_UNIT($,.RADIAN.)
);
#1659=(
NAMED_UNIT(*)
SI_UNIT($,.STERADIAN.)
SOLID_ANGLE_UNIT()
);
#1660=SHAPE_DEFINITION_REPRESENTATION(#1661,#1662);
#1661=PRODUCT_DEFINITION_SHAPE('',$,#1664);
#1662=SHAPE_REPRESENTATION('',(#978),#1654);
#1663=PRODUCT_DEFINITION_CONTEXT('part definition',#1668,'design');
#1664=PRODUCT_DEFINITION('basketback','basketback',#1665,#1663);
#1665=PRODUCT_DEFINITION_FORMATION('',$,#1670);
#1666=PRODUCT_RELATED_PRODUCT_CATEGORY('basketback','basketback',(#1670));
#1667=APPLICATION_PROTOCOL_DEFINITION('international standard',
'automotive_design',2009,#1668);
#1668=APPLICATION_CONTEXT(
'Core Data for Automotive Mechanical Design Process');
#1669=PRODUCT_CONTEXT('part definition',#1668,'mechanical');
#1670=PRODUCT('basketback','basketback',$,(#1669));
#1671=PRESENTATION_STYLE_ASSIGNMENT((#1672));
#1672=SURFACE_STYLE_USAGE(.BOTH.,#1675);
#1673=SURFACE_STYLE_RENDERING_WITH_PROPERTIES($,#1679,(#1674));
#1674=SURFACE_STYLE_TRANSPARENT(0.);
#1675=SURFACE_SIDE_STYLE('',(#1676,#1673));
#1676=SURFACE_STYLE_FILL_AREA(#1677);
#1677=FILL_AREA_STYLE('',(#1678));
#1678=FILL_AREA_STYLE_COLOUR('',#1679);
#1679=COLOUR_RGB('',0.749019607843137,0.749019607843137,0.749019607843137);
ENDSEC;
END-ISO-10303-21;
