ISO-10303-21;
HEADER;
/* Generated by software containing ST-Developer
 * from STEP Tools, Inc. (www.steptools.com) 
 */

FILE_DESCRIPTION(
/* description */ (''),
/* implementation_level */ '2;1');

FILE_NAME(
/* name */ 'L.stp',
/* time_stamp */ '2026-04-21T00:13:53+02:00',
/* author */ ('ksawe'),
/* organization */ (''),
/* preprocessor_version */ 'ST-DEVELOPER v20',
/* originating_system */ 'Autodesk Inventor 2025',
/* authorisation */ '');

FILE_SCHEMA (('AUTOMOTIVE_DESIGN { 1 0 10303 214 3 1 1 }'));
ENDSEC;

DATA;
#10=MECHANICAL_DESIGN_GEOMETRIC_PRESENTATION_REPRESENTATION('',(#13),#1179);
#11=SHAPE_REPRESENTATION_RELATIONSHIP('SRR','None',#1186,#12);
#12=ADVANCED_BREP_SHAPE_REPRESENTATION('',(#14),#1178);
#13=STYLED_ITEM('',(#1195),#14);
#14=MANIFOLD_SOLID_BREP('Solid1',#673);
#15=SPHERICAL_SURFACE('',#715,5.);
#16=SPHERICAL_SURFACE('',#723,5.);
#17=SPHERICAL_SURFACE('',#728,5.);
#18=SPHERICAL_SURFACE('',#732,5.);
#19=ELLIPSE('',#714,7.07106781186548,5.);
#20=ELLIPSE('',#722,7.07106781186549,5.);
#21=ELLIPSE('',#740,7.07106781186548,5.);
#22=ELLIPSE('',#745,7.07106781186548,5.);
#23=CYLINDRICAL_SURFACE('',#701,4.5);
#24=CYLINDRICAL_SURFACE('',#703,3.);
#25=CYLINDRICAL_SURFACE('',#709,4.5);
#26=CYLINDRICAL_SURFACE('',#711,3.);
#27=CYLINDRICAL_SURFACE('',#712,5.);
#28=CYLINDRICAL_SURFACE('',#719,5.);
#29=CYLINDRICAL_SURFACE('',#720,5.);
#30=CYLINDRICAL_SURFACE('',#727,5.);
#31=CYLINDRICAL_SURFACE('',#736,5.);
#32=CYLINDRICAL_SURFACE('',#738,5.);
#33=CYLINDRICAL_SURFACE('',#739,5.);
#34=CYLINDRICAL_SURFACE('',#741,5.);
#35=CYLINDRICAL_SURFACE('',#742,5.);
#36=CYLINDRICAL_SURFACE('',#744,5.);
#37=CYLINDRICAL_SURFACE('',#746,5.);
#38=CYLINDRICAL_SURFACE('',#747,5.);
#39=CYLINDRICAL_SURFACE('',#752,4.);
#40=CYLINDRICAL_SURFACE('',#755,4.);
#41=CYLINDRICAL_SURFACE('',#763,4.5);
#42=CYLINDRICAL_SURFACE('',#764,3.);
#43=FACE_BOUND('',#115,.T.);
#44=FACE_BOUND('',#120,.T.);
#45=FACE_BOUND('',#140,.T.);
#46=FACE_BOUND('',#147,.T.);
#47=FACE_BOUND('',#151,.T.);
#48=FACE_BOUND('',#152,.T.);
#49=FACE_BOUND('',#155,.T.);
#50=FACE_BOUND('',#156,.T.);
#51=FACE_BOUND('',#159,.T.);
#52=FACE_BOUND('',#161,.T.);
#53=FACE_BOUND('',#162,.T.);
#54=PLANE('',#698);
#55=PLANE('',#706);
#56=PLANE('',#748);
#57=PLANE('',#750);
#58=PLANE('',#751);
#59=PLANE('',#760);
#60=PLANE('',#765);
#61=PLANE('',#766);
#62=PLANE('',#767);
#63=PLANE('',#768);
#64=PLANE('',#769);
#65=PLANE('',#770);
#66=PLANE('',#771);
#67=PLANE('',#772);
#68=PLANE('',#773);
#69=PLANE('',#774);
#70=FACE_OUTER_BOUND('',#113,.T.);
#71=FACE_OUTER_BOUND('',#114,.T.);
#72=FACE_OUTER_BOUND('',#116,.T.);
#73=FACE_OUTER_BOUND('',#117,.T.);
#74=FACE_OUTER_BOUND('',#118,.T.);
#75=FACE_OUTER_BOUND('',#119,.T.);
#76=FACE_OUTER_BOUND('',#121,.T.);
#77=FACE_OUTER_BOUND('',#122,.T.);
#78=FACE_OUTER_BOUND('',#123,.T.);
#79=FACE_OUTER_BOUND('',#124,.T.);
#80=FACE_OUTER_BOUND('',#125,.T.);
#81=FACE_OUTER_BOUND('',#126,.T.);
#82=FACE_OUTER_BOUND('',#127,.T.);
#83=FACE_OUTER_BOUND('',#128,.T.);
#84=FACE_OUTER_BOUND('',#129,.T.);
#85=FACE_OUTER_BOUND('',#130,.T.);
#86=FACE_OUTER_BOUND('',#131,.T.);
#87=FACE_OUTER_BOUND('',#132,.T.);
#88=FACE_OUTER_BOUND('',#133,.T.);
#89=FACE_OUTER_BOUND('',#134,.T.);
#90=FACE_OUTER_BOUND('',#135,.T.);
#91=FACE_OUTER_BOUND('',#136,.T.);
#92=FACE_OUTER_BOUND('',#137,.T.);
#93=FACE_OUTER_BOUND('',#138,.T.);
#94=FACE_OUTER_BOUND('',#139,.T.);
#95=FACE_OUTER_BOUND('',#141,.T.);
#96=FACE_OUTER_BOUND('',#142,.T.);
#97=FACE_OUTER_BOUND('',#143,.T.);
#98=FACE_OUTER_BOUND('',#144,.T.);
#99=FACE_OUTER_BOUND('',#145,.T.);
#100=FACE_OUTER_BOUND('',#146,.T.);
#101=FACE_OUTER_BOUND('',#148,.T.);
#102=FACE_OUTER_BOUND('',#149,.T.);
#103=FACE_OUTER_BOUND('',#150,.T.);
#104=FACE_OUTER_BOUND('',#153,.T.);
#105=FACE_OUTER_BOUND('',#154,.T.);
#106=FACE_OUTER_BOUND('',#157,.T.);
#107=FACE_OUTER_BOUND('',#158,.T.);
#108=FACE_OUTER_BOUND('',#160,.T.);
#109=FACE_OUTER_BOUND('',#163,.T.);
#110=FACE_OUTER_BOUND('',#164,.T.);
#111=FACE_OUTER_BOUND('',#165,.T.);
#112=FACE_OUTER_BOUND('',#166,.T.);
#113=EDGE_LOOP('',(#449,#450,#451));
#114=EDGE_LOOP('',(#452));
#115=EDGE_LOOP('',(#453));
#116=EDGE_LOOP('',(#454,#455,#456,#457));
#117=EDGE_LOOP('',(#458,#459,#460,#461));
#118=EDGE_LOOP('',(#462,#463,#464));
#119=EDGE_LOOP('',(#465));
#120=EDGE_LOOP('',(#466));
#121=EDGE_LOOP('',(#467,#468,#469,#470));
#122=EDGE_LOOP('',(#471,#472,#473,#474));
#123=EDGE_LOOP('',(#475,#476,#477,#478));
#124=EDGE_LOOP('',(#479,#480,#481));
#125=EDGE_LOOP('',(#482,#483,#484,#485));
#126=EDGE_LOOP('',(#486,#487,#488,#489));
#127=EDGE_LOOP('',(#490,#491,#492));
#128=EDGE_LOOP('',(#493,#494,#495,#496));
#129=EDGE_LOOP('',(#497,#498,#499));
#130=EDGE_LOOP('',(#500,#501,#502));
#131=EDGE_LOOP('',(#503,#504,#505,#506));
#132=EDGE_LOOP('',(#507,#508,#509,#510));
#133=EDGE_LOOP('',(#511,#512,#513,#514));
#134=EDGE_LOOP('',(#515,#516,#517,#518));
#135=EDGE_LOOP('',(#519,#520,#521,#522));
#136=EDGE_LOOP('',(#523,#524,#525,#526));
#137=EDGE_LOOP('',(#527,#528,#529,#530));
#138=EDGE_LOOP('',(#531,#532,#533,#534));
#139=EDGE_LOOP('',(#535,#536,#537,#538));
#140=EDGE_LOOP('',(#539));
#141=EDGE_LOOP('',(#540,#541,#542,#543));
#142=EDGE_LOOP('',(#544,#545,#546,#547,#548,#549));
#143=EDGE_LOOP('',(#550,#551,#552,#553));
#144=EDGE_LOOP('',(#554,#555,#556,#557));
#145=EDGE_LOOP('',(#558,#559,#560));
#146=EDGE_LOOP('',(#561));
#147=EDGE_LOOP('',(#562));
#148=EDGE_LOOP('',(#563,#564,#565,#566));
#149=EDGE_LOOP('',(#567,#568,#569,#570));
#150=EDGE_LOOP('',(#571,#572,#573,#574));
#151=EDGE_LOOP('',(#575));
#152=EDGE_LOOP('',(#576));
#153=EDGE_LOOP('',(#577,#578,#579,#580));
#154=EDGE_LOOP('',(#581,#582,#583,#584));
#155=EDGE_LOOP('',(#585));
#156=EDGE_LOOP('',(#586));
#157=EDGE_LOOP('',(#587,#588,#589,#590));
#158=EDGE_LOOP('',(#591,#592,#593,#594,#595,#596,#597,#598));
#159=EDGE_LOOP('',(#599,#600,#601,#602));
#160=EDGE_LOOP('',(#603,#604,#605,#606));
#161=EDGE_LOOP('',(#607));
#162=EDGE_LOOP('',(#608));
#163=EDGE_LOOP('',(#609,#610,#611,#612));
#164=EDGE_LOOP('',(#613,#614,#615,#616));
#165=EDGE_LOOP('',(#617,#618,#619,#620,#621,#622));
#166=EDGE_LOOP('',(#623,#624,#625,#626));
#167=LINE('',#993,#220);
#168=LINE('',#1002,#221);
#169=LINE('',#1004,#222);
#170=LINE('',#1009,#223);
#171=LINE('',#1018,#224);
#172=LINE('',#1020,#225);
#173=LINE('',#1024,#226);
#174=LINE('',#1028,#227);
#175=LINE('',#1038,#228);
#176=LINE('',#1039,#229);
#177=LINE('',#1043,#230);
#178=LINE('',#1047,#231);
#179=LINE('',#1057,#232);
#180=LINE('',#1058,#233);
#181=LINE('',#1077,#234);
#182=LINE('',#1078,#235);
#183=LINE('',#1080,#236);
#184=LINE('',#1081,#237);
#185=LINE('',#1084,#238);
#186=LINE('',#1086,#239);
#187=LINE('',#1089,#240);
#188=LINE('',#1090,#241);
#189=LINE('',#1095,#242);
#190=LINE('',#1096,#243);
#191=LINE('',#1099,#244);
#192=LINE('',#1101,#245);
#193=LINE('',#1104,#246);
#194=LINE('',#1105,#247);
#195=LINE('',#1107,#248);
#196=LINE('',#1108,#249);
#197=LINE('',#1110,#250);
#198=LINE('',#1114,#251);
#199=LINE('',#1116,#252);
#200=LINE('',#1121,#253);
#201=LINE('',#1127,#254);
#202=LINE('',#1133,#255);
#203=LINE('',#1140,#256);
#204=LINE('',#1142,#257);
#205=LINE('',#1146,#258);
#206=LINE('',#1148,#259);
#207=LINE('',#1150,#260);
#208=LINE('',#1151,#261);
#209=LINE('',#1154,#262);
#210=LINE('',#1156,#263);
#211=LINE('',#1157,#264);
#212=LINE('',#1160,#265);
#213=LINE('',#1162,#266);
#214=LINE('',#1163,#267);
#215=LINE('',#1165,#268);
#216=LINE('',#1166,#269);
#217=LINE('',#1168,#270);
#218=LINE('',#1169,#271);
#219=LINE('',#1170,#272);
#220=VECTOR('',#781,1.5);
#221=VECTOR('',#792,4.5);
#222=VECTOR('',#795,3.);
#223=VECTOR('',#800,1.5);
#224=VECTOR('',#811,4.5);
#225=VECTOR('',#814,3.);
#226=VECTOR('',#817,10.);
#227=VECTOR('',#820,10.);
#228=VECTOR('',#833,10.);
#229=VECTOR('',#834,10.);
#230=VECTOR('',#837,10.);
#231=VECTOR('',#840,10.);
#232=VECTOR('',#853,10.);
#233=VECTOR('',#854,10.);
#234=VECTOR('',#875,10.);
#235=VECTOR('',#876,10.);
#236=VECTOR('',#879,10.);
#237=VECTOR('',#880,10.);
#238=VECTOR('',#883,10.);
#239=VECTOR('',#884,10.);
#240=VECTOR('',#889,10.);
#241=VECTOR('',#890,10.);
#242=VECTOR('',#895,10.);
#243=VECTOR('',#896,10.);
#244=VECTOR('',#899,10.);
#245=VECTOR('',#900,10.);
#246=VECTOR('',#905,10.);
#247=VECTOR('',#906,10.);
#248=VECTOR('',#909,10.);
#249=VECTOR('',#910,10.);
#250=VECTOR('',#913,10.);
#251=VECTOR('',#918,10.);
#252=VECTOR('',#921,10.);
#253=VECTOR('',#926,4.);
#254=VECTOR('',#933,4.);
#255=VECTOR('',#940,1.5);
#256=VECTOR('',#949,4.5);
#257=VECTOR('',#952,3.);
#258=VECTOR('',#955,10.);
#259=VECTOR('',#956,10.);
#260=VECTOR('',#957,10.);
#261=VECTOR('',#958,10.);
#262=VECTOR('',#961,10.);
#263=VECTOR('',#962,10.);
#264=VECTOR('',#963,10.);
#265=VECTOR('',#966,10.);
#266=VECTOR('',#967,10.);
#267=VECTOR('',#968,10.);
#268=VECTOR('',#971,10.);
#269=VECTOR('',#972,10.);
#270=VECTOR('',#975,10.);
#271=VECTOR('',#976,10.);
#272=VECTOR('',#977,10.);
#273=CIRCLE('',#697,3.);
#274=CIRCLE('',#699,4.5);
#275=CIRCLE('',#700,3.);
#276=CIRCLE('',#702,4.5);
#277=CIRCLE('',#705,3.);
#278=CIRCLE('',#707,4.5);
#279=CIRCLE('',#708,3.);
#280=CIRCLE('',#710,4.5);
#281=CIRCLE('',#713,5.);
#282=CIRCLE('',#716,5.);
#283=CIRCLE('',#717,5.);
#284=CIRCLE('',#718,5.);
#285=CIRCLE('',#721,5.);
#286=CIRCLE('',#724,5.);
#287=CIRCLE('',#725,5.);
#288=CIRCLE('',#726,5.);
#289=CIRCLE('',#729,4.99999999999998);
#290=CIRCLE('',#730,5.);
#291=CIRCLE('',#731,5.);
#292=CIRCLE('',#733,5.);
#293=CIRCLE('',#734,5.);
#294=CIRCLE('',#735,5.);
#295=CIRCLE('',#737,5.);
#296=CIRCLE('',#743,5.);
#297=CIRCLE('',#749,4.5);
#298=CIRCLE('',#753,4.);
#299=CIRCLE('',#754,4.);
#300=CIRCLE('',#756,4.);
#301=CIRCLE('',#757,4.);
#302=CIRCLE('',#759,3.);
#303=CIRCLE('',#761,4.5);
#304=CIRCLE('',#762,3.);
#305=VERTEX_POINT('',#990);
#306=VERTEX_POINT('',#992);
#307=VERTEX_POINT('',#995);
#308=VERTEX_POINT('',#997);
#309=VERTEX_POINT('',#1000);
#310=VERTEX_POINT('',#1006);
#311=VERTEX_POINT('',#1008);
#312=VERTEX_POINT('',#1011);
#313=VERTEX_POINT('',#1013);
#314=VERTEX_POINT('',#1016);
#315=VERTEX_POINT('',#1022);
#316=VERTEX_POINT('',#1023);
#317=VERTEX_POINT('',#1025);
#318=VERTEX_POINT('',#1027);
#319=VERTEX_POINT('',#1031);
#320=VERTEX_POINT('',#1032);
#321=VERTEX_POINT('',#1034);
#322=VERTEX_POINT('',#1041);
#323=VERTEX_POINT('',#1042);
#324=VERTEX_POINT('',#1044);
#325=VERTEX_POINT('',#1046);
#326=VERTEX_POINT('',#1050);
#327=VERTEX_POINT('',#1051);
#328=VERTEX_POINT('',#1053);
#329=VERTEX_POINT('',#1060);
#330=VERTEX_POINT('',#1061);
#331=VERTEX_POINT('',#1063);
#332=VERTEX_POINT('',#1067);
#333=VERTEX_POINT('',#1068);
#334=VERTEX_POINT('',#1070);
#335=VERTEX_POINT('',#1074);
#336=VERTEX_POINT('',#1075);
#337=VERTEX_POINT('',#1083);
#338=VERTEX_POINT('',#1085);
#339=VERTEX_POINT('',#1092);
#340=VERTEX_POINT('',#1093);
#341=VERTEX_POINT('',#1098);
#342=VERTEX_POINT('',#1100);
#343=VERTEX_POINT('',#1111);
#344=VERTEX_POINT('',#1118);
#345=VERTEX_POINT('',#1120);
#346=VERTEX_POINT('',#1124);
#347=VERTEX_POINT('',#1126);
#348=VERTEX_POINT('',#1130);
#349=VERTEX_POINT('',#1132);
#350=VERTEX_POINT('',#1135);
#351=VERTEX_POINT('',#1137);
#352=VERTEX_POINT('',#1144);
#353=VERTEX_POINT('',#1145);
#354=VERTEX_POINT('',#1147);
#355=VERTEX_POINT('',#1149);
#356=VERTEX_POINT('',#1153);
#357=VERTEX_POINT('',#1155);
#358=VERTEX_POINT('',#1159);
#359=VERTEX_POINT('',#1161);
#360=EDGE_CURVE('',#305,#305,#273,.T.);
#361=EDGE_CURVE('',#305,#306,#167,.T.);
#362=EDGE_CURVE('',#307,#307,#274,.T.);
#363=EDGE_CURVE('',#308,#308,#275,.T.);
#364=EDGE_CURVE('',#309,#309,#276,.T.);
#365=EDGE_CURVE('',#309,#307,#168,.T.);
#366=EDGE_CURVE('',#308,#305,#169,.T.);
#367=EDGE_CURVE('',#310,#310,#277,.T.);
#368=EDGE_CURVE('',#310,#311,#170,.T.);
#369=EDGE_CURVE('',#312,#312,#278,.T.);
#370=EDGE_CURVE('',#313,#313,#279,.T.);
#371=EDGE_CURVE('',#314,#314,#280,.T.);
#372=EDGE_CURVE('',#314,#312,#171,.T.);
#373=EDGE_CURVE('',#313,#310,#172,.T.);
#374=EDGE_CURVE('',#315,#316,#173,.T.);
#375=EDGE_CURVE('',#316,#317,#281,.T.);
#376=EDGE_CURVE('',#317,#318,#174,.T.);
#377=EDGE_CURVE('',#318,#315,#19,.T.);
#378=EDGE_CURVE('',#319,#320,#282,.F.);
#379=EDGE_CURVE('',#321,#319,#283,.F.);
#380=EDGE_CURVE('',#320,#321,#284,.F.);
#381=EDGE_CURVE('',#318,#321,#175,.T.);
#382=EDGE_CURVE('',#319,#315,#176,.T.);
#383=EDGE_CURVE('',#322,#323,#177,.T.);
#384=EDGE_CURVE('',#323,#324,#285,.T.);
#385=EDGE_CURVE('',#324,#325,#178,.T.);
#386=EDGE_CURVE('',#325,#322,#20,.T.);
#387=EDGE_CURVE('',#326,#327,#286,.F.);
#388=EDGE_CURVE('',#328,#326,#287,.F.);
#389=EDGE_CURVE('',#327,#328,#288,.F.);
#390=EDGE_CURVE('',#325,#328,#179,.T.);
#391=EDGE_CURVE('',#326,#322,#180,.T.);
#392=EDGE_CURVE('',#329,#330,#289,.F.);
#393=EDGE_CURVE('',#331,#329,#290,.F.);
#394=EDGE_CURVE('',#330,#331,#291,.F.);
#395=EDGE_CURVE('',#332,#333,#292,.F.);
#396=EDGE_CURVE('',#334,#332,#293,.F.);
#397=EDGE_CURVE('',#333,#334,#294,.F.);
#398=EDGE_CURVE('',#335,#336,#295,.T.);
#399=EDGE_CURVE('',#336,#334,#181,.T.);
#400=EDGE_CURVE('',#332,#335,#182,.T.);
#401=EDGE_CURVE('',#329,#333,#183,.T.);
#402=EDGE_CURVE('',#334,#331,#184,.T.);
#403=EDGE_CURVE('',#337,#332,#185,.T.);
#404=EDGE_CURVE('',#333,#338,#186,.T.);
#405=EDGE_CURVE('',#338,#337,#21,.T.);
#406=EDGE_CURVE('',#338,#327,#187,.T.);
#407=EDGE_CURVE('',#328,#337,#188,.T.);
#408=EDGE_CURVE('',#339,#340,#296,.T.);
#409=EDGE_CURVE('',#340,#330,#189,.T.);
#410=EDGE_CURVE('',#331,#339,#190,.T.);
#411=EDGE_CURVE('',#341,#329,#191,.T.);
#412=EDGE_CURVE('',#330,#342,#192,.T.);
#413=EDGE_CURVE('',#342,#341,#22,.T.);
#414=EDGE_CURVE('',#327,#320,#193,.T.);
#415=EDGE_CURVE('',#321,#326,#194,.T.);
#416=EDGE_CURVE('',#342,#319,#195,.T.);
#417=EDGE_CURVE('',#320,#341,#196,.T.);
#418=EDGE_CURVE('',#338,#341,#197,.T.);
#419=EDGE_CURVE('',#343,#343,#297,.T.);
#420=EDGE_CURVE('',#322,#318,#198,.T.);
#421=EDGE_CURVE('',#340,#316,#199,.T.);
#422=EDGE_CURVE('',#344,#344,#298,.T.);
#423=EDGE_CURVE('',#344,#345,#200,.T.);
#424=EDGE_CURVE('',#345,#345,#299,.T.);
#425=EDGE_CURVE('',#346,#346,#300,.T.);
#426=EDGE_CURVE('',#346,#347,#201,.T.);
#427=EDGE_CURVE('',#347,#347,#301,.T.);
#428=EDGE_CURVE('',#348,#348,#302,.T.);
#429=EDGE_CURVE('',#348,#349,#202,.T.);
#430=EDGE_CURVE('',#350,#350,#303,.T.);
#431=EDGE_CURVE('',#351,#351,#304,.T.);
#432=EDGE_CURVE('',#343,#350,#203,.T.);
#433=EDGE_CURVE('',#351,#348,#204,.T.);
#434=EDGE_CURVE('',#352,#353,#205,.T.);
#435=EDGE_CURVE('',#352,#354,#206,.T.);
#436=EDGE_CURVE('',#354,#355,#207,.T.);
#437=EDGE_CURVE('',#353,#355,#208,.T.);
#438=EDGE_CURVE('',#356,#352,#209,.T.);
#439=EDGE_CURVE('',#356,#357,#210,.T.);
#440=EDGE_CURVE('',#357,#354,#211,.T.);
#441=EDGE_CURVE('',#358,#356,#212,.T.);
#442=EDGE_CURVE('',#358,#359,#213,.T.);
#443=EDGE_CURVE('',#359,#357,#214,.T.);
#444=EDGE_CURVE('',#353,#358,#215,.T.);
#445=EDGE_CURVE('',#355,#359,#216,.T.);
#446=EDGE_CURVE('',#317,#323,#217,.T.);
#447=EDGE_CURVE('',#336,#339,#218,.T.);
#448=EDGE_CURVE('',#324,#335,#219,.T.);
#449=ORIENTED_EDGE('',*,*,#360,.T.);
#450=ORIENTED_EDGE('',*,*,#361,.T.);
#451=ORIENTED_EDGE('',*,*,#361,.F.);
#452=ORIENTED_EDGE('',*,*,#362,.T.);
#453=ORIENTED_EDGE('',*,*,#363,.F.);
#454=ORIENTED_EDGE('',*,*,#364,.F.);
#455=ORIENTED_EDGE('',*,*,#365,.T.);
#456=ORIENTED_EDGE('',*,*,#362,.F.);
#457=ORIENTED_EDGE('',*,*,#365,.F.);
#458=ORIENTED_EDGE('',*,*,#363,.T.);
#459=ORIENTED_EDGE('',*,*,#366,.T.);
#460=ORIENTED_EDGE('',*,*,#360,.F.);
#461=ORIENTED_EDGE('',*,*,#366,.F.);
#462=ORIENTED_EDGE('',*,*,#367,.T.);
#463=ORIENTED_EDGE('',*,*,#368,.T.);
#464=ORIENTED_EDGE('',*,*,#368,.F.);
#465=ORIENTED_EDGE('',*,*,#369,.T.);
#466=ORIENTED_EDGE('',*,*,#370,.F.);
#467=ORIENTED_EDGE('',*,*,#371,.F.);
#468=ORIENTED_EDGE('',*,*,#372,.T.);
#469=ORIENTED_EDGE('',*,*,#369,.F.);
#470=ORIENTED_EDGE('',*,*,#372,.F.);
#471=ORIENTED_EDGE('',*,*,#370,.T.);
#472=ORIENTED_EDGE('',*,*,#373,.T.);
#473=ORIENTED_EDGE('',*,*,#367,.F.);
#474=ORIENTED_EDGE('',*,*,#373,.F.);
#475=ORIENTED_EDGE('',*,*,#374,.T.);
#476=ORIENTED_EDGE('',*,*,#375,.T.);
#477=ORIENTED_EDGE('',*,*,#376,.T.);
#478=ORIENTED_EDGE('',*,*,#377,.T.);
#479=ORIENTED_EDGE('',*,*,#378,.F.);
#480=ORIENTED_EDGE('',*,*,#379,.F.);
#481=ORIENTED_EDGE('',*,*,#380,.F.);
#482=ORIENTED_EDGE('',*,*,#381,.T.);
#483=ORIENTED_EDGE('',*,*,#379,.T.);
#484=ORIENTED_EDGE('',*,*,#382,.T.);
#485=ORIENTED_EDGE('',*,*,#377,.F.);
#486=ORIENTED_EDGE('',*,*,#383,.T.);
#487=ORIENTED_EDGE('',*,*,#384,.T.);
#488=ORIENTED_EDGE('',*,*,#385,.T.);
#489=ORIENTED_EDGE('',*,*,#386,.T.);
#490=ORIENTED_EDGE('',*,*,#387,.F.);
#491=ORIENTED_EDGE('',*,*,#388,.F.);
#492=ORIENTED_EDGE('',*,*,#389,.F.);
#493=ORIENTED_EDGE('',*,*,#390,.T.);
#494=ORIENTED_EDGE('',*,*,#388,.T.);
#495=ORIENTED_EDGE('',*,*,#391,.T.);
#496=ORIENTED_EDGE('',*,*,#386,.F.);
#497=ORIENTED_EDGE('',*,*,#392,.F.);
#498=ORIENTED_EDGE('',*,*,#393,.F.);
#499=ORIENTED_EDGE('',*,*,#394,.F.);
#500=ORIENTED_EDGE('',*,*,#395,.F.);
#501=ORIENTED_EDGE('',*,*,#396,.F.);
#502=ORIENTED_EDGE('',*,*,#397,.F.);
#503=ORIENTED_EDGE('',*,*,#398,.T.);
#504=ORIENTED_EDGE('',*,*,#399,.T.);
#505=ORIENTED_EDGE('',*,*,#396,.T.);
#506=ORIENTED_EDGE('',*,*,#400,.T.);
#507=ORIENTED_EDGE('',*,*,#393,.T.);
#508=ORIENTED_EDGE('',*,*,#401,.T.);
#509=ORIENTED_EDGE('',*,*,#397,.T.);
#510=ORIENTED_EDGE('',*,*,#402,.T.);
#511=ORIENTED_EDGE('',*,*,#403,.T.);
#512=ORIENTED_EDGE('',*,*,#395,.T.);
#513=ORIENTED_EDGE('',*,*,#404,.T.);
#514=ORIENTED_EDGE('',*,*,#405,.T.);
#515=ORIENTED_EDGE('',*,*,#406,.T.);
#516=ORIENTED_EDGE('',*,*,#389,.T.);
#517=ORIENTED_EDGE('',*,*,#407,.T.);
#518=ORIENTED_EDGE('',*,*,#405,.F.);
#519=ORIENTED_EDGE('',*,*,#408,.T.);
#520=ORIENTED_EDGE('',*,*,#409,.T.);
#521=ORIENTED_EDGE('',*,*,#394,.T.);
#522=ORIENTED_EDGE('',*,*,#410,.T.);
#523=ORIENTED_EDGE('',*,*,#411,.T.);
#524=ORIENTED_EDGE('',*,*,#392,.T.);
#525=ORIENTED_EDGE('',*,*,#412,.T.);
#526=ORIENTED_EDGE('',*,*,#413,.T.);
#527=ORIENTED_EDGE('',*,*,#387,.T.);
#528=ORIENTED_EDGE('',*,*,#414,.T.);
#529=ORIENTED_EDGE('',*,*,#380,.T.);
#530=ORIENTED_EDGE('',*,*,#415,.T.);
#531=ORIENTED_EDGE('',*,*,#416,.T.);
#532=ORIENTED_EDGE('',*,*,#378,.T.);
#533=ORIENTED_EDGE('',*,*,#417,.T.);
#534=ORIENTED_EDGE('',*,*,#413,.F.);
#535=ORIENTED_EDGE('',*,*,#404,.F.);
#536=ORIENTED_EDGE('',*,*,#401,.F.);
#537=ORIENTED_EDGE('',*,*,#411,.F.);
#538=ORIENTED_EDGE('',*,*,#418,.F.);
#539=ORIENTED_EDGE('',*,*,#419,.T.);
#540=ORIENTED_EDGE('',*,*,#391,.F.);
#541=ORIENTED_EDGE('',*,*,#415,.F.);
#542=ORIENTED_EDGE('',*,*,#381,.F.);
#543=ORIENTED_EDGE('',*,*,#420,.F.);
#544=ORIENTED_EDGE('',*,*,#374,.F.);
#545=ORIENTED_EDGE('',*,*,#382,.F.);
#546=ORIENTED_EDGE('',*,*,#416,.F.);
#547=ORIENTED_EDGE('',*,*,#412,.F.);
#548=ORIENTED_EDGE('',*,*,#409,.F.);
#549=ORIENTED_EDGE('',*,*,#421,.T.);
#550=ORIENTED_EDGE('',*,*,#422,.F.);
#551=ORIENTED_EDGE('',*,*,#423,.T.);
#552=ORIENTED_EDGE('',*,*,#424,.F.);
#553=ORIENTED_EDGE('',*,*,#423,.F.);
#554=ORIENTED_EDGE('',*,*,#425,.F.);
#555=ORIENTED_EDGE('',*,*,#426,.T.);
#556=ORIENTED_EDGE('',*,*,#427,.F.);
#557=ORIENTED_EDGE('',*,*,#426,.F.);
#558=ORIENTED_EDGE('',*,*,#428,.T.);
#559=ORIENTED_EDGE('',*,*,#429,.T.);
#560=ORIENTED_EDGE('',*,*,#429,.F.);
#561=ORIENTED_EDGE('',*,*,#430,.T.);
#562=ORIENTED_EDGE('',*,*,#431,.F.);
#563=ORIENTED_EDGE('',*,*,#419,.F.);
#564=ORIENTED_EDGE('',*,*,#432,.T.);
#565=ORIENTED_EDGE('',*,*,#430,.F.);
#566=ORIENTED_EDGE('',*,*,#432,.F.);
#567=ORIENTED_EDGE('',*,*,#431,.T.);
#568=ORIENTED_EDGE('',*,*,#433,.T.);
#569=ORIENTED_EDGE('',*,*,#428,.F.);
#570=ORIENTED_EDGE('',*,*,#433,.F.);
#571=ORIENTED_EDGE('',*,*,#434,.F.);
#572=ORIENTED_EDGE('',*,*,#435,.T.);
#573=ORIENTED_EDGE('',*,*,#436,.T.);
#574=ORIENTED_EDGE('',*,*,#437,.F.);
#575=ORIENTED_EDGE('',*,*,#422,.T.);
#576=ORIENTED_EDGE('',*,*,#425,.T.);
#577=ORIENTED_EDGE('',*,*,#438,.F.);
#578=ORIENTED_EDGE('',*,*,#439,.T.);
#579=ORIENTED_EDGE('',*,*,#440,.T.);
#580=ORIENTED_EDGE('',*,*,#435,.F.);
#581=ORIENTED_EDGE('',*,*,#441,.F.);
#582=ORIENTED_EDGE('',*,*,#442,.T.);
#583=ORIENTED_EDGE('',*,*,#443,.T.);
#584=ORIENTED_EDGE('',*,*,#439,.F.);
#585=ORIENTED_EDGE('',*,*,#424,.T.);
#586=ORIENTED_EDGE('',*,*,#427,.T.);
#587=ORIENTED_EDGE('',*,*,#444,.F.);
#588=ORIENTED_EDGE('',*,*,#437,.T.);
#589=ORIENTED_EDGE('',*,*,#445,.T.);
#590=ORIENTED_EDGE('',*,*,#442,.F.);
#591=ORIENTED_EDGE('',*,*,#384,.F.);
#592=ORIENTED_EDGE('',*,*,#446,.F.);
#593=ORIENTED_EDGE('',*,*,#375,.F.);
#594=ORIENTED_EDGE('',*,*,#421,.F.);
#595=ORIENTED_EDGE('',*,*,#408,.F.);
#596=ORIENTED_EDGE('',*,*,#447,.F.);
#597=ORIENTED_EDGE('',*,*,#398,.F.);
#598=ORIENTED_EDGE('',*,*,#448,.F.);
#599=ORIENTED_EDGE('',*,*,#445,.F.);
#600=ORIENTED_EDGE('',*,*,#436,.F.);
#601=ORIENTED_EDGE('',*,*,#440,.F.);
#602=ORIENTED_EDGE('',*,*,#443,.F.);
#603=ORIENTED_EDGE('',*,*,#383,.F.);
#604=ORIENTED_EDGE('',*,*,#420,.T.);
#605=ORIENTED_EDGE('',*,*,#376,.F.);
#606=ORIENTED_EDGE('',*,*,#446,.T.);
#607=ORIENTED_EDGE('',*,*,#364,.T.);
#608=ORIENTED_EDGE('',*,*,#371,.T.);
#609=ORIENTED_EDGE('',*,*,#406,.F.);
#610=ORIENTED_EDGE('',*,*,#418,.T.);
#611=ORIENTED_EDGE('',*,*,#417,.F.);
#612=ORIENTED_EDGE('',*,*,#414,.F.);
#613=ORIENTED_EDGE('',*,*,#434,.T.);
#614=ORIENTED_EDGE('',*,*,#444,.T.);
#615=ORIENTED_EDGE('',*,*,#441,.T.);
#616=ORIENTED_EDGE('',*,*,#438,.T.);
#617=ORIENTED_EDGE('',*,*,#385,.F.);
#618=ORIENTED_EDGE('',*,*,#448,.T.);
#619=ORIENTED_EDGE('',*,*,#400,.F.);
#620=ORIENTED_EDGE('',*,*,#403,.F.);
#621=ORIENTED_EDGE('',*,*,#407,.F.);
#622=ORIENTED_EDGE('',*,*,#390,.F.);
#623=ORIENTED_EDGE('',*,*,#399,.F.);
#624=ORIENTED_EDGE('',*,*,#447,.T.);
#625=ORIENTED_EDGE('',*,*,#410,.F.);
#626=ORIENTED_EDGE('',*,*,#402,.F.);
#627=CONICAL_SURFACE('',#696,1.5,1.02974425867665);
#628=CONICAL_SURFACE('',#704,1.5,1.02974425867665);
#629=CONICAL_SURFACE('',#758,1.5,1.02974425867665);
#630=ADVANCED_FACE('',(#70),#627,.F.);
#631=ADVANCED_FACE('',(#71,#43),#54,.T.);
#632=ADVANCED_FACE('',(#72),#23,.F.);
#633=ADVANCED_FACE('',(#73),#24,.F.);
#634=ADVANCED_FACE('',(#74),#628,.F.);
#635=ADVANCED_FACE('',(#75,#44),#55,.T.);
#636=ADVANCED_FACE('',(#76),#25,.F.);
#637=ADVANCED_FACE('',(#77),#26,.F.);
#638=ADVANCED_FACE('',(#78),#27,.T.);
#639=ADVANCED_FACE('',(#79),#15,.T.);
#640=ADVANCED_FACE('',(#80),#28,.T.);
#641=ADVANCED_FACE('',(#81),#29,.T.);
#642=ADVANCED_FACE('',(#82),#16,.T.);
#643=ADVANCED_FACE('',(#83),#30,.T.);
#644=ADVANCED_FACE('',(#84),#17,.T.);
#645=ADVANCED_FACE('',(#85),#18,.T.);
#646=ADVANCED_FACE('',(#86),#31,.T.);
#647=ADVANCED_FACE('',(#87),#32,.T.);
#648=ADVANCED_FACE('',(#88),#33,.T.);
#649=ADVANCED_FACE('',(#89),#34,.T.);
#650=ADVANCED_FACE('',(#90),#35,.T.);
#651=ADVANCED_FACE('',(#91),#36,.T.);
#652=ADVANCED_FACE('',(#92),#37,.T.);
#653=ADVANCED_FACE('',(#93),#38,.T.);
#654=ADVANCED_FACE('',(#94,#45),#56,.T.);
#655=ADVANCED_FACE('',(#95),#57,.T.);
#656=ADVANCED_FACE('',(#96),#58,.T.);
#657=ADVANCED_FACE('',(#97),#39,.F.);
#658=ADVANCED_FACE('',(#98),#40,.F.);
#659=ADVANCED_FACE('',(#99),#629,.F.);
#660=ADVANCED_FACE('',(#100,#46),#59,.T.);
#661=ADVANCED_FACE('',(#101),#41,.F.);
#662=ADVANCED_FACE('',(#102),#42,.F.);
#663=ADVANCED_FACE('',(#103,#47,#48),#60,.F.);
#664=ADVANCED_FACE('',(#104),#61,.F.);
#665=ADVANCED_FACE('',(#105,#49,#50),#62,.F.);
#666=ADVANCED_FACE('',(#106),#63,.F.);
#667=ADVANCED_FACE('',(#107,#51),#64,.F.);
#668=ADVANCED_FACE('',(#108,#52,#53),#65,.T.);
#669=ADVANCED_FACE('',(#109),#66,.T.);
#670=ADVANCED_FACE('',(#110),#67,.T.);
#671=ADVANCED_FACE('',(#111),#68,.T.);
#672=ADVANCED_FACE('',(#112),#69,.F.);
#673=CLOSED_SHELL('',(#630,#631,#632,#633,#634,#635,#636,#637,#638,#639,
#640,#641,#642,#643,#644,#645,#646,#647,#648,#649,#650,#651,#652,#653,#654,
#655,#656,#657,#658,#659,#660,#661,#662,#663,#664,#665,#666,#667,#668,#669,
#670,#671,#672));
#674=DERIVED_UNIT_ELEMENT(#677,1.);
#675=DERIVED_UNIT_ELEMENT(#1181,-3.);
#676=DIMENSIONAL_EXPONENTS(0.,1.,0.,0.,0.,0.,0.);
#677=(
CONVERSION_BASED_UNIT('gram',#679)
MASS_UNIT()
NAMED_UNIT(#676)
);
#678=(
MASS_UNIT()
NAMED_UNIT(*)
SI_UNIT(.KILO.,.GRAM.)
);
#679=MASS_MEASURE_WITH_UNIT(MASS_MEASURE(0.001),#678);
#680=DERIVED_UNIT((#674,#675));
#681=MEASURE_REPRESENTATION_ITEM('density measure',
POSITIVE_RATIO_MEASURE(1.),#680);
#682=PROPERTY_DEFINITION_REPRESENTATION(#687,#684);
#683=PROPERTY_DEFINITION_REPRESENTATION(#688,#685);
#684=REPRESENTATION('material name',(#686),#1178);
#685=REPRESENTATION('density',(#681),#1178);
#686=DESCRIPTIVE_REPRESENTATION_ITEM('Generic','Generic');
#687=PROPERTY_DEFINITION('material property','material name',#1188);
#688=PROPERTY_DEFINITION('material property','density of part',#1188);
#689=DATE_TIME_ROLE('creation_date');
#690=APPLIED_DATE_AND_TIME_ASSIGNMENT(#691,#689,(#1188));
#691=DATE_AND_TIME(#692,#693);
#692=CALENDAR_DATE(2026,18,4);
#693=LOCAL_TIME(0,0,0.,#694);
#694=COORDINATED_UNIVERSAL_TIME_OFFSET(0,0,.BEHIND.);
#695=AXIS2_PLACEMENT_3D('',#988,#775,#776);
#696=AXIS2_PLACEMENT_3D('',#989,#777,#778);
#697=AXIS2_PLACEMENT_3D('',#991,#779,#780);
#698=AXIS2_PLACEMENT_3D('',#994,#782,#783);
#699=AXIS2_PLACEMENT_3D('',#996,#784,#785);
#700=AXIS2_PLACEMENT_3D('',#998,#786,#787);
#701=AXIS2_PLACEMENT_3D('',#999,#788,#789);
#702=AXIS2_PLACEMENT_3D('',#1001,#790,#791);
#703=AXIS2_PLACEMENT_3D('',#1003,#793,#794);
#704=AXIS2_PLACEMENT_3D('',#1005,#796,#797);
#705=AXIS2_PLACEMENT_3D('',#1007,#798,#799);
#706=AXIS2_PLACEMENT_3D('',#1010,#801,#802);
#707=AXIS2_PLACEMENT_3D('',#1012,#803,#804);
#708=AXIS2_PLACEMENT_3D('',#1014,#805,#806);
#709=AXIS2_PLACEMENT_3D('',#1015,#807,#808);
#710=AXIS2_PLACEMENT_3D('',#1017,#809,#810);
#711=AXIS2_PLACEMENT_3D('',#1019,#812,#813);
#712=AXIS2_PLACEMENT_3D('',#1021,#815,#816);
#713=AXIS2_PLACEMENT_3D('',#1026,#818,#819);
#714=AXIS2_PLACEMENT_3D('',#1029,#821,#822);
#715=AXIS2_PLACEMENT_3D('',#1030,#823,#824);
#716=AXIS2_PLACEMENT_3D('',#1033,#825,#826);
#717=AXIS2_PLACEMENT_3D('',#1035,#827,#828);
#718=AXIS2_PLACEMENT_3D('',#1036,#829,#830);
#719=AXIS2_PLACEMENT_3D('',#1037,#831,#832);
#720=AXIS2_PLACEMENT_3D('',#1040,#835,#836);
#721=AXIS2_PLACEMENT_3D('',#1045,#838,#839);
#722=AXIS2_PLACEMENT_3D('',#1048,#841,#842);
#723=AXIS2_PLACEMENT_3D('',#1049,#843,#844);
#724=AXIS2_PLACEMENT_3D('',#1052,#845,#846);
#725=AXIS2_PLACEMENT_3D('',#1054,#847,#848);
#726=AXIS2_PLACEMENT_3D('',#1055,#849,#850);
#727=AXIS2_PLACEMENT_3D('',#1056,#851,#852);
#728=AXIS2_PLACEMENT_3D('',#1059,#855,#856);
#729=AXIS2_PLACEMENT_3D('',#1062,#857,#858);
#730=AXIS2_PLACEMENT_3D('',#1064,#859,#860);
#731=AXIS2_PLACEMENT_3D('',#1065,#861,#862);
#732=AXIS2_PLACEMENT_3D('',#1066,#863,#864);
#733=AXIS2_PLACEMENT_3D('',#1069,#865,#866);
#734=AXIS2_PLACEMENT_3D('',#1071,#867,#868);
#735=AXIS2_PLACEMENT_3D('',#1072,#869,#870);
#736=AXIS2_PLACEMENT_3D('',#1073,#871,#872);
#737=AXIS2_PLACEMENT_3D('',#1076,#873,#874);
#738=AXIS2_PLACEMENT_3D('',#1079,#877,#878);
#739=AXIS2_PLACEMENT_3D('',#1082,#881,#882);
#740=AXIS2_PLACEMENT_3D('',#1087,#885,#886);
#741=AXIS2_PLACEMENT_3D('',#1088,#887,#888);
#742=AXIS2_PLACEMENT_3D('',#1091,#891,#892);
#743=AXIS2_PLACEMENT_3D('',#1094,#893,#894);
#744=AXIS2_PLACEMENT_3D('',#1097,#897,#898);
#745=AXIS2_PLACEMENT_3D('',#1102,#901,#902);
#746=AXIS2_PLACEMENT_3D('',#1103,#903,#904);
#747=AXIS2_PLACEMENT_3D('',#1106,#907,#908);
#748=AXIS2_PLACEMENT_3D('',#1109,#911,#912);
#749=AXIS2_PLACEMENT_3D('',#1112,#914,#915);
#750=AXIS2_PLACEMENT_3D('',#1113,#916,#917);
#751=AXIS2_PLACEMENT_3D('',#1115,#919,#920);
#752=AXIS2_PLACEMENT_3D('',#1117,#922,#923);
#753=AXIS2_PLACEMENT_3D('',#1119,#924,#925);
#754=AXIS2_PLACEMENT_3D('',#1122,#927,#928);
#755=AXIS2_PLACEMENT_3D('',#1123,#929,#930);
#756=AXIS2_PLACEMENT_3D('',#1125,#931,#932);
#757=AXIS2_PLACEMENT_3D('',#1128,#934,#935);
#758=AXIS2_PLACEMENT_3D('',#1129,#936,#937);
#759=AXIS2_PLACEMENT_3D('',#1131,#938,#939);
#760=AXIS2_PLACEMENT_3D('',#1134,#941,#942);
#761=AXIS2_PLACEMENT_3D('',#1136,#943,#944);
#762=AXIS2_PLACEMENT_3D('',#1138,#945,#946);
#763=AXIS2_PLACEMENT_3D('',#1139,#947,#948);
#764=AXIS2_PLACEMENT_3D('',#1141,#950,#951);
#765=AXIS2_PLACEMENT_3D('',#1143,#953,#954);
#766=AXIS2_PLACEMENT_3D('',#1152,#959,#960);
#767=AXIS2_PLACEMENT_3D('',#1158,#964,#965);
#768=AXIS2_PLACEMENT_3D('',#1164,#969,#970);
#769=AXIS2_PLACEMENT_3D('',#1167,#973,#974);
#770=AXIS2_PLACEMENT_3D('',#1171,#978,#979);
#771=AXIS2_PLACEMENT_3D('',#1172,#980,#981);
#772=AXIS2_PLACEMENT_3D('',#1173,#982,#983);
#773=AXIS2_PLACEMENT_3D('',#1174,#984,#985);
#774=AXIS2_PLACEMENT_3D('',#1175,#986,#987);
#775=DIRECTION('axis',(0.,0.,1.));
#776=DIRECTION('refdir',(1.,0.,0.));
#777=DIRECTION('center_axis',(0.,1.,0.));
#778=DIRECTION('ref_axis',(1.,0.,0.));
#779=DIRECTION('center_axis',(0.,1.,0.));
#780=DIRECTION('ref_axis',(1.,0.,0.));
#781=DIRECTION('',(0.857167300702112,-0.515038074910054,-1.04972719113862E-16));
#782=DIRECTION('center_axis',(0.,1.,0.));
#783=DIRECTION('ref_axis',(1.,0.,0.));
#784=DIRECTION('center_axis',(0.,1.,0.));
#785=DIRECTION('ref_axis',(1.,0.,0.));
#786=DIRECTION('center_axis',(0.,1.,0.));
#787=DIRECTION('ref_axis',(1.,0.,0.));
#788=DIRECTION('center_axis',(0.,1.,0.));
#789=DIRECTION('ref_axis',(1.,0.,0.));
#790=DIRECTION('center_axis',(0.,-1.,0.));
#791=DIRECTION('ref_axis',(1.,0.,0.));
#792=DIRECTION('',(0.,-1.,0.));
#793=DIRECTION('center_axis',(0.,1.,0.));
#794=DIRECTION('ref_axis',(1.,0.,0.));
#795=DIRECTION('',(0.,-1.,0.));
#796=DIRECTION('center_axis',(0.,1.,0.));
#797=DIRECTION('ref_axis',(1.,0.,0.));
#798=DIRECTION('center_axis',(0.,1.,0.));
#799=DIRECTION('ref_axis',(1.,0.,0.));
#800=DIRECTION('',(0.857167300702112,-0.515038074910054,-1.04972719113862E-16));
#801=DIRECTION('center_axis',(0.,1.,0.));
#802=DIRECTION('ref_axis',(1.,0.,0.));
#803=DIRECTION('center_axis',(0.,1.,0.));
#804=DIRECTION('ref_axis',(1.,0.,0.));
#805=DIRECTION('center_axis',(0.,1.,0.));
#806=DIRECTION('ref_axis',(1.,0.,0.));
#807=DIRECTION('center_axis',(0.,1.,0.));
#808=DIRECTION('ref_axis',(1.,0.,0.));
#809=DIRECTION('center_axis',(0.,-1.,0.));
#810=DIRECTION('ref_axis',(1.,0.,0.));
#811=DIRECTION('',(0.,-1.,0.));
#812=DIRECTION('center_axis',(0.,1.,0.));
#813=DIRECTION('ref_axis',(1.,0.,0.));
#814=DIRECTION('',(0.,-1.,0.));
#815=DIRECTION('center_axis',(1.86763996612555E-16,0.,1.));
#816=DIRECTION('ref_axis',(-0.707106781186547,0.707106781186547,0.));
#817=DIRECTION('',(1.86763996612555E-16,0.,1.));
#818=DIRECTION('center_axis',(0.,0.,-1.));
#819=DIRECTION('ref_axis',(-0.707106781186547,0.707106781186547,0.));
#820=DIRECTION('',(-1.86763996612555E-16,0.,-1.));
#821=DIRECTION('center_axis',(0.,-0.707106781186548,0.707106781186548));
#822=DIRECTION('ref_axis',(-2.64124176972478E-16,-0.707106781186547,-0.707106781186547));
#823=DIRECTION('center_axis',(-0.408248290463864,0.408248290463863,-0.816496580927726));
#824=DIRECTION('ref_axis',(-0.577350269189626,0.577350269189626,0.577350269189626));
#825=DIRECTION('center_axis',(0.,0.,1.));
#826=DIRECTION('ref_axis',(-1.,0.,0.));
#827=DIRECTION('center_axis',(0.,1.,0.));
#828=DIRECTION('ref_axis',(0.,0.,1.));
#829=DIRECTION('center_axis',(-1.,0.,4.44089209850063E-16));
#830=DIRECTION('ref_axis',(0.,1.,0.));
#831=DIRECTION('center_axis',(0.,1.,0.));
#832=DIRECTION('ref_axis',(-0.707106781186547,0.,0.707106781186547));
#833=DIRECTION('',(0.,1.,0.));
#834=DIRECTION('',(0.,-1.,0.));
#835=DIRECTION('center_axis',(-7.11481891857352E-17,0.,-1.));
#836=DIRECTION('ref_axis',(0.707106781186547,0.707106781186547,0.));
#837=DIRECTION('',(7.11481891857352E-17,0.,1.));
#838=DIRECTION('center_axis',(0.,0.,-1.));
#839=DIRECTION('ref_axis',(0.707106781186547,0.707106781186547,0.));
#840=DIRECTION('',(-7.11481891857352E-17,0.,-1.));
#841=DIRECTION('center_axis',(0.,-0.707106781186549,0.707106781186546));
#842=DIRECTION('ref_axis',(1.00618734084753E-16,0.707106781186546,0.707106781186549));
#843=DIRECTION('center_axis',(0.408248290463861,-0.816496580927728,0.408248290463862));
#844=DIRECTION('ref_axis',(0.577350269189625,0.577350269189624,0.577350269189629));
#845=DIRECTION('center_axis',(1.,0.,0.));
#846=DIRECTION('ref_axis',(0.,0.,1.));
#847=DIRECTION('center_axis',(0.,1.,0.));
#848=DIRECTION('ref_axis',(1.,0.,0.));
#849=DIRECTION('center_axis',(3.5527136788005E-15,0.,1.));
#850=DIRECTION('ref_axis',(0.,1.,0.));
#851=DIRECTION('center_axis',(0.,1.,0.));
#852=DIRECTION('ref_axis',(0.707106781186547,0.,0.707106781186547));
#853=DIRECTION('',(0.,1.,0.));
#854=DIRECTION('',(0.,-1.,0.));
#855=DIRECTION('center_axis',(0.408248290463862,-0.816496580927727,0.408248290463863));
#856=DIRECTION('ref_axis',(-0.577350269189625,-0.577350269189625,-0.577350269189628));
#857=DIRECTION('center_axis',(0.,-1.,0.));
#858=DIRECTION('ref_axis',(-4.44089209850064E-16,0.,-1.));
#859=DIRECTION('center_axis',(-1.,0.,0.));
#860=DIRECTION('ref_axis',(0.,-1.,0.));
#861=DIRECTION('center_axis',(0.,-3.5527136788005E-15,-1.));
#862=DIRECTION('ref_axis',(-1.,0.,0.));
#863=DIRECTION('center_axis',(-0.408248290463863,-0.816496580927726,0.408248290463863));
#864=DIRECTION('ref_axis',(0.577350269189626,-0.577350269189626,-0.577350269189626));
#865=DIRECTION('center_axis',(0.,-1.,0.));
#866=DIRECTION('ref_axis',(1.,0.,0.));
#867=DIRECTION('center_axis',(0.,0.,-1.));
#868=DIRECTION('ref_axis',(0.,-1.,0.));
#869=DIRECTION('center_axis',(1.,2.22044604925031E-16,-6.66133814775094E-16));
#870=DIRECTION('ref_axis',(-6.66133814775094E-16,0.,-1.));
#871=DIRECTION('center_axis',(-7.11481891857352E-17,0.,-1.));
#872=DIRECTION('ref_axis',(0.707106781186547,-0.707106781186547,0.));
#873=DIRECTION('center_axis',(0.,0.,-1.));
#874=DIRECTION('ref_axis',(0.707106781186547,-0.707106781186547,0.));
#875=DIRECTION('',(-7.11481891857352E-17,0.,-1.));
#876=DIRECTION('',(7.11481891857352E-17,0.,1.));
#877=DIRECTION('center_axis',(-1.,0.,5.9211894646675E-16));
#878=DIRECTION('ref_axis',(-6.2803698347351E-16,-0.707106781186547,-0.707106781186547));
#879=DIRECTION('',(1.,0.,-5.9211894646675E-16));
#880=DIRECTION('',(-1.,0.,5.9211894646675E-16));
#881=DIRECTION('center_axis',(0.,1.,0.));
#882=DIRECTION('ref_axis',(0.707106781186547,0.,-0.707106781186548));
#883=DIRECTION('',(0.,-1.,0.));
#884=DIRECTION('',(0.,1.,0.));
#885=DIRECTION('center_axis',(0.,-0.707106781186548,-0.707106781186548));
#886=DIRECTION('ref_axis',(0.,-0.707106781186548,0.707106781186548));
#887=DIRECTION('center_axis',(-7.11481891857352E-17,0.,-1.));
#888=DIRECTION('ref_axis',(0.707106781186547,0.707106781186547,-1.57009245868377E-16));
#889=DIRECTION('',(7.11481891857352E-17,0.,1.));
#890=DIRECTION('',(-7.11481891857352E-17,0.,-1.));
#891=DIRECTION('center_axis',(1.86763996612555E-16,0.,1.));
#892=DIRECTION('ref_axis',(-0.707106781186547,-0.707106781186547,0.));
#893=DIRECTION('center_axis',(0.,0.,-1.));
#894=DIRECTION('ref_axis',(-0.707106781186547,-0.707106781186547,0.));
#895=DIRECTION('',(-1.86763996612555E-16,0.,-1.));
#896=DIRECTION('',(1.86763996612555E-16,0.,1.));
#897=DIRECTION('center_axis',(0.,1.,0.));
#898=DIRECTION('ref_axis',(-0.707106781186547,0.,-0.707106781186547));
#899=DIRECTION('',(0.,-1.,0.));
#900=DIRECTION('',(0.,1.,0.));
#901=DIRECTION('center_axis',(0.,-0.707106781186548,-0.707106781186548));
#902=DIRECTION('ref_axis',(0.,-0.707106781186547,0.707106781186547));
#903=DIRECTION('center_axis',(1.,0.,0.));
#904=DIRECTION('ref_axis',(0.,0.707106781186547,0.707106781186547));
#905=DIRECTION('',(-1.,0.,0.));
#906=DIRECTION('',(1.,0.,0.));
#907=DIRECTION('center_axis',(1.86763996612555E-16,0.,1.));
#908=DIRECTION('ref_axis',(-0.707106781186547,0.707106781186547,0.));
#909=DIRECTION('',(1.86763996612555E-16,0.,1.));
#910=DIRECTION('',(-1.86763996612555E-16,0.,-1.));
#911=DIRECTION('center_axis',(-5.9211894646675E-16,0.,-1.));
#912=DIRECTION('ref_axis',(-1.,0.,5.9211894646675E-16));
#913=DIRECTION('',(-1.,0.,0.));
#914=DIRECTION('center_axis',(5.9211894646675E-16,0.,1.));
#915=DIRECTION('ref_axis',(-1.,0.,5.9211894646675E-16));
#916=DIRECTION('center_axis',(0.,0.,1.));
#917=DIRECTION('ref_axis',(1.,0.,0.));
#918=DIRECTION('',(-1.,0.,0.));
#919=DIRECTION('center_axis',(-1.,0.,1.86763996612555E-16));
#920=DIRECTION('ref_axis',(1.86763996612555E-16,0.,1.));
#921=DIRECTION('',(0.,1.,0.));
#922=DIRECTION('center_axis',(-1.,0.,0.));
#923=DIRECTION('ref_axis',(0.,0.,-1.));
#924=DIRECTION('center_axis',(-1.,0.,0.));
#925=DIRECTION('ref_axis',(0.,0.,-1.));
#926=DIRECTION('',(-1.,0.,0.));
#927=DIRECTION('center_axis',(1.,0.,0.));
#928=DIRECTION('ref_axis',(0.,0.,-1.));
#929=DIRECTION('center_axis',(-1.,0.,0.));
#930=DIRECTION('ref_axis',(0.,0.,-1.));
#931=DIRECTION('center_axis',(-1.,0.,0.));
#932=DIRECTION('ref_axis',(0.,0.,-1.));
#933=DIRECTION('',(-1.,0.,0.));
#934=DIRECTION('center_axis',(1.,0.,0.));
#935=DIRECTION('ref_axis',(0.,0.,-1.));
#936=DIRECTION('center_axis',(-5.9211894646675E-16,0.,-1.));
#937=DIRECTION('ref_axis',(-1.,0.,5.9211894646675E-16));
#938=DIRECTION('center_axis',(-5.9211894646675E-16,0.,-1.));
#939=DIRECTION('ref_axis',(-1.,0.,5.9211894646675E-16));
#940=DIRECTION('',(-0.857167300702112,1.04972719113862E-16,0.515038074910055));
#941=DIRECTION('center_axis',(-5.9211894646675E-16,0.,-1.));
#942=DIRECTION('ref_axis',(-1.,0.,5.9211894646675E-16));
#943=DIRECTION('center_axis',(-5.9211894646675E-16,0.,-1.));
#944=DIRECTION('ref_axis',(-1.,0.,5.9211894646675E-16));
#945=DIRECTION('center_axis',(-5.9211894646675E-16,0.,-1.));
#946=DIRECTION('ref_axis',(-1.,0.,5.9211894646675E-16));
#947=DIRECTION('center_axis',(-5.9211894646675E-16,0.,-1.));
#948=DIRECTION('ref_axis',(-1.,0.,5.9211894646675E-16));
#949=DIRECTION('',(5.9211894646675E-16,0.,1.));
#950=DIRECTION('center_axis',(-5.9211894646675E-16,0.,-1.));
#951=DIRECTION('ref_axis',(-1.,0.,5.9211894646675E-16));
#952=DIRECTION('',(5.9211894646675E-16,0.,1.));
#953=DIRECTION('center_axis',(-1.,0.,0.));
#954=DIRECTION('ref_axis',(0.,1.,0.));
#955=DIRECTION('',(0.,1.,0.));
#956=DIRECTION('',(0.,0.,-1.));
#957=DIRECTION('',(0.,1.,0.));
#958=DIRECTION('',(0.,0.,-1.));
#959=DIRECTION('center_axis',(0.,1.,0.));
#960=DIRECTION('ref_axis',(1.,0.,0.));
#961=DIRECTION('',(1.,0.,0.));
#962=DIRECTION('',(0.,0.,-1.));
#963=DIRECTION('',(1.,0.,0.));
#964=DIRECTION('center_axis',(1.,0.,0.));
#965=DIRECTION('ref_axis',(0.,-1.,0.));
#966=DIRECTION('',(0.,-1.,0.));
#967=DIRECTION('',(0.,0.,-1.));
#968=DIRECTION('',(0.,-1.,0.));
#969=DIRECTION('center_axis',(0.,-1.,0.));
#970=DIRECTION('ref_axis',(-1.,0.,0.));
#971=DIRECTION('',(-1.,0.,0.));
#972=DIRECTION('',(-1.,0.,0.));
#973=DIRECTION('center_axis',(0.,0.,-1.));
#974=DIRECTION('ref_axis',(-1.,0.,0.));
#975=DIRECTION('',(1.,0.,0.));
#976=DIRECTION('',(-1.,0.,0.));
#977=DIRECTION('',(0.,-1.,0.));
#978=DIRECTION('center_axis',(0.,1.,0.));
#979=DIRECTION('ref_axis',(0.,0.,1.));
#980=DIRECTION('center_axis',(0.,1.,0.));
#981=DIRECTION('ref_axis',(0.,0.,1.));
#982=DIRECTION('center_axis',(0.,0.,1.));
#983=DIRECTION('ref_axis',(1.,0.,0.));
#984=DIRECTION('center_axis',(1.,0.,-7.11481891857352E-17));
#985=DIRECTION('ref_axis',(-7.11481891857352E-17,0.,-1.));
#986=DIRECTION('center_axis',(0.,1.,0.));
#987=DIRECTION('ref_axis',(0.,0.,1.));
#988=CARTESIAN_POINT('',(0.,0.,0.));
#989=CARTESIAN_POINT('Origin',(-4.44089209850063E-14,19.0987090714587,-84.835));
#990=CARTESIAN_POINT('',(-3.00000000000005,20.,-84.835));
#991=CARTESIAN_POINT('Origin',(-4.44089209850063E-14,20.,-84.835));
#992=CARTESIAN_POINT('',(-4.44089209850063E-14,18.1974181429173,-84.835));
#993=CARTESIAN_POINT('',(-1.50000000000004,19.0987090714587,-84.835));
#994=CARTESIAN_POINT('Origin',(-4.44089209850063E-14,25.,-84.835));
#995=CARTESIAN_POINT('',(-4.50000000000004,25.,-84.835));
#996=CARTESIAN_POINT('Origin',(-4.44089209850063E-14,25.,-84.835));
#997=CARTESIAN_POINT('',(-3.00000000000004,25.,-84.835));
#998=CARTESIAN_POINT('Origin',(-4.44089209850063E-14,25.,-84.835));
#999=CARTESIAN_POINT('Origin',(-4.44089209850063E-14,27.5,-84.835));
#1000=CARTESIAN_POINT('',(-4.50000000000004,30.,-84.835));
#1001=CARTESIAN_POINT('Origin',(-4.44089209850063E-14,30.,-84.835));
#1002=CARTESIAN_POINT('',(-4.50000000000004,27.5,-84.835));
#1003=CARTESIAN_POINT('Origin',(-4.44089209850063E-14,25.,-84.835));
#1004=CARTESIAN_POINT('',(-3.00000000000004,25.,-84.835));
#1005=CARTESIAN_POINT('Origin',(-2.88657986402541E-14,19.0987090714587,
-4.83499999999998));
#1006=CARTESIAN_POINT('',(-3.00000000000003,20.,-4.83499999999998));
#1007=CARTESIAN_POINT('Origin',(-2.88657986402541E-14,20.,-4.83499999999998));
#1008=CARTESIAN_POINT('',(-2.88657986402541E-14,18.1974181429173,-4.83499999999998));
#1009=CARTESIAN_POINT('',(-1.50000000000003,19.0987090714587,-4.83499999999998));
#1010=CARTESIAN_POINT('Origin',(-2.88657986402541E-14,25.,-4.83499999999998));
#1011=CARTESIAN_POINT('',(-4.50000000000003,25.,-4.83499999999998));
#1012=CARTESIAN_POINT('Origin',(-2.88657986402541E-14,25.,-4.83499999999998));
#1013=CARTESIAN_POINT('',(-3.00000000000003,25.,-4.83499999999998));
#1014=CARTESIAN_POINT('Origin',(-2.88657986402541E-14,25.,-4.83499999999998));
#1015=CARTESIAN_POINT('Origin',(-2.88657986402541E-14,27.5,-4.83499999999998));
#1016=CARTESIAN_POINT('',(-4.50000000000003,30.,-4.83499999999998));
#1017=CARTESIAN_POINT('Origin',(-2.88657986402541E-14,30.,-4.83499999999998));
#1018=CARTESIAN_POINT('',(-4.50000000000003,27.5,-4.83499999999998));
#1019=CARTESIAN_POINT('Origin',(-2.88657986402541E-14,25.,-4.83499999999998));
#1020=CARTESIAN_POINT('',(-3.00000000000003,25.,-4.83499999999998));
#1021=CARTESIAN_POINT('Origin',(-10.,25.,-62.4175));
#1022=CARTESIAN_POINT('',(-15.0000000000001,25.,-109.835));
#1023=CARTESIAN_POINT('',(-15.,25.,59.835));
#1024=CARTESIAN_POINT('',(-15.,25.,-62.4175));
#1025=CARTESIAN_POINT('',(-10.,30.,59.835));
#1026=CARTESIAN_POINT('Origin',(-10.,25.,59.835));
#1027=CARTESIAN_POINT('',(-10.,30.,-104.835));
#1028=CARTESIAN_POINT('',(-10.,30.,-62.4175));
#1029=CARTESIAN_POINT('Origin',(-10.0000000000001,25.,-109.835));
#1030=CARTESIAN_POINT('Origin',(-10.,45.,-109.835));
#1031=CARTESIAN_POINT('',(-15.,45.,-109.835));
#1032=CARTESIAN_POINT('',(-10.0000000000001,50.,-109.835));
#1033=CARTESIAN_POINT('Origin',(-10.0000000000001,45.,-109.835));
#1034=CARTESIAN_POINT('',(-10.,45.,-104.835));
#1035=CARTESIAN_POINT('Origin',(-10.,45.,-109.835));
#1036=CARTESIAN_POINT('Origin',(-10.0000000000001,45.,-109.835));
#1037=CARTESIAN_POINT('Origin',(-10.,15.,-109.835));
#1038=CARTESIAN_POINT('',(-10.,15.,-104.835));
#1039=CARTESIAN_POINT('',(-15.,15.,-109.835));
#1040=CARTESIAN_POINT('Origin',(9.99999999999996,25.,62.4175));
#1041=CARTESIAN_POINT('',(9.99999999999995,30.,-104.835));
#1042=CARTESIAN_POINT('',(9.99999999999996,30.,59.835));
#1043=CARTESIAN_POINT('',(9.99999999999996,30.,62.4175));
#1044=CARTESIAN_POINT('',(15.,25.,59.835));
#1045=CARTESIAN_POINT('Origin',(9.99999999999996,25.,59.835));
#1046=CARTESIAN_POINT('',(14.9999999999999,25.,-109.835));
#1047=CARTESIAN_POINT('',(15.,25.,62.4175));
#1048=CARTESIAN_POINT('Origin',(9.99999999999995,25.,-109.835));
#1049=CARTESIAN_POINT('Origin',(9.99999999999995,45.,-109.835));
#1050=CARTESIAN_POINT('',(9.99999999999995,45.,-104.835));
#1051=CARTESIAN_POINT('',(9.99999999999995,50.,-109.835));
#1052=CARTESIAN_POINT('Origin',(9.99999999999995,45.,-109.835));
#1053=CARTESIAN_POINT('',(14.9999999999999,45.,-109.835));
#1054=CARTESIAN_POINT('Origin',(9.99999999999995,45.,-109.835));
#1055=CARTESIAN_POINT('Origin',(9.99999999999995,45.,-109.835));
#1056=CARTESIAN_POINT('Origin',(9.99999999999995,15.,-109.835));
#1057=CARTESIAN_POINT('',(14.9999999999999,15.,-109.835));
#1058=CARTESIAN_POINT('',(9.99999999999995,15.,-104.835));
#1059=CARTESIAN_POINT('Origin',(-10.0000000000001,5.,-119.835));
#1060=CARTESIAN_POINT('',(-10.0000000000001,5.,-124.835));
#1061=CARTESIAN_POINT('',(-15.0000000000001,5.,-119.835));
#1062=CARTESIAN_POINT('Origin',(-10.0000000000001,5.,-119.835));
#1063=CARTESIAN_POINT('',(-10.0000000000001,0.,-119.835));
#1064=CARTESIAN_POINT('Origin',(-10.0000000000001,5.,-119.835));
#1065=CARTESIAN_POINT('Origin',(-10.0000000000001,5.,-119.835));
#1066=CARTESIAN_POINT('Origin',(9.99999999999995,5.,-119.835));
#1067=CARTESIAN_POINT('',(14.9999999999999,5.,-119.835));
#1068=CARTESIAN_POINT('',(9.99999999999994,5.,-124.835));
#1069=CARTESIAN_POINT('Origin',(9.99999999999994,5.,-119.835));
#1070=CARTESIAN_POINT('',(9.99999999999995,0.,-119.835));
#1071=CARTESIAN_POINT('Origin',(9.99999999999995,5.,-119.835));
#1072=CARTESIAN_POINT('Origin',(9.99999999999994,5.,-119.835));
#1073=CARTESIAN_POINT('Origin',(9.99999999999996,5.,62.4175));
#1074=CARTESIAN_POINT('',(15.,5.,59.835));
#1075=CARTESIAN_POINT('',(9.99999999999996,0.,59.835));
#1076=CARTESIAN_POINT('Origin',(9.99999999999996,5.,59.835));
#1077=CARTESIAN_POINT('',(9.99999999999996,0.,62.4175));
#1078=CARTESIAN_POINT('',(15.,5.,62.4175));
#1079=CARTESIAN_POINT('Origin',(7.49999999999992,5.,-119.835));
#1080=CARTESIAN_POINT('',(7.49999999999991,5.,-124.835));
#1081=CARTESIAN_POINT('',(7.49999999999992,0.,-119.835));
#1082=CARTESIAN_POINT('Origin',(9.99999999999994,0.,-119.835));
#1083=CARTESIAN_POINT('',(14.9999999999999,45.,-119.835));
#1084=CARTESIAN_POINT('',(14.9999999999999,0.,-119.835));
#1085=CARTESIAN_POINT('',(9.99999999999995,50.,-124.835));
#1086=CARTESIAN_POINT('',(9.99999999999994,0.,-124.835));
#1087=CARTESIAN_POINT('Origin',(9.99999999999994,45.,-119.835));
#1088=CARTESIAN_POINT('Origin',(9.99999999999996,45.,5.));
#1089=CARTESIAN_POINT('',(9.99999999999996,50.,5.));
#1090=CARTESIAN_POINT('',(15.,45.,5.));
#1091=CARTESIAN_POINT('Origin',(-10.,5.,-62.4175));
#1092=CARTESIAN_POINT('',(-10.,0.,59.835));
#1093=CARTESIAN_POINT('',(-15.,5.,59.835));
#1094=CARTESIAN_POINT('Origin',(-10.,5.,59.835));
#1095=CARTESIAN_POINT('',(-15.,5.,-62.4175));
#1096=CARTESIAN_POINT('',(-10.,0.,-62.4175));
#1097=CARTESIAN_POINT('Origin',(-10.0000000000001,0.,-119.835));
#1098=CARTESIAN_POINT('',(-10.0000000000001,50.,-124.835));
#1099=CARTESIAN_POINT('',(-10.0000000000001,0.,-124.835));
#1100=CARTESIAN_POINT('',(-15.0000000000001,45.,-119.835));
#1101=CARTESIAN_POINT('',(-15.0000000000001,0.,-119.835));
#1102=CARTESIAN_POINT('Origin',(-10.0000000000001,45.,-119.835));
#1103=CARTESIAN_POINT('Origin',(-7.50000000000005,45.,-109.835));
#1104=CARTESIAN_POINT('',(-7.50000000000005,50.,-109.835));
#1105=CARTESIAN_POINT('',(-7.50000000000005,45.,-104.835));
#1106=CARTESIAN_POINT('Origin',(-10.0000000000001,45.,-119.835));
#1107=CARTESIAN_POINT('',(-15.0000000000001,45.,-119.835));
#1108=CARTESIAN_POINT('',(-10.0000000000001,50.,-119.835));
#1109=CARTESIAN_POINT('Origin',(14.9999999999999,0.,-124.835));
#1110=CARTESIAN_POINT('',(14.9999999999999,50.,-124.835));
#1111=CARTESIAN_POINT('',(4.49999999999995,42.,-124.835));
#1112=CARTESIAN_POINT('Origin',(-5.32907051820075E-14,42.,-124.835));
#1113=CARTESIAN_POINT('Origin',(-15.,30.,-104.835));
#1114=CARTESIAN_POINT('',(-7.50000000000005,30.,-104.835));
#1115=CARTESIAN_POINT('Origin',(-15.0000000000001,0.,-124.835));
#1116=CARTESIAN_POINT('',(-15.,7.5,59.835));
#1117=CARTESIAN_POINT('Origin',(11.0000000000291,15.,77.335));
#1118=CARTESIAN_POINT('',(11.0000000000291,15.,81.335));
#1119=CARTESIAN_POINT('Origin',(11.0000000000291,15.,77.335));
#1120=CARTESIAN_POINT('',(-11.0000000000291,15.,81.335));
#1121=CARTESIAN_POINT('',(11.0000000000291,15.,81.335));
#1122=CARTESIAN_POINT('Origin',(-11.0000000000291,15.,77.335));
#1123=CARTESIAN_POINT('Origin',(11.0000000000291,15.,107.335));
#1124=CARTESIAN_POINT('',(11.0000000000291,15.,111.335));
#1125=CARTESIAN_POINT('Origin',(11.0000000000291,15.,107.335));
#1126=CARTESIAN_POINT('',(-11.0000000000291,15.,111.335));
#1127=CARTESIAN_POINT('',(11.0000000000291,15.,111.335));
#1128=CARTESIAN_POINT('Origin',(-11.0000000000291,15.,107.335));
#1129=CARTESIAN_POINT('Origin',(-4.68358442822721E-14,42.,-113.933709071459));
#1130=CARTESIAN_POINT('',(2.99999999999995,42.,-114.835));
#1131=CARTESIAN_POINT('Origin',(-4.736951571734E-14,42.,-114.835));
#1132=CARTESIAN_POINT('',(-4.63021728472041E-14,42.,-113.032418142917));
#1133=CARTESIAN_POINT('',(1.49999999999995,42.,-113.933709071459));
#1134=CARTESIAN_POINT('Origin',(-5.03301104496738E-14,42.,-119.835));
#1135=CARTESIAN_POINT('',(4.49999999999995,42.,-119.835));
#1136=CARTESIAN_POINT('Origin',(-5.03301104496738E-14,42.,-119.835));
#1137=CARTESIAN_POINT('',(2.99999999999995,42.,-119.835));
#1138=CARTESIAN_POINT('Origin',(-5.03301104496738E-14,42.,-119.835));
#1139=CARTESIAN_POINT('Origin',(-5.18104078158406E-14,42.,-122.335));
#1140=CARTESIAN_POINT('',(4.49999999999995,42.,-122.335));
#1141=CARTESIAN_POINT('Origin',(-5.03301104496738E-14,42.,-119.835));
#1142=CARTESIAN_POINT('',(2.99999999999995,42.,-119.835));
#1143=CARTESIAN_POINT('Origin',(11.0000000000291,3.9999999999709,124.835));
#1144=CARTESIAN_POINT('',(11.0000000000291,3.9999999999709,124.835));
#1145=CARTESIAN_POINT('',(11.0000000000291,26.0000000000291,124.835));
#1146=CARTESIAN_POINT('',(11.0000000000291,1.99999999998545,124.835));
#1147=CARTESIAN_POINT('',(11.0000000000291,3.9999999999709,59.835));
#1148=CARTESIAN_POINT('',(11.0000000000291,3.9999999999709,124.835));
#1149=CARTESIAN_POINT('',(11.0000000000291,26.0000000000291,59.835));
#1150=CARTESIAN_POINT('',(11.0000000000291,26.0000000000291,59.835));
#1151=CARTESIAN_POINT('',(11.0000000000291,26.0000000000291,124.835));
#1152=CARTESIAN_POINT('Origin',(-11.0000000000291,3.9999999999709,124.835));
#1153=CARTESIAN_POINT('',(-11.0000000000291,3.9999999999709,124.835));
#1154=CARTESIAN_POINT('',(-13.0000000000146,3.9999999999709,124.835));
#1155=CARTESIAN_POINT('',(-11.0000000000291,3.9999999999709,59.835));
#1156=CARTESIAN_POINT('',(-11.0000000000291,3.9999999999709,124.835));
#1157=CARTESIAN_POINT('',(11.0000000000291,3.9999999999709,59.835));
#1158=CARTESIAN_POINT('Origin',(-11.0000000000291,26.0000000000291,124.835));
#1159=CARTESIAN_POINT('',(-11.0000000000291,26.0000000000291,124.835));
#1160=CARTESIAN_POINT('',(-11.0000000000291,13.0000000000146,124.835));
#1161=CARTESIAN_POINT('',(-11.0000000000291,26.0000000000291,59.835));
#1162=CARTESIAN_POINT('',(-11.0000000000291,26.0000000000291,124.835));
#1163=CARTESIAN_POINT('',(-11.0000000000291,3.9999999999709,59.835));
#1164=CARTESIAN_POINT('Origin',(11.0000000000291,26.0000000000291,124.835));
#1165=CARTESIAN_POINT('',(-1.99999999998546,26.0000000000291,124.835));
#1166=CARTESIAN_POINT('',(-11.0000000000291,26.0000000000291,59.835));
#1167=CARTESIAN_POINT('Origin',(-1.99840144432528E-14,15.,59.835));
#1168=CARTESIAN_POINT('',(-3.21964677141295E-14,30.,59.835));
#1169=CARTESIAN_POINT('',(-3.1641356201817E-14,0.,59.835));
#1170=CARTESIAN_POINT('',(15.,7.5,59.835));
#1171=CARTESIAN_POINT('Origin',(-4.44089209850063E-14,30.,0.));
#1172=CARTESIAN_POINT('Origin',(-4.88498130835069E-14,50.,-114.835));
#1173=CARTESIAN_POINT('Origin',(-15.,0.,124.835));
#1174=CARTESIAN_POINT('Origin',(15.,0.,124.835));
#1175=CARTESIAN_POINT('Origin',(-4.32986979603811E-14,0.,8.88178419700125E-15));
#1176=UNCERTAINTY_MEASURE_WITH_UNIT(LENGTH_MEASURE(0.01),#1180,
'DISTANCE_ACCURACY_VALUE',
'Maximum model space distance between geometric entities at asserted c
onnectivities');
#1177=UNCERTAINTY_MEASURE_WITH_UNIT(LENGTH_MEASURE(0.01),#1180,
'DISTANCE_ACCURACY_VALUE',
'Maximum model space distance between geometric entities at asserted c
onnectivities');
#1178=(
GEOMETRIC_REPRESENTATION_CONTEXT(3)
GLOBAL_UNCERTAINTY_ASSIGNED_CONTEXT((#1176))
GLOBAL_UNIT_ASSIGNED_CONTEXT((#1180,#1182,#1183))
REPRESENTATION_CONTEXT('','3D')
);
#1179=(
GEOMETRIC_REPRESENTATION_CONTEXT(3)
GLOBAL_UNCERTAINTY_ASSIGNED_CONTEXT((#1177))
GLOBAL_UNIT_ASSIGNED_CONTEXT((#1180,#1182,#1183))
REPRESENTATION_CONTEXT('','3D')
);
#1180=(
LENGTH_UNIT()
NAMED_UNIT(*)
SI_UNIT(.MILLI.,.METRE.)
);
#1181=(
LENGTH_UNIT()
NAMED_UNIT(*)
SI_UNIT(.CENTI.,.METRE.)
);
#1182=(
NAMED_UNIT(*)
PLANE_ANGLE_UNIT()
SI_UNIT($,.RADIAN.)
);
#1183=(
NAMED_UNIT(*)
SI_UNIT($,.STERADIAN.)
SOLID_ANGLE_UNIT()
);
#1184=SHAPE_DEFINITION_REPRESENTATION(#1185,#1186);
#1185=PRODUCT_DEFINITION_SHAPE('',$,#1188);
#1186=SHAPE_REPRESENTATION('',(#695),#1178);
#1187=PRODUCT_DEFINITION_CONTEXT('part definition',#1192,'design');
#1188=PRODUCT_DEFINITION('L','L',#1189,#1187);
#1189=PRODUCT_DEFINITION_FORMATION('',$,#1194);
#1190=PRODUCT_RELATED_PRODUCT_CATEGORY('L','L',(#1194));
#1191=APPLICATION_PROTOCOL_DEFINITION('international standard',
'automotive_design',2009,#1192);
#1192=APPLICATION_CONTEXT(
'Core Data for Automotive Mechanical Design Process');
#1193=PRODUCT_CONTEXT('part definition',#1192,'mechanical');
#1194=PRODUCT('L','L',$,(#1193));
#1195=PRESENTATION_STYLE_ASSIGNMENT((#1196));
#1196=SURFACE_STYLE_USAGE(.BOTH.,#1199);
#1197=SURFACE_STYLE_RENDERING_WITH_PROPERTIES($,#1203,(#1198));
#1198=SURFACE_STYLE_TRANSPARENT(0.);
#1199=SURFACE_SIDE_STYLE('',(#1200,#1197));
#1200=SURFACE_STYLE_FILL_AREA(#1201);
#1201=FILL_AREA_STYLE('',(#1202));
#1202=FILL_AREA_STYLE_COLOUR('',#1203);
#1203=COLOUR_RGB('',0.749019607843137,0.749019607843137,0.749019607843137);
ENDSEC;
END-ISO-10303-21;
