ISO-10303-21;
HEADER;
/* Generated by software containing ST-Developer
 * from STEP Tools, Inc. (www.steptools.com) 
 */

FILE_DESCRIPTION(
/* description */ (''),
/* implementation_level */ '2;1');

FILE_NAME(
/* name */ 'nakladka_backpart2.stp',
/* time_stamp */ '2026-05-11T12:30:36+02:00',
/* author */ ('ksawe'),
/* organization */ (''),
/* preprocessor_version */ 'ST-DEVELOPER v20',
/* originating_system */ 'Autodesk Inventor 2025',
/* authorisation */ '');

FILE_SCHEMA (('AUTOMOTIVE_DESIGN { 1 0 10303 214 3 1 1 }'));
ENDSEC;

DATA;
#10=MECHANICAL_DESIGN_GEOMETRIC_PRESENTATION_REPRESENTATION('',(#13),#1607);
#11=SHAPE_REPRESENTATION_RELATIONSHIP('SRR','None',#1614,#12);
#12=ADVANCED_BREP_SHAPE_REPRESENTATION('',(#14),#1606);
#13=STYLED_ITEM('',(#1623),#14);
#14=MANIFOLD_SOLID_BREP('Bry\X2\0142\X0\a2',#889);
#15=SPHERICAL_SURFACE('',#975,4.);
#16=B_SPLINE_SURFACE_WITH_KNOTS('',3,3,((#1491,#1492,#1493,#1494,#1495),
(#1496,#1497,#1498,#1499,#1500),(#1501,#1502,#1503,#1504,#1505),(#1506,
#1507,#1508,#1509,#1510)),.UNSPECIFIED.,.F.,.F.,.F.,(4,4),(4,1,4),(0.,1.),
(-1.5707963267949,-1.00588943894369,-0.252680255142078),.UNSPECIFIED.);
#17=B_SPLINE_SURFACE_WITH_KNOTS('',3,3,((#1519,#1520,#1521,#1522,#1523),
(#1524,#1525,#1526,#1527,#1528),(#1529,#1530,#1531,#1532,#1533),(#1534,
#1535,#1536,#1537,#1538)),.UNSPECIFIED.,.F.,.F.,.F.,(4,4),(4,1,4),(0.,1.),
(-1.5707963267949,-1.00588943894369,-0.252680255142079),.UNSPECIFIED.);
#18=B_SPLINE_SURFACE_WITH_KNOTS('',3,3,((#1542,#1543,#1544,#1545,#1546,
#1547),(#1548,#1549,#1550,#1551,#1552,#1553),(#1554,#1555,#1556,#1557,#1558,
#1559),(#1560,#1561,#1562,#1563,#1564,#1565),(#1566,#1567,#1568,#1569,#1570,
#1571)),.UNSPECIFIED.,.F.,.F.,.F.,(4,1,4),(4,1,1,4),(0.,0.571428571428571,
1.),(-1.5707963267949,-0.951309828669112,-0.538318829918589,-0.125327831168065),
 .UNSPECIFIED.);
#19=CYLINDRICAL_SURFACE('',#950,3.);
#20=CYLINDRICAL_SURFACE('',#953,3.);
#21=CYLINDRICAL_SURFACE('',#956,4.);
#22=CYLINDRICAL_SURFACE('',#958,4.);
#23=CYLINDRICAL_SURFACE('',#960,4.);
#24=CYLINDRICAL_SURFACE('',#962,4.);
#25=CYLINDRICAL_SURFACE('',#964,4.);
#26=CYLINDRICAL_SURFACE('',#966,4.);
#27=CYLINDRICAL_SURFACE('',#968,4.);
#28=CYLINDRICAL_SURFACE('',#970,4.);
#29=CYLINDRICAL_SURFACE('',#974,4.);
#30=CYLINDRICAL_SURFACE('',#978,4.);
#31=CYLINDRICAL_SURFACE('',#981,4.);
#32=CYLINDRICAL_SURFACE('',#985,4.);
#33=CYLINDRICAL_SURFACE('',#986,4.);
#34=CYLINDRICAL_SURFACE('',#987,4.);
#35=CYLINDRICAL_SURFACE('',#988,1.5);
#36=CYLINDRICAL_SURFACE('',#989,1.5);
#37=CYLINDRICAL_SURFACE('',#990,1.5);
#38=CYLINDRICAL_SURFACE('',#991,1.5);
#39=ELLIPSE('',#936,9.83122887662015,8.);
#40=ELLIPSE('',#972,5.74014120051868,4.);
#41=ELLIPSE('',#973,5.7401412005187,4.);
#42=ELLIPSE('',#979,4.75106960896094,4.);
#43=ELLIPSE('',#980,4.75106960896094,4.);
#44=ELLIPSE('',#982,6.97517463756212,4.);
#45=ELLIPSE('',#984,4.91561443831008,4.);
#46=B_SPLINE_CURVE_WITH_KNOTS('',3,(#1284,#1285,#1286,#1287,#1288,#1289,
#1290,#1291),.UNSPECIFIED.,.F.,.F.,(4,2,2,4),(0.,0.0797674176472729,0.24130216905538,
0.396476491146624),.UNSPECIFIED.);
#47=B_SPLINE_CURVE_WITH_KNOTS('',3,(#1295,#1296,#1297,#1298,#1299,#1300),
 .UNSPECIFIED.,.F.,.F.,(4,2,4),(0.,0.120412995093255,0.240864056681324),
 .UNSPECIFIED.);
#48=B_SPLINE_CURVE_WITH_KNOTS('',3,(#1324,#1325,#1326,#1327,#1328,#1329,
#1330,#1331),.UNSPECIFIED.,.F.,.F.,(4,2,2,4),(0.,0.153512310194568,0.260445911380507,
0.369235946198922),.UNSPECIFIED.);
#49=B_SPLINE_CURVE_WITH_KNOTS('',3,(#1408,#1409,#1410,#1411,#1412,#1413,
#1414,#1415),.UNSPECIFIED.,.F.,.F.,(4,2,2,4),(0.,0.188798658266567,0.866562263099784,
0.868579364827429),.UNSPECIFIED.);
#50=B_SPLINE_CURVE_WITH_KNOTS('',3,(#1578,#1579,#1580,#1581,#1582,#1583,
#1584,#1585,#1586,#1587,#1588,#1589),.UNSPECIFIED.,.F.,.F.,(4,2,2,2,2,4),
(-0.47381482686333,-0.473560846538446,-0.236780423269224,-0.118390211634612,
-0.0591951058173059,0.),.UNSPECIFIED.);
#51=FACE_BOUND('',#145,.T.);
#52=FACE_BOUND('',#146,.T.);
#53=FACE_BOUND('',#148,.T.);
#54=FACE_BOUND('',#149,.T.);
#55=FACE_BOUND('',#150,.T.);
#56=FACE_BOUND('',#151,.T.);
#57=FACE_BOUND('',#152,.T.);
#58=FACE_BOUND('',#153,.T.);
#59=FACE_BOUND('',#156,.T.);
#60=FACE_BOUND('',#157,.T.);
#61=FACE_BOUND('',#158,.T.);
#62=CIRCLE('',#916,1.5);
#63=CIRCLE('',#917,1.5);
#64=CIRCLE('',#919,3.87298334620742);
#65=CIRCLE('',#920,3.);
#66=CIRCLE('',#921,3.);
#67=CIRCLE('',#922,4.);
#68=CIRCLE('',#923,4.);
#69=CIRCLE('',#924,4.);
#70=CIRCLE('',#925,4.);
#71=CIRCLE('',#926,4.);
#72=CIRCLE('',#927,4.);
#73=CIRCLE('',#928,4.);
#74=CIRCLE('',#929,4.);
#75=CIRCLE('',#930,4.);
#76=CIRCLE('',#931,1.5);
#77=CIRCLE('',#932,1.5);
#78=CIRCLE('',#933,1.5);
#79=CIRCLE('',#934,1.5);
#80=CIRCLE('',#938,3.);
#81=CIRCLE('',#939,3.);
#82=CIRCLE('',#940,4.);
#83=CIRCLE('',#941,4.);
#84=CIRCLE('',#942,4.);
#85=CIRCLE('',#943,4.);
#86=CIRCLE('',#944,4.);
#87=CIRCLE('',#945,4.);
#88=CIRCLE('',#946,4.);
#89=CIRCLE('',#947,4.);
#90=CIRCLE('',#948,1.5);
#91=CIRCLE('',#949,1.5);
#92=CIRCLE('',#952,4.);
#93=CIRCLE('',#955,4.);
#94=CIRCLE('',#976,4.);
#95=CIRCLE('',#977,4.);
#96=FACE_OUTER_BOUND('',#141,.T.);
#97=FACE_OUTER_BOUND('',#142,.T.);
#98=FACE_OUTER_BOUND('',#143,.T.);
#99=FACE_OUTER_BOUND('',#144,.T.);
#100=FACE_OUTER_BOUND('',#147,.T.);
#101=FACE_OUTER_BOUND('',#154,.T.);
#102=FACE_OUTER_BOUND('',#155,.T.);
#103=FACE_OUTER_BOUND('',#159,.T.);
#104=FACE_OUTER_BOUND('',#160,.T.);
#105=FACE_OUTER_BOUND('',#161,.T.);
#106=FACE_OUTER_BOUND('',#162,.T.);
#107=FACE_OUTER_BOUND('',#163,.T.);
#108=FACE_OUTER_BOUND('',#164,.T.);
#109=FACE_OUTER_BOUND('',#165,.T.);
#110=FACE_OUTER_BOUND('',#166,.T.);
#111=FACE_OUTER_BOUND('',#167,.T.);
#112=FACE_OUTER_BOUND('',#168,.T.);
#113=FACE_OUTER_BOUND('',#169,.T.);
#114=FACE_OUTER_BOUND('',#170,.T.);
#115=FACE_OUTER_BOUND('',#171,.T.);
#116=FACE_OUTER_BOUND('',#172,.T.);
#117=FACE_OUTER_BOUND('',#173,.T.);
#118=FACE_OUTER_BOUND('',#174,.T.);
#119=FACE_OUTER_BOUND('',#175,.T.);
#120=FACE_OUTER_BOUND('',#176,.T.);
#121=FACE_OUTER_BOUND('',#177,.T.);
#122=FACE_OUTER_BOUND('',#178,.T.);
#123=FACE_OUTER_BOUND('',#179,.T.);
#124=FACE_OUTER_BOUND('',#180,.T.);
#125=FACE_OUTER_BOUND('',#181,.T.);
#126=FACE_OUTER_BOUND('',#182,.T.);
#127=FACE_OUTER_BOUND('',#183,.T.);
#128=FACE_OUTER_BOUND('',#184,.T.);
#129=FACE_OUTER_BOUND('',#185,.T.);
#130=FACE_OUTER_BOUND('',#186,.T.);
#131=FACE_OUTER_BOUND('',#187,.T.);
#132=FACE_OUTER_BOUND('',#188,.T.);
#133=FACE_OUTER_BOUND('',#189,.T.);
#134=FACE_OUTER_BOUND('',#190,.T.);
#135=FACE_OUTER_BOUND('',#191,.T.);
#136=FACE_OUTER_BOUND('',#192,.T.);
#137=FACE_OUTER_BOUND('',#193,.T.);
#138=FACE_OUTER_BOUND('',#194,.T.);
#139=FACE_OUTER_BOUND('',#195,.T.);
#140=FACE_OUTER_BOUND('',#196,.T.);
#141=EDGE_LOOP('',(#569,#570,#571,#572));
#142=EDGE_LOOP('',(#573,#574,#575,#576));
#143=EDGE_LOOP('',(#577,#578,#579,#580));
#144=EDGE_LOOP('',(#581,#582,#583,#584,#585,#586));
#145=EDGE_LOOP('',(#587));
#146=EDGE_LOOP('',(#588));
#147=EDGE_LOOP('',(#589,#590,#591,#592,#593,#594,#595,#596,#597,#598,#599,
#600,#601,#602,#603,#604,#605,#606,#607,#608));
#148=EDGE_LOOP('',(#609,#610,#611,#612,#613,#614,#615,#616));
#149=EDGE_LOOP('',(#617,#618,#619,#620,#621,#622,#623,#624));
#150=EDGE_LOOP('',(#625));
#151=EDGE_LOOP('',(#626));
#152=EDGE_LOOP('',(#627));
#153=EDGE_LOOP('',(#628));
#154=EDGE_LOOP('',(#629,#630,#631,#632,#633,#634));
#155=EDGE_LOOP('',(#635,#636,#637,#638,#639,#640,#641,#642,#643,#644,#645,
#646,#647,#648,#649,#650,#651,#652,#653,#654,#655,#656,#657,#658));
#156=EDGE_LOOP('',(#659,#660,#661,#662,#663,#664,#665,#666));
#157=EDGE_LOOP('',(#667));
#158=EDGE_LOOP('',(#668));
#159=EDGE_LOOP('',(#669,#670,#671,#672));
#160=EDGE_LOOP('',(#673,#674,#675,#676));
#161=EDGE_LOOP('',(#677,#678,#679,#680));
#162=EDGE_LOOP('',(#681,#682,#683,#684));
#163=EDGE_LOOP('',(#685,#686,#687,#688));
#164=EDGE_LOOP('',(#689,#690,#691,#692));
#165=EDGE_LOOP('',(#693,#694,#695,#696));
#166=EDGE_LOOP('',(#697,#698,#699,#700));
#167=EDGE_LOOP('',(#701,#702,#703,#704));
#168=EDGE_LOOP('',(#705,#706,#707,#708));
#169=EDGE_LOOP('',(#709,#710,#711,#712));
#170=EDGE_LOOP('',(#713,#714,#715,#716));
#171=EDGE_LOOP('',(#717,#718,#719,#720));
#172=EDGE_LOOP('',(#721,#722,#723,#724));
#173=EDGE_LOOP('',(#725,#726,#727,#728));
#174=EDGE_LOOP('',(#729,#730,#731,#732));
#175=EDGE_LOOP('',(#733,#734,#735,#736,#737));
#176=EDGE_LOOP('',(#738,#739,#740,#741));
#177=EDGE_LOOP('',(#742,#743,#744,#745,#746));
#178=EDGE_LOOP('',(#747,#748,#749,#750));
#179=EDGE_LOOP('',(#751,#752,#753));
#180=EDGE_LOOP('',(#754,#755,#756,#757));
#181=EDGE_LOOP('',(#758,#759,#760));
#182=EDGE_LOOP('',(#761,#762,#763,#764));
#183=EDGE_LOOP('',(#765,#766,#767));
#184=EDGE_LOOP('',(#768,#769,#770,#771));
#185=EDGE_LOOP('',(#772,#773,#774,#775));
#186=EDGE_LOOP('',(#776,#777,#778,#779,#780,#781,#782));
#187=EDGE_LOOP('',(#783,#784,#785,#786));
#188=EDGE_LOOP('',(#787,#788,#789,#790,#791));
#189=EDGE_LOOP('',(#792,#793,#794));
#190=EDGE_LOOP('',(#795,#796,#797,#798));
#191=EDGE_LOOP('',(#799,#800,#801,#802));
#192=EDGE_LOOP('',(#803,#804,#805,#806));
#193=EDGE_LOOP('',(#807,#808,#809,#810));
#194=EDGE_LOOP('',(#811,#812,#813,#814));
#195=EDGE_LOOP('',(#815,#816,#817,#818));
#196=EDGE_LOOP('',(#819,#820,#821,#822));
#197=LINE('',#1248,#278);
#198=LINE('',#1250,#279);
#199=LINE('',#1252,#280);
#200=LINE('',#1253,#281);
#201=LINE('',#1257,#282);
#202=LINE('',#1259,#283);
#203=LINE('',#1261,#284);
#204=LINE('',#1262,#285);
#205=LINE('',#1266,#286);
#206=LINE('',#1268,#287);
#207=LINE('',#1270,#288);
#208=LINE('',#1271,#289);
#209=LINE('',#1273,#290);
#210=LINE('',#1274,#291);
#211=LINE('',#1275,#292);
#212=LINE('',#1282,#293);
#213=LINE('',#1293,#294);
#214=LINE('',#1302,#295);
#215=LINE('',#1306,#296);
#216=LINE('',#1308,#297);
#217=LINE('',#1312,#298);
#218=LINE('',#1314,#299);
#219=LINE('',#1316,#300);
#220=LINE('',#1320,#301);
#221=LINE('',#1322,#302);
#222=LINE('',#1333,#303);
#223=LINE('',#1336,#304);
#224=LINE('',#1341,#305);
#225=LINE('',#1345,#306);
#226=LINE('',#1349,#307);
#227=LINE('',#1352,#308);
#228=LINE('',#1357,#309);
#229=LINE('',#1361,#310);
#230=LINE('',#1365,#311);
#231=LINE('',#1368,#312);
#232=LINE('',#1379,#313);
#233=LINE('',#1383,#314);
#234=LINE('',#1385,#315);
#235=LINE('',#1387,#316);
#236=LINE('',#1389,#317);
#237=LINE('',#1393,#318);
#238=LINE('',#1395,#319);
#239=LINE('',#1397,#320);
#240=LINE('',#1401,#321);
#241=LINE('',#1403,#322);
#242=LINE('',#1405,#323);
#243=LINE('',#1407,#324);
#244=LINE('',#1419,#325);
#245=LINE('',#1423,#326);
#246=LINE('',#1427,#327);
#247=LINE('',#1431,#328);
#248=LINE('',#1435,#329);
#249=LINE('',#1439,#330);
#250=LINE('',#1443,#331);
#251=LINE('',#1450,#332);
#252=LINE('',#1451,#333);
#253=LINE('',#1455,#334);
#254=LINE('',#1456,#335);
#255=LINE('',#1460,#336);
#256=LINE('',#1461,#337);
#257=LINE('',#1463,#338);
#258=LINE('',#1465,#339);
#259=LINE('',#1467,#340);
#260=LINE('',#1469,#341);
#261=LINE('',#1471,#342);
#262=LINE('',#1473,#343);
#263=LINE('',#1476,#344);
#264=LINE('',#1477,#345);
#265=LINE('',#1479,#346);
#266=LINE('',#1481,#347);
#267=LINE('',#1482,#348);
#268=LINE('',#1485,#349);
#269=LINE('',#1486,#350);
#270=LINE('',#1489,#351);
#271=LINE('',#1574,#352);
#272=LINE('',#1592,#353);
#273=LINE('',#1594,#354);
#274=LINE('',#1596,#355);
#275=LINE('',#1598,#356);
#276=LINE('',#1600,#357);
#277=LINE('',#1602,#358);
#278=VECTOR('',#999,10.);
#279=VECTOR('',#1000,10.);
#280=VECTOR('',#1001,10.);
#281=VECTOR('',#1002,10.);
#282=VECTOR('',#1005,10.);
#283=VECTOR('',#1006,10.);
#284=VECTOR('',#1007,10.);
#285=VECTOR('',#1008,10.);
#286=VECTOR('',#1011,10.);
#287=VECTOR('',#1012,10.);
#288=VECTOR('',#1013,10.);
#289=VECTOR('',#1014,10.);
#290=VECTOR('',#1017,10.);
#291=VECTOR('',#1018,10.);
#292=VECTOR('',#1019,10.);
#293=VECTOR('',#1026,10.);
#294=VECTOR('',#1027,10.);
#295=VECTOR('',#1028,10.);
#296=VECTOR('',#1031,10.);
#297=VECTOR('',#1032,10.);
#298=VECTOR('',#1035,10.);
#299=VECTOR('',#1036,10.);
#300=VECTOR('',#1037,10.);
#301=VECTOR('',#1040,10.);
#302=VECTOR('',#1041,10.);
#303=VECTOR('',#1042,10.);
#304=VECTOR('',#1045,10.);
#305=VECTOR('',#1048,10.);
#306=VECTOR('',#1051,10.);
#307=VECTOR('',#1054,10.);
#308=VECTOR('',#1057,10.);
#309=VECTOR('',#1060,10.);
#310=VECTOR('',#1063,10.);
#311=VECTOR('',#1066,10.);
#312=VECTOR('',#1069,10.);
#313=VECTOR('',#1080,10.);
#314=VECTOR('',#1085,10.);
#315=VECTOR('',#1086,4.);
#316=VECTOR('',#1087,10.);
#317=VECTOR('',#1088,10.);
#318=VECTOR('',#1091,10.);
#319=VECTOR('',#1092,10.);
#320=VECTOR('',#1093,10.);
#321=VECTOR('',#1096,10.);
#322=VECTOR('',#1097,4.);
#323=VECTOR('',#1098,4.);
#324=VECTOR('',#1099,4.);
#325=VECTOR('',#1102,10.);
#326=VECTOR('',#1105,10.);
#327=VECTOR('',#1108,10.);
#328=VECTOR('',#1111,10.);
#329=VECTOR('',#1114,10.);
#330=VECTOR('',#1117,10.);
#331=VECTOR('',#1120,10.);
#332=VECTOR('',#1129,10.);
#333=VECTOR('',#1130,10.);
#334=VECTOR('',#1137,10.);
#335=VECTOR('',#1138,10.);
#336=VECTOR('',#1145,10.);
#337=VECTOR('',#1146,10.);
#338=VECTOR('',#1149,10.);
#339=VECTOR('',#1152,10.);
#340=VECTOR('',#1155,10.);
#341=VECTOR('',#1158,10.);
#342=VECTOR('',#1161,10.);
#343=VECTOR('',#1164,10.);
#344=VECTOR('',#1169,10.);
#345=VECTOR('',#1170,10.);
#346=VECTOR('',#1173,10.);
#347=VECTOR('',#1176,10.);
#348=VECTOR('',#1177,10.);
#349=VECTOR('',#1182,10.);
#350=VECTOR('',#1183,10.);
#351=VECTOR('',#1188,10.);
#352=VECTOR('',#1215,10.);
#353=VECTOR('',#1226,1.5);
#354=VECTOR('',#1229,1.5);
#355=VECTOR('',#1232,1.5);
#356=VECTOR('',#1235,1.5);
#357=VECTOR('',#1238,10.);
#358=VECTOR('',#1241,10.);
#359=VERTEX_POINT('',#1246);
#360=VERTEX_POINT('',#1247);
#361=VERTEX_POINT('',#1249);
#362=VERTEX_POINT('',#1251);
#363=VERTEX_POINT('',#1255);
#364=VERTEX_POINT('',#1256);
#365=VERTEX_POINT('',#1258);
#366=VERTEX_POINT('',#1260);
#367=VERTEX_POINT('',#1264);
#368=VERTEX_POINT('',#1265);
#369=VERTEX_POINT('',#1267);
#370=VERTEX_POINT('',#1269);
#371=VERTEX_POINT('',#1276);
#372=VERTEX_POINT('',#1278);
#373=VERTEX_POINT('',#1281);
#374=VERTEX_POINT('',#1283);
#375=VERTEX_POINT('',#1292);
#376=VERTEX_POINT('',#1294);
#377=VERTEX_POINT('',#1301);
#378=VERTEX_POINT('',#1303);
#379=VERTEX_POINT('',#1305);
#380=VERTEX_POINT('',#1307);
#381=VERTEX_POINT('',#1309);
#382=VERTEX_POINT('',#1311);
#383=VERTEX_POINT('',#1313);
#384=VERTEX_POINT('',#1315);
#385=VERTEX_POINT('',#1317);
#386=VERTEX_POINT('',#1319);
#387=VERTEX_POINT('',#1321);
#388=VERTEX_POINT('',#1323);
#389=VERTEX_POINT('',#1332);
#390=VERTEX_POINT('',#1334);
#391=VERTEX_POINT('',#1337);
#392=VERTEX_POINT('',#1338);
#393=VERTEX_POINT('',#1340);
#394=VERTEX_POINT('',#1342);
#395=VERTEX_POINT('',#1344);
#396=VERTEX_POINT('',#1346);
#397=VERTEX_POINT('',#1348);
#398=VERTEX_POINT('',#1350);
#399=VERTEX_POINT('',#1353);
#400=VERTEX_POINT('',#1354);
#401=VERTEX_POINT('',#1356);
#402=VERTEX_POINT('',#1358);
#403=VERTEX_POINT('',#1360);
#404=VERTEX_POINT('',#1362);
#405=VERTEX_POINT('',#1364);
#406=VERTEX_POINT('',#1366);
#407=VERTEX_POINT('',#1369);
#408=VERTEX_POINT('',#1371);
#409=VERTEX_POINT('',#1373);
#410=VERTEX_POINT('',#1375);
#411=VERTEX_POINT('',#1378);
#412=VERTEX_POINT('',#1382);
#413=VERTEX_POINT('',#1384);
#414=VERTEX_POINT('',#1386);
#415=VERTEX_POINT('',#1388);
#416=VERTEX_POINT('',#1390);
#417=VERTEX_POINT('',#1392);
#418=VERTEX_POINT('',#1394);
#419=VERTEX_POINT('',#1396);
#420=VERTEX_POINT('',#1398);
#421=VERTEX_POINT('',#1400);
#422=VERTEX_POINT('',#1402);
#423=VERTEX_POINT('',#1404);
#424=VERTEX_POINT('',#1406);
#425=VERTEX_POINT('',#1416);
#426=VERTEX_POINT('',#1418);
#427=VERTEX_POINT('',#1420);
#428=VERTEX_POINT('',#1422);
#429=VERTEX_POINT('',#1424);
#430=VERTEX_POINT('',#1426);
#431=VERTEX_POINT('',#1429);
#432=VERTEX_POINT('',#1430);
#433=VERTEX_POINT('',#1432);
#434=VERTEX_POINT('',#1434);
#435=VERTEX_POINT('',#1436);
#436=VERTEX_POINT('',#1438);
#437=VERTEX_POINT('',#1440);
#438=VERTEX_POINT('',#1442);
#439=VERTEX_POINT('',#1445);
#440=VERTEX_POINT('',#1447);
#441=VERTEX_POINT('',#1573);
#442=EDGE_CURVE('',#359,#360,#197,.T.);
#443=EDGE_CURVE('',#361,#359,#198,.T.);
#444=EDGE_CURVE('',#362,#361,#199,.T.);
#445=EDGE_CURVE('',#362,#360,#200,.T.);
#446=EDGE_CURVE('',#363,#364,#201,.T.);
#447=EDGE_CURVE('',#365,#363,#202,.T.);
#448=EDGE_CURVE('',#366,#365,#203,.T.);
#449=EDGE_CURVE('',#364,#366,#204,.T.);
#450=EDGE_CURVE('',#367,#368,#205,.T.);
#451=EDGE_CURVE('',#369,#367,#206,.T.);
#452=EDGE_CURVE('',#370,#369,#207,.T.);
#453=EDGE_CURVE('',#368,#370,#208,.T.);
#454=EDGE_CURVE('',#360,#366,#209,.T.);
#455=EDGE_CURVE('',#369,#362,#210,.T.);
#456=EDGE_CURVE('',#364,#367,#211,.T.);
#457=EDGE_CURVE('',#371,#371,#62,.T.);
#458=EDGE_CURVE('',#372,#372,#63,.T.);
#459=EDGE_CURVE('',#373,#359,#212,.T.);
#460=EDGE_CURVE('',#374,#373,#46,.T.);
#461=EDGE_CURVE('',#375,#374,#213,.T.);
#462=EDGE_CURVE('',#376,#375,#47,.T.);
#463=EDGE_CURVE('',#377,#376,#214,.T.);
#464=EDGE_CURVE('',#378,#377,#64,.T.);
#465=EDGE_CURVE('',#379,#378,#215,.T.);
#466=EDGE_CURVE('',#380,#379,#216,.T.);
#467=EDGE_CURVE('',#381,#380,#65,.T.);
#468=EDGE_CURVE('',#382,#381,#217,.T.);
#469=EDGE_CURVE('',#383,#382,#218,.T.);
#470=EDGE_CURVE('',#384,#383,#219,.T.);
#471=EDGE_CURVE('',#385,#384,#66,.T.);
#472=EDGE_CURVE('',#386,#385,#220,.T.);
#473=EDGE_CURVE('',#387,#386,#221,.T.);
#474=EDGE_CURVE('',#388,#387,#48,.T.);
#475=EDGE_CURVE('',#389,#388,#222,.T.);
#476=EDGE_CURVE('',#390,#389,#67,.T.);
#477=EDGE_CURVE('',#361,#390,#223,.T.);
#478=EDGE_CURVE('',#391,#392,#68,.T.);
#479=EDGE_CURVE('',#393,#391,#224,.T.);
#480=EDGE_CURVE('',#394,#393,#69,.T.);
#481=EDGE_CURVE('',#395,#394,#225,.T.);
#482=EDGE_CURVE('',#396,#395,#70,.T.);
#483=EDGE_CURVE('',#397,#396,#226,.T.);
#484=EDGE_CURVE('',#398,#397,#71,.T.);
#485=EDGE_CURVE('',#392,#398,#227,.T.);
#486=EDGE_CURVE('',#399,#400,#72,.T.);
#487=EDGE_CURVE('',#401,#399,#228,.T.);
#488=EDGE_CURVE('',#402,#401,#73,.T.);
#489=EDGE_CURVE('',#403,#402,#229,.T.);
#490=EDGE_CURVE('',#404,#403,#74,.T.);
#491=EDGE_CURVE('',#405,#404,#230,.T.);
#492=EDGE_CURVE('',#406,#405,#75,.T.);
#493=EDGE_CURVE('',#400,#406,#231,.T.);
#494=EDGE_CURVE('',#407,#407,#76,.T.);
#495=EDGE_CURVE('',#408,#408,#77,.T.);
#496=EDGE_CURVE('',#409,#409,#78,.T.);
#497=EDGE_CURVE('',#410,#410,#79,.T.);
#498=EDGE_CURVE('',#365,#411,#232,.T.);
#499=EDGE_CURVE('',#373,#411,#39,.T.);
#500=EDGE_CURVE('',#370,#412,#233,.T.);
#501=EDGE_CURVE('',#413,#412,#234,.T.);
#502=EDGE_CURVE('',#414,#413,#235,.T.);
#503=EDGE_CURVE('',#415,#414,#236,.T.);
#504=EDGE_CURVE('',#416,#415,#80,.T.);
#505=EDGE_CURVE('',#416,#417,#237,.T.);
#506=EDGE_CURVE('',#417,#418,#238,.T.);
#507=EDGE_CURVE('',#418,#419,#239,.T.);
#508=EDGE_CURVE('',#420,#419,#81,.T.);
#509=EDGE_CURVE('',#420,#421,#240,.T.);
#510=EDGE_CURVE('',#422,#421,#241,.T.);
#511=EDGE_CURVE('',#423,#422,#242,.T.);
#512=EDGE_CURVE('',#424,#423,#243,.T.);
#513=EDGE_CURVE('',#411,#424,#49,.T.);
#514=EDGE_CURVE('',#425,#363,#82,.T.);
#515=EDGE_CURVE('',#425,#426,#244,.T.);
#516=EDGE_CURVE('',#427,#426,#83,.T.);
#517=EDGE_CURVE('',#427,#428,#245,.T.);
#518=EDGE_CURVE('',#429,#428,#84,.T.);
#519=EDGE_CURVE('',#429,#430,#246,.T.);
#520=EDGE_CURVE('',#368,#430,#85,.T.);
#521=EDGE_CURVE('',#431,#432,#247,.T.);
#522=EDGE_CURVE('',#433,#432,#86,.T.);
#523=EDGE_CURVE('',#433,#434,#248,.T.);
#524=EDGE_CURVE('',#435,#434,#87,.T.);
#525=EDGE_CURVE('',#435,#436,#249,.T.);
#526=EDGE_CURVE('',#437,#436,#88,.T.);
#527=EDGE_CURVE('',#437,#438,#250,.T.);
#528=EDGE_CURVE('',#431,#438,#89,.T.);
#529=EDGE_CURVE('',#439,#439,#90,.T.);
#530=EDGE_CURVE('',#440,#440,#91,.T.);
#531=EDGE_CURVE('',#419,#381,#251,.T.);
#532=EDGE_CURVE('',#380,#420,#252,.T.);
#533=EDGE_CURVE('',#421,#379,#92,.F.);
#534=EDGE_CURVE('',#415,#385,#253,.T.);
#535=EDGE_CURVE('',#384,#416,#254,.T.);
#536=EDGE_CURVE('',#414,#386,#93,.T.);
#537=EDGE_CURVE('',#405,#433,#255,.T.);
#538=EDGE_CURVE('',#432,#406,#256,.T.);
#539=EDGE_CURVE('',#434,#404,#257,.T.);
#540=EDGE_CURVE('',#403,#435,#258,.T.);
#541=EDGE_CURVE('',#436,#402,#259,.T.);
#542=EDGE_CURVE('',#401,#437,#260,.T.);
#543=EDGE_CURVE('',#438,#399,#261,.T.);
#544=EDGE_CURVE('',#400,#431,#262,.T.);
#545=EDGE_CURVE('',#392,#429,#263,.T.);
#546=EDGE_CURVE('',#428,#391,#264,.T.);
#547=EDGE_CURVE('',#430,#398,#265,.T.);
#548=EDGE_CURVE('',#393,#427,#266,.T.);
#549=EDGE_CURVE('',#426,#394,#267,.T.);
#550=EDGE_CURVE('',#395,#425,#268,.T.);
#551=EDGE_CURVE('',#364,#396,#269,.T.);
#552=EDGE_CURVE('',#397,#367,#270,.T.);
#553=EDGE_CURVE('',#387,#413,#40,.T.);
#554=EDGE_CURVE('',#413,#388,#41,.T.);
#555=EDGE_CURVE('',#377,#422,#94,.T.);
#556=EDGE_CURVE('',#422,#378,#95,.T.);
#557=EDGE_CURVE('',#423,#376,#42,.T.);
#558=EDGE_CURVE('',#375,#423,#43,.T.);
#559=EDGE_CURVE('',#424,#374,#44,.T.);
#560=EDGE_CURVE('',#441,#390,#271,.T.);
#561=EDGE_CURVE('',#412,#441,#45,.T.);
#562=EDGE_CURVE('',#441,#389,#50,.T.);
#563=EDGE_CURVE('',#372,#407,#272,.T.);
#564=EDGE_CURVE('',#371,#408,#273,.T.);
#565=EDGE_CURVE('',#439,#409,#274,.T.);
#566=EDGE_CURVE('',#440,#410,#275,.T.);
#567=EDGE_CURVE('',#382,#418,#276,.T.);
#568=EDGE_CURVE('',#383,#417,#277,.T.);
#569=ORIENTED_EDGE('',*,*,#442,.F.);
#570=ORIENTED_EDGE('',*,*,#443,.F.);
#571=ORIENTED_EDGE('',*,*,#444,.F.);
#572=ORIENTED_EDGE('',*,*,#445,.T.);
#573=ORIENTED_EDGE('',*,*,#446,.F.);
#574=ORIENTED_EDGE('',*,*,#447,.F.);
#575=ORIENTED_EDGE('',*,*,#448,.F.);
#576=ORIENTED_EDGE('',*,*,#449,.F.);
#577=ORIENTED_EDGE('',*,*,#450,.F.);
#578=ORIENTED_EDGE('',*,*,#451,.F.);
#579=ORIENTED_EDGE('',*,*,#452,.F.);
#580=ORIENTED_EDGE('',*,*,#453,.F.);
#581=ORIENTED_EDGE('',*,*,#454,.F.);
#582=ORIENTED_EDGE('',*,*,#445,.F.);
#583=ORIENTED_EDGE('',*,*,#455,.F.);
#584=ORIENTED_EDGE('',*,*,#451,.T.);
#585=ORIENTED_EDGE('',*,*,#456,.F.);
#586=ORIENTED_EDGE('',*,*,#449,.T.);
#587=ORIENTED_EDGE('',*,*,#457,.F.);
#588=ORIENTED_EDGE('',*,*,#458,.F.);
#589=ORIENTED_EDGE('',*,*,#443,.T.);
#590=ORIENTED_EDGE('',*,*,#459,.F.);
#591=ORIENTED_EDGE('',*,*,#460,.F.);
#592=ORIENTED_EDGE('',*,*,#461,.F.);
#593=ORIENTED_EDGE('',*,*,#462,.F.);
#594=ORIENTED_EDGE('',*,*,#463,.F.);
#595=ORIENTED_EDGE('',*,*,#464,.F.);
#596=ORIENTED_EDGE('',*,*,#465,.F.);
#597=ORIENTED_EDGE('',*,*,#466,.F.);
#598=ORIENTED_EDGE('',*,*,#467,.F.);
#599=ORIENTED_EDGE('',*,*,#468,.F.);
#600=ORIENTED_EDGE('',*,*,#469,.F.);
#601=ORIENTED_EDGE('',*,*,#470,.F.);
#602=ORIENTED_EDGE('',*,*,#471,.F.);
#603=ORIENTED_EDGE('',*,*,#472,.F.);
#604=ORIENTED_EDGE('',*,*,#473,.F.);
#605=ORIENTED_EDGE('',*,*,#474,.F.);
#606=ORIENTED_EDGE('',*,*,#475,.F.);
#607=ORIENTED_EDGE('',*,*,#476,.F.);
#608=ORIENTED_EDGE('',*,*,#477,.F.);
#609=ORIENTED_EDGE('',*,*,#478,.F.);
#610=ORIENTED_EDGE('',*,*,#479,.F.);
#611=ORIENTED_EDGE('',*,*,#480,.F.);
#612=ORIENTED_EDGE('',*,*,#481,.F.);
#613=ORIENTED_EDGE('',*,*,#482,.F.);
#614=ORIENTED_EDGE('',*,*,#483,.F.);
#615=ORIENTED_EDGE('',*,*,#484,.F.);
#616=ORIENTED_EDGE('',*,*,#485,.F.);
#617=ORIENTED_EDGE('',*,*,#486,.F.);
#618=ORIENTED_EDGE('',*,*,#487,.F.);
#619=ORIENTED_EDGE('',*,*,#488,.F.);
#620=ORIENTED_EDGE('',*,*,#489,.F.);
#621=ORIENTED_EDGE('',*,*,#490,.F.);
#622=ORIENTED_EDGE('',*,*,#491,.F.);
#623=ORIENTED_EDGE('',*,*,#492,.F.);
#624=ORIENTED_EDGE('',*,*,#493,.F.);
#625=ORIENTED_EDGE('',*,*,#494,.F.);
#626=ORIENTED_EDGE('',*,*,#495,.F.);
#627=ORIENTED_EDGE('',*,*,#496,.F.);
#628=ORIENTED_EDGE('',*,*,#497,.F.);
#629=ORIENTED_EDGE('',*,*,#442,.T.);
#630=ORIENTED_EDGE('',*,*,#454,.T.);
#631=ORIENTED_EDGE('',*,*,#448,.T.);
#632=ORIENTED_EDGE('',*,*,#498,.T.);
#633=ORIENTED_EDGE('',*,*,#499,.F.);
#634=ORIENTED_EDGE('',*,*,#459,.T.);
#635=ORIENTED_EDGE('',*,*,#453,.T.);
#636=ORIENTED_EDGE('',*,*,#500,.T.);
#637=ORIENTED_EDGE('',*,*,#501,.F.);
#638=ORIENTED_EDGE('',*,*,#502,.F.);
#639=ORIENTED_EDGE('',*,*,#503,.F.);
#640=ORIENTED_EDGE('',*,*,#504,.F.);
#641=ORIENTED_EDGE('',*,*,#505,.T.);
#642=ORIENTED_EDGE('',*,*,#506,.T.);
#643=ORIENTED_EDGE('',*,*,#507,.T.);
#644=ORIENTED_EDGE('',*,*,#508,.F.);
#645=ORIENTED_EDGE('',*,*,#509,.T.);
#646=ORIENTED_EDGE('',*,*,#510,.F.);
#647=ORIENTED_EDGE('',*,*,#511,.F.);
#648=ORIENTED_EDGE('',*,*,#512,.F.);
#649=ORIENTED_EDGE('',*,*,#513,.F.);
#650=ORIENTED_EDGE('',*,*,#498,.F.);
#651=ORIENTED_EDGE('',*,*,#447,.T.);
#652=ORIENTED_EDGE('',*,*,#514,.F.);
#653=ORIENTED_EDGE('',*,*,#515,.T.);
#654=ORIENTED_EDGE('',*,*,#516,.F.);
#655=ORIENTED_EDGE('',*,*,#517,.T.);
#656=ORIENTED_EDGE('',*,*,#518,.F.);
#657=ORIENTED_EDGE('',*,*,#519,.T.);
#658=ORIENTED_EDGE('',*,*,#520,.F.);
#659=ORIENTED_EDGE('',*,*,#521,.T.);
#660=ORIENTED_EDGE('',*,*,#522,.F.);
#661=ORIENTED_EDGE('',*,*,#523,.T.);
#662=ORIENTED_EDGE('',*,*,#524,.F.);
#663=ORIENTED_EDGE('',*,*,#525,.T.);
#664=ORIENTED_EDGE('',*,*,#526,.F.);
#665=ORIENTED_EDGE('',*,*,#527,.T.);
#666=ORIENTED_EDGE('',*,*,#528,.F.);
#667=ORIENTED_EDGE('',*,*,#529,.T.);
#668=ORIENTED_EDGE('',*,*,#530,.T.);
#669=ORIENTED_EDGE('',*,*,#508,.T.);
#670=ORIENTED_EDGE('',*,*,#531,.T.);
#671=ORIENTED_EDGE('',*,*,#467,.T.);
#672=ORIENTED_EDGE('',*,*,#532,.T.);
#673=ORIENTED_EDGE('',*,*,#532,.F.);
#674=ORIENTED_EDGE('',*,*,#466,.T.);
#675=ORIENTED_EDGE('',*,*,#533,.F.);
#676=ORIENTED_EDGE('',*,*,#509,.F.);
#677=ORIENTED_EDGE('',*,*,#504,.T.);
#678=ORIENTED_EDGE('',*,*,#534,.T.);
#679=ORIENTED_EDGE('',*,*,#471,.T.);
#680=ORIENTED_EDGE('',*,*,#535,.T.);
#681=ORIENTED_EDGE('',*,*,#534,.F.);
#682=ORIENTED_EDGE('',*,*,#503,.T.);
#683=ORIENTED_EDGE('',*,*,#536,.T.);
#684=ORIENTED_EDGE('',*,*,#472,.T.);
#685=ORIENTED_EDGE('',*,*,#492,.T.);
#686=ORIENTED_EDGE('',*,*,#537,.T.);
#687=ORIENTED_EDGE('',*,*,#522,.T.);
#688=ORIENTED_EDGE('',*,*,#538,.T.);
#689=ORIENTED_EDGE('',*,*,#537,.F.);
#690=ORIENTED_EDGE('',*,*,#491,.T.);
#691=ORIENTED_EDGE('',*,*,#539,.F.);
#692=ORIENTED_EDGE('',*,*,#523,.F.);
#693=ORIENTED_EDGE('',*,*,#490,.T.);
#694=ORIENTED_EDGE('',*,*,#540,.T.);
#695=ORIENTED_EDGE('',*,*,#524,.T.);
#696=ORIENTED_EDGE('',*,*,#539,.T.);
#697=ORIENTED_EDGE('',*,*,#540,.F.);
#698=ORIENTED_EDGE('',*,*,#489,.T.);
#699=ORIENTED_EDGE('',*,*,#541,.F.);
#700=ORIENTED_EDGE('',*,*,#525,.F.);
#701=ORIENTED_EDGE('',*,*,#488,.T.);
#702=ORIENTED_EDGE('',*,*,#542,.T.);
#703=ORIENTED_EDGE('',*,*,#526,.T.);
#704=ORIENTED_EDGE('',*,*,#541,.T.);
#705=ORIENTED_EDGE('',*,*,#542,.F.);
#706=ORIENTED_EDGE('',*,*,#487,.T.);
#707=ORIENTED_EDGE('',*,*,#543,.F.);
#708=ORIENTED_EDGE('',*,*,#527,.F.);
#709=ORIENTED_EDGE('',*,*,#486,.T.);
#710=ORIENTED_EDGE('',*,*,#544,.T.);
#711=ORIENTED_EDGE('',*,*,#528,.T.);
#712=ORIENTED_EDGE('',*,*,#543,.T.);
#713=ORIENTED_EDGE('',*,*,#538,.F.);
#714=ORIENTED_EDGE('',*,*,#521,.F.);
#715=ORIENTED_EDGE('',*,*,#544,.F.);
#716=ORIENTED_EDGE('',*,*,#493,.T.);
#717=ORIENTED_EDGE('',*,*,#478,.T.);
#718=ORIENTED_EDGE('',*,*,#545,.T.);
#719=ORIENTED_EDGE('',*,*,#518,.T.);
#720=ORIENTED_EDGE('',*,*,#546,.T.);
#721=ORIENTED_EDGE('',*,*,#545,.F.);
#722=ORIENTED_EDGE('',*,*,#485,.T.);
#723=ORIENTED_EDGE('',*,*,#547,.F.);
#724=ORIENTED_EDGE('',*,*,#519,.F.);
#725=ORIENTED_EDGE('',*,*,#480,.T.);
#726=ORIENTED_EDGE('',*,*,#548,.T.);
#727=ORIENTED_EDGE('',*,*,#516,.T.);
#728=ORIENTED_EDGE('',*,*,#549,.T.);
#729=ORIENTED_EDGE('',*,*,#546,.F.);
#730=ORIENTED_EDGE('',*,*,#517,.F.);
#731=ORIENTED_EDGE('',*,*,#548,.F.);
#732=ORIENTED_EDGE('',*,*,#479,.T.);
#733=ORIENTED_EDGE('',*,*,#482,.T.);
#734=ORIENTED_EDGE('',*,*,#550,.T.);
#735=ORIENTED_EDGE('',*,*,#514,.T.);
#736=ORIENTED_EDGE('',*,*,#446,.T.);
#737=ORIENTED_EDGE('',*,*,#551,.T.);
#738=ORIENTED_EDGE('',*,*,#549,.F.);
#739=ORIENTED_EDGE('',*,*,#515,.F.);
#740=ORIENTED_EDGE('',*,*,#550,.F.);
#741=ORIENTED_EDGE('',*,*,#481,.T.);
#742=ORIENTED_EDGE('',*,*,#484,.T.);
#743=ORIENTED_EDGE('',*,*,#552,.T.);
#744=ORIENTED_EDGE('',*,*,#450,.T.);
#745=ORIENTED_EDGE('',*,*,#520,.T.);
#746=ORIENTED_EDGE('',*,*,#547,.T.);
#747=ORIENTED_EDGE('',*,*,#456,.T.);
#748=ORIENTED_EDGE('',*,*,#552,.F.);
#749=ORIENTED_EDGE('',*,*,#483,.T.);
#750=ORIENTED_EDGE('',*,*,#551,.F.);
#751=ORIENTED_EDGE('',*,*,#474,.T.);
#752=ORIENTED_EDGE('',*,*,#553,.T.);
#753=ORIENTED_EDGE('',*,*,#554,.T.);
#754=ORIENTED_EDGE('',*,*,#553,.F.);
#755=ORIENTED_EDGE('',*,*,#473,.T.);
#756=ORIENTED_EDGE('',*,*,#536,.F.);
#757=ORIENTED_EDGE('',*,*,#502,.T.);
#758=ORIENTED_EDGE('',*,*,#464,.T.);
#759=ORIENTED_EDGE('',*,*,#555,.T.);
#760=ORIENTED_EDGE('',*,*,#556,.T.);
#761=ORIENTED_EDGE('',*,*,#555,.F.);
#762=ORIENTED_EDGE('',*,*,#463,.T.);
#763=ORIENTED_EDGE('',*,*,#557,.F.);
#764=ORIENTED_EDGE('',*,*,#511,.T.);
#765=ORIENTED_EDGE('',*,*,#462,.T.);
#766=ORIENTED_EDGE('',*,*,#558,.T.);
#767=ORIENTED_EDGE('',*,*,#557,.T.);
#768=ORIENTED_EDGE('',*,*,#558,.F.);
#769=ORIENTED_EDGE('',*,*,#461,.T.);
#770=ORIENTED_EDGE('',*,*,#559,.F.);
#771=ORIENTED_EDGE('',*,*,#512,.T.);
#772=ORIENTED_EDGE('',*,*,#513,.T.);
#773=ORIENTED_EDGE('',*,*,#559,.T.);
#774=ORIENTED_EDGE('',*,*,#460,.T.);
#775=ORIENTED_EDGE('',*,*,#499,.T.);
#776=ORIENTED_EDGE('',*,*,#444,.T.);
#777=ORIENTED_EDGE('',*,*,#477,.T.);
#778=ORIENTED_EDGE('',*,*,#560,.F.);
#779=ORIENTED_EDGE('',*,*,#561,.F.);
#780=ORIENTED_EDGE('',*,*,#500,.F.);
#781=ORIENTED_EDGE('',*,*,#452,.T.);
#782=ORIENTED_EDGE('',*,*,#455,.T.);
#783=ORIENTED_EDGE('',*,*,#556,.F.);
#784=ORIENTED_EDGE('',*,*,#510,.T.);
#785=ORIENTED_EDGE('',*,*,#533,.T.);
#786=ORIENTED_EDGE('',*,*,#465,.T.);
#787=ORIENTED_EDGE('',*,*,#554,.F.);
#788=ORIENTED_EDGE('',*,*,#501,.T.);
#789=ORIENTED_EDGE('',*,*,#561,.T.);
#790=ORIENTED_EDGE('',*,*,#562,.T.);
#791=ORIENTED_EDGE('',*,*,#475,.T.);
#792=ORIENTED_EDGE('',*,*,#562,.F.);
#793=ORIENTED_EDGE('',*,*,#560,.T.);
#794=ORIENTED_EDGE('',*,*,#476,.T.);
#795=ORIENTED_EDGE('',*,*,#458,.T.);
#796=ORIENTED_EDGE('',*,*,#563,.T.);
#797=ORIENTED_EDGE('',*,*,#494,.T.);
#798=ORIENTED_EDGE('',*,*,#563,.F.);
#799=ORIENTED_EDGE('',*,*,#457,.T.);
#800=ORIENTED_EDGE('',*,*,#564,.T.);
#801=ORIENTED_EDGE('',*,*,#495,.T.);
#802=ORIENTED_EDGE('',*,*,#564,.F.);
#803=ORIENTED_EDGE('',*,*,#529,.F.);
#804=ORIENTED_EDGE('',*,*,#565,.T.);
#805=ORIENTED_EDGE('',*,*,#496,.T.);
#806=ORIENTED_EDGE('',*,*,#565,.F.);
#807=ORIENTED_EDGE('',*,*,#530,.F.);
#808=ORIENTED_EDGE('',*,*,#566,.T.);
#809=ORIENTED_EDGE('',*,*,#497,.T.);
#810=ORIENTED_EDGE('',*,*,#566,.F.);
#811=ORIENTED_EDGE('',*,*,#531,.F.);
#812=ORIENTED_EDGE('',*,*,#507,.F.);
#813=ORIENTED_EDGE('',*,*,#567,.F.);
#814=ORIENTED_EDGE('',*,*,#468,.T.);
#815=ORIENTED_EDGE('',*,*,#469,.T.);
#816=ORIENTED_EDGE('',*,*,#567,.T.);
#817=ORIENTED_EDGE('',*,*,#506,.F.);
#818=ORIENTED_EDGE('',*,*,#568,.F.);
#819=ORIENTED_EDGE('',*,*,#535,.F.);
#820=ORIENTED_EDGE('',*,*,#470,.T.);
#821=ORIENTED_EDGE('',*,*,#568,.T.);
#822=ORIENTED_EDGE('',*,*,#505,.F.);
#823=PLANE('',#912);
#824=PLANE('',#913);
#825=PLANE('',#914);
#826=PLANE('',#915);
#827=PLANE('',#918);
#828=PLANE('',#935);
#829=PLANE('',#937);
#830=PLANE('',#951);
#831=PLANE('',#954);
#832=PLANE('',#957);
#833=PLANE('',#959);
#834=PLANE('',#961);
#835=PLANE('',#963);
#836=PLANE('',#965);
#837=PLANE('',#967);
#838=PLANE('',#969);
#839=PLANE('',#971);
#840=PLANE('',#983);
#841=PLANE('',#992);
#842=PLANE('',#993);
#843=PLANE('',#994);
#844=ADVANCED_FACE('',(#96),#823,.F.);
#845=ADVANCED_FACE('',(#97),#824,.F.);
#846=ADVANCED_FACE('',(#98),#825,.F.);
#847=ADVANCED_FACE('',(#99,#51,#52),#826,.F.);
#848=ADVANCED_FACE('',(#100,#53,#54,#55,#56,#57,#58),#827,.F.);
#849=ADVANCED_FACE('',(#101),#828,.T.);
#850=ADVANCED_FACE('',(#102,#59,#60,#61),#829,.T.);
#851=ADVANCED_FACE('',(#103),#19,.T.);
#852=ADVANCED_FACE('',(#104),#830,.T.);
#853=ADVANCED_FACE('',(#105),#20,.T.);
#854=ADVANCED_FACE('',(#106),#831,.T.);
#855=ADVANCED_FACE('',(#107),#21,.F.);
#856=ADVANCED_FACE('',(#108),#832,.T.);
#857=ADVANCED_FACE('',(#109),#22,.F.);
#858=ADVANCED_FACE('',(#110),#833,.T.);
#859=ADVANCED_FACE('',(#111),#23,.F.);
#860=ADVANCED_FACE('',(#112),#834,.T.);
#861=ADVANCED_FACE('',(#113),#24,.F.);
#862=ADVANCED_FACE('',(#114),#835,.T.);
#863=ADVANCED_FACE('',(#115),#25,.F.);
#864=ADVANCED_FACE('',(#116),#836,.T.);
#865=ADVANCED_FACE('',(#117),#26,.F.);
#866=ADVANCED_FACE('',(#118),#837,.T.);
#867=ADVANCED_FACE('',(#119),#27,.F.);
#868=ADVANCED_FACE('',(#120),#838,.T.);
#869=ADVANCED_FACE('',(#121),#28,.F.);
#870=ADVANCED_FACE('',(#122),#839,.T.);
#871=ADVANCED_FACE('',(#123),#16,.T.);
#872=ADVANCED_FACE('',(#124),#29,.T.);
#873=ADVANCED_FACE('',(#125),#15,.T.);
#874=ADVANCED_FACE('',(#126),#30,.T.);
#875=ADVANCED_FACE('',(#127),#17,.T.);
#876=ADVANCED_FACE('',(#128),#31,.T.);
#877=ADVANCED_FACE('',(#129),#18,.T.);
#878=ADVANCED_FACE('',(#130),#840,.T.);
#879=ADVANCED_FACE('',(#131),#32,.T.);
#880=ADVANCED_FACE('',(#132),#33,.T.);
#881=ADVANCED_FACE('',(#133),#34,.T.);
#882=ADVANCED_FACE('',(#134),#35,.F.);
#883=ADVANCED_FACE('',(#135),#36,.F.);
#884=ADVANCED_FACE('',(#136),#37,.F.);
#885=ADVANCED_FACE('',(#137),#38,.F.);
#886=ADVANCED_FACE('',(#138),#841,.T.);
#887=ADVANCED_FACE('',(#139),#842,.T.);
#888=ADVANCED_FACE('',(#140),#843,.T.);
#889=CLOSED_SHELL('',(#844,#845,#846,#847,#848,#849,#850,#851,#852,#853,
#854,#855,#856,#857,#858,#859,#860,#861,#862,#863,#864,#865,#866,#867,#868,
#869,#870,#871,#872,#873,#874,#875,#876,#877,#878,#879,#880,#881,#882,#883,
#884,#885,#886,#887,#888));
#890=DERIVED_UNIT_ELEMENT(#893,1.);
#891=DERIVED_UNIT_ELEMENT(#1609,-3.);
#892=DIMENSIONAL_EXPONENTS(0.,1.,0.,0.,0.,0.,0.);
#893=(
CONVERSION_BASED_UNIT('gram',#895)
MASS_UNIT()
NAMED_UNIT(#892)
);
#894=(
MASS_UNIT()
NAMED_UNIT(*)
SI_UNIT(.KILO.,.GRAM.)
);
#895=MASS_MEASURE_WITH_UNIT(MASS_MEASURE(0.001),#894);
#896=DERIVED_UNIT((#890,#891));
#897=MEASURE_REPRESENTATION_ITEM('density measure',
POSITIVE_RATIO_MEASURE(1.541),#896);
#898=PROPERTY_DEFINITION_REPRESENTATION(#903,#900);
#899=PROPERTY_DEFINITION_REPRESENTATION(#904,#901);
#900=REPRESENTATION('material name',(#902),#1606);
#901=REPRESENTATION('density',(#897),#1606);
#902=DESCRIPTIVE_REPRESENTATION_ITEM('PCTG 20%','PCTG 20%');
#903=PROPERTY_DEFINITION('material property','material name',#1616);
#904=PROPERTY_DEFINITION('material property','density of part',#1616);
#905=DATE_TIME_ROLE('creation_date');
#906=APPLIED_DATE_AND_TIME_ASSIGNMENT(#907,#905,(#1616));
#907=DATE_AND_TIME(#908,#909);
#908=CALENDAR_DATE(2026,19,4);
#909=LOCAL_TIME(0,0,0.,#910);
#910=COORDINATED_UNIVERSAL_TIME_OFFSET(0,0,.BEHIND.);
#911=AXIS2_PLACEMENT_3D('',#1244,#995,#996);
#912=AXIS2_PLACEMENT_3D('',#1245,#997,#998);
#913=AXIS2_PLACEMENT_3D('',#1254,#1003,#1004);
#914=AXIS2_PLACEMENT_3D('',#1263,#1009,#1010);
#915=AXIS2_PLACEMENT_3D('',#1272,#1015,#1016);
#916=AXIS2_PLACEMENT_3D('',#1277,#1020,#1021);
#917=AXIS2_PLACEMENT_3D('',#1279,#1022,#1023);
#918=AXIS2_PLACEMENT_3D('',#1280,#1024,#1025);
#919=AXIS2_PLACEMENT_3D('',#1304,#1029,#1030);
#920=AXIS2_PLACEMENT_3D('',#1310,#1033,#1034);
#921=AXIS2_PLACEMENT_3D('',#1318,#1038,#1039);
#922=AXIS2_PLACEMENT_3D('',#1335,#1043,#1044);
#923=AXIS2_PLACEMENT_3D('',#1339,#1046,#1047);
#924=AXIS2_PLACEMENT_3D('',#1343,#1049,#1050);
#925=AXIS2_PLACEMENT_3D('',#1347,#1052,#1053);
#926=AXIS2_PLACEMENT_3D('',#1351,#1055,#1056);
#927=AXIS2_PLACEMENT_3D('',#1355,#1058,#1059);
#928=AXIS2_PLACEMENT_3D('',#1359,#1061,#1062);
#929=AXIS2_PLACEMENT_3D('',#1363,#1064,#1065);
#930=AXIS2_PLACEMENT_3D('',#1367,#1067,#1068);
#931=AXIS2_PLACEMENT_3D('',#1370,#1070,#1071);
#932=AXIS2_PLACEMENT_3D('',#1372,#1072,#1073);
#933=AXIS2_PLACEMENT_3D('',#1374,#1074,#1075);
#934=AXIS2_PLACEMENT_3D('',#1376,#1076,#1077);
#935=AXIS2_PLACEMENT_3D('',#1377,#1078,#1079);
#936=AXIS2_PLACEMENT_3D('',#1380,#1081,#1082);
#937=AXIS2_PLACEMENT_3D('',#1381,#1083,#1084);
#938=AXIS2_PLACEMENT_3D('',#1391,#1089,#1090);
#939=AXIS2_PLACEMENT_3D('',#1399,#1094,#1095);
#940=AXIS2_PLACEMENT_3D('',#1417,#1100,#1101);
#941=AXIS2_PLACEMENT_3D('',#1421,#1103,#1104);
#942=AXIS2_PLACEMENT_3D('',#1425,#1106,#1107);
#943=AXIS2_PLACEMENT_3D('',#1428,#1109,#1110);
#944=AXIS2_PLACEMENT_3D('',#1433,#1112,#1113);
#945=AXIS2_PLACEMENT_3D('',#1437,#1115,#1116);
#946=AXIS2_PLACEMENT_3D('',#1441,#1118,#1119);
#947=AXIS2_PLACEMENT_3D('',#1444,#1121,#1122);
#948=AXIS2_PLACEMENT_3D('',#1446,#1123,#1124);
#949=AXIS2_PLACEMENT_3D('',#1448,#1125,#1126);
#950=AXIS2_PLACEMENT_3D('',#1449,#1127,#1128);
#951=AXIS2_PLACEMENT_3D('',#1452,#1131,#1132);
#952=AXIS2_PLACEMENT_3D('',#1453,#1133,#1134);
#953=AXIS2_PLACEMENT_3D('',#1454,#1135,#1136);
#954=AXIS2_PLACEMENT_3D('',#1457,#1139,#1140);
#955=AXIS2_PLACEMENT_3D('',#1458,#1141,#1142);
#956=AXIS2_PLACEMENT_3D('',#1459,#1143,#1144);
#957=AXIS2_PLACEMENT_3D('',#1462,#1147,#1148);
#958=AXIS2_PLACEMENT_3D('',#1464,#1150,#1151);
#959=AXIS2_PLACEMENT_3D('',#1466,#1153,#1154);
#960=AXIS2_PLACEMENT_3D('',#1468,#1156,#1157);
#961=AXIS2_PLACEMENT_3D('',#1470,#1159,#1160);
#962=AXIS2_PLACEMENT_3D('',#1472,#1162,#1163);
#963=AXIS2_PLACEMENT_3D('',#1474,#1165,#1166);
#964=AXIS2_PLACEMENT_3D('',#1475,#1167,#1168);
#965=AXIS2_PLACEMENT_3D('',#1478,#1171,#1172);
#966=AXIS2_PLACEMENT_3D('',#1480,#1174,#1175);
#967=AXIS2_PLACEMENT_3D('',#1483,#1178,#1179);
#968=AXIS2_PLACEMENT_3D('',#1484,#1180,#1181);
#969=AXIS2_PLACEMENT_3D('',#1487,#1184,#1185);
#970=AXIS2_PLACEMENT_3D('',#1488,#1186,#1187);
#971=AXIS2_PLACEMENT_3D('',#1490,#1189,#1190);
#972=AXIS2_PLACEMENT_3D('',#1511,#1191,#1192);
#973=AXIS2_PLACEMENT_3D('',#1512,#1193,#1194);
#974=AXIS2_PLACEMENT_3D('',#1513,#1195,#1196);
#975=AXIS2_PLACEMENT_3D('',#1514,#1197,#1198);
#976=AXIS2_PLACEMENT_3D('',#1515,#1199,#1200);
#977=AXIS2_PLACEMENT_3D('',#1516,#1201,#1202);
#978=AXIS2_PLACEMENT_3D('',#1517,#1203,#1204);
#979=AXIS2_PLACEMENT_3D('',#1518,#1205,#1206);
#980=AXIS2_PLACEMENT_3D('',#1539,#1207,#1208);
#981=AXIS2_PLACEMENT_3D('',#1540,#1209,#1210);
#982=AXIS2_PLACEMENT_3D('',#1541,#1211,#1212);
#983=AXIS2_PLACEMENT_3D('',#1572,#1213,#1214);
#984=AXIS2_PLACEMENT_3D('',#1575,#1216,#1217);
#985=AXIS2_PLACEMENT_3D('',#1576,#1218,#1219);
#986=AXIS2_PLACEMENT_3D('',#1577,#1220,#1221);
#987=AXIS2_PLACEMENT_3D('',#1590,#1222,#1223);
#988=AXIS2_PLACEMENT_3D('',#1591,#1224,#1225);
#989=AXIS2_PLACEMENT_3D('',#1593,#1227,#1228);
#990=AXIS2_PLACEMENT_3D('',#1595,#1230,#1231);
#991=AXIS2_PLACEMENT_3D('',#1597,#1233,#1234);
#992=AXIS2_PLACEMENT_3D('',#1599,#1236,#1237);
#993=AXIS2_PLACEMENT_3D('',#1601,#1239,#1240);
#994=AXIS2_PLACEMENT_3D('',#1603,#1242,#1243);
#995=DIRECTION('axis',(0.,0.,1.));
#996=DIRECTION('refdir',(1.,0.,0.));
#997=DIRECTION('center_axis',(-1.42336285208353E-16,1.,2.96059473233375E-15));
#998=DIRECTION('ref_axis',(-4.38256058456118E-31,2.96059473233375E-15,-1.));
#999=DIRECTION('',(6.13558481838564E-31,-2.96059473233375E-15,1.));
#1000=DIRECTION('',(-1.,-1.42336285208353E-16,0.));
#1001=DIRECTION('',(-4.38256058456118E-31,2.96059473233375E-15,-1.));
#1002=DIRECTION('',(-1.,-1.42336285208353E-16,0.));
#1003=DIRECTION('center_axis',(-1.42336285208353E-16,1.,0.));
#1004=DIRECTION('ref_axis',(0.,0.,-1.));
#1005=DIRECTION('',(0.,0.,-1.));
#1006=DIRECTION('',(1.,1.42336285208353E-16,0.));
#1007=DIRECTION('',(0.,0.,1.));
#1008=DIRECTION('',(-1.,-1.42336285208353E-16,0.));
#1009=DIRECTION('center_axis',(-1.42336285208353E-16,1.,0.));
#1010=DIRECTION('ref_axis',(0.,0.,-1.));
#1011=DIRECTION('',(0.,0.,1.));
#1012=DIRECTION('',(-1.,-1.42336285208353E-16,0.));
#1013=DIRECTION('',(0.,0.,-1.));
#1014=DIRECTION('',(1.,1.42336285208353E-16,0.));
#1015=DIRECTION('center_axis',(0.,0.,-1.));
#1016=DIRECTION('ref_axis',(1.48029736616688E-16,-1.,0.));
#1017=DIRECTION('',(-2.07241631263362E-16,1.,0.));
#1018=DIRECTION('',(1.48029736616688E-16,-1.,0.));
#1019=DIRECTION('',(1.,4.44089209850063E-16,0.));
#1020=DIRECTION('center_axis',(0.,0.,1.));
#1021=DIRECTION('ref_axis',(-1.,0.,0.));
#1022=DIRECTION('center_axis',(0.,0.,1.));
#1023=DIRECTION('ref_axis',(-1.,0.,0.));
#1024=DIRECTION('center_axis',(0.,0.,1.));
#1025=DIRECTION('ref_axis',(1.,0.,0.));
#1026=DIRECTION('',(2.07241631263362E-16,-1.,0.));
#1027=DIRECTION('',(0.813733471206735,-0.581238193719096,0.));
#1028=DIRECTION('',(1.,-7.10542735760101E-16,0.));
#1029=DIRECTION('center_axis',(0.,0.,1.));
#1030=DIRECTION('ref_axis',(0.,-1.,0.));
#1031=DIRECTION('',(0.,-1.,0.));
#1032=DIRECTION('',(1.,4.44089209850062E-15,0.));
#1033=DIRECTION('center_axis',(0.,0.,1.));
#1034=DIRECTION('ref_axis',(-0.707106781186543,-0.707106781186552,0.));
#1035=DIRECTION('',(8.88178419700127E-16,-1.,0.));
#1036=DIRECTION('',(-1.,0.,0.));
#1037=DIRECTION('',(-4.44089209850063E-16,1.,0.));
#1038=DIRECTION('center_axis',(0.,0.,1.));
#1039=DIRECTION('ref_axis',(0.707106781186548,-0.707106781186548,0.));
#1040=DIRECTION('',(1.,0.,0.));
#1041=DIRECTION('',(0.,1.,0.));
#1042=DIRECTION('',(-0.813733471206735,0.581238193719096,0.));
#1043=DIRECTION('center_axis',(0.,0.,1.));
#1044=DIRECTION('ref_axis',(0.889167642719611,0.45758158085794,0.));
#1045=DIRECTION('',(-1.48029736616688E-16,1.,0.));
#1046=DIRECTION('center_axis',(0.,0.,-1.));
#1047=DIRECTION('ref_axis',(0.707106781186547,0.707106781186548,0.));
#1048=DIRECTION('',(1.,0.,0.));
#1049=DIRECTION('center_axis',(0.,0.,-1.));
#1050=DIRECTION('ref_axis',(-0.707106781186548,0.707106781186547,0.));
#1051=DIRECTION('',(-2.181506164219E-16,1.,0.));
#1052=DIRECTION('center_axis',(0.,0.,-1.));
#1053=DIRECTION('ref_axis',(-0.707106781186548,-0.707106781186548,0.));
#1054=DIRECTION('',(-1.,-4.44089209850063E-16,0.));
#1055=DIRECTION('center_axis',(0.,0.,-1.));
#1056=DIRECTION('ref_axis',(0.707106781186548,-0.707106781186547,0.));
#1057=DIRECTION('',(4.36301232843801E-16,-1.,0.));
#1058=DIRECTION('center_axis',(0.,0.,-1.));
#1059=DIRECTION('ref_axis',(0.707106781186549,0.707106781186546,0.));
#1060=DIRECTION('',(1.,0.,0.));
#1061=DIRECTION('center_axis',(0.,0.,-1.));
#1062=DIRECTION('ref_axis',(-0.707106781186544,0.707106781186551,0.));
#1063=DIRECTION('',(0.,1.,0.));
#1064=DIRECTION('center_axis',(0.,0.,-1.));
#1065=DIRECTION('ref_axis',(-0.707106781186551,-0.707106781186544,0.));
#1066=DIRECTION('',(-1.,0.,0.));
#1067=DIRECTION('center_axis',(0.,0.,-1.));
#1068=DIRECTION('ref_axis',(0.707106781186546,-0.707106781186549,0.));
#1069=DIRECTION('',(7.06417258967728E-16,-1.,0.));
#1070=DIRECTION('center_axis',(0.,0.,-1.));
#1071=DIRECTION('ref_axis',(-1.,0.,0.));
#1072=DIRECTION('center_axis',(0.,0.,-1.));
#1073=DIRECTION('ref_axis',(-1.,0.,0.));
#1074=DIRECTION('center_axis',(0.,0.,-1.));
#1075=DIRECTION('ref_axis',(-1.,0.,0.));
#1076=DIRECTION('center_axis',(0.,0.,-1.));
#1077=DIRECTION('ref_axis',(-1.,0.,0.));
#1078=DIRECTION('center_axis',(-1.,-2.07241631263362E-16,0.));
#1079=DIRECTION('ref_axis',(2.07241631263362E-16,-1.,0.));
#1080=DIRECTION('',(-2.07241631263362E-16,1.,0.));
#1081=DIRECTION('center_axis',(-1.,-2.07241631263362E-16,0.));
#1082=DIRECTION('ref_axis',(2.07241631263362E-16,-1.,0.));
#1083=DIRECTION('center_axis',(0.,0.,1.));
#1084=DIRECTION('ref_axis',(1.,0.,0.));
#1085=DIRECTION('',(-1.48029736616688E-16,1.,0.));
#1086=DIRECTION('',(0.813733471206735,-0.581238193719096,0.));
#1087=DIRECTION('',(0.,-1.,0.));
#1088=DIRECTION('',(-1.,0.,0.));
#1089=DIRECTION('center_axis',(0.,0.,-1.));
#1090=DIRECTION('ref_axis',(0.707106781186548,-0.707106781186548,0.));
#1091=DIRECTION('',(-4.44089209850063E-16,1.,0.));
#1092=DIRECTION('',(-1.,0.,0.));
#1093=DIRECTION('',(8.88178419700127E-16,-1.,0.));
#1094=DIRECTION('center_axis',(0.,0.,-1.));
#1095=DIRECTION('ref_axis',(-0.707106781186543,-0.707106781186552,0.));
#1096=DIRECTION('',(1.,4.44089209850062E-15,0.));
#1097=DIRECTION('',(0.,1.,0.));
#1098=DIRECTION('',(-1.,7.10542735760101E-16,0.));
#1099=DIRECTION('',(-0.813733471206735,0.581238193719096,0.));
#1100=DIRECTION('center_axis',(0.,0.,1.));
#1101=DIRECTION('ref_axis',(-0.707106781186548,-0.707106781186548,0.));
#1102=DIRECTION('',(-2.181506164219E-16,1.,0.));
#1103=DIRECTION('center_axis',(0.,0.,1.));
#1104=DIRECTION('ref_axis',(-0.707106781186548,0.707106781186547,0.));
#1105=DIRECTION('',(1.,0.,0.));
#1106=DIRECTION('center_axis',(0.,0.,1.));
#1107=DIRECTION('ref_axis',(0.707106781186547,0.707106781186548,0.));
#1108=DIRECTION('',(4.36301232843801E-16,-1.,0.));
#1109=DIRECTION('center_axis',(0.,0.,1.));
#1110=DIRECTION('ref_axis',(0.707106781186548,-0.707106781186547,0.));
#1111=DIRECTION('',(7.06417258967728E-16,-1.,0.));
#1112=DIRECTION('center_axis',(0.,0.,1.));
#1113=DIRECTION('ref_axis',(0.707106781186546,-0.707106781186549,0.));
#1114=DIRECTION('',(-1.,0.,0.));
#1115=DIRECTION('center_axis',(0.,0.,1.));
#1116=DIRECTION('ref_axis',(-0.707106781186551,-0.707106781186544,0.));
#1117=DIRECTION('',(0.,1.,0.));
#1118=DIRECTION('center_axis',(0.,0.,1.));
#1119=DIRECTION('ref_axis',(-0.707106781186544,0.707106781186551,0.));
#1120=DIRECTION('',(1.,0.,0.));
#1121=DIRECTION('center_axis',(0.,0.,1.));
#1122=DIRECTION('ref_axis',(0.707106781186549,0.707106781186546,0.));
#1123=DIRECTION('center_axis',(0.,0.,-1.));
#1124=DIRECTION('ref_axis',(-1.,0.,0.));
#1125=DIRECTION('center_axis',(0.,0.,-1.));
#1126=DIRECTION('ref_axis',(-1.,0.,0.));
#1127=DIRECTION('center_axis',(0.,0.,1.));
#1128=DIRECTION('ref_axis',(-0.707106781186543,-0.707106781186552,0.));
#1129=DIRECTION('',(0.,0.,-1.));
#1130=DIRECTION('',(0.,0.,1.));
#1131=DIRECTION('center_axis',(4.44089209850062E-15,-1.,0.));
#1132=DIRECTION('ref_axis',(1.,4.44089209850062E-15,0.));
#1133=DIRECTION('center_axis',(-4.44089209850062E-15,1.,0.));
#1134=DIRECTION('ref_axis',(-0.968245836551854,0.,0.25));
#1135=DIRECTION('center_axis',(0.,0.,1.));
#1136=DIRECTION('ref_axis',(0.707106781186548,-0.707106781186548,0.));
#1137=DIRECTION('',(0.,0.,-1.));
#1138=DIRECTION('',(0.,0.,1.));
#1139=DIRECTION('center_axis',(0.,-1.,0.));
#1140=DIRECTION('ref_axis',(1.,0.,0.));
#1141=DIRECTION('center_axis',(0.,1.,0.));
#1142=DIRECTION('ref_axis',(0.968245836551854,0.,0.25));
#1143=DIRECTION('center_axis',(0.,0.,1.));
#1144=DIRECTION('ref_axis',(0.707106781186546,-0.707106781186549,0.));
#1145=DIRECTION('',(0.,0.,1.));
#1146=DIRECTION('',(0.,0.,-1.));
#1147=DIRECTION('center_axis',(0.,1.,0.));
#1148=DIRECTION('ref_axis',(-1.,0.,0.));
#1149=DIRECTION('',(0.,0.,-1.));
#1150=DIRECTION('center_axis',(0.,0.,1.));
#1151=DIRECTION('ref_axis',(-0.707106781186551,-0.707106781186544,0.));
#1152=DIRECTION('',(0.,0.,1.));
#1153=DIRECTION('center_axis',(1.,0.,0.));
#1154=DIRECTION('ref_axis',(0.,1.,0.));
#1155=DIRECTION('',(0.,0.,-1.));
#1156=DIRECTION('center_axis',(0.,0.,1.));
#1157=DIRECTION('ref_axis',(-0.707106781186544,0.707106781186551,0.));
#1158=DIRECTION('',(0.,0.,1.));
#1159=DIRECTION('center_axis',(0.,-1.,0.));
#1160=DIRECTION('ref_axis',(1.,0.,0.));
#1161=DIRECTION('',(0.,0.,-1.));
#1162=DIRECTION('center_axis',(0.,0.,1.));
#1163=DIRECTION('ref_axis',(0.707106781186549,0.707106781186546,0.));
#1164=DIRECTION('',(0.,0.,1.));
#1165=DIRECTION('center_axis',(-1.,-7.06417258967728E-16,0.));
#1166=DIRECTION('ref_axis',(7.06417258967728E-16,-1.,0.));
#1167=DIRECTION('center_axis',(0.,0.,1.));
#1168=DIRECTION('ref_axis',(0.707106781186547,0.707106781186548,0.));
#1169=DIRECTION('',(0.,0.,1.));
#1170=DIRECTION('',(0.,0.,-1.));
#1171=DIRECTION('center_axis',(-1.,-4.36301232843801E-16,0.));
#1172=DIRECTION('ref_axis',(4.36301232843801E-16,-1.,0.));
#1173=DIRECTION('',(0.,0.,-1.));
#1174=DIRECTION('center_axis',(0.,0.,1.));
#1175=DIRECTION('ref_axis',(-0.707106781186548,0.707106781186547,0.));
#1176=DIRECTION('',(0.,0.,1.));
#1177=DIRECTION('',(0.,0.,-1.));
#1178=DIRECTION('center_axis',(0.,-1.,0.));
#1179=DIRECTION('ref_axis',(1.,0.,0.));
#1180=DIRECTION('center_axis',(0.,0.,1.));
#1181=DIRECTION('ref_axis',(-0.707106781186548,-0.707106781186548,0.));
#1182=DIRECTION('',(0.,0.,1.));
#1183=DIRECTION('',(0.,0.,-1.));
#1184=DIRECTION('center_axis',(1.,2.181506164219E-16,0.));
#1185=DIRECTION('ref_axis',(-2.181506164219E-16,1.,0.));
#1186=DIRECTION('center_axis',(0.,0.,1.));
#1187=DIRECTION('ref_axis',(0.707106781186548,-0.707106781186547,0.));
#1188=DIRECTION('',(0.,0.,1.));
#1189=DIRECTION('center_axis',(-4.44089209850063E-16,1.,0.));
#1190=DIRECTION('ref_axis',(-1.,-4.44089209850063E-16,0.));
#1191=DIRECTION('center_axis',(0.717219841554143,-0.696846969485446,0.));
#1192=DIRECTION('ref_axis',(0.696846969485446,0.717219841554143,0.));
#1193=DIRECTION('center_axis',(-0.150172138174861,0.988659865128544,4.0570826522362E-15));
#1194=DIRECTION('ref_axis',(0.988659865128544,0.150172138174861,0.));
#1195=DIRECTION('center_axis',(0.,-1.,0.));
#1196=DIRECTION('ref_axis',(0.968245836551854,0.,0.25));
#1197=DIRECTION('center_axis',(0.258543844997508,-0.879049072991533,-0.400534402375915));
#1198=DIRECTION('ref_axis',(-0.476731294622795,-0.476731294622795,0.738548945875998));
#1199=DIRECTION('center_axis',(-1.,7.10542735760101E-16,0.));
#1200=DIRECTION('ref_axis',(0.,-0.968245836551854,0.25));
#1201=DIRECTION('center_axis',(0.,-1.,0.));
#1202=DIRECTION('ref_axis',(-0.968245836551854,0.,0.25));
#1203=DIRECTION('center_axis',(-1.,7.10542735760101E-16,0.));
#1204=DIRECTION('ref_axis',(0.,-0.968245836551854,0.25));
#1205=DIRECTION('center_axis',(0.841915679883039,-0.539609106638389,0.));
#1206=DIRECTION('ref_axis',(-0.539609106638388,-0.841915679883039,-2.33678543149774E-16));
#1207=DIRECTION('center_axis',(-0.998736391111476,0.0502555575993837,-2.21764027388599E-15));
#1208=DIRECTION('ref_axis',(-0.0502555575993837,-0.998736391111476,-2.33678543149774E-16));
#1209=DIRECTION('center_axis',(-0.813733471206735,0.581238193719096,0.));
#1210=DIRECTION('ref_axis',(-0.562781461113435,-0.78789404555881,0.25));
#1211=DIRECTION('center_axis',(0.942814385804636,0.333318217203661,-1.04673423906813E-15));
#1212=DIRECTION('ref_axis',(0.333318217203661,-0.942814385804636,0.));
#1213=DIRECTION('center_axis',(1.,1.48029736616688E-16,0.));
#1214=DIRECTION('ref_axis',(-1.48029736616688E-16,1.,0.));
#1215=DIRECTION('',(0.,0.,-1.));
#1216=DIRECTION('center_axis',(-1.,-1.48029736616688E-16,0.));
#1217=DIRECTION('ref_axis',(-1.78129421246489E-16,1.,-2.82320511138084E-17));
#1218=DIRECTION('center_axis',(0.,1.,0.));
#1219=DIRECTION('ref_axis',(-0.968245836551854,0.,0.25));
#1220=DIRECTION('center_axis',(0.813733471206735,-0.581238193719096,0.));
#1221=DIRECTION('ref_axis',(0.562781461113435,0.78789404555881,0.25));
#1222=DIRECTION('center_axis',(0.,0.,1.));
#1223=DIRECTION('ref_axis',(0.889167642719611,0.45758158085794,0.));
#1224=DIRECTION('center_axis',(0.,0.,1.));
#1225=DIRECTION('ref_axis',(-1.,0.,0.));
#1226=DIRECTION('',(0.,0.,-1.));
#1227=DIRECTION('center_axis',(0.,0.,1.));
#1228=DIRECTION('ref_axis',(-1.,0.,0.));
#1229=DIRECTION('',(0.,0.,-1.));
#1230=DIRECTION('center_axis',(0.,0.,1.));
#1231=DIRECTION('ref_axis',(-1.,0.,0.));
#1232=DIRECTION('',(0.,0.,-1.));
#1233=DIRECTION('center_axis',(0.,0.,1.));
#1234=DIRECTION('ref_axis',(-1.,0.,0.));
#1235=DIRECTION('',(0.,0.,-1.));
#1236=DIRECTION('center_axis',(-1.,-8.88178419700127E-16,0.));
#1237=DIRECTION('ref_axis',(8.88178419700127E-16,-1.,0.));
#1238=DIRECTION('',(0.,0.,1.));
#1239=DIRECTION('center_axis',(0.,1.,0.));
#1240=DIRECTION('ref_axis',(-1.,0.,0.));
#1241=DIRECTION('',(0.,0.,1.));
#1242=DIRECTION('center_axis',(1.,4.44089209850063E-16,0.));
#1243=DIRECTION('ref_axis',(-4.44089209850063E-16,1.,0.));
#1244=CARTESIAN_POINT('',(0.,0.,0.));
#1245=CARTESIAN_POINT('Origin',(1.64346021921044E-30,-4.44089209850063E-15,
1.5));
#1246=CARTESIAN_POINT('',(-30.,-4.2700885562506E-15,0.));
#1247=CARTESIAN_POINT('',(-30.,-4.2700885562506E-15,1.5));
#1248=CARTESIAN_POINT('',(-30.,-1.10168284751266E-14,0.749999999999937));
#1249=CARTESIAN_POINT('',(9.86076131526265E-31,0.,0.));
#1250=CARTESIAN_POINT('',(-26.,-3.70074341541719E-15,0.));
#1251=CARTESIAN_POINT('',(9.86076131526265E-31,0.,1.5));
#1252=CARTESIAN_POINT('',(0.,-2.43115417042969E-32,0.750000000000089));
#1253=CARTESIAN_POINT('',(9.86076131526265E-31,0.,1.5));
#1254=CARTESIAN_POINT('Origin',(-3.33066907387547E-15,22.5,3.));
#1255=CARTESIAN_POINT('',(-21.,22.5,3.));
#1256=CARTESIAN_POINT('',(-21.,22.5,1.5));
#1257=CARTESIAN_POINT('',(-21.,22.5,0.));
#1258=CARTESIAN_POINT('',(-30.,22.5,3.));
#1259=CARTESIAN_POINT('',(-26.,22.5,3.));
#1260=CARTESIAN_POINT('',(-30.,22.5,1.5));
#1261=CARTESIAN_POINT('',(-30.,22.5,1.5));
#1262=CARTESIAN_POINT('',(-3.33066907387547E-15,22.5,1.5));
#1263=CARTESIAN_POINT('Origin',(-3.33066907387547E-15,22.5,3.));
#1264=CARTESIAN_POINT('',(-8.99999999999999,22.5,1.5));
#1265=CARTESIAN_POINT('',(-8.99999999999999,22.5,3.));
#1266=CARTESIAN_POINT('',(-8.99999999999999,22.5,0.));
#1267=CARTESIAN_POINT('',(-3.33066907387547E-15,22.5,1.5));
#1268=CARTESIAN_POINT('',(-3.33066907387547E-15,22.5,1.5));
#1269=CARTESIAN_POINT('',(-3.33066907387547E-15,22.5,3.));
#1270=CARTESIAN_POINT('',(-3.33066907387547E-15,22.5,1.5));
#1271=CARTESIAN_POINT('',(-26.,22.5,3.));
#1272=CARTESIAN_POINT('Origin',(-3.33066907387547E-15,22.5,1.5));
#1273=CARTESIAN_POINT('',(-30.,32.6785714285715,1.5));
#1274=CARTESIAN_POINT('',(2.77555756156289E-15,-18.75,1.5));
#1275=CARTESIAN_POINT('',(-2.5,22.5,1.5));
#1276=CARTESIAN_POINT('',(-23.5,16.75,1.5));
#1277=CARTESIAN_POINT('Origin',(-25.,16.75,1.5));
#1278=CARTESIAN_POINT('',(-3.49999999999999,16.75,1.5));
#1279=CARTESIAN_POINT('Origin',(-4.99999999999999,16.75,1.5));
#1280=CARTESIAN_POINT('Origin',(-52.,0.,0.));
#1281=CARTESIAN_POINT('',(-30.,40.7196889196385,0.));
#1282=CARTESIAN_POINT('',(-30.,42.8571428571429,0.));
#1283=CARTESIAN_POINT('',(-31.7488741555463,44.1063386825331,0.));
#1284=CARTESIAN_POINT('Ctrl Pts',(-31.7488741555463,44.1063386825331,-1.3236007270316E-16));
#1285=CARTESIAN_POINT('Ctrl Pts',(-31.5325094300419,43.9517924500299,-1.32109794567198E-16));
#1286=CARTESIAN_POINT('Ctrl Pts',(-31.3313374756212,43.7764733768036,2.68384776111868E-16));
#1287=CARTESIAN_POINT('Ctrl Pts',(-30.7776767181903,43.1928332855567,2.9612764961027E-16));
#1288=CARTESIAN_POINT('Ctrl Pts',(-30.4846740749882,42.7332737057601,-2.08166817117217E-16));
#1289=CARTESIAN_POINT('Ctrl Pts',(-30.0980684898245,41.7500236176568,-2.08166817117217E-16));
#1290=CARTESIAN_POINT('Ctrl Pts',(-30.,41.2372365561573,9.63263545850001E-17));
#1291=CARTESIAN_POINT('Ctrl Pts',(-30.,40.7196889196385,9.68096542390802E-17));
#1292=CARTESIAN_POINT('',(-73.990029970439,74.2785928360278,0.));
#1293=CARTESIAN_POINT('',(-75.,75.,0.));
#1294=CARTESIAN_POINT('',(-76.2411558148927,75.,0.));
#1295=CARTESIAN_POINT('Ctrl Pts',(-76.2411558148927,75.,1.38950600523083E-16));
#1296=CARTESIAN_POINT('Ctrl Pts',(-75.8397791645818,75.,1.3865014043628E-16));
#1297=CARTESIAN_POINT('Ctrl Pts',(-75.4414990053103,74.938395820075,4.16334345174005E-16));
#1298=CARTESIAN_POINT('Ctrl Pts',(-74.6767707524242,74.6933685131748,4.16332923070111E-16));
#1299=CARTESIAN_POINT('Ctrl Pts',(-74.316746795841,74.5119619970293,3.53073754606911E-16));
#1300=CARTESIAN_POINT('Ctrl Pts',(-73.990029970439,74.2785928360278,3.53135332898207E-16));
#1301=CARTESIAN_POINT('',(-96.1270166537926,75.,0.));
#1302=CARTESIAN_POINT('',(-100.,75.,0.));
#1303=CARTESIAN_POINT('',(-100.,78.8729833462074,0.));
#1304=CARTESIAN_POINT('Origin',(-96.1270166537926,78.8729833462074,0.));
#1305=CARTESIAN_POINT('',(-100.,125.,0.));
#1306=CARTESIAN_POINT('',(-100.,125.,0.));
#1307=CARTESIAN_POINT('',(-101.,125.,0.));
#1308=CARTESIAN_POINT('',(-104.,125.,0.));
#1309=CARTESIAN_POINT('',(-104.,128.,0.));
#1310=CARTESIAN_POINT('Origin',(-101.,128.,0.));
#1311=CARTESIAN_POINT('',(-104.,145.,0.));
#1312=CARTESIAN_POINT('',(-104.,145.,0.));
#1313=CARTESIAN_POINT('',(-66.,145.,0.));
#1314=CARTESIAN_POINT('',(-66.,145.,0.));
#1315=CARTESIAN_POINT('',(-66.,128.,0.));
#1316=CARTESIAN_POINT('',(-66.,125.,0.));
#1317=CARTESIAN_POINT('',(-69.,125.,0.));
#1318=CARTESIAN_POINT('Origin',(-69.,128.,0.));
#1319=CARTESIAN_POINT('',(-70.,125.,0.));
#1320=CARTESIAN_POINT('',(-70.,125.,0.));
#1321=CARTESIAN_POINT('',(-70.,111.993106538125,0.));
#1322=CARTESIAN_POINT('',(-70.,110.,0.));
#1323=CARTESIAN_POINT('',(-68.3781424982463,108.84153035589,0.));
#1324=CARTESIAN_POINT('Ctrl Pts',(-68.3781424982463,108.84153035589,-2.4166717943845E-16));
#1325=CARTESIAN_POINT('Ctrl Pts',(-68.7945361817383,109.138954415527,-2.41960323377817E-16));
#1326=CARTESIAN_POINT('Ctrl Pts',(-69.1496565092613,109.513244016112,2.75116217534444E-16));
#1327=CARTESIAN_POINT('Ctrl Pts',(-69.609142931193,110.250472059306,2.79255089908321E-16));
#1328=CARTESIAN_POINT('Ctrl Pts',(-69.753745177268,110.577271318351,2.39946951197112E-13));
#1329=CARTESIAN_POINT('Ctrl Pts',(-69.9506666885612,111.26925727531,2.39946951197112E-13));
#1330=CARTESIAN_POINT('Ctrl Pts',(-70.,111.63034659123,4.09790399692217E-17));
#1331=CARTESIAN_POINT('Ctrl Pts',(-70.,111.993106538125,4.13331135483919E-17));
#1332=CARTESIAN_POINT('',(-1.67504722512363,61.1964623036597,0.));
#1333=CARTESIAN_POINT('',(-8.88178419700125E-15,60.,0.));
#1334=CARTESIAN_POINT('',(-8.57706919100814E-15,57.9415284188328,0.));
#1335=CARTESIAN_POINT('Origin',(-4.00000000000001,57.9415284188328,0.));
#1336=CARTESIAN_POINT('',(8.88178419700125E-15,-60.,0.));
#1337=CARTESIAN_POINT('',(-8.99999999999999,42.857,0.));
#1338=CARTESIAN_POINT('',(-4.99999999999999,38.857,0.));
#1339=CARTESIAN_POINT('Origin',(-8.99999999999999,38.857,0.));
#1340=CARTESIAN_POINT('',(-21.,42.857,0.));
#1341=CARTESIAN_POINT('',(-25.,42.857,0.));
#1342=CARTESIAN_POINT('',(-25.,38.857,0.));
#1343=CARTESIAN_POINT('Origin',(-21.,38.857,0.));
#1344=CARTESIAN_POINT('',(-25.,26.5,0.));
#1345=CARTESIAN_POINT('',(-25.,22.5,0.));
#1346=CARTESIAN_POINT('',(-21.,22.5,0.));
#1347=CARTESIAN_POINT('Origin',(-21.,26.5,0.));
#1348=CARTESIAN_POINT('',(-8.99999999999999,22.5,0.));
#1349=CARTESIAN_POINT('',(-4.99999999999999,22.5,0.));
#1350=CARTESIAN_POINT('',(-4.99999999999999,26.5,0.));
#1351=CARTESIAN_POINT('Origin',(-8.99999999999999,26.5,0.));
#1352=CARTESIAN_POINT('',(-5.,42.857,0.));
#1353=CARTESIAN_POINT('',(-79.0000000000001,120.,0.));
#1354=CARTESIAN_POINT('',(-75.0000000000001,116.,0.));
#1355=CARTESIAN_POINT('Origin',(-79.0000000000001,116.,0.));
#1356=CARTESIAN_POINT('',(-91.0000000000001,120.,0.));
#1357=CARTESIAN_POINT('',(-95.,120.,0.));
#1358=CARTESIAN_POINT('',(-95.,116.,0.));
#1359=CARTESIAN_POINT('Origin',(-91.0000000000001,116.,0.));
#1360=CARTESIAN_POINT('',(-95.,111.427,0.));
#1361=CARTESIAN_POINT('',(-95.,107.427,0.));
#1362=CARTESIAN_POINT('',(-91.,107.427,0.));
#1363=CARTESIAN_POINT('Origin',(-91.,111.427,0.));
#1364=CARTESIAN_POINT('',(-79.,107.427,0.));
#1365=CARTESIAN_POINT('',(-75.,107.427,0.));
#1366=CARTESIAN_POINT('',(-75.,111.427,0.));
#1367=CARTESIAN_POINT('Origin',(-79.,111.427,0.));
#1368=CARTESIAN_POINT('',(-75.0000000000001,120.,0.));
#1369=CARTESIAN_POINT('',(-3.49999999999999,16.75,0.));
#1370=CARTESIAN_POINT('Origin',(-4.99999999999999,16.75,0.));
#1371=CARTESIAN_POINT('',(-23.5,16.75,0.));
#1372=CARTESIAN_POINT('Origin',(-25.,16.75,0.));
#1373=CARTESIAN_POINT('',(-67.5,141.,0.));
#1374=CARTESIAN_POINT('Origin',(-69.,141.,0.));
#1375=CARTESIAN_POINT('',(-99.5,141.,0.));
#1376=CARTESIAN_POINT('Origin',(-101.,141.,0.));
#1377=CARTESIAN_POINT('Origin',(-30.,42.8571428571429,0.));
#1378=CARTESIAN_POINT('',(-30.,41.9597149707015,3.));
#1379=CARTESIAN_POINT('',(-30.,21.4285714285715,3.));
#1380=CARTESIAN_POINT('Origin',(-30.,50.4738089282737,-1.));
#1381=CARTESIAN_POINT('Origin',(-52.,0.,3.));
#1382=CARTESIAN_POINT('',(-8.17723322921361E-15,55.2404767860121,3.));
#1383=CARTESIAN_POINT('',(8.88178419700125E-15,-60.,3.));
#1384=CARTESIAN_POINT('',(-73.8729833462074,108.006893461875,3.));
#1385=CARTESIAN_POINT('',(-2.25112584445375,56.8484238177648,3.));
#1386=CARTESIAN_POINT('',(-73.8729833462074,125.,3.));
#1387=CARTESIAN_POINT('',(-73.8729833462074,110.,3.));
#1388=CARTESIAN_POINT('',(-69.,125.,3.));
#1389=CARTESIAN_POINT('',(-61.,125.,3.));
#1390=CARTESIAN_POINT('',(-66.,128.,3.));
#1391=CARTESIAN_POINT('Origin',(-69.,128.,3.));
#1392=CARTESIAN_POINT('',(-66.,145.,3.));
#1393=CARTESIAN_POINT('',(-66.,125.,3.));
#1394=CARTESIAN_POINT('',(-104.,145.,3.));
#1395=CARTESIAN_POINT('',(-66.,145.,3.));
#1396=CARTESIAN_POINT('',(-104.,128.,3.));
#1397=CARTESIAN_POINT('',(-104.,145.,3.));
#1398=CARTESIAN_POINT('',(-101.,125.,3.));
#1399=CARTESIAN_POINT('Origin',(-101.,128.,3.));
#1400=CARTESIAN_POINT('',(-96.1270166537926,125.,3.));
#1401=CARTESIAN_POINT('',(-104.,125.,3.));
#1402=CARTESIAN_POINT('',(-96.1270166537926,78.8729833462074,3.));
#1403=CARTESIAN_POINT('',(-96.1270166537926,125.,3.));
#1404=CARTESIAN_POINT('',(-73.7588441851073,78.8729833462074,3.));
#1405=CARTESIAN_POINT('',(-100.,78.8729833462074,3.));
#1406=CARTESIAN_POINT('',(-34.,50.4738089282736,3.));
#1407=CARTESIAN_POINT('',(-72.7488741555463,78.1515761822352,3.));
#1408=CARTESIAN_POINT('Ctrl Pts',(-30.,41.9597149707014,3.));
#1409=CARTESIAN_POINT('Ctrl Pts',(-30.,42.58904383159,3.));
#1410=CARTESIAN_POINT('Ctrl Pts',(-30.0984657702751,43.2134239683709,3.));
#1411=CARTESIAN_POINT('Ctrl Pts',(-30.8605926466896,46.0072692861117,3.));
#1412=CARTESIAN_POINT('Ctrl Pts',(-32.374834298887,48.1637686953813,3.));
#1413=CARTESIAN_POINT('Ctrl Pts',(-33.9904127546611,50.4601815158941,3.));
#1414=CARTESIAN_POINT('Ctrl Pts',(-33.9952061041591,50.4669948337929,2.99999999999999));
#1415=CARTESIAN_POINT('Ctrl Pts',(-34.,50.4738089282737,2.99999999999999));
#1416=CARTESIAN_POINT('',(-25.,26.5,3.));
#1417=CARTESIAN_POINT('Origin',(-21.,26.5,3.));
#1418=CARTESIAN_POINT('',(-25.,38.857,3.));
#1419=CARTESIAN_POINT('',(-25.,22.5,3.));
#1420=CARTESIAN_POINT('',(-21.,42.857,3.));
#1421=CARTESIAN_POINT('Origin',(-21.,38.857,3.));
#1422=CARTESIAN_POINT('',(-8.99999999999999,42.857,3.));
#1423=CARTESIAN_POINT('',(-25.,42.857,3.));
#1424=CARTESIAN_POINT('',(-4.99999999999999,38.857,3.));
#1425=CARTESIAN_POINT('Origin',(-8.99999999999999,38.857,3.));
#1426=CARTESIAN_POINT('',(-4.99999999999999,26.5,3.));
#1427=CARTESIAN_POINT('',(-5.,42.857,3.));
#1428=CARTESIAN_POINT('Origin',(-8.99999999999999,26.5,3.));
#1429=CARTESIAN_POINT('',(-75.0000000000001,116.,3.));
#1430=CARTESIAN_POINT('',(-75.,111.427,3.));
#1431=CARTESIAN_POINT('',(-75.0000000000001,120.,3.));
#1432=CARTESIAN_POINT('',(-79.,107.427,3.));
#1433=CARTESIAN_POINT('Origin',(-79.,111.427,3.));
#1434=CARTESIAN_POINT('',(-91.,107.427,3.));
#1435=CARTESIAN_POINT('',(-75.,107.427,3.));
#1436=CARTESIAN_POINT('',(-95.,111.427,3.));
#1437=CARTESIAN_POINT('Origin',(-91.,111.427,3.));
#1438=CARTESIAN_POINT('',(-95.,116.,3.));
#1439=CARTESIAN_POINT('',(-95.,107.427,3.));
#1440=CARTESIAN_POINT('',(-91.0000000000001,120.,3.));
#1441=CARTESIAN_POINT('Origin',(-91.0000000000001,116.,3.));
#1442=CARTESIAN_POINT('',(-79.0000000000001,120.,3.));
#1443=CARTESIAN_POINT('',(-95.,120.,3.));
#1444=CARTESIAN_POINT('Origin',(-79.0000000000001,116.,3.));
#1445=CARTESIAN_POINT('',(-67.5,141.,3.));
#1446=CARTESIAN_POINT('Origin',(-69.,141.,3.));
#1447=CARTESIAN_POINT('',(-99.5,141.,3.));
#1448=CARTESIAN_POINT('Origin',(-101.,141.,3.));
#1449=CARTESIAN_POINT('Origin',(-101.,128.,0.));
#1450=CARTESIAN_POINT('',(-104.,128.,0.));
#1451=CARTESIAN_POINT('',(-101.,125.,0.));
#1452=CARTESIAN_POINT('Origin',(-104.,125.,0.));
#1453=CARTESIAN_POINT('Origin',(-96.1270166537926,125.,-1.));
#1454=CARTESIAN_POINT('Origin',(-69.,128.,0.));
#1455=CARTESIAN_POINT('',(-69.,125.,0.));
#1456=CARTESIAN_POINT('',(-66.,128.,0.));
#1457=CARTESIAN_POINT('Origin',(-70.,125.,0.));
#1458=CARTESIAN_POINT('Origin',(-73.8729833462074,125.,-1.));
#1459=CARTESIAN_POINT('Origin',(-79.,111.427,0.));
#1460=CARTESIAN_POINT('',(-79.,107.427,0.));
#1461=CARTESIAN_POINT('',(-75.,111.427,0.));
#1462=CARTESIAN_POINT('Origin',(-75.,107.427,0.));
#1463=CARTESIAN_POINT('',(-91.,107.427,0.));
#1464=CARTESIAN_POINT('Origin',(-91.,111.427,0.));
#1465=CARTESIAN_POINT('',(-95.,111.427,0.));
#1466=CARTESIAN_POINT('Origin',(-95.,107.427,0.));
#1467=CARTESIAN_POINT('',(-95.,116.,0.));
#1468=CARTESIAN_POINT('Origin',(-91.0000000000001,116.,0.));
#1469=CARTESIAN_POINT('',(-91.0000000000001,120.,0.));
#1470=CARTESIAN_POINT('Origin',(-95.,120.,0.));
#1471=CARTESIAN_POINT('',(-79.0000000000001,120.,0.));
#1472=CARTESIAN_POINT('Origin',(-79.0000000000001,116.,0.));
#1473=CARTESIAN_POINT('',(-75.0000000000001,116.,0.));
#1474=CARTESIAN_POINT('Origin',(-75.0000000000001,120.,0.));
#1475=CARTESIAN_POINT('Origin',(-8.99999999999999,38.857,0.));
#1476=CARTESIAN_POINT('',(-4.99999999999999,38.857,0.));
#1477=CARTESIAN_POINT('',(-8.99999999999999,42.857,0.));
#1478=CARTESIAN_POINT('Origin',(-5.,42.857,0.));
#1479=CARTESIAN_POINT('',(-4.99999999999999,26.5,0.));
#1480=CARTESIAN_POINT('Origin',(-21.,38.857,0.));
#1481=CARTESIAN_POINT('',(-21.,42.857,0.));
#1482=CARTESIAN_POINT('',(-25.,38.857,0.));
#1483=CARTESIAN_POINT('Origin',(-25.,42.857,0.));
#1484=CARTESIAN_POINT('Origin',(-21.,26.5,0.));
#1485=CARTESIAN_POINT('',(-25.,26.5,0.));
#1486=CARTESIAN_POINT('',(-21.,22.5,0.));
#1487=CARTESIAN_POINT('Origin',(-25.,22.5,0.));
#1488=CARTESIAN_POINT('Origin',(-8.99999999999999,26.5,0.));
#1489=CARTESIAN_POINT('',(-8.99999999999999,22.5,0.));
#1490=CARTESIAN_POINT('Origin',(-4.99999999999999,22.5,0.));
#1491=CARTESIAN_POINT('Ctrl Pts',(-73.8729833462074,108.006893461875,3.));
#1492=CARTESIAN_POINT('Ctrl Pts',(-73.1197741624058,108.782123311639,3.));
#1493=CARTESIAN_POINT('Ctrl Pts',(-71.3607358310167,110.592588519314,2.49107001778507));
#1494=CARTESIAN_POINT('Ctrl Pts',(-70.2510697279339,111.734696588204,0.972388875024702));
#1495=CARTESIAN_POINT('Ctrl Pts',(-70.,111.993106538125,-2.77555756156289E-15));
#1496=CARTESIAN_POINT('Ctrl Pts',(-73.8729833462074,108.006893461875,3.));
#1497=CARTESIAN_POINT('Ctrl Pts',(-73.0146357496338,108.577819470413,3.));
#1498=CARTESIAN_POINT('Ctrl Pts',(-71.0145539904478,109.911054584424,2.30209442091943));
#1499=CARTESIAN_POINT('Ctrl Pts',(-70.1367502835722,110.625789228711,0.695265776458333));
#1500=CARTESIAN_POINT('Ctrl Pts',(-69.9609535879712,110.779113402293,-0.151226103516677));
#1501=CARTESIAN_POINT('Ctrl Pts',(-73.8729833462074,108.006893461875,3.));
#1502=CARTESIAN_POINT('Ctrl Pts',(-72.9094973368617,108.373515629186,3.));
#1503=CARTESIAN_POINT('Ctrl Pts',(-70.6620753906031,109.226121932315,2.30209442091943));
#1504=CARTESIAN_POINT('Ctrl Pts',(-69.5702588464909,109.524989116115,0.695265776458332));
#1505=CARTESIAN_POINT('Ctrl Pts',(-69.3433140806895,109.578922905747,-0.151226103516677));
#1506=CARTESIAN_POINT('Ctrl Pts',(-73.8729833462074,108.006893461875,3.));
#1507=CARTESIAN_POINT('Ctrl Pts',(-72.8043589240897,108.16921178796,3.));
#1508=CARTESIAN_POINT('Ctrl Pts',(-70.3087025237307,108.548288628247,2.49107001778506));
#1509=CARTESIAN_POINT('Ctrl Pts',(-68.7343506389522,108.787424247195,0.972388875024703));
#1510=CARTESIAN_POINT('Ctrl Pts',(-68.3781424982463,108.84153035589,-2.4980018054066E-15));
#1511=CARTESIAN_POINT('Origin',(-73.8729833462074,108.006893461875,-1.));
#1512=CARTESIAN_POINT('Origin',(-73.8729833462074,108.006893461875,-1.));
#1513=CARTESIAN_POINT('Origin',(-73.8729833462074,110.,-1.));
#1514=CARTESIAN_POINT('Origin',(-96.1270166537926,78.8729833462074,-1.));
#1515=CARTESIAN_POINT('Origin',(-96.1270166537926,78.8729833462074,-1.));
#1516=CARTESIAN_POINT('Origin',(-96.1270166537926,78.8729833462074,-1.));
#1517=CARTESIAN_POINT('Origin',(-100.,78.8729833462074,-1.));
#1518=CARTESIAN_POINT('Origin',(-73.7588441851073,78.8729833462074,-1.));
#1519=CARTESIAN_POINT('Ctrl Pts',(-73.7588441851073,78.8729833462074,3.));
#1520=CARTESIAN_POINT('Ctrl Pts',(-73.8038046822514,77.9794765022839,3.));
#1521=CARTESIAN_POINT('Ctrl Pts',(-73.9088066164093,75.8927569872679,2.49110980608427));
#1522=CARTESIAN_POINT('Ctrl Pts',(-73.9750431380576,74.576428450669,0.972388875024705));
#1523=CARTESIAN_POINT('Ctrl Pts',(-73.990029970439,74.2785928360278,-8.32667268468867E-16));
#1524=CARTESIAN_POINT('Ctrl Pts',(-73.7588441851073,78.8729833462074,3.));
#1525=CARTESIAN_POINT('Ctrl Pts',(-73.9497359974132,78.0262423889912,3.));
#1526=CARTESIAN_POINT('Ctrl Pts',(-74.392731699043,76.0547586748145,2.40615334850168));
#1527=CARTESIAN_POINT('Ctrl Pts',(-74.6033139667083,74.9682389758316,0.858638614900768));
#1528=CARTESIAN_POINT('Ctrl Pts',(-74.6481443423417,74.7290486786397,-0.0618523664724119));
#1529=CARTESIAN_POINT('Ctrl Pts',(-73.7588441851073,78.8729833462074,3.));
#1530=CARTESIAN_POINT('Ctrl Pts',(-74.095667312575,78.0730082756985,3.));
#1531=CARTESIAN_POINT('Ctrl Pts',(-74.8810885155328,76.2112599680933,2.40615334850168));
#1532=CARTESIAN_POINT('Ctrl Pts',(-75.341257423168,75.2047240650185,0.858638614900768));
#1533=CARTESIAN_POINT('Ctrl Pts',(-75.4438039822832,74.9840297876486,-0.0618523664724118));
#1534=CARTESIAN_POINT('Ctrl Pts',(-73.7588441851073,78.8729833462074,3.));
#1535=CARTESIAN_POINT('Ctrl Pts',(-74.2415986277368,78.1197741624058,3.));
#1536=CARTESIAN_POINT('Ctrl Pts',(-75.3690361210774,76.36070951347,2.49110980608427));
#1537=CARTESIAN_POINT('Ctrl Pts',(-76.0802376673495,75.2510697279339,0.972388875024706));
#1538=CARTESIAN_POINT('Ctrl Pts',(-76.2411558148927,75.,-2.77555756156289E-16));
#1539=CARTESIAN_POINT('Origin',(-73.7588441851073,78.8729833462074,-1.));
#1540=CARTESIAN_POINT('Origin',(-72.7488741555463,78.1515761822352,-1.));
#1541=CARTESIAN_POINT('Origin',(-34.,50.4738089282737,-1.));
#1542=CARTESIAN_POINT('Ctrl Pts',(-30.,50.4738089282737,7.));
#1543=CARTESIAN_POINT('Ctrl Pts',(-30.,48.4437044119235,7.00000000000001));
#1544=CARTESIAN_POINT('Ctrl Pts',(-30.,45.069043828829,6.11703900502144));
#1545=CARTESIAN_POINT('Ctrl Pts',(-30.,41.7906026663147,3.21734571505539));
#1546=CARTESIAN_POINT('Ctrl Pts',(-30.,40.888864296001,1.09267147640207));
#1547=CARTESIAN_POINT('Ctrl Pts',(-30.,40.7196889196385,-6.10622663543836E-15));
#1548=CARTESIAN_POINT('Ctrl Pts',(-30.,50.4738089282737,5.80320279863246));
#1549=CARTESIAN_POINT('Ctrl Pts',(-30.0034445722327,48.6456130551619,5.89648128773527));
#1550=CARTESIAN_POINT('Ctrl Pts',(-30.0004624277292,45.5276086064751,5.24429337347533));
#1551=CARTESIAN_POINT('Ctrl Pts',(-30.0025565148774,42.4509619986888,2.74162296712628));
#1552=CARTESIAN_POINT('Ctrl Pts',(-29.9999148559616,41.5992985452094,0.858884406430781));
#1553=CARTESIAN_POINT('Ctrl Pts',(-30.,41.4395974975486,-0.111461502606051));
#1554=CARTESIAN_POINT('Ctrl Pts',(-31.0041415619067,50.4738089282737,3.73100288461587));
#1555=CARTESIAN_POINT('Ctrl Pts',(-30.8409721664358,48.9927433695132,3.9734772609224));
#1556=CARTESIAN_POINT('Ctrl Pts',(-30.6104278602244,46.32551547147,3.721002935923));
#1557=CARTESIAN_POINT('Ctrl Pts',(-30.416266370772,43.603722612151,1.906890251626));
#1558=CARTESIAN_POINT('Ctrl Pts',(-30.3667928881642,42.8406061452874,0.450587937306132));
#1559=CARTESIAN_POINT('Ctrl Pts',(-30.3573951317665,42.6976018363329,-0.306234919937575));
#1560=CARTESIAN_POINT('Ctrl Pts',(-33.1024020989744,50.4738089282737,2.99999999999999));
#1561=CARTESIAN_POINT('Ctrl Pts',(-32.6895636852016,49.1163019230679,3.10856868458026));
#1562=CARTESIAN_POINT('Ctrl Pts',(-32.0408700162294,46.7655997651403,2.7940421805387));
#1563=CARTESIAN_POINT('Ctrl Pts',(-31.4387268879128,44.414713357484,1.30330276742074));
#1564=CARTESIAN_POINT('Ctrl Pts',(-31.2773655328053,43.7604060071393,0.146528794782365));
#1565=CARTESIAN_POINT('Ctrl Pts',(-31.2469186511618,43.6377261861212,-0.451791836300668));
#1566=CARTESIAN_POINT('Ctrl Pts',(-34.,50.4738089282737,2.99999999999999));
#1567=CARTESIAN_POINT('Ctrl Pts',(-33.519907715728,49.1158336099043,3.));
#1568=CARTESIAN_POINT('Ctrl Pts',(-32.7218460913476,46.8584593009424,2.55851950251071));
#1569=CARTESIAN_POINT('Ctrl Pts',(-31.9465390596719,44.6654479827741,1.10867285752769));
#1570=CARTESIAN_POINT('Ctrl Pts',(-31.7332901207463,44.0622581269561,0.0463357382010327));
#1571=CARTESIAN_POINT('Ctrl Pts',(-31.6932824303903,43.949093517092,-0.500000000000004));
#1572=CARTESIAN_POINT('Origin',(8.88178419700125E-15,-60.,0.));
#1573=CARTESIAN_POINT('',(-1.01307850997046E-14,57.9415284188328,2.34201687722176));
#1574=CARTESIAN_POINT('',(-8.32667268468867E-15,57.9415284188328,0.));
#1575=CARTESIAN_POINT('Origin',(-8.04911692853238E-15,55.2404767860121,
-1.));
#1576=CARTESIAN_POINT('Origin',(-96.1270166537926,125.,-1.));
#1577=CARTESIAN_POINT('Origin',(-2.25112584445375,56.8484238177648,-1.));
#1578=CARTESIAN_POINT('Ctrl Pts',(-8.88178419700125E-15,57.9415284188328,
2.34201687722176));
#1579=CARTESIAN_POINT('Ctrl Pts',(-8.88178419700125E-15,57.9422750497051,
2.34161730567831));
#1580=CARTESIAN_POINT('Ctrl Pts',(-2.09046670003712E-7,57.9430215158843,
2.34121766484857));
#1581=CARTESIAN_POINT('Ctrl Pts',(-0.000390148169941276,58.6395283982144,
1.96817716272084));
#1582=CARTESIAN_POINT('Ctrl Pts',(-0.182039826116223,59.2802866628672,1.48318493850095));
#1583=CARTESIAN_POINT('Ctrl Pts',(-0.609296041036469,60.0852168419655,0.788023003806041));
#1584=CARTESIAN_POINT('Ctrl Pts',(-0.773850315972151,60.3242859056588,0.564250949677793));
#1585=CARTESIAN_POINT('Ctrl Pts',(-1.05946092413459,60.6571434464981,0.277384156425524));
#1586=CARTESIAN_POINT('Ctrl Pts',(-1.16027330643795,60.7629168408476,0.190518008601444));
#1587=CARTESIAN_POINT('Ctrl Pts',(-1.38835233064543,60.9752674553384,0.0528157397099288));
#1588=CARTESIAN_POINT('Ctrl Pts',(-1.5144837620064,61.0817741157189,-4.08757136751017E-14));
#1589=CARTESIAN_POINT('Ctrl Pts',(-1.67504722512362,61.1964623036597,-4.10153681851266E-14));
#1590=CARTESIAN_POINT('Origin',(-4.00000000000001,57.9415284188328,0.));
#1591=CARTESIAN_POINT('Origin',(-4.99999999999999,16.75,0.));
#1592=CARTESIAN_POINT('',(-3.49999999999999,16.75,0.));
#1593=CARTESIAN_POINT('Origin',(-25.,16.75,0.));
#1594=CARTESIAN_POINT('',(-23.5,16.75,0.));
#1595=CARTESIAN_POINT('Origin',(-69.,141.,0.));
#1596=CARTESIAN_POINT('',(-67.5,141.,0.));
#1597=CARTESIAN_POINT('Origin',(-101.,141.,0.));
#1598=CARTESIAN_POINT('',(-99.5,141.,0.));
#1599=CARTESIAN_POINT('Origin',(-104.,145.,0.));
#1600=CARTESIAN_POINT('',(-104.,145.,0.));
#1601=CARTESIAN_POINT('Origin',(-66.,145.,0.));
#1602=CARTESIAN_POINT('',(-66.,145.,0.));
#1603=CARTESIAN_POINT('Origin',(-66.,125.,0.));
#1604=UNCERTAINTY_MEASURE_WITH_UNIT(LENGTH_MEASURE(0.01),#1608,
'DISTANCE_ACCURACY_VALUE',
'Maximum model space distance between geometric entities at asserted c
onnectivities');
#1605=UNCERTAINTY_MEASURE_WITH_UNIT(LENGTH_MEASURE(0.01),#1608,
'DISTANCE_ACCURACY_VALUE',
'Maximum model space distance between geometric entities at asserted c
onnectivities');
#1606=(
GEOMETRIC_REPRESENTATION_CONTEXT(3)
GLOBAL_UNCERTAINTY_ASSIGNED_CONTEXT((#1604))
GLOBAL_UNIT_ASSIGNED_CONTEXT((#1608,#1610,#1611))
REPRESENTATION_CONTEXT('','3D')
);
#1607=(
GEOMETRIC_REPRESENTATION_CONTEXT(3)
GLOBAL_UNCERTAINTY_ASSIGNED_CONTEXT((#1605))
GLOBAL_UNIT_ASSIGNED_CONTEXT((#1608,#1610,#1611))
REPRESENTATION_CONTEXT('','3D')
);
#1608=(
LENGTH_UNIT()
NAMED_UNIT(*)
SI_UNIT(.MILLI.,.METRE.)
);
#1609=(
LENGTH_UNIT()
NAMED_UNIT(*)
SI_UNIT(.CENTI.,.METRE.)
);
#1610=(
NAMED_UNIT(*)
PLANE_ANGLE_UNIT()
SI_UNIT($,.RADIAN.)
);
#1611=(
NAMED_UNIT(*)
SI_UNIT($,.STERADIAN.)
SOLID_ANGLE_UNIT()
);
#1612=SHAPE_DEFINITION_REPRESENTATION(#1613,#1614);
#1613=PRODUCT_DEFINITION_SHAPE('',$,#1616);
#1614=SHAPE_REPRESENTATION('',(#911),#1606);
#1615=PRODUCT_DEFINITION_CONTEXT('part definition',#1620,'design');
#1616=PRODUCT_DEFINITION('nakladka_backpart2','nakladka_backpart2',#1617,
#1615);
#1617=PRODUCT_DEFINITION_FORMATION('',$,#1622);
#1618=PRODUCT_RELATED_PRODUCT_CATEGORY('nakladka_backpart2',
'nakladka_backpart2',(#1622));
#1619=APPLICATION_PROTOCOL_DEFINITION('international standard',
'automotive_design',2009,#1620);
#1620=APPLICATION_CONTEXT(
'Core Data for Automotive Mechanical Design Process');
#1621=PRODUCT_CONTEXT('part definition',#1620,'mechanical');
#1622=PRODUCT('nakladka_backpart2','nakladka_backpart2',$,(#1621));
#1623=PRESENTATION_STYLE_ASSIGNMENT((#1624));
#1624=SURFACE_STYLE_USAGE(.BOTH.,#1627);
#1625=SURFACE_STYLE_RENDERING_WITH_PROPERTIES($,#1631,(#1626));
#1626=SURFACE_STYLE_TRANSPARENT(0.);
#1627=SURFACE_SIDE_STYLE('',(#1628,#1625));
#1628=SURFACE_STYLE_FILL_AREA(#1629);
#1629=FILL_AREA_STYLE('',(#1630));
#1630=FILL_AREA_STYLE_COLOUR('',#1631);
#1631=COLOUR_RGB('',0.0392156862745098,0.0392156862745098,0.0392156862745098);
ENDSEC;
END-ISO-10303-21;
