ISO-10303-21;
HEADER;
/* Generated by software containing ST-Developer
 * from STEP Tools, Inc. (www.steptools.com) 
 */

FILE_DESCRIPTION(
/* description */ (''),
/* implementation_level */ '2;1');

FILE_NAME(
/* name */ 'nakladka_backpart1.stp',
/* time_stamp */ '2026-05-11T12:30:53+02:00',
/* author */ ('ksawe'),
/* organization */ (''),
/* preprocessor_version */ 'ST-DEVELOPER v20',
/* originating_system */ 'Autodesk Inventor 2025',
/* authorisation */ '');

FILE_SCHEMA (('AUTOMOTIVE_DESIGN { 1 0 10303 214 3 1 1 }'));
ENDSEC;

DATA;
#10=MECHANICAL_DESIGN_GEOMETRIC_PRESENTATION_REPRESENTATION('',(#13),#1647);
#11=SHAPE_REPRESENTATION_RELATIONSHIP('SRR','None',#1654,#12);
#12=ADVANCED_BREP_SHAPE_REPRESENTATION('',(#14),#1646);
#13=STYLED_ITEM('',(#1663),#14);
#14=MANIFOLD_SOLID_BREP('Bry\X2\0142\X0\a2',#911);
#15=SPHERICAL_SURFACE('',#1000,4.);
#16=B_SPLINE_SURFACE_WITH_KNOTS('',3,3,((#1529,#1530,#1531,#1532,#1533),
(#1534,#1535,#1536,#1537,#1538),(#1539,#1540,#1541,#1542,#1543),(#1544,
#1545,#1546,#1547,#1548)),.UNSPECIFIED.,.F.,.F.,.F.,(4,4),(4,1,4),(0.,1.),
(-1.5707963267949,-1.00588943894369,-0.252680255142078),.UNSPECIFIED.);
#17=B_SPLINE_SURFACE_WITH_KNOTS('',3,3,((#1571,#1572,#1573,#1574,#1575),
(#1576,#1577,#1578,#1579,#1580),(#1581,#1582,#1583,#1584,#1585),(#1586,
#1587,#1588,#1589,#1590)),.UNSPECIFIED.,.F.,.F.,.F.,(4,4),(4,1,4),(0.,1.),
(-1.5707963267949,-1.00588943894369,-0.252680255142078),.UNSPECIFIED.);
#18=B_SPLINE_SURFACE_WITH_KNOTS('',3,3,((#1594,#1595,#1596,#1597,#1598,
#1599),(#1600,#1601,#1602,#1603,#1604,#1605),(#1606,#1607,#1608,#1609,#1610,
#1611),(#1612,#1613,#1614,#1615,#1616,#1617),(#1618,#1619,#1620,#1621,#1622,
#1623)),.UNSPECIFIED.,.F.,.F.,.F.,(4,1,4),(4,1,1,4),(0.,0.571428571428571,
1.),(-1.5707963267949,-1.15780532804438,-0.744814329293851,-0.125327831168065),
 .UNSPECIFIED.);
#19=CYLINDRICAL_SURFACE('',#957,3.);
#20=CYLINDRICAL_SURFACE('',#960,3.);
#21=CYLINDRICAL_SURFACE('',#978,4.);
#22=CYLINDRICAL_SURFACE('',#980,4.);
#23=CYLINDRICAL_SURFACE('',#982,4.);
#24=CYLINDRICAL_SURFACE('',#984,4.);
#25=CYLINDRICAL_SURFACE('',#986,4.);
#26=CYLINDRICAL_SURFACE('',#988,4.);
#27=CYLINDRICAL_SURFACE('',#990,4.);
#28=CYLINDRICAL_SURFACE('',#992,4.);
#29=CYLINDRICAL_SURFACE('',#997,4.);
#30=CYLINDRICAL_SURFACE('',#999,4.);
#31=CYLINDRICAL_SURFACE('',#1003,4.);
#32=CYLINDRICAL_SURFACE('',#1006,4.);
#33=CYLINDRICAL_SURFACE('',#1010,4.);
#34=CYLINDRICAL_SURFACE('',#1011,4.);
#35=CYLINDRICAL_SURFACE('',#1013,1.5);
#36=CYLINDRICAL_SURFACE('',#1014,1.5);
#37=CYLINDRICAL_SURFACE('',#1015,1.5);
#38=CYLINDRICAL_SURFACE('',#1016,1.5);
#39=CYLINDRICAL_SURFACE('',#1017,1.5);
#40=CYLINDRICAL_SURFACE('',#1018,1.5);
#41=ELLIPSE('',#956,4.91561443831007,4.);
#42=ELLIPSE('',#995,5.7401412005187,4.);
#43=ELLIPSE('',#996,5.74014120051869,4.);
#44=ELLIPSE('',#1004,4.75106960896093,3.99999999999999);
#45=ELLIPSE('',#1005,4.75106960896094,4.);
#46=ELLIPSE('',#1007,6.97517463756211,4.);
#47=ELLIPSE('',#1008,9.83122887662015,8.);
#48=B_SPLINE_CURVE_WITH_KNOTS('',3,(#1307,#1308,#1309,#1310,#1311,#1312,
#1313,#1314),.UNSPECIFIED.,.F.,.F.,(4,2,2,4),(0.,0.153512310194556,0.260445911380472,
0.369235946198855),.UNSPECIFIED.);
#49=B_SPLINE_CURVE_WITH_KNOTS('',3,(#1338,#1339,#1340,#1341,#1342,#1343),
 .UNSPECIFIED.,.F.,.F.,(4,2,4),(0.,0.120412995093249,0.24086405668131),
 .UNSPECIFIED.);
#50=B_SPLINE_CURVE_WITH_KNOTS('',3,(#1347,#1348,#1349,#1350,#1351,#1352,
#1353,#1354),.UNSPECIFIED.,.F.,.F.,(4,2,2,4),(0.,0.161108101384634,0.277733195845789,
0.396574347524359),.UNSPECIFIED.);
#51=B_SPLINE_CURVE_WITH_KNOTS('',3,(#1430,#1431,#1432,#1433,#1434,#1435,
#1436,#1437),.UNSPECIFIED.,.F.,.F.,(4,2,2,4),(-0.00249930144069585,0.,0.735592570459575,
1.02715695473006),.UNSPECIFIED.);
#52=B_SPLINE_CURVE_WITH_KNOTS('',3,(#1554,#1555,#1556,#1557,#1558,#1559,
#1560,#1561,#1562,#1563,#1564,#1565),.UNSPECIFIED.,.F.,.F.,(4,2,2,2,2,4),
(0.,0.0591951058173057,0.118390211634611,0.236780423269223,0.473560846538445,
0.473814826863348),.UNSPECIFIED.);
#53=FACE_BOUND('',#155,.T.);
#54=FACE_BOUND('',#156,.T.);
#55=FACE_BOUND('',#158,.T.);
#56=FACE_BOUND('',#159,.T.);
#57=FACE_BOUND('',#160,.T.);
#58=FACE_BOUND('',#161,.T.);
#59=FACE_BOUND('',#162,.T.);
#60=FACE_BOUND('',#163,.T.);
#61=FACE_BOUND('',#170,.T.);
#62=FACE_BOUND('',#171,.T.);
#63=FACE_BOUND('',#172,.T.);
#64=FACE_BOUND('',#173,.T.);
#65=FACE_BOUND('',#174,.T.);
#66=FACE_BOUND('',#175,.T.);
#67=FACE_BOUND('',#176,.T.);
#68=FACE_BOUND('',#177,.T.);
#69=CIRCLE('',#936,1.5);
#70=CIRCLE('',#937,1.5);
#71=CIRCLE('',#939,4.);
#72=CIRCLE('',#940,3.);
#73=CIRCLE('',#941,3.);
#74=CIRCLE('',#942,3.87298334620742);
#75=CIRCLE('',#943,4.);
#76=CIRCLE('',#944,4.);
#77=CIRCLE('',#945,4.);
#78=CIRCLE('',#946,4.);
#79=CIRCLE('',#947,4.);
#80=CIRCLE('',#948,4.);
#81=CIRCLE('',#949,4.);
#82=CIRCLE('',#950,4.);
#83=CIRCLE('',#951,1.5);
#84=CIRCLE('',#952,1.5);
#85=CIRCLE('',#953,1.5);
#86=CIRCLE('',#954,1.5);
#87=CIRCLE('',#958,3.);
#88=CIRCLE('',#961,3.);
#89=CIRCLE('',#964,4.);
#90=CIRCLE('',#965,4.);
#91=CIRCLE('',#966,4.);
#92=CIRCLE('',#967,4.);
#93=CIRCLE('',#968,4.);
#94=CIRCLE('',#969,4.);
#95=CIRCLE('',#970,4.);
#96=CIRCLE('',#971,4.);
#97=CIRCLE('',#972,1.5);
#98=CIRCLE('',#973,1.5);
#99=CIRCLE('',#974,1.5);
#100=CIRCLE('',#975,1.5);
#101=CIRCLE('',#976,1.5);
#102=CIRCLE('',#977,1.5);
#103=CIRCLE('',#998,4.);
#104=CIRCLE('',#1001,4.);
#105=CIRCLE('',#1002,4.);
#106=CIRCLE('',#1012,4.);
#107=FACE_OUTER_BOUND('',#153,.T.);
#108=FACE_OUTER_BOUND('',#154,.T.);
#109=FACE_OUTER_BOUND('',#157,.T.);
#110=FACE_OUTER_BOUND('',#164,.T.);
#111=FACE_OUTER_BOUND('',#165,.T.);
#112=FACE_OUTER_BOUND('',#166,.T.);
#113=FACE_OUTER_BOUND('',#167,.T.);
#114=FACE_OUTER_BOUND('',#168,.T.);
#115=FACE_OUTER_BOUND('',#169,.T.);
#116=FACE_OUTER_BOUND('',#178,.T.);
#117=FACE_OUTER_BOUND('',#179,.T.);
#118=FACE_OUTER_BOUND('',#180,.T.);
#119=FACE_OUTER_BOUND('',#181,.T.);
#120=FACE_OUTER_BOUND('',#182,.T.);
#121=FACE_OUTER_BOUND('',#183,.T.);
#122=FACE_OUTER_BOUND('',#184,.T.);
#123=FACE_OUTER_BOUND('',#185,.T.);
#124=FACE_OUTER_BOUND('',#186,.T.);
#125=FACE_OUTER_BOUND('',#187,.T.);
#126=FACE_OUTER_BOUND('',#188,.T.);
#127=FACE_OUTER_BOUND('',#189,.T.);
#128=FACE_OUTER_BOUND('',#190,.T.);
#129=FACE_OUTER_BOUND('',#191,.T.);
#130=FACE_OUTER_BOUND('',#192,.T.);
#131=FACE_OUTER_BOUND('',#193,.T.);
#132=FACE_OUTER_BOUND('',#194,.T.);
#133=FACE_OUTER_BOUND('',#195,.T.);
#134=FACE_OUTER_BOUND('',#196,.T.);
#135=FACE_OUTER_BOUND('',#197,.T.);
#136=FACE_OUTER_BOUND('',#198,.T.);
#137=FACE_OUTER_BOUND('',#199,.T.);
#138=FACE_OUTER_BOUND('',#200,.T.);
#139=FACE_OUTER_BOUND('',#201,.T.);
#140=FACE_OUTER_BOUND('',#202,.T.);
#141=FACE_OUTER_BOUND('',#203,.T.);
#142=FACE_OUTER_BOUND('',#204,.T.);
#143=FACE_OUTER_BOUND('',#205,.T.);
#144=FACE_OUTER_BOUND('',#206,.T.);
#145=FACE_OUTER_BOUND('',#207,.T.);
#146=FACE_OUTER_BOUND('',#208,.T.);
#147=FACE_OUTER_BOUND('',#209,.T.);
#148=FACE_OUTER_BOUND('',#210,.T.);
#149=FACE_OUTER_BOUND('',#211,.T.);
#150=FACE_OUTER_BOUND('',#212,.T.);
#151=FACE_OUTER_BOUND('',#213,.T.);
#152=FACE_OUTER_BOUND('',#214,.T.);
#153=EDGE_LOOP('',(#587,#588,#589,#590));
#154=EDGE_LOOP('',(#591,#592,#593,#594));
#155=EDGE_LOOP('',(#595));
#156=EDGE_LOOP('',(#596));
#157=EDGE_LOOP('',(#597,#598,#599,#600,#601,#602,#603,#604,#605,#606,#607,
#608,#609,#610,#611,#612,#613,#614,#615,#616));
#158=EDGE_LOOP('',(#617,#618,#619,#620,#621,#622,#623,#624));
#159=EDGE_LOOP('',(#625,#626,#627,#628,#629,#630,#631,#632));
#160=EDGE_LOOP('',(#633));
#161=EDGE_LOOP('',(#634));
#162=EDGE_LOOP('',(#635));
#163=EDGE_LOOP('',(#636));
#164=EDGE_LOOP('',(#637,#638,#639,#640,#641,#642,#643));
#165=EDGE_LOOP('',(#644,#645,#646,#647));
#166=EDGE_LOOP('',(#648,#649,#650,#651));
#167=EDGE_LOOP('',(#652,#653,#654,#655));
#168=EDGE_LOOP('',(#656,#657,#658,#659));
#169=EDGE_LOOP('',(#660,#661,#662,#663,#664,#665,#666,#667,#668,#669,#670,
#671,#672,#673,#674,#675));
#170=EDGE_LOOP('',(#676,#677,#678,#679,#680,#681,#682,#683));
#171=EDGE_LOOP('',(#684,#685,#686,#687,#688,#689,#690,#691));
#172=EDGE_LOOP('',(#692));
#173=EDGE_LOOP('',(#693));
#174=EDGE_LOOP('',(#694));
#175=EDGE_LOOP('',(#695));
#176=EDGE_LOOP('',(#696));
#177=EDGE_LOOP('',(#697));
#178=EDGE_LOOP('',(#698,#699,#700,#701));
#179=EDGE_LOOP('',(#702,#703,#704,#705));
#180=EDGE_LOOP('',(#706,#707,#708,#709));
#181=EDGE_LOOP('',(#710,#711,#712,#713));
#182=EDGE_LOOP('',(#714,#715,#716,#717));
#183=EDGE_LOOP('',(#718,#719,#720,#721));
#184=EDGE_LOOP('',(#722,#723,#724,#725));
#185=EDGE_LOOP('',(#726,#727,#728,#729));
#186=EDGE_LOOP('',(#730,#731,#732,#733));
#187=EDGE_LOOP('',(#734,#735,#736,#737));
#188=EDGE_LOOP('',(#738,#739,#740,#741));
#189=EDGE_LOOP('',(#742,#743,#744,#745));
#190=EDGE_LOOP('',(#746,#747,#748,#749));
#191=EDGE_LOOP('',(#750,#751,#752,#753));
#192=EDGE_LOOP('',(#754,#755,#756,#757));
#193=EDGE_LOOP('',(#758,#759,#760,#761));
#194=EDGE_LOOP('',(#762,#763,#764,#765));
#195=EDGE_LOOP('',(#766,#767,#768));
#196=EDGE_LOOP('',(#769,#770,#771,#772));
#197=EDGE_LOOP('',(#773,#774,#775,#776,#777));
#198=EDGE_LOOP('',(#778,#779,#780));
#199=EDGE_LOOP('',(#781,#782,#783,#784));
#200=EDGE_LOOP('',(#785,#786,#787));
#201=EDGE_LOOP('',(#788,#789,#790,#791));
#202=EDGE_LOOP('',(#792,#793,#794,#795));
#203=EDGE_LOOP('',(#796,#797,#798,#799,#800,#801));
#204=EDGE_LOOP('',(#802,#803,#804));
#205=EDGE_LOOP('',(#805,#806,#807,#808));
#206=EDGE_LOOP('',(#809,#810,#811,#812));
#207=EDGE_LOOP('',(#813,#814,#815,#816));
#208=EDGE_LOOP('',(#817,#818,#819,#820));
#209=EDGE_LOOP('',(#821,#822,#823,#824));
#210=EDGE_LOOP('',(#825,#826,#827,#828));
#211=EDGE_LOOP('',(#829,#830,#831,#832));
#212=EDGE_LOOP('',(#833,#834,#835,#836));
#213=EDGE_LOOP('',(#837,#838,#839,#840));
#214=EDGE_LOOP('',(#841,#842,#843,#844));
#215=LINE('',#1283,#294);
#216=LINE('',#1285,#295);
#217=LINE('',#1287,#296);
#218=LINE('',#1288,#297);
#219=LINE('',#1291,#298);
#220=LINE('',#1293,#299);
#221=LINE('',#1294,#300);
#222=LINE('',#1301,#301);
#223=LINE('',#1305,#302);
#224=LINE('',#1316,#303);
#225=LINE('',#1318,#304);
#226=LINE('',#1322,#305);
#227=LINE('',#1324,#306);
#228=LINE('',#1326,#307);
#229=LINE('',#1330,#308);
#230=LINE('',#1332,#309);
#231=LINE('',#1336,#310);
#232=LINE('',#1345,#311);
#233=LINE('',#1355,#312);
#234=LINE('',#1360,#313);
#235=LINE('',#1364,#314);
#236=LINE('',#1368,#315);
#237=LINE('',#1371,#316);
#238=LINE('',#1376,#317);
#239=LINE('',#1380,#318);
#240=LINE('',#1384,#319);
#241=LINE('',#1387,#320);
#242=LINE('',#1398,#321);
#243=LINE('',#1400,#322);
#244=LINE('',#1403,#323);
#245=LINE('',#1408,#324);
#246=LINE('',#1409,#325);
#247=LINE('',#1412,#326);
#248=LINE('',#1413,#327);
#249=LINE('',#1418,#328);
#250=LINE('',#1419,#329);
#251=LINE('',#1422,#330);
#252=LINE('',#1423,#331);
#253=LINE('',#1426,#332);
#254=LINE('',#1428,#333);
#255=LINE('',#1439,#334);
#256=LINE('',#1441,#335);
#257=LINE('',#1443,#336);
#258=LINE('',#1444,#337);
#259=LINE('',#1445,#338);
#260=LINE('',#1447,#339);
#261=LINE('',#1449,#340);
#262=LINE('',#1450,#341);
#263=LINE('',#1453,#342);
#264=LINE('',#1457,#343);
#265=LINE('',#1461,#344);
#266=LINE('',#1465,#345);
#267=LINE('',#1469,#346);
#268=LINE('',#1473,#347);
#269=LINE('',#1477,#348);
#270=LINE('',#1481,#349);
#271=LINE('',#1496,#350);
#272=LINE('',#1497,#351);
#273=LINE('',#1499,#352);
#274=LINE('',#1501,#353);
#275=LINE('',#1503,#354);
#276=LINE('',#1505,#355);
#277=LINE('',#1506,#356);
#278=LINE('',#1509,#357);
#279=LINE('',#1512,#358);
#280=LINE('',#1513,#359);
#281=LINE('',#1515,#360);
#282=LINE('',#1517,#361);
#283=LINE('',#1518,#362);
#284=LINE('',#1521,#363);
#285=LINE('',#1522,#364);
#286=LINE('',#1525,#365);
#287=LINE('',#1528,#366);
#288=LINE('',#1630,#367);
#289=LINE('',#1632,#368);
#290=LINE('',#1634,#369);
#291=LINE('',#1636,#370);
#292=LINE('',#1638,#371);
#293=LINE('',#1640,#372);
#294=VECTOR('',#1026,10.);
#295=VECTOR('',#1027,10.);
#296=VECTOR('',#1028,10.);
#297=VECTOR('',#1029,10.);
#298=VECTOR('',#1032,10.);
#299=VECTOR('',#1033,10.);
#300=VECTOR('',#1034,10.);
#301=VECTOR('',#1041,10.);
#302=VECTOR('',#1044,10.);
#303=VECTOR('',#1045,10.);
#304=VECTOR('',#1046,10.);
#305=VECTOR('',#1049,10.);
#306=VECTOR('',#1050,10.);
#307=VECTOR('',#1051,10.);
#308=VECTOR('',#1054,10.);
#309=VECTOR('',#1055,10.);
#310=VECTOR('',#1058,10.);
#311=VECTOR('',#1059,10.);
#312=VECTOR('',#1060,10.);
#313=VECTOR('',#1063,10.);
#314=VECTOR('',#1066,10.);
#315=VECTOR('',#1069,10.);
#316=VECTOR('',#1072,10.);
#317=VECTOR('',#1075,10.);
#318=VECTOR('',#1078,10.);
#319=VECTOR('',#1081,10.);
#320=VECTOR('',#1084,10.);
#321=VECTOR('',#1095,10.);
#322=VECTOR('',#1096,10.);
#323=VECTOR('',#1099,10.);
#324=VECTOR('',#1104,10.);
#325=VECTOR('',#1105,10.);
#326=VECTOR('',#1108,10.);
#327=VECTOR('',#1109,10.);
#328=VECTOR('',#1114,10.);
#329=VECTOR('',#1115,10.);
#330=VECTOR('',#1118,10.);
#331=VECTOR('',#1119,10.);
#332=VECTOR('',#1122,10.);
#333=VECTOR('',#1123,10.);
#334=VECTOR('',#1124,4.);
#335=VECTOR('',#1125,4.);
#336=VECTOR('',#1126,4.);
#337=VECTOR('',#1127,10.);
#338=VECTOR('',#1128,10.);
#339=VECTOR('',#1129,10.);
#340=VECTOR('',#1130,10.);
#341=VECTOR('',#1131,4.);
#342=VECTOR('',#1132,10.);
#343=VECTOR('',#1135,10.);
#344=VECTOR('',#1138,10.);
#345=VECTOR('',#1141,10.);
#346=VECTOR('',#1144,10.);
#347=VECTOR('',#1147,10.);
#348=VECTOR('',#1150,10.);
#349=VECTOR('',#1153,10.);
#350=VECTOR('',#1170,10.);
#351=VECTOR('',#1171,10.);
#352=VECTOR('',#1174,10.);
#353=VECTOR('',#1177,10.);
#354=VECTOR('',#1180,10.);
#355=VECTOR('',#1183,10.);
#356=VECTOR('',#1184,10.);
#357=VECTOR('',#1189,10.);
#358=VECTOR('',#1194,10.);
#359=VECTOR('',#1195,10.);
#360=VECTOR('',#1198,10.);
#361=VECTOR('',#1201,10.);
#362=VECTOR('',#1202,10.);
#363=VECTOR('',#1207,10.);
#364=VECTOR('',#1208,10.);
#365=VECTOR('',#1213,10.);
#366=VECTOR('',#1218,10.);
#367=VECTOR('',#1257,1.5);
#368=VECTOR('',#1260,1.5);
#369=VECTOR('',#1263,1.5);
#370=VECTOR('',#1266,1.5);
#371=VECTOR('',#1269,1.5);
#372=VECTOR('',#1272,1.5);
#373=VERTEX_POINT('',#1281);
#374=VERTEX_POINT('',#1282);
#375=VERTEX_POINT('',#1284);
#376=VERTEX_POINT('',#1286);
#377=VERTEX_POINT('',#1290);
#378=VERTEX_POINT('',#1292);
#379=VERTEX_POINT('',#1295);
#380=VERTEX_POINT('',#1297);
#381=VERTEX_POINT('',#1300);
#382=VERTEX_POINT('',#1302);
#383=VERTEX_POINT('',#1304);
#384=VERTEX_POINT('',#1306);
#385=VERTEX_POINT('',#1315);
#386=VERTEX_POINT('',#1317);
#387=VERTEX_POINT('',#1319);
#388=VERTEX_POINT('',#1321);
#389=VERTEX_POINT('',#1323);
#390=VERTEX_POINT('',#1325);
#391=VERTEX_POINT('',#1327);
#392=VERTEX_POINT('',#1329);
#393=VERTEX_POINT('',#1331);
#394=VERTEX_POINT('',#1333);
#395=VERTEX_POINT('',#1335);
#396=VERTEX_POINT('',#1337);
#397=VERTEX_POINT('',#1344);
#398=VERTEX_POINT('',#1346);
#399=VERTEX_POINT('',#1356);
#400=VERTEX_POINT('',#1357);
#401=VERTEX_POINT('',#1359);
#402=VERTEX_POINT('',#1361);
#403=VERTEX_POINT('',#1363);
#404=VERTEX_POINT('',#1365);
#405=VERTEX_POINT('',#1367);
#406=VERTEX_POINT('',#1369);
#407=VERTEX_POINT('',#1372);
#408=VERTEX_POINT('',#1373);
#409=VERTEX_POINT('',#1375);
#410=VERTEX_POINT('',#1377);
#411=VERTEX_POINT('',#1379);
#412=VERTEX_POINT('',#1381);
#413=VERTEX_POINT('',#1383);
#414=VERTEX_POINT('',#1385);
#415=VERTEX_POINT('',#1388);
#416=VERTEX_POINT('',#1390);
#417=VERTEX_POINT('',#1392);
#418=VERTEX_POINT('',#1394);
#419=VERTEX_POINT('',#1397);
#420=VERTEX_POINT('',#1399);
#421=VERTEX_POINT('',#1401);
#422=VERTEX_POINT('',#1405);
#423=VERTEX_POINT('',#1406);
#424=VERTEX_POINT('',#1411);
#425=VERTEX_POINT('',#1415);
#426=VERTEX_POINT('',#1416);
#427=VERTEX_POINT('',#1421);
#428=VERTEX_POINT('',#1425);
#429=VERTEX_POINT('',#1427);
#430=VERTEX_POINT('',#1429);
#431=VERTEX_POINT('',#1438);
#432=VERTEX_POINT('',#1440);
#433=VERTEX_POINT('',#1442);
#434=VERTEX_POINT('',#1446);
#435=VERTEX_POINT('',#1448);
#436=VERTEX_POINT('',#1451);
#437=VERTEX_POINT('',#1452);
#438=VERTEX_POINT('',#1454);
#439=VERTEX_POINT('',#1456);
#440=VERTEX_POINT('',#1458);
#441=VERTEX_POINT('',#1460);
#442=VERTEX_POINT('',#1462);
#443=VERTEX_POINT('',#1464);
#444=VERTEX_POINT('',#1467);
#445=VERTEX_POINT('',#1468);
#446=VERTEX_POINT('',#1470);
#447=VERTEX_POINT('',#1472);
#448=VERTEX_POINT('',#1474);
#449=VERTEX_POINT('',#1476);
#450=VERTEX_POINT('',#1478);
#451=VERTEX_POINT('',#1480);
#452=VERTEX_POINT('',#1483);
#453=VERTEX_POINT('',#1485);
#454=VERTEX_POINT('',#1487);
#455=VERTEX_POINT('',#1489);
#456=VERTEX_POINT('',#1491);
#457=VERTEX_POINT('',#1493);
#458=EDGE_CURVE('',#373,#374,#215,.T.);
#459=EDGE_CURVE('',#375,#373,#216,.T.);
#460=EDGE_CURVE('',#376,#375,#217,.T.);
#461=EDGE_CURVE('',#374,#376,#218,.T.);
#462=EDGE_CURVE('',#377,#373,#219,.T.);
#463=EDGE_CURVE('',#378,#377,#220,.T.);
#464=EDGE_CURVE('',#375,#378,#221,.T.);
#465=EDGE_CURVE('',#379,#379,#69,.T.);
#466=EDGE_CURVE('',#380,#380,#70,.T.);
#467=EDGE_CURVE('',#381,#376,#222,.T.);
#468=EDGE_CURVE('',#382,#381,#71,.T.);
#469=EDGE_CURVE('',#383,#382,#223,.T.);
#470=EDGE_CURVE('',#384,#383,#48,.T.);
#471=EDGE_CURVE('',#385,#384,#224,.T.);
#472=EDGE_CURVE('',#386,#385,#225,.T.);
#473=EDGE_CURVE('',#387,#386,#72,.T.);
#474=EDGE_CURVE('',#388,#387,#226,.T.);
#475=EDGE_CURVE('',#389,#388,#227,.T.);
#476=EDGE_CURVE('',#390,#389,#228,.T.);
#477=EDGE_CURVE('',#391,#390,#73,.T.);
#478=EDGE_CURVE('',#392,#391,#229,.T.);
#479=EDGE_CURVE('',#393,#392,#230,.T.);
#480=EDGE_CURVE('',#394,#393,#74,.T.);
#481=EDGE_CURVE('',#395,#394,#231,.T.);
#482=EDGE_CURVE('',#396,#395,#49,.T.);
#483=EDGE_CURVE('',#397,#396,#232,.T.);
#484=EDGE_CURVE('',#398,#397,#50,.T.);
#485=EDGE_CURVE('',#374,#398,#233,.T.);
#486=EDGE_CURVE('',#399,#400,#75,.T.);
#487=EDGE_CURVE('',#401,#399,#234,.T.);
#488=EDGE_CURVE('',#402,#401,#76,.T.);
#489=EDGE_CURVE('',#403,#402,#235,.T.);
#490=EDGE_CURVE('',#404,#403,#77,.T.);
#491=EDGE_CURVE('',#405,#404,#236,.T.);
#492=EDGE_CURVE('',#406,#405,#78,.T.);
#493=EDGE_CURVE('',#400,#406,#237,.T.);
#494=EDGE_CURVE('',#407,#408,#79,.T.);
#495=EDGE_CURVE('',#409,#407,#238,.T.);
#496=EDGE_CURVE('',#410,#409,#80,.T.);
#497=EDGE_CURVE('',#411,#410,#239,.T.);
#498=EDGE_CURVE('',#412,#411,#81,.T.);
#499=EDGE_CURVE('',#413,#412,#240,.T.);
#500=EDGE_CURVE('',#414,#413,#82,.T.);
#501=EDGE_CURVE('',#408,#414,#241,.T.);
#502=EDGE_CURVE('',#415,#415,#83,.T.);
#503=EDGE_CURVE('',#416,#416,#84,.T.);
#504=EDGE_CURVE('',#417,#417,#85,.T.);
#505=EDGE_CURVE('',#418,#418,#86,.T.);
#506=EDGE_CURVE('',#378,#419,#242,.T.);
#507=EDGE_CURVE('',#420,#419,#243,.T.);
#508=EDGE_CURVE('',#421,#420,#41,.T.);
#509=EDGE_CURVE('',#381,#421,#244,.T.);
#510=EDGE_CURVE('',#422,#423,#87,.T.);
#511=EDGE_CURVE('',#423,#391,#245,.T.);
#512=EDGE_CURVE('',#390,#422,#246,.T.);
#513=EDGE_CURVE('',#389,#424,#247,.T.);
#514=EDGE_CURVE('',#422,#424,#248,.T.);
#515=EDGE_CURVE('',#425,#426,#88,.T.);
#516=EDGE_CURVE('',#426,#387,#249,.T.);
#517=EDGE_CURVE('',#386,#425,#250,.T.);
#518=EDGE_CURVE('',#427,#426,#251,.T.);
#519=EDGE_CURVE('',#388,#427,#252,.T.);
#520=EDGE_CURVE('',#419,#428,#253,.T.);
#521=EDGE_CURVE('',#429,#428,#254,.T.);
#522=EDGE_CURVE('',#430,#429,#51,.T.);
#523=EDGE_CURVE('',#431,#430,#255,.T.);
#524=EDGE_CURVE('',#432,#431,#256,.T.);
#525=EDGE_CURVE('',#433,#432,#257,.T.);
#526=EDGE_CURVE('',#423,#433,#258,.T.);
#527=EDGE_CURVE('',#424,#427,#259,.T.);
#528=EDGE_CURVE('',#425,#434,#260,.T.);
#529=EDGE_CURVE('',#435,#434,#261,.T.);
#530=EDGE_CURVE('',#420,#435,#262,.T.);
#531=EDGE_CURVE('',#436,#437,#263,.T.);
#532=EDGE_CURVE('',#438,#437,#89,.T.);
#533=EDGE_CURVE('',#438,#439,#264,.T.);
#534=EDGE_CURVE('',#440,#439,#90,.T.);
#535=EDGE_CURVE('',#440,#441,#265,.T.);
#536=EDGE_CURVE('',#442,#441,#91,.T.);
#537=EDGE_CURVE('',#442,#443,#266,.T.);
#538=EDGE_CURVE('',#436,#443,#92,.T.);
#539=EDGE_CURVE('',#444,#445,#267,.T.);
#540=EDGE_CURVE('',#446,#445,#93,.T.);
#541=EDGE_CURVE('',#446,#447,#268,.T.);
#542=EDGE_CURVE('',#448,#447,#94,.T.);
#543=EDGE_CURVE('',#448,#449,#269,.T.);
#544=EDGE_CURVE('',#450,#449,#95,.T.);
#545=EDGE_CURVE('',#450,#451,#270,.T.);
#546=EDGE_CURVE('',#444,#451,#96,.T.);
#547=EDGE_CURVE('',#452,#452,#97,.T.);
#548=EDGE_CURVE('',#453,#453,#98,.T.);
#549=EDGE_CURVE('',#454,#454,#99,.T.);
#550=EDGE_CURVE('',#455,#455,#100,.T.);
#551=EDGE_CURVE('',#456,#456,#101,.T.);
#552=EDGE_CURVE('',#457,#457,#102,.T.);
#553=EDGE_CURVE('',#413,#446,#271,.T.);
#554=EDGE_CURVE('',#445,#414,#272,.T.);
#555=EDGE_CURVE('',#447,#412,#273,.T.);
#556=EDGE_CURVE('',#411,#448,#274,.T.);
#557=EDGE_CURVE('',#449,#410,#275,.T.);
#558=EDGE_CURVE('',#408,#444,#276,.T.);
#559=EDGE_CURVE('',#451,#407,#277,.T.);
#560=EDGE_CURVE('',#409,#450,#278,.T.);
#561=EDGE_CURVE('',#405,#438,#279,.T.);
#562=EDGE_CURVE('',#437,#406,#280,.T.);
#563=EDGE_CURVE('',#439,#404,#281,.T.);
#564=EDGE_CURVE('',#400,#436,#282,.T.);
#565=EDGE_CURVE('',#443,#399,#283,.T.);
#566=EDGE_CURVE('',#401,#442,#284,.T.);
#567=EDGE_CURVE('',#441,#402,#285,.T.);
#568=EDGE_CURVE('',#403,#440,#286,.T.);
#569=EDGE_CURVE('',#428,#377,#287,.T.);
#570=EDGE_CURVE('',#383,#435,#42,.T.);
#571=EDGE_CURVE('',#435,#384,#43,.T.);
#572=EDGE_CURVE('',#434,#385,#103,.F.);
#573=EDGE_CURVE('',#382,#421,#52,.T.);
#574=EDGE_CURVE('',#393,#432,#104,.T.);
#575=EDGE_CURVE('',#432,#394,#105,.T.);
#576=EDGE_CURVE('',#395,#431,#44,.T.);
#577=EDGE_CURVE('',#431,#396,#45,.T.);
#578=EDGE_CURVE('',#397,#430,#46,.T.);
#579=EDGE_CURVE('',#429,#398,#47,.T.);
#580=EDGE_CURVE('',#433,#392,#106,.T.);
#581=EDGE_CURVE('',#452,#379,#288,.T.);
#582=EDGE_CURVE('',#453,#415,#289,.T.);
#583=EDGE_CURVE('',#454,#380,#290,.T.);
#584=EDGE_CURVE('',#455,#416,#291,.T.);
#585=EDGE_CURVE('',#456,#417,#292,.T.);
#586=EDGE_CURVE('',#457,#418,#293,.T.);
#587=ORIENTED_EDGE('',*,*,#458,.F.);
#588=ORIENTED_EDGE('',*,*,#459,.F.);
#589=ORIENTED_EDGE('',*,*,#460,.F.);
#590=ORIENTED_EDGE('',*,*,#461,.F.);
#591=ORIENTED_EDGE('',*,*,#462,.F.);
#592=ORIENTED_EDGE('',*,*,#463,.F.);
#593=ORIENTED_EDGE('',*,*,#464,.F.);
#594=ORIENTED_EDGE('',*,*,#459,.T.);
#595=ORIENTED_EDGE('',*,*,#465,.F.);
#596=ORIENTED_EDGE('',*,*,#466,.F.);
#597=ORIENTED_EDGE('',*,*,#461,.T.);
#598=ORIENTED_EDGE('',*,*,#467,.F.);
#599=ORIENTED_EDGE('',*,*,#468,.F.);
#600=ORIENTED_EDGE('',*,*,#469,.F.);
#601=ORIENTED_EDGE('',*,*,#470,.F.);
#602=ORIENTED_EDGE('',*,*,#471,.F.);
#603=ORIENTED_EDGE('',*,*,#472,.F.);
#604=ORIENTED_EDGE('',*,*,#473,.F.);
#605=ORIENTED_EDGE('',*,*,#474,.F.);
#606=ORIENTED_EDGE('',*,*,#475,.F.);
#607=ORIENTED_EDGE('',*,*,#476,.F.);
#608=ORIENTED_EDGE('',*,*,#477,.F.);
#609=ORIENTED_EDGE('',*,*,#478,.F.);
#610=ORIENTED_EDGE('',*,*,#479,.F.);
#611=ORIENTED_EDGE('',*,*,#480,.F.);
#612=ORIENTED_EDGE('',*,*,#481,.F.);
#613=ORIENTED_EDGE('',*,*,#482,.F.);
#614=ORIENTED_EDGE('',*,*,#483,.F.);
#615=ORIENTED_EDGE('',*,*,#484,.F.);
#616=ORIENTED_EDGE('',*,*,#485,.F.);
#617=ORIENTED_EDGE('',*,*,#486,.F.);
#618=ORIENTED_EDGE('',*,*,#487,.F.);
#619=ORIENTED_EDGE('',*,*,#488,.F.);
#620=ORIENTED_EDGE('',*,*,#489,.F.);
#621=ORIENTED_EDGE('',*,*,#490,.F.);
#622=ORIENTED_EDGE('',*,*,#491,.F.);
#623=ORIENTED_EDGE('',*,*,#492,.F.);
#624=ORIENTED_EDGE('',*,*,#493,.F.);
#625=ORIENTED_EDGE('',*,*,#494,.F.);
#626=ORIENTED_EDGE('',*,*,#495,.F.);
#627=ORIENTED_EDGE('',*,*,#496,.F.);
#628=ORIENTED_EDGE('',*,*,#497,.F.);
#629=ORIENTED_EDGE('',*,*,#498,.F.);
#630=ORIENTED_EDGE('',*,*,#499,.F.);
#631=ORIENTED_EDGE('',*,*,#500,.F.);
#632=ORIENTED_EDGE('',*,*,#501,.F.);
#633=ORIENTED_EDGE('',*,*,#502,.F.);
#634=ORIENTED_EDGE('',*,*,#503,.F.);
#635=ORIENTED_EDGE('',*,*,#504,.F.);
#636=ORIENTED_EDGE('',*,*,#505,.F.);
#637=ORIENTED_EDGE('',*,*,#460,.T.);
#638=ORIENTED_EDGE('',*,*,#464,.T.);
#639=ORIENTED_EDGE('',*,*,#506,.T.);
#640=ORIENTED_EDGE('',*,*,#507,.F.);
#641=ORIENTED_EDGE('',*,*,#508,.F.);
#642=ORIENTED_EDGE('',*,*,#509,.F.);
#643=ORIENTED_EDGE('',*,*,#467,.T.);
#644=ORIENTED_EDGE('',*,*,#510,.T.);
#645=ORIENTED_EDGE('',*,*,#511,.T.);
#646=ORIENTED_EDGE('',*,*,#477,.T.);
#647=ORIENTED_EDGE('',*,*,#512,.T.);
#648=ORIENTED_EDGE('',*,*,#512,.F.);
#649=ORIENTED_EDGE('',*,*,#476,.T.);
#650=ORIENTED_EDGE('',*,*,#513,.T.);
#651=ORIENTED_EDGE('',*,*,#514,.F.);
#652=ORIENTED_EDGE('',*,*,#515,.T.);
#653=ORIENTED_EDGE('',*,*,#516,.T.);
#654=ORIENTED_EDGE('',*,*,#473,.T.);
#655=ORIENTED_EDGE('',*,*,#517,.T.);
#656=ORIENTED_EDGE('',*,*,#516,.F.);
#657=ORIENTED_EDGE('',*,*,#518,.F.);
#658=ORIENTED_EDGE('',*,*,#519,.F.);
#659=ORIENTED_EDGE('',*,*,#474,.T.);
#660=ORIENTED_EDGE('',*,*,#520,.T.);
#661=ORIENTED_EDGE('',*,*,#521,.F.);
#662=ORIENTED_EDGE('',*,*,#522,.F.);
#663=ORIENTED_EDGE('',*,*,#523,.F.);
#664=ORIENTED_EDGE('',*,*,#524,.F.);
#665=ORIENTED_EDGE('',*,*,#525,.F.);
#666=ORIENTED_EDGE('',*,*,#526,.F.);
#667=ORIENTED_EDGE('',*,*,#510,.F.);
#668=ORIENTED_EDGE('',*,*,#514,.T.);
#669=ORIENTED_EDGE('',*,*,#527,.T.);
#670=ORIENTED_EDGE('',*,*,#518,.T.);
#671=ORIENTED_EDGE('',*,*,#515,.F.);
#672=ORIENTED_EDGE('',*,*,#528,.T.);
#673=ORIENTED_EDGE('',*,*,#529,.F.);
#674=ORIENTED_EDGE('',*,*,#530,.F.);
#675=ORIENTED_EDGE('',*,*,#507,.T.);
#676=ORIENTED_EDGE('',*,*,#531,.T.);
#677=ORIENTED_EDGE('',*,*,#532,.F.);
#678=ORIENTED_EDGE('',*,*,#533,.T.);
#679=ORIENTED_EDGE('',*,*,#534,.F.);
#680=ORIENTED_EDGE('',*,*,#535,.T.);
#681=ORIENTED_EDGE('',*,*,#536,.F.);
#682=ORIENTED_EDGE('',*,*,#537,.T.);
#683=ORIENTED_EDGE('',*,*,#538,.F.);
#684=ORIENTED_EDGE('',*,*,#539,.T.);
#685=ORIENTED_EDGE('',*,*,#540,.F.);
#686=ORIENTED_EDGE('',*,*,#541,.T.);
#687=ORIENTED_EDGE('',*,*,#542,.F.);
#688=ORIENTED_EDGE('',*,*,#543,.T.);
#689=ORIENTED_EDGE('',*,*,#544,.F.);
#690=ORIENTED_EDGE('',*,*,#545,.T.);
#691=ORIENTED_EDGE('',*,*,#546,.F.);
#692=ORIENTED_EDGE('',*,*,#547,.T.);
#693=ORIENTED_EDGE('',*,*,#548,.T.);
#694=ORIENTED_EDGE('',*,*,#549,.T.);
#695=ORIENTED_EDGE('',*,*,#550,.T.);
#696=ORIENTED_EDGE('',*,*,#551,.T.);
#697=ORIENTED_EDGE('',*,*,#552,.T.);
#698=ORIENTED_EDGE('',*,*,#500,.T.);
#699=ORIENTED_EDGE('',*,*,#553,.T.);
#700=ORIENTED_EDGE('',*,*,#540,.T.);
#701=ORIENTED_EDGE('',*,*,#554,.T.);
#702=ORIENTED_EDGE('',*,*,#553,.F.);
#703=ORIENTED_EDGE('',*,*,#499,.T.);
#704=ORIENTED_EDGE('',*,*,#555,.F.);
#705=ORIENTED_EDGE('',*,*,#541,.F.);
#706=ORIENTED_EDGE('',*,*,#498,.T.);
#707=ORIENTED_EDGE('',*,*,#556,.T.);
#708=ORIENTED_EDGE('',*,*,#542,.T.);
#709=ORIENTED_EDGE('',*,*,#555,.T.);
#710=ORIENTED_EDGE('',*,*,#556,.F.);
#711=ORIENTED_EDGE('',*,*,#497,.T.);
#712=ORIENTED_EDGE('',*,*,#557,.F.);
#713=ORIENTED_EDGE('',*,*,#543,.F.);
#714=ORIENTED_EDGE('',*,*,#494,.T.);
#715=ORIENTED_EDGE('',*,*,#558,.T.);
#716=ORIENTED_EDGE('',*,*,#546,.T.);
#717=ORIENTED_EDGE('',*,*,#559,.T.);
#718=ORIENTED_EDGE('',*,*,#554,.F.);
#719=ORIENTED_EDGE('',*,*,#539,.F.);
#720=ORIENTED_EDGE('',*,*,#558,.F.);
#721=ORIENTED_EDGE('',*,*,#501,.T.);
#722=ORIENTED_EDGE('',*,*,#496,.T.);
#723=ORIENTED_EDGE('',*,*,#560,.T.);
#724=ORIENTED_EDGE('',*,*,#544,.T.);
#725=ORIENTED_EDGE('',*,*,#557,.T.);
#726=ORIENTED_EDGE('',*,*,#559,.F.);
#727=ORIENTED_EDGE('',*,*,#545,.F.);
#728=ORIENTED_EDGE('',*,*,#560,.F.);
#729=ORIENTED_EDGE('',*,*,#495,.T.);
#730=ORIENTED_EDGE('',*,*,#492,.T.);
#731=ORIENTED_EDGE('',*,*,#561,.T.);
#732=ORIENTED_EDGE('',*,*,#532,.T.);
#733=ORIENTED_EDGE('',*,*,#562,.T.);
#734=ORIENTED_EDGE('',*,*,#561,.F.);
#735=ORIENTED_EDGE('',*,*,#491,.T.);
#736=ORIENTED_EDGE('',*,*,#563,.F.);
#737=ORIENTED_EDGE('',*,*,#533,.F.);
#738=ORIENTED_EDGE('',*,*,#486,.T.);
#739=ORIENTED_EDGE('',*,*,#564,.T.);
#740=ORIENTED_EDGE('',*,*,#538,.T.);
#741=ORIENTED_EDGE('',*,*,#565,.T.);
#742=ORIENTED_EDGE('',*,*,#562,.F.);
#743=ORIENTED_EDGE('',*,*,#531,.F.);
#744=ORIENTED_EDGE('',*,*,#564,.F.);
#745=ORIENTED_EDGE('',*,*,#493,.T.);
#746=ORIENTED_EDGE('',*,*,#488,.T.);
#747=ORIENTED_EDGE('',*,*,#566,.T.);
#748=ORIENTED_EDGE('',*,*,#536,.T.);
#749=ORIENTED_EDGE('',*,*,#567,.T.);
#750=ORIENTED_EDGE('',*,*,#565,.F.);
#751=ORIENTED_EDGE('',*,*,#537,.F.);
#752=ORIENTED_EDGE('',*,*,#566,.F.);
#753=ORIENTED_EDGE('',*,*,#487,.T.);
#754=ORIENTED_EDGE('',*,*,#490,.T.);
#755=ORIENTED_EDGE('',*,*,#568,.T.);
#756=ORIENTED_EDGE('',*,*,#534,.T.);
#757=ORIENTED_EDGE('',*,*,#563,.T.);
#758=ORIENTED_EDGE('',*,*,#567,.F.);
#759=ORIENTED_EDGE('',*,*,#535,.F.);
#760=ORIENTED_EDGE('',*,*,#568,.F.);
#761=ORIENTED_EDGE('',*,*,#489,.T.);
#762=ORIENTED_EDGE('',*,*,#463,.T.);
#763=ORIENTED_EDGE('',*,*,#569,.F.);
#764=ORIENTED_EDGE('',*,*,#520,.F.);
#765=ORIENTED_EDGE('',*,*,#506,.F.);
#766=ORIENTED_EDGE('',*,*,#470,.T.);
#767=ORIENTED_EDGE('',*,*,#570,.T.);
#768=ORIENTED_EDGE('',*,*,#571,.T.);
#769=ORIENTED_EDGE('',*,*,#571,.F.);
#770=ORIENTED_EDGE('',*,*,#529,.T.);
#771=ORIENTED_EDGE('',*,*,#572,.T.);
#772=ORIENTED_EDGE('',*,*,#471,.T.);
#773=ORIENTED_EDGE('',*,*,#570,.F.);
#774=ORIENTED_EDGE('',*,*,#469,.T.);
#775=ORIENTED_EDGE('',*,*,#573,.T.);
#776=ORIENTED_EDGE('',*,*,#508,.T.);
#777=ORIENTED_EDGE('',*,*,#530,.T.);
#778=ORIENTED_EDGE('',*,*,#480,.T.);
#779=ORIENTED_EDGE('',*,*,#574,.T.);
#780=ORIENTED_EDGE('',*,*,#575,.T.);
#781=ORIENTED_EDGE('',*,*,#575,.F.);
#782=ORIENTED_EDGE('',*,*,#524,.T.);
#783=ORIENTED_EDGE('',*,*,#576,.F.);
#784=ORIENTED_EDGE('',*,*,#481,.T.);
#785=ORIENTED_EDGE('',*,*,#482,.T.);
#786=ORIENTED_EDGE('',*,*,#576,.T.);
#787=ORIENTED_EDGE('',*,*,#577,.T.);
#788=ORIENTED_EDGE('',*,*,#577,.F.);
#789=ORIENTED_EDGE('',*,*,#523,.T.);
#790=ORIENTED_EDGE('',*,*,#578,.F.);
#791=ORIENTED_EDGE('',*,*,#483,.T.);
#792=ORIENTED_EDGE('',*,*,#522,.T.);
#793=ORIENTED_EDGE('',*,*,#579,.T.);
#794=ORIENTED_EDGE('',*,*,#484,.T.);
#795=ORIENTED_EDGE('',*,*,#578,.T.);
#796=ORIENTED_EDGE('',*,*,#458,.T.);
#797=ORIENTED_EDGE('',*,*,#485,.T.);
#798=ORIENTED_EDGE('',*,*,#579,.F.);
#799=ORIENTED_EDGE('',*,*,#521,.T.);
#800=ORIENTED_EDGE('',*,*,#569,.T.);
#801=ORIENTED_EDGE('',*,*,#462,.T.);
#802=ORIENTED_EDGE('',*,*,#573,.F.);
#803=ORIENTED_EDGE('',*,*,#468,.T.);
#804=ORIENTED_EDGE('',*,*,#509,.T.);
#805=ORIENTED_EDGE('',*,*,#574,.F.);
#806=ORIENTED_EDGE('',*,*,#479,.T.);
#807=ORIENTED_EDGE('',*,*,#580,.F.);
#808=ORIENTED_EDGE('',*,*,#525,.T.);
#809=ORIENTED_EDGE('',*,*,#547,.F.);
#810=ORIENTED_EDGE('',*,*,#581,.T.);
#811=ORIENTED_EDGE('',*,*,#465,.T.);
#812=ORIENTED_EDGE('',*,*,#581,.F.);
#813=ORIENTED_EDGE('',*,*,#548,.F.);
#814=ORIENTED_EDGE('',*,*,#582,.T.);
#815=ORIENTED_EDGE('',*,*,#502,.T.);
#816=ORIENTED_EDGE('',*,*,#582,.F.);
#817=ORIENTED_EDGE('',*,*,#549,.F.);
#818=ORIENTED_EDGE('',*,*,#583,.T.);
#819=ORIENTED_EDGE('',*,*,#466,.T.);
#820=ORIENTED_EDGE('',*,*,#583,.F.);
#821=ORIENTED_EDGE('',*,*,#550,.F.);
#822=ORIENTED_EDGE('',*,*,#584,.T.);
#823=ORIENTED_EDGE('',*,*,#503,.T.);
#824=ORIENTED_EDGE('',*,*,#584,.F.);
#825=ORIENTED_EDGE('',*,*,#551,.F.);
#826=ORIENTED_EDGE('',*,*,#585,.T.);
#827=ORIENTED_EDGE('',*,*,#504,.T.);
#828=ORIENTED_EDGE('',*,*,#585,.F.);
#829=ORIENTED_EDGE('',*,*,#552,.F.);
#830=ORIENTED_EDGE('',*,*,#586,.T.);
#831=ORIENTED_EDGE('',*,*,#505,.T.);
#832=ORIENTED_EDGE('',*,*,#586,.F.);
#833=ORIENTED_EDGE('',*,*,#517,.F.);
#834=ORIENTED_EDGE('',*,*,#472,.T.);
#835=ORIENTED_EDGE('',*,*,#572,.F.);
#836=ORIENTED_EDGE('',*,*,#528,.F.);
#837=ORIENTED_EDGE('',*,*,#475,.T.);
#838=ORIENTED_EDGE('',*,*,#519,.T.);
#839=ORIENTED_EDGE('',*,*,#527,.F.);
#840=ORIENTED_EDGE('',*,*,#513,.F.);
#841=ORIENTED_EDGE('',*,*,#511,.F.);
#842=ORIENTED_EDGE('',*,*,#526,.T.);
#843=ORIENTED_EDGE('',*,*,#580,.T.);
#844=ORIENTED_EDGE('',*,*,#478,.T.);
#845=PLANE('',#934);
#846=PLANE('',#935);
#847=PLANE('',#938);
#848=PLANE('',#955);
#849=PLANE('',#959);
#850=PLANE('',#962);
#851=PLANE('',#963);
#852=PLANE('',#979);
#853=PLANE('',#981);
#854=PLANE('',#983);
#855=PLANE('',#985);
#856=PLANE('',#987);
#857=PLANE('',#989);
#858=PLANE('',#991);
#859=PLANE('',#993);
#860=PLANE('',#994);
#861=PLANE('',#1009);
#862=PLANE('',#1019);
#863=PLANE('',#1020);
#864=PLANE('',#1021);
#865=ADVANCED_FACE('',(#107),#845,.F.);
#866=ADVANCED_FACE('',(#108,#53,#54),#846,.F.);
#867=ADVANCED_FACE('',(#109,#55,#56,#57,#58,#59,#60),#847,.F.);
#868=ADVANCED_FACE('',(#110),#848,.T.);
#869=ADVANCED_FACE('',(#111),#19,.T.);
#870=ADVANCED_FACE('',(#112),#849,.T.);
#871=ADVANCED_FACE('',(#113),#20,.T.);
#872=ADVANCED_FACE('',(#114),#850,.T.);
#873=ADVANCED_FACE('',(#115,#61,#62,#63,#64,#65,#66,#67,#68),#851,.T.);
#874=ADVANCED_FACE('',(#116),#21,.F.);
#875=ADVANCED_FACE('',(#117),#852,.T.);
#876=ADVANCED_FACE('',(#118),#22,.F.);
#877=ADVANCED_FACE('',(#119),#853,.T.);
#878=ADVANCED_FACE('',(#120),#23,.F.);
#879=ADVANCED_FACE('',(#121),#854,.T.);
#880=ADVANCED_FACE('',(#122),#24,.F.);
#881=ADVANCED_FACE('',(#123),#855,.T.);
#882=ADVANCED_FACE('',(#124),#25,.F.);
#883=ADVANCED_FACE('',(#125),#856,.T.);
#884=ADVANCED_FACE('',(#126),#26,.F.);
#885=ADVANCED_FACE('',(#127),#857,.T.);
#886=ADVANCED_FACE('',(#128),#27,.F.);
#887=ADVANCED_FACE('',(#129),#858,.T.);
#888=ADVANCED_FACE('',(#130),#28,.F.);
#889=ADVANCED_FACE('',(#131),#859,.T.);
#890=ADVANCED_FACE('',(#132),#860,.T.);
#891=ADVANCED_FACE('',(#133),#16,.T.);
#892=ADVANCED_FACE('',(#134),#29,.T.);
#893=ADVANCED_FACE('',(#135),#30,.T.);
#894=ADVANCED_FACE('',(#136),#15,.T.);
#895=ADVANCED_FACE('',(#137),#31,.T.);
#896=ADVANCED_FACE('',(#138),#17,.T.);
#897=ADVANCED_FACE('',(#139),#32,.T.);
#898=ADVANCED_FACE('',(#140),#18,.T.);
#899=ADVANCED_FACE('',(#141),#861,.T.);
#900=ADVANCED_FACE('',(#142),#33,.T.);
#901=ADVANCED_FACE('',(#143),#34,.T.);
#902=ADVANCED_FACE('',(#144),#35,.F.);
#903=ADVANCED_FACE('',(#145),#36,.F.);
#904=ADVANCED_FACE('',(#146),#37,.F.);
#905=ADVANCED_FACE('',(#147),#38,.F.);
#906=ADVANCED_FACE('',(#148),#39,.F.);
#907=ADVANCED_FACE('',(#149),#40,.F.);
#908=ADVANCED_FACE('',(#150),#862,.T.);
#909=ADVANCED_FACE('',(#151),#863,.T.);
#910=ADVANCED_FACE('',(#152),#864,.T.);
#911=CLOSED_SHELL('',(#865,#866,#867,#868,#869,#870,#871,#872,#873,#874,
#875,#876,#877,#878,#879,#880,#881,#882,#883,#884,#885,#886,#887,#888,#889,
#890,#891,#892,#893,#894,#895,#896,#897,#898,#899,#900,#901,#902,#903,#904,
#905,#906,#907,#908,#909,#910));
#912=DERIVED_UNIT_ELEMENT(#915,1.);
#913=DERIVED_UNIT_ELEMENT(#1649,-3.);
#914=DIMENSIONAL_EXPONENTS(0.,1.,0.,0.,0.,0.,0.);
#915=(
CONVERSION_BASED_UNIT('gram',#917)
MASS_UNIT()
NAMED_UNIT(#914)
);
#916=(
MASS_UNIT()
NAMED_UNIT(*)
SI_UNIT(.KILO.,.GRAM.)
);
#917=MASS_MEASURE_WITH_UNIT(MASS_MEASURE(0.001),#916);
#918=DERIVED_UNIT((#912,#913));
#919=MEASURE_REPRESENTATION_ITEM('density measure',
POSITIVE_RATIO_MEASURE(1.541),#918);
#920=PROPERTY_DEFINITION_REPRESENTATION(#925,#922);
#921=PROPERTY_DEFINITION_REPRESENTATION(#926,#923);
#922=REPRESENTATION('material name',(#924),#1646);
#923=REPRESENTATION('density',(#919),#1646);
#924=DESCRIPTIVE_REPRESENTATION_ITEM('PCTG 20%','PCTG 20%');
#925=PROPERTY_DEFINITION('material property','material name',#1656);
#926=PROPERTY_DEFINITION('material property','density of part',#1656);
#927=DATE_TIME_ROLE('creation_date');
#928=APPLIED_DATE_AND_TIME_ASSIGNMENT(#929,#927,(#1656));
#929=DATE_AND_TIME(#930,#931);
#930=CALENDAR_DATE(2026,19,4);
#931=LOCAL_TIME(0,0,0.,#932);
#932=COORDINATED_UNIVERSAL_TIME_OFFSET(0,0,.BEHIND.);
#933=AXIS2_PLACEMENT_3D('',#1279,#1022,#1023);
#934=AXIS2_PLACEMENT_3D('',#1280,#1024,#1025);
#935=AXIS2_PLACEMENT_3D('',#1289,#1030,#1031);
#936=AXIS2_PLACEMENT_3D('',#1296,#1035,#1036);
#937=AXIS2_PLACEMENT_3D('',#1298,#1037,#1038);
#938=AXIS2_PLACEMENT_3D('',#1299,#1039,#1040);
#939=AXIS2_PLACEMENT_3D('',#1303,#1042,#1043);
#940=AXIS2_PLACEMENT_3D('',#1320,#1047,#1048);
#941=AXIS2_PLACEMENT_3D('',#1328,#1052,#1053);
#942=AXIS2_PLACEMENT_3D('',#1334,#1056,#1057);
#943=AXIS2_PLACEMENT_3D('',#1358,#1061,#1062);
#944=AXIS2_PLACEMENT_3D('',#1362,#1064,#1065);
#945=AXIS2_PLACEMENT_3D('',#1366,#1067,#1068);
#946=AXIS2_PLACEMENT_3D('',#1370,#1070,#1071);
#947=AXIS2_PLACEMENT_3D('',#1374,#1073,#1074);
#948=AXIS2_PLACEMENT_3D('',#1378,#1076,#1077);
#949=AXIS2_PLACEMENT_3D('',#1382,#1079,#1080);
#950=AXIS2_PLACEMENT_3D('',#1386,#1082,#1083);
#951=AXIS2_PLACEMENT_3D('',#1389,#1085,#1086);
#952=AXIS2_PLACEMENT_3D('',#1391,#1087,#1088);
#953=AXIS2_PLACEMENT_3D('',#1393,#1089,#1090);
#954=AXIS2_PLACEMENT_3D('',#1395,#1091,#1092);
#955=AXIS2_PLACEMENT_3D('',#1396,#1093,#1094);
#956=AXIS2_PLACEMENT_3D('',#1402,#1097,#1098);
#957=AXIS2_PLACEMENT_3D('',#1404,#1100,#1101);
#958=AXIS2_PLACEMENT_3D('',#1407,#1102,#1103);
#959=AXIS2_PLACEMENT_3D('',#1410,#1106,#1107);
#960=AXIS2_PLACEMENT_3D('',#1414,#1110,#1111);
#961=AXIS2_PLACEMENT_3D('',#1417,#1112,#1113);
#962=AXIS2_PLACEMENT_3D('',#1420,#1116,#1117);
#963=AXIS2_PLACEMENT_3D('',#1424,#1120,#1121);
#964=AXIS2_PLACEMENT_3D('',#1455,#1133,#1134);
#965=AXIS2_PLACEMENT_3D('',#1459,#1136,#1137);
#966=AXIS2_PLACEMENT_3D('',#1463,#1139,#1140);
#967=AXIS2_PLACEMENT_3D('',#1466,#1142,#1143);
#968=AXIS2_PLACEMENT_3D('',#1471,#1145,#1146);
#969=AXIS2_PLACEMENT_3D('',#1475,#1148,#1149);
#970=AXIS2_PLACEMENT_3D('',#1479,#1151,#1152);
#971=AXIS2_PLACEMENT_3D('',#1482,#1154,#1155);
#972=AXIS2_PLACEMENT_3D('',#1484,#1156,#1157);
#973=AXIS2_PLACEMENT_3D('',#1486,#1158,#1159);
#974=AXIS2_PLACEMENT_3D('',#1488,#1160,#1161);
#975=AXIS2_PLACEMENT_3D('',#1490,#1162,#1163);
#976=AXIS2_PLACEMENT_3D('',#1492,#1164,#1165);
#977=AXIS2_PLACEMENT_3D('',#1494,#1166,#1167);
#978=AXIS2_PLACEMENT_3D('',#1495,#1168,#1169);
#979=AXIS2_PLACEMENT_3D('',#1498,#1172,#1173);
#980=AXIS2_PLACEMENT_3D('',#1500,#1175,#1176);
#981=AXIS2_PLACEMENT_3D('',#1502,#1178,#1179);
#982=AXIS2_PLACEMENT_3D('',#1504,#1181,#1182);
#983=AXIS2_PLACEMENT_3D('',#1507,#1185,#1186);
#984=AXIS2_PLACEMENT_3D('',#1508,#1187,#1188);
#985=AXIS2_PLACEMENT_3D('',#1510,#1190,#1191);
#986=AXIS2_PLACEMENT_3D('',#1511,#1192,#1193);
#987=AXIS2_PLACEMENT_3D('',#1514,#1196,#1197);
#988=AXIS2_PLACEMENT_3D('',#1516,#1199,#1200);
#989=AXIS2_PLACEMENT_3D('',#1519,#1203,#1204);
#990=AXIS2_PLACEMENT_3D('',#1520,#1205,#1206);
#991=AXIS2_PLACEMENT_3D('',#1523,#1209,#1210);
#992=AXIS2_PLACEMENT_3D('',#1524,#1211,#1212);
#993=AXIS2_PLACEMENT_3D('',#1526,#1214,#1215);
#994=AXIS2_PLACEMENT_3D('',#1527,#1216,#1217);
#995=AXIS2_PLACEMENT_3D('',#1549,#1219,#1220);
#996=AXIS2_PLACEMENT_3D('',#1550,#1221,#1222);
#997=AXIS2_PLACEMENT_3D('',#1551,#1223,#1224);
#998=AXIS2_PLACEMENT_3D('',#1552,#1225,#1226);
#999=AXIS2_PLACEMENT_3D('',#1553,#1227,#1228);
#1000=AXIS2_PLACEMENT_3D('',#1566,#1229,#1230);
#1001=AXIS2_PLACEMENT_3D('',#1567,#1231,#1232);
#1002=AXIS2_PLACEMENT_3D('',#1568,#1233,#1234);
#1003=AXIS2_PLACEMENT_3D('',#1569,#1235,#1236);
#1004=AXIS2_PLACEMENT_3D('',#1570,#1237,#1238);
#1005=AXIS2_PLACEMENT_3D('',#1591,#1239,#1240);
#1006=AXIS2_PLACEMENT_3D('',#1592,#1241,#1242);
#1007=AXIS2_PLACEMENT_3D('',#1593,#1243,#1244);
#1008=AXIS2_PLACEMENT_3D('',#1624,#1245,#1246);
#1009=AXIS2_PLACEMENT_3D('',#1625,#1247,#1248);
#1010=AXIS2_PLACEMENT_3D('',#1626,#1249,#1250);
#1011=AXIS2_PLACEMENT_3D('',#1627,#1251,#1252);
#1012=AXIS2_PLACEMENT_3D('',#1628,#1253,#1254);
#1013=AXIS2_PLACEMENT_3D('',#1629,#1255,#1256);
#1014=AXIS2_PLACEMENT_3D('',#1631,#1258,#1259);
#1015=AXIS2_PLACEMENT_3D('',#1633,#1261,#1262);
#1016=AXIS2_PLACEMENT_3D('',#1635,#1264,#1265);
#1017=AXIS2_PLACEMENT_3D('',#1637,#1267,#1268);
#1018=AXIS2_PLACEMENT_3D('',#1639,#1270,#1271);
#1019=AXIS2_PLACEMENT_3D('',#1641,#1273,#1274);
#1020=AXIS2_PLACEMENT_3D('',#1642,#1275,#1276);
#1021=AXIS2_PLACEMENT_3D('',#1643,#1277,#1278);
#1022=DIRECTION('axis',(0.,0.,1.));
#1023=DIRECTION('refdir',(1.,0.,0.));
#1024=DIRECTION('center_axis',(1.48029736616688E-16,-1.,-2.96059473233375E-15));
#1025=DIRECTION('ref_axis',(4.38256058456118E-31,-2.96059473233375E-15,
1.));
#1026=DIRECTION('',(-6.13558481838564E-31,2.96059473233375E-15,-1.));
#1027=DIRECTION('',(-1.,-1.48029736616688E-16,0.));
#1028=DIRECTION('',(4.38256058456118E-31,-2.96059473233375E-15,1.));
#1029=DIRECTION('',(1.,1.48029736616688E-16,0.));
#1030=DIRECTION('center_axis',(0.,0.,1.));
#1031=DIRECTION('ref_axis',(-1.48029736616688E-16,1.,0.));
#1032=DIRECTION('',(2.07241631263362E-16,-1.,0.));
#1033=DIRECTION('',(-1.,-4.44089209850063E-16,0.));
#1034=DIRECTION('',(-1.48029736616688E-16,1.,0.));
#1035=DIRECTION('center_axis',(0.,0.,-1.));
#1036=DIRECTION('ref_axis',(-1.,0.,0.));
#1037=DIRECTION('center_axis',(0.,0.,-1.));
#1038=DIRECTION('ref_axis',(-1.,0.,0.));
#1039=DIRECTION('center_axis',(0.,0.,1.));
#1040=DIRECTION('ref_axis',(1.,0.,0.));
#1041=DIRECTION('',(-1.48029736616688E-16,1.,0.));
#1042=DIRECTION('center_axis',(0.,0.,1.));
#1043=DIRECTION('ref_axis',(0.88916764271961,-0.457581580857941,0.));
#1044=DIRECTION('',(0.813733471206735,0.581238193719096,0.));
#1045=DIRECTION('',(0.,1.,0.));
#1046=DIRECTION('',(-1.,0.,0.));
#1047=DIRECTION('center_axis',(0.,0.,1.));
#1048=DIRECTION('ref_axis',(0.707106781186548,0.707106781186548,0.));
#1049=DIRECTION('',(0.,1.,0.));
#1050=DIRECTION('',(1.,0.,0.));
#1051=DIRECTION('',(-8.88178419700127E-16,-1.,0.));
#1052=DIRECTION('center_axis',(0.,0.,1.));
#1053=DIRECTION('ref_axis',(-0.707106781186543,0.707106781186552,0.));
#1054=DIRECTION('',(-1.,4.44089209850062E-15,0.));
#1055=DIRECTION('',(3.5527136788005E-16,-1.,0.));
#1056=DIRECTION('center_axis',(0.,0.,1.));
#1057=DIRECTION('ref_axis',(0.,-1.,0.));
#1058=DIRECTION('',(-1.,-7.10542735760101E-16,0.));
#1059=DIRECTION('',(-0.813733471206735,-0.581238193719096,0.));
#1060=DIRECTION('',(2.07241631263362E-16,-1.,0.));
#1061=DIRECTION('center_axis',(0.,0.,-1.));
#1062=DIRECTION('ref_axis',(0.707106781186549,-0.707106781186546,0.));
#1063=DIRECTION('',(-1.90881789369163E-16,-1.,0.));
#1064=DIRECTION('center_axis',(0.,0.,-1.));
#1065=DIRECTION('ref_axis',(0.707106781186548,0.707106781186547,0.));
#1066=DIRECTION('',(1.,-2.22044604925031E-16,0.));
#1067=DIRECTION('center_axis',(0.,0.,-1.));
#1068=DIRECTION('ref_axis',(-0.707106781186548,0.707106781186548,0.));
#1069=DIRECTION('',(0.,1.,0.));
#1070=DIRECTION('center_axis',(0.,0.,-1.));
#1071=DIRECTION('ref_axis',(-0.707106781186548,-0.707106781186547,0.));
#1072=DIRECTION('',(-1.,-4.44089209850063E-16,0.));
#1073=DIRECTION('center_axis',(0.,0.,-1.));
#1074=DIRECTION('ref_axis',(0.707106781186546,-0.707106781186549,0.));
#1075=DIRECTION('',(-7.06417258967728E-16,-1.,0.));
#1076=DIRECTION('center_axis',(0.,0.,-1.));
#1077=DIRECTION('ref_axis',(0.707106781186549,0.707106781186546,0.));
#1078=DIRECTION('',(1.,0.,0.));
#1079=DIRECTION('center_axis',(0.,0.,-1.));
#1080=DIRECTION('ref_axis',(-0.707106781186548,0.707106781186548,0.));
#1081=DIRECTION('',(-1.41283451793546E-15,1.,0.));
#1082=DIRECTION('center_axis',(0.,0.,-1.));
#1083=DIRECTION('ref_axis',(-0.707106781186551,-0.707106781186544,0.));
#1084=DIRECTION('',(-1.,0.,0.));
#1085=DIRECTION('center_axis',(0.,0.,-1.));
#1086=DIRECTION('ref_axis',(-1.,0.,0.));
#1087=DIRECTION('center_axis',(0.,0.,-1.));
#1088=DIRECTION('ref_axis',(-1.,0.,0.));
#1089=DIRECTION('center_axis',(0.,0.,-1.));
#1090=DIRECTION('ref_axis',(-1.,0.,0.));
#1091=DIRECTION('center_axis',(0.,0.,-1.));
#1092=DIRECTION('ref_axis',(-1.,0.,0.));
#1093=DIRECTION('center_axis',(1.,1.48029736616688E-16,0.));
#1094=DIRECTION('ref_axis',(-1.48029736616688E-16,1.,0.));
#1095=DIRECTION('',(0.,0.,1.));
#1096=DIRECTION('',(-1.48029736616688E-16,1.,0.));
#1097=DIRECTION('center_axis',(-1.,-1.48029736616688E-16,0.));
#1098=DIRECTION('ref_axis',(2.32800553143017E-16,-1.,-2.54088460024276E-16));
#1099=DIRECTION('',(0.,0.,1.));
#1100=DIRECTION('center_axis',(0.,0.,1.));
#1101=DIRECTION('ref_axis',(-0.707106781186543,0.707106781186552,0.));
#1102=DIRECTION('center_axis',(0.,0.,-1.));
#1103=DIRECTION('ref_axis',(-0.707106781186543,0.707106781186552,0.));
#1104=DIRECTION('',(0.,0.,-1.));
#1105=DIRECTION('',(0.,0.,1.));
#1106=DIRECTION('center_axis',(-1.,8.88178419700127E-16,0.));
#1107=DIRECTION('ref_axis',(-8.88178419700127E-16,-1.,0.));
#1108=DIRECTION('',(0.,0.,1.));
#1109=DIRECTION('',(-8.88178419700127E-16,-1.,0.));
#1110=DIRECTION('center_axis',(0.,0.,1.));
#1111=DIRECTION('ref_axis',(0.707106781186548,0.707106781186548,0.));
#1112=DIRECTION('center_axis',(0.,0.,-1.));
#1113=DIRECTION('ref_axis',(0.707106781186548,0.707106781186548,0.));
#1114=DIRECTION('',(0.,0.,-1.));
#1115=DIRECTION('',(0.,0.,1.));
#1116=DIRECTION('center_axis',(1.,0.,0.));
#1117=DIRECTION('ref_axis',(0.,1.,0.));
#1118=DIRECTION('',(0.,1.,0.));
#1119=DIRECTION('',(0.,0.,1.));
#1120=DIRECTION('center_axis',(0.,0.,1.));
#1121=DIRECTION('ref_axis',(1.,0.,0.));
#1122=DIRECTION('',(-1.,-1.48029736616688E-16,0.));
#1123=DIRECTION('',(-2.07241631263362E-16,1.,0.));
#1124=DIRECTION('',(0.813733471206735,0.581238193719096,0.));
#1125=DIRECTION('',(1.,7.10542735760101E-16,0.));
#1126=DIRECTION('',(-3.5527136788005E-16,1.,0.));
#1127=DIRECTION('',(1.,-4.44089209850062E-15,0.));
#1128=DIRECTION('',(1.,0.,0.));
#1129=DIRECTION('',(-1.,0.,0.));
#1130=DIRECTION('',(0.,-1.,0.));
#1131=DIRECTION('',(-0.813733471206735,-0.581238193719097,0.));
#1132=DIRECTION('',(-1.,-4.44089209850063E-16,0.));
#1133=DIRECTION('center_axis',(0.,0.,1.));
#1134=DIRECTION('ref_axis',(-0.707106781186548,-0.707106781186547,0.));
#1135=DIRECTION('',(0.,1.,0.));
#1136=DIRECTION('center_axis',(0.,0.,1.));
#1137=DIRECTION('ref_axis',(-0.707106781186548,0.707106781186548,0.));
#1138=DIRECTION('',(1.,-2.22044604925031E-16,0.));
#1139=DIRECTION('center_axis',(0.,0.,1.));
#1140=DIRECTION('ref_axis',(0.707106781186548,0.707106781186547,0.));
#1141=DIRECTION('',(-1.90881789369163E-16,-1.,0.));
#1142=DIRECTION('center_axis',(0.,0.,1.));
#1143=DIRECTION('ref_axis',(0.707106781186549,-0.707106781186546,0.));
#1144=DIRECTION('',(-1.,0.,0.));
#1145=DIRECTION('center_axis',(0.,0.,1.));
#1146=DIRECTION('ref_axis',(-0.707106781186551,-0.707106781186544,0.));
#1147=DIRECTION('',(-1.41283451793546E-15,1.,0.));
#1148=DIRECTION('center_axis',(0.,0.,1.));
#1149=DIRECTION('ref_axis',(-0.707106781186548,0.707106781186548,0.));
#1150=DIRECTION('',(1.,0.,0.));
#1151=DIRECTION('center_axis',(0.,0.,1.));
#1152=DIRECTION('ref_axis',(0.707106781186549,0.707106781186546,0.));
#1153=DIRECTION('',(-7.06417258967728E-16,-1.,0.));
#1154=DIRECTION('center_axis',(0.,0.,1.));
#1155=DIRECTION('ref_axis',(0.707106781186546,-0.707106781186549,0.));
#1156=DIRECTION('center_axis',(0.,0.,-1.));
#1157=DIRECTION('ref_axis',(-1.,0.,0.));
#1158=DIRECTION('center_axis',(0.,0.,-1.));
#1159=DIRECTION('ref_axis',(-1.,0.,0.));
#1160=DIRECTION('center_axis',(0.,0.,-1.));
#1161=DIRECTION('ref_axis',(-1.,0.,0.));
#1162=DIRECTION('center_axis',(0.,0.,-1.));
#1163=DIRECTION('ref_axis',(-1.,0.,0.));
#1164=DIRECTION('center_axis',(0.,0.,-1.));
#1165=DIRECTION('ref_axis',(-1.,0.,0.));
#1166=DIRECTION('center_axis',(0.,0.,-1.));
#1167=DIRECTION('ref_axis',(-1.,0.,0.));
#1168=DIRECTION('center_axis',(0.,0.,1.));
#1169=DIRECTION('ref_axis',(-0.707106781186551,-0.707106781186544,0.));
#1170=DIRECTION('',(0.,0.,1.));
#1171=DIRECTION('',(0.,0.,-1.));
#1172=DIRECTION('center_axis',(1.,1.41283451793546E-15,0.));
#1173=DIRECTION('ref_axis',(-1.41283451793546E-15,1.,0.));
#1174=DIRECTION('',(0.,0.,-1.));
#1175=DIRECTION('center_axis',(0.,0.,1.));
#1176=DIRECTION('ref_axis',(-0.707106781186548,0.707106781186548,0.));
#1177=DIRECTION('',(0.,0.,1.));
#1178=DIRECTION('center_axis',(0.,-1.,0.));
#1179=DIRECTION('ref_axis',(1.,0.,0.));
#1180=DIRECTION('',(0.,0.,-1.));
#1181=DIRECTION('center_axis',(0.,0.,1.));
#1182=DIRECTION('ref_axis',(0.707106781186546,-0.707106781186549,0.));
#1183=DIRECTION('',(0.,0.,1.));
#1184=DIRECTION('',(0.,0.,-1.));
#1185=DIRECTION('center_axis',(0.,1.,0.));
#1186=DIRECTION('ref_axis',(-1.,0.,0.));
#1187=DIRECTION('center_axis',(0.,0.,1.));
#1188=DIRECTION('ref_axis',(0.707106781186549,0.707106781186546,0.));
#1189=DIRECTION('',(0.,0.,1.));
#1190=DIRECTION('center_axis',(-1.,7.06417258967728E-16,0.));
#1191=DIRECTION('ref_axis',(-7.06417258967728E-16,-1.,0.));
#1192=DIRECTION('center_axis',(0.,0.,1.));
#1193=DIRECTION('ref_axis',(-0.707106781186548,-0.707106781186547,0.));
#1194=DIRECTION('',(0.,0.,1.));
#1195=DIRECTION('',(0.,0.,-1.));
#1196=DIRECTION('center_axis',(1.,0.,0.));
#1197=DIRECTION('ref_axis',(0.,1.,0.));
#1198=DIRECTION('',(0.,0.,-1.));
#1199=DIRECTION('center_axis',(0.,0.,1.));
#1200=DIRECTION('ref_axis',(0.707106781186549,-0.707106781186546,0.));
#1201=DIRECTION('',(0.,0.,1.));
#1202=DIRECTION('',(0.,0.,-1.));
#1203=DIRECTION('center_axis',(-4.44089209850063E-16,1.,0.));
#1204=DIRECTION('ref_axis',(-1.,-4.44089209850063E-16,0.));
#1205=DIRECTION('center_axis',(0.,0.,1.));
#1206=DIRECTION('ref_axis',(0.707106781186548,0.707106781186547,0.));
#1207=DIRECTION('',(0.,0.,1.));
#1208=DIRECTION('',(0.,0.,-1.));
#1209=DIRECTION('center_axis',(-1.,1.90881789369163E-16,0.));
#1210=DIRECTION('ref_axis',(-1.90881789369163E-16,-1.,0.));
#1211=DIRECTION('center_axis',(0.,0.,1.));
#1212=DIRECTION('ref_axis',(-0.707106781186548,0.707106781186548,0.));
#1213=DIRECTION('',(0.,0.,1.));
#1214=DIRECTION('center_axis',(-2.22044604925031E-16,-1.,0.));
#1215=DIRECTION('ref_axis',(1.,-2.22044604925031E-16,0.));
#1216=DIRECTION('center_axis',(-4.44089209850063E-16,1.,0.));
#1217=DIRECTION('ref_axis',(-1.,-4.44089209850063E-16,0.));
#1218=DIRECTION('',(0.,0.,-1.));
#1219=DIRECTION('center_axis',(-0.150172138174855,-0.988659865128545,0.));
#1220=DIRECTION('ref_axis',(0.988659865128545,-0.150172138174855,-4.83534718851878E-17));
#1221=DIRECTION('center_axis',(0.717219841554142,0.696846969485447,0.));
#1222=DIRECTION('ref_axis',(0.696846969485447,-0.717219841554142,-4.83534718851879E-17));
#1223=DIRECTION('center_axis',(0.,-1.,0.));
#1224=DIRECTION('ref_axis',(0.968245836551854,0.,0.25));
#1225=DIRECTION('center_axis',(0.,-1.,0.));
#1226=DIRECTION('ref_axis',(0.968245836551854,0.,0.25));
#1227=DIRECTION('center_axis',(-0.813733471206735,-0.581238193719097,0.));
#1228=DIRECTION('ref_axis',(0.562781461113436,-0.787894045558809,0.25));
#1229=DIRECTION('center_axis',(-0.258543844997508,-0.879049072991533,0.400534402375915));
#1230=DIRECTION('ref_axis',(-0.476731294622795,0.476731294622795,0.738548945875998));
#1231=DIRECTION('center_axis',(-3.5527136788005E-16,1.,0.));
#1232=DIRECTION('ref_axis',(-0.968245836551854,0.,0.25));
#1233=DIRECTION('center_axis',(-1.,-7.10542735760101E-16,0.));
#1234=DIRECTION('ref_axis',(0.,0.968245836551854,0.25));
#1235=DIRECTION('center_axis',(1.,7.10542735760101E-16,0.));
#1236=DIRECTION('ref_axis',(0.,0.968245836551854,0.25));
#1237=DIRECTION('center_axis',(0.84191567988304,0.539609106638387,0.));
#1238=DIRECTION('ref_axis',(-0.539609106638387,0.84191567988304,2.62888361043496E-16));
#1239=DIRECTION('center_axis',(-0.998736391111476,-0.0502555575993856,0.));
#1240=DIRECTION('ref_axis',(-0.0502555575993856,0.998736391111476,2.62888361043495E-16));
#1241=DIRECTION('center_axis',(0.813733471206735,0.581238193719096,0.));
#1242=DIRECTION('ref_axis',(-0.562781461113435,0.78789404555881,0.25));
#1243=DIRECTION('center_axis',(0.942814385804637,-0.333318217203659,0.));
#1244=DIRECTION('ref_axis',(0.333318217203659,0.942814385804637,-3.97919436542305E-17));
#1245=DIRECTION('center_axis',(-1.,-2.07241631263362E-16,0.));
#1246=DIRECTION('ref_axis',(-2.07241631263362E-16,1.,-5.64641022276168E-17));
#1247=DIRECTION('center_axis',(-1.,-2.07241631263362E-16,0.));
#1248=DIRECTION('ref_axis',(2.07241631263362E-16,-1.,0.));
#1249=DIRECTION('center_axis',(0.,0.,1.));
#1250=DIRECTION('ref_axis',(0.88916764271961,-0.457581580857941,0.));
#1251=DIRECTION('center_axis',(-3.5527136788005E-16,1.,0.));
#1252=DIRECTION('ref_axis',(-0.968245836551854,0.,0.25));
#1253=DIRECTION('center_axis',(-4.44089209850062E-15,-1.,0.));
#1254=DIRECTION('ref_axis',(-0.968245836551854,0.,0.25));
#1255=DIRECTION('center_axis',(0.,0.,1.));
#1256=DIRECTION('ref_axis',(-1.,0.,0.));
#1257=DIRECTION('',(0.,0.,-1.));
#1258=DIRECTION('center_axis',(0.,0.,1.));
#1259=DIRECTION('ref_axis',(-1.,0.,0.));
#1260=DIRECTION('',(0.,0.,-1.));
#1261=DIRECTION('center_axis',(0.,0.,1.));
#1262=DIRECTION('ref_axis',(-1.,0.,0.));
#1263=DIRECTION('',(0.,0.,-1.));
#1264=DIRECTION('center_axis',(0.,0.,1.));
#1265=DIRECTION('ref_axis',(-1.,0.,0.));
#1266=DIRECTION('',(0.,0.,-1.));
#1267=DIRECTION('center_axis',(0.,0.,1.));
#1268=DIRECTION('ref_axis',(-1.,0.,0.));
#1269=DIRECTION('',(0.,0.,-1.));
#1270=DIRECTION('center_axis',(0.,0.,1.));
#1271=DIRECTION('ref_axis',(-1.,0.,0.));
#1272=DIRECTION('',(0.,0.,-1.));
#1273=DIRECTION('center_axis',(0.,1.,0.));
#1274=DIRECTION('ref_axis',(-1.,0.,0.));
#1275=DIRECTION('center_axis',(0.,-1.,0.));
#1276=DIRECTION('ref_axis',(1.,0.,0.));
#1277=DIRECTION('center_axis',(4.44089209850062E-15,1.,0.));
#1278=DIRECTION('ref_axis',(-1.,4.44089209850062E-15,0.));
#1279=CARTESIAN_POINT('',(0.,0.,0.));
#1280=CARTESIAN_POINT('Origin',(9.86076131526265E-31,0.,0.));
#1281=CARTESIAN_POINT('',(-30.,-4.44089209850063E-15,1.5));
#1282=CARTESIAN_POINT('',(-30.,-4.44089209850063E-15,0.));
#1283=CARTESIAN_POINT('',(-30.,-6.66133814775094E-15,-6.34413156928662E-14));
#1284=CARTESIAN_POINT('',(9.86076131526265E-31,0.,1.5));
#1285=CARTESIAN_POINT('',(9.86076131526265E-31,0.,1.5));
#1286=CARTESIAN_POINT('',(9.86076131526265E-31,0.,0.));
#1287=CARTESIAN_POINT('',(0.,0.,8.88178419700125E-14));
#1288=CARTESIAN_POINT('',(-26.,-3.84877315203388E-15,0.));
#1289=CARTESIAN_POINT('Origin',(9.86076131526265E-31,0.,1.5));
#1290=CARTESIAN_POINT('',(-30.,22.5,1.5));
#1291=CARTESIAN_POINT('',(-30.,21.4285714285714,1.5));
#1292=CARTESIAN_POINT('',(-3.33066907387547E-15,22.5,1.5));
#1293=CARTESIAN_POINT('',(-2.5,22.5,1.5));
#1294=CARTESIAN_POINT('',(4.44089209850063E-15,-30.,1.5));
#1295=CARTESIAN_POINT('',(-3.49999999999999,16.75,1.5));
#1296=CARTESIAN_POINT('Origin',(-4.99999999999999,16.75,1.5));
#1297=CARTESIAN_POINT('',(-23.5,16.75,1.5));
#1298=CARTESIAN_POINT('Origin',(-25.,16.75,1.5));
#1299=CARTESIAN_POINT('Origin',(-52.,0.,0.));
#1300=CARTESIAN_POINT('',(8.57706919100813E-15,-57.9415284188328,0.));
#1301=CARTESIAN_POINT('',(8.88178419700125E-15,-60.,0.));
#1302=CARTESIAN_POINT('',(-1.6750472251236,-61.1964623036597,0.));
#1303=CARTESIAN_POINT('Origin',(-3.99999999999999,-57.9415284188328,0.));
#1304=CARTESIAN_POINT('',(-68.3781424982463,-108.84153035589,0.));
#1305=CARTESIAN_POINT('',(-70.,-110.,0.));
#1306=CARTESIAN_POINT('',(-70.,-111.993106538125,0.));
#1307=CARTESIAN_POINT('Ctrl Pts',(-70.,-111.993106538125,-2.06331052095675E-16));
#1308=CARTESIAN_POINT('Ctrl Pts',(-70.,-111.481398837477,-1.99031248602892E-16));
#1309=CARTESIAN_POINT('Ctrl Pts',(-69.9018375218022,-110.974874129294,9.69005607925167E-16));
#1310=CARTESIAN_POINT('Ctrl Pts',(-69.569001445065,-110.172469552018,9.73144480299044E-16));
#1311=CARTESIAN_POINT('Ctrl Pts',(-69.387122297931,-109.864853653339,2.43138842392909E-13));
#1312=CARTESIAN_POINT('Ctrl Pts',(-68.9384884666766,-109.302403360697,2.43138842392909E-13));
#1313=CARTESIAN_POINT('Ctrl Pts',(-68.6733324090485,-109.052380292177,-1.23533128151724E-16));
#1314=CARTESIAN_POINT('Ctrl Pts',(-68.3781424982463,-108.84153035589,-1.2405782521887E-16));
#1315=CARTESIAN_POINT('',(-70.,-125.,0.));
#1316=CARTESIAN_POINT('',(-70.,-125.,0.));
#1317=CARTESIAN_POINT('',(-69.,-125.,0.));
#1318=CARTESIAN_POINT('',(-66.,-125.,0.));
#1319=CARTESIAN_POINT('',(-66.,-128.,0.));
#1320=CARTESIAN_POINT('Origin',(-69.,-128.,0.));
#1321=CARTESIAN_POINT('',(-66.,-145.,0.));
#1322=CARTESIAN_POINT('',(-66.,-145.,0.));
#1323=CARTESIAN_POINT('',(-104.,-145.,0.));
#1324=CARTESIAN_POINT('',(-104.,-145.,0.));
#1325=CARTESIAN_POINT('',(-104.,-128.,0.));
#1326=CARTESIAN_POINT('',(-104.,-125.,0.));
#1327=CARTESIAN_POINT('',(-101.,-125.,0.));
#1328=CARTESIAN_POINT('Origin',(-101.,-128.,0.));
#1329=CARTESIAN_POINT('',(-99.9999999999999,-125.,0.));
#1330=CARTESIAN_POINT('',(-99.9999999999999,-125.,0.));
#1331=CARTESIAN_POINT('',(-100.,-78.8729833462074,0.));
#1332=CARTESIAN_POINT('',(-100.,-75.,0.));
#1333=CARTESIAN_POINT('',(-96.1270166537926,-75.,0.));
#1334=CARTESIAN_POINT('Origin',(-96.1270166537926,-78.8729833462074,0.));
#1335=CARTESIAN_POINT('',(-76.2411558148927,-75.,0.));
#1336=CARTESIAN_POINT('',(-75.,-75.,0.));
#1337=CARTESIAN_POINT('',(-73.9900299704389,-74.2785928360278,0.));
#1338=CARTESIAN_POINT('Ctrl Pts',(-73.9900299704389,-74.2785928360278,1.75113592219701E-16));
#1339=CARTESIAN_POINT('Ctrl Pts',(-74.3166435853577,-74.5118882752555,1.75812733977868E-16));
#1340=CARTESIAN_POINT('Ctrl Pts',(-74.6765441841397,-74.6932545324535,-1.11022373556473E-15));
#1341=CARTESIAN_POINT('Ctrl Pts',(-75.441248389165,-74.9383568798625,-1.11022231346083E-15));
#1342=CARTESIAN_POINT('Ctrl Pts',(-75.8396523288464,-75.,-2.86882351416386E-16));
#1343=CARTESIAN_POINT('Ctrl Pts',(-76.2411558148927,-75.,-2.86848657220195E-16));
#1344=CARTESIAN_POINT('',(-31.7488741555462,-44.1063386825331,0.));
#1345=CARTESIAN_POINT('',(-30.,-42.8571428571429,0.));
#1346=CARTESIAN_POINT('',(-30.,-40.7196889196385,0.));
#1347=CARTESIAN_POINT('Ctrl Pts',(-30.,-40.7196889196385,-5.19792825003451E-16));
#1348=CARTESIAN_POINT('Ctrl Pts',(-30.,-41.2567159242539,-5.20561114878702E-16));
#1349=CARTESIAN_POINT('Ctrl Pts',(-30.1055875207411,-41.7884313852876,-1.42088634099078E-9));
#1350=CARTESIAN_POINT('Ctrl Pts',(-30.4563583202615,-42.6454031050579,-1.42088637369105E-9));
#1351=CARTESIAN_POINT('Ctrl Pts',(-30.6533626454533,-42.9832200017061,-5.08204589522165E-13));
#1352=CARTESIAN_POINT('Ctrl Pts',(-31.1384997775307,-43.6002619275119,-5.08204589522165E-13));
#1353=CARTESIAN_POINT('Ctrl Pts',(-31.4266799263703,-43.8761999474074,-8.42101784743512E-17));
#1354=CARTESIAN_POINT('Ctrl Pts',(-31.7488741555462,-44.1063386825331,-8.42799801628112E-17));
#1355=CARTESIAN_POINT('',(-30.,42.8571428571429,0.));
#1356=CARTESIAN_POINT('',(-4.99999999999998,-38.857,0.));
#1357=CARTESIAN_POINT('',(-8.99999999999998,-42.857,0.));
#1358=CARTESIAN_POINT('Origin',(-8.99999999999998,-38.857,0.));
#1359=CARTESIAN_POINT('',(-4.99999999999998,-26.5,0.));
#1360=CARTESIAN_POINT('',(-4.99999999999998,-22.5,0.));
#1361=CARTESIAN_POINT('',(-8.99999999999998,-22.5,0.));
#1362=CARTESIAN_POINT('Origin',(-8.99999999999998,-26.5,0.));
#1363=CARTESIAN_POINT('',(-21.,-22.5,0.));
#1364=CARTESIAN_POINT('',(-25.,-22.5,0.));
#1365=CARTESIAN_POINT('',(-25.,-26.5,0.));
#1366=CARTESIAN_POINT('Origin',(-21.,-26.5,0.));
#1367=CARTESIAN_POINT('',(-25.,-38.857,0.));
#1368=CARTESIAN_POINT('',(-25.,-42.857,0.));
#1369=CARTESIAN_POINT('',(-21.,-42.857,0.));
#1370=CARTESIAN_POINT('Origin',(-21.,-38.857,0.));
#1371=CARTESIAN_POINT('',(-4.99999999999998,-42.857,0.));
#1372=CARTESIAN_POINT('',(-75.,-116.,0.));
#1373=CARTESIAN_POINT('',(-79.,-120.,0.));
#1374=CARTESIAN_POINT('Origin',(-79.,-116.,0.));
#1375=CARTESIAN_POINT('',(-75.,-111.427,0.));
#1376=CARTESIAN_POINT('',(-75.,-107.427,0.));
#1377=CARTESIAN_POINT('',(-79.,-107.427,0.));
#1378=CARTESIAN_POINT('Origin',(-79.,-111.427,0.));
#1379=CARTESIAN_POINT('',(-91.,-107.427,0.));
#1380=CARTESIAN_POINT('',(-95.,-107.427,0.));
#1381=CARTESIAN_POINT('',(-95.,-111.427,0.));
#1382=CARTESIAN_POINT('Origin',(-91.,-111.427,0.));
#1383=CARTESIAN_POINT('',(-95.,-116.,0.));
#1384=CARTESIAN_POINT('',(-95.,-120.,0.));
#1385=CARTESIAN_POINT('',(-91.,-120.,0.));
#1386=CARTESIAN_POINT('Origin',(-91.,-116.,0.));
#1387=CARTESIAN_POINT('',(-75.,-120.,0.));
#1388=CARTESIAN_POINT('',(-3.49999999999999,-16.75,0.));
#1389=CARTESIAN_POINT('Origin',(-4.99999999999999,-16.75,0.));
#1390=CARTESIAN_POINT('',(-23.5,-16.75,0.));
#1391=CARTESIAN_POINT('Origin',(-25.,-16.75,0.));
#1392=CARTESIAN_POINT('',(-67.5,-141.,0.));
#1393=CARTESIAN_POINT('Origin',(-69.,-141.,0.));
#1394=CARTESIAN_POINT('',(-99.5,-141.,0.));
#1395=CARTESIAN_POINT('Origin',(-101.,-141.,0.));
#1396=CARTESIAN_POINT('Origin',(8.88178419700125E-15,-60.,0.));
#1397=CARTESIAN_POINT('',(-3.33066907387547E-15,22.5,3.));
#1398=CARTESIAN_POINT('',(-3.33066907387547E-15,22.5,0.75));
#1399=CARTESIAN_POINT('',(8.17723322921361E-15,-55.2404767860121,3.));
#1400=CARTESIAN_POINT('',(8.88178419700125E-15,-60.,3.));
#1401=CARTESIAN_POINT('',(1.77635683940025E-14,-57.9415284188328,2.34201687722176));
#1402=CARTESIAN_POINT('Origin',(8.88178419700125E-15,-55.2404767860121,
-1.));
#1403=CARTESIAN_POINT('',(8.32667268468867E-15,-57.9415284188328,0.));
#1404=CARTESIAN_POINT('Origin',(-101.,-128.,0.));
#1405=CARTESIAN_POINT('',(-104.,-128.,3.));
#1406=CARTESIAN_POINT('',(-101.,-125.,3.));
#1407=CARTESIAN_POINT('Origin',(-101.,-128.,3.));
#1408=CARTESIAN_POINT('',(-101.,-125.,0.));
#1409=CARTESIAN_POINT('',(-104.,-128.,0.));
#1410=CARTESIAN_POINT('Origin',(-104.,-125.,0.));
#1411=CARTESIAN_POINT('',(-104.,-145.,3.));
#1412=CARTESIAN_POINT('',(-104.,-145.,0.));
#1413=CARTESIAN_POINT('',(-104.,-125.,3.));
#1414=CARTESIAN_POINT('Origin',(-69.,-128.,0.));
#1415=CARTESIAN_POINT('',(-69.,-125.,3.));
#1416=CARTESIAN_POINT('',(-66.,-128.,3.));
#1417=CARTESIAN_POINT('Origin',(-69.,-128.,3.));
#1418=CARTESIAN_POINT('',(-66.,-128.,0.));
#1419=CARTESIAN_POINT('',(-69.,-125.,0.));
#1420=CARTESIAN_POINT('Origin',(-66.,-145.,0.));
#1421=CARTESIAN_POINT('',(-66.,-145.,3.));
#1422=CARTESIAN_POINT('',(-66.,-145.,3.));
#1423=CARTESIAN_POINT('',(-66.,-145.,0.));
#1424=CARTESIAN_POINT('Origin',(-52.,0.,3.));
#1425=CARTESIAN_POINT('',(-30.,22.5,3.));
#1426=CARTESIAN_POINT('',(-26.,22.5,3.));
#1427=CARTESIAN_POINT('',(-30.,-41.9597149707015,3.));
#1428=CARTESIAN_POINT('',(-30.,21.4285714285715,3.));
#1429=CARTESIAN_POINT('',(-34.,-50.4738089282737,3.));
#1430=CARTESIAN_POINT('Ctrl Pts',(-34.,-50.4738089282737,3.));
#1431=CARTESIAN_POINT('Ctrl Pts',(-33.9952063693654,-50.46699521076,3.));
#1432=CARTESIAN_POINT('Ctrl Pts',(-33.9904124894602,-50.4601811389288,3.));
#1433=CARTESIAN_POINT('Ctrl Pts',(-32.5747661287426,-48.4479554621385,3.));
#1434=CARTESIAN_POINT('Ctrl Pts',(-31.2361035860134,-46.5419797692905,3.));
#1435=CARTESIAN_POINT('Ctrl Pts',(-30.244308449844,-43.8732091277549,3.));
#1436=CARTESIAN_POINT('Ctrl Pts',(-30.,-42.9495701817606,3.));
#1437=CARTESIAN_POINT('Ctrl Pts',(-30.,-41.9597149707015,3.));
#1438=CARTESIAN_POINT('',(-73.7588441851073,-78.8729833462074,3.));
#1439=CARTESIAN_POINT('',(-27.7488741555462,-46.0087190393781,3.));
#1440=CARTESIAN_POINT('',(-96.1270166537926,-78.8729833462074,3.));
#1441=CARTESIAN_POINT('',(-75.,-78.8729833462074,3.));
#1442=CARTESIAN_POINT('',(-96.1270166537925,-125.,3.));
#1443=CARTESIAN_POINT('',(-96.1270166537926,-75.,3.));
#1444=CARTESIAN_POINT('',(-76.0000000000002,-125.,3.));
#1445=CARTESIAN_POINT('',(-104.,-145.,3.));
#1446=CARTESIAN_POINT('',(-73.8729833462074,-125.,3.));
#1447=CARTESIAN_POINT('',(-66.,-125.,3.));
#1448=CARTESIAN_POINT('',(-73.8729833462074,-108.006893461875,3.));
#1449=CARTESIAN_POINT('',(-73.8729833462074,-125.,3.));
#1450=CARTESIAN_POINT('',(-72.2511258444537,-106.848423817765,3.));
#1451=CARTESIAN_POINT('',(-8.99999999999998,-42.857,3.));
#1452=CARTESIAN_POINT('',(-21.,-42.857,3.));
#1453=CARTESIAN_POINT('',(-4.99999999999998,-42.857,3.));
#1454=CARTESIAN_POINT('',(-25.,-38.857,3.));
#1455=CARTESIAN_POINT('Origin',(-21.,-38.857,3.));
#1456=CARTESIAN_POINT('',(-25.,-26.5,3.));
#1457=CARTESIAN_POINT('',(-25.,-42.857,3.));
#1458=CARTESIAN_POINT('',(-21.,-22.5,3.));
#1459=CARTESIAN_POINT('Origin',(-21.,-26.5,3.));
#1460=CARTESIAN_POINT('',(-8.99999999999998,-22.5,3.));
#1461=CARTESIAN_POINT('',(-25.,-22.5,3.));
#1462=CARTESIAN_POINT('',(-4.99999999999998,-26.5,3.));
#1463=CARTESIAN_POINT('Origin',(-8.99999999999998,-26.5,3.));
#1464=CARTESIAN_POINT('',(-4.99999999999998,-38.857,3.));
#1465=CARTESIAN_POINT('',(-4.99999999999998,-22.5,3.));
#1466=CARTESIAN_POINT('Origin',(-8.99999999999998,-38.857,3.));
#1467=CARTESIAN_POINT('',(-79.,-120.,3.));
#1468=CARTESIAN_POINT('',(-91.,-120.,3.));
#1469=CARTESIAN_POINT('',(-75.,-120.,3.));
#1470=CARTESIAN_POINT('',(-95.,-116.,3.));
#1471=CARTESIAN_POINT('Origin',(-91.,-116.,3.));
#1472=CARTESIAN_POINT('',(-95.,-111.427,3.));
#1473=CARTESIAN_POINT('',(-95.,-120.,3.));
#1474=CARTESIAN_POINT('',(-91.,-107.427,3.));
#1475=CARTESIAN_POINT('Origin',(-91.,-111.427,3.));
#1476=CARTESIAN_POINT('',(-79.,-107.427,3.));
#1477=CARTESIAN_POINT('',(-95.,-107.427,3.));
#1478=CARTESIAN_POINT('',(-75.,-111.427,3.));
#1479=CARTESIAN_POINT('Origin',(-79.,-111.427,3.));
#1480=CARTESIAN_POINT('',(-75.,-116.,3.));
#1481=CARTESIAN_POINT('',(-75.,-107.427,3.));
#1482=CARTESIAN_POINT('Origin',(-79.,-116.,3.));
#1483=CARTESIAN_POINT('',(-3.49999999999999,16.75,3.));
#1484=CARTESIAN_POINT('Origin',(-4.99999999999999,16.75,3.));
#1485=CARTESIAN_POINT('',(-3.49999999999999,-16.75,3.));
#1486=CARTESIAN_POINT('Origin',(-4.99999999999999,-16.75,3.));
#1487=CARTESIAN_POINT('',(-23.5,16.75,3.));
#1488=CARTESIAN_POINT('Origin',(-25.,16.75,3.));
#1489=CARTESIAN_POINT('',(-23.5,-16.75,3.));
#1490=CARTESIAN_POINT('Origin',(-25.,-16.75,3.));
#1491=CARTESIAN_POINT('',(-67.5,-141.,3.));
#1492=CARTESIAN_POINT('Origin',(-69.,-141.,3.));
#1493=CARTESIAN_POINT('',(-99.5,-141.,3.));
#1494=CARTESIAN_POINT('Origin',(-101.,-141.,3.));
#1495=CARTESIAN_POINT('Origin',(-91.,-116.,0.));
#1496=CARTESIAN_POINT('',(-95.,-116.,0.));
#1497=CARTESIAN_POINT('',(-91.,-120.,0.));
#1498=CARTESIAN_POINT('Origin',(-95.,-120.,0.));
#1499=CARTESIAN_POINT('',(-95.,-111.427,0.));
#1500=CARTESIAN_POINT('Origin',(-91.,-111.427,0.));
#1501=CARTESIAN_POINT('',(-91.,-107.427,0.));
#1502=CARTESIAN_POINT('Origin',(-95.,-107.427,0.));
#1503=CARTESIAN_POINT('',(-79.,-107.427,0.));
#1504=CARTESIAN_POINT('Origin',(-79.,-116.,0.));
#1505=CARTESIAN_POINT('',(-79.,-120.,0.));
#1506=CARTESIAN_POINT('',(-75.,-116.,0.));
#1507=CARTESIAN_POINT('Origin',(-75.,-120.,0.));
#1508=CARTESIAN_POINT('Origin',(-79.,-111.427,0.));
#1509=CARTESIAN_POINT('',(-75.,-111.427,0.));
#1510=CARTESIAN_POINT('Origin',(-75.,-107.427,0.));
#1511=CARTESIAN_POINT('Origin',(-21.,-38.857,0.));
#1512=CARTESIAN_POINT('',(-25.,-38.857,0.));
#1513=CARTESIAN_POINT('',(-21.,-42.857,0.));
#1514=CARTESIAN_POINT('Origin',(-25.,-42.857,0.));
#1515=CARTESIAN_POINT('',(-25.,-26.5,0.));
#1516=CARTESIAN_POINT('Origin',(-8.99999999999998,-38.857,0.));
#1517=CARTESIAN_POINT('',(-8.99999999999998,-42.857,0.));
#1518=CARTESIAN_POINT('',(-4.99999999999998,-38.857,0.));
#1519=CARTESIAN_POINT('Origin',(-4.99999999999998,-42.857,0.));
#1520=CARTESIAN_POINT('Origin',(-8.99999999999998,-26.5,0.));
#1521=CARTESIAN_POINT('',(-4.99999999999998,-26.5,0.));
#1522=CARTESIAN_POINT('',(-8.99999999999998,-22.5,0.));
#1523=CARTESIAN_POINT('Origin',(-4.99999999999998,-22.5,0.));
#1524=CARTESIAN_POINT('Origin',(-21.,-26.5,0.));
#1525=CARTESIAN_POINT('',(-21.,-22.5,0.));
#1526=CARTESIAN_POINT('Origin',(-25.,-22.5,0.));
#1527=CARTESIAN_POINT('Origin',(-4.99999999999999,22.5,0.));
#1528=CARTESIAN_POINT('',(-30.,22.5,0.75));
#1529=CARTESIAN_POINT('Ctrl Pts',(-73.8729833462074,-108.006893461875,3.));
#1530=CARTESIAN_POINT('Ctrl Pts',(-72.8043589240897,-108.16921178796,3.));
#1531=CARTESIAN_POINT('Ctrl Pts',(-70.3087025237307,-108.548288628247,2.49107001778506));
#1532=CARTESIAN_POINT('Ctrl Pts',(-68.7343506389522,-108.787424247195,0.972388875024704));
#1533=CARTESIAN_POINT('Ctrl Pts',(-68.3781424982463,-108.84153035589,-2.77555756156289E-15));
#1534=CARTESIAN_POINT('Ctrl Pts',(-73.8729833462074,-108.006893461875,3.));
#1535=CARTESIAN_POINT('Ctrl Pts',(-72.9094973368617,-108.373515629186,3.));
#1536=CARTESIAN_POINT('Ctrl Pts',(-70.662075390603,-109.226121932315,2.30209442091943));
#1537=CARTESIAN_POINT('Ctrl Pts',(-69.5702588464908,-109.524989116115,0.695265776458332));
#1538=CARTESIAN_POINT('Ctrl Pts',(-69.3433140806894,-109.578922905747,-0.151226103516678));
#1539=CARTESIAN_POINT('Ctrl Pts',(-73.8729833462074,-108.006893461875,3.));
#1540=CARTESIAN_POINT('Ctrl Pts',(-73.0146357496337,-108.577819470413,3.));
#1541=CARTESIAN_POINT('Ctrl Pts',(-71.0145539904478,-109.911054584424,2.30209442091943));
#1542=CARTESIAN_POINT('Ctrl Pts',(-70.1367502835721,-110.625789228711,0.695265776458332));
#1543=CARTESIAN_POINT('Ctrl Pts',(-69.9609535879712,-110.779113402293,-0.151226103516678));
#1544=CARTESIAN_POINT('Ctrl Pts',(-73.8729833462074,-108.006893461875,3.));
#1545=CARTESIAN_POINT('Ctrl Pts',(-73.1197741624058,-108.782123311639,3.));
#1546=CARTESIAN_POINT('Ctrl Pts',(-71.3607358310167,-110.592588519314,2.49107001778506));
#1547=CARTESIAN_POINT('Ctrl Pts',(-70.2510697279338,-111.734696588204,0.972388875024702));
#1548=CARTESIAN_POINT('Ctrl Pts',(-70.,-111.993106538125,-3.33066907387547E-15));
#1549=CARTESIAN_POINT('Origin',(-73.8729833462074,-108.006893461875,-1.));
#1550=CARTESIAN_POINT('Origin',(-73.8729833462074,-108.006893461875,-1.));
#1551=CARTESIAN_POINT('Origin',(-73.8729833462074,-125.,-1.));
#1552=CARTESIAN_POINT('Origin',(-73.8729833462074,-125.,-1.));
#1553=CARTESIAN_POINT('Origin',(-72.2511258444537,-106.848423817765,-1.));
#1554=CARTESIAN_POINT('Ctrl Pts',(-1.67504722512361,-61.1964623036597,-3.00107161343988E-15));
#1555=CARTESIAN_POINT('Ctrl Pts',(-1.51448376200639,-61.0817741157188,-4.72347723708056E-15));
#1556=CARTESIAN_POINT('Ctrl Pts',(-1.38835233064538,-60.9752674553383,0.0528157397099899));
#1557=CARTESIAN_POINT('Ctrl Pts',(-1.16027330643789,-60.7629168408475,0.190518008601522));
#1558=CARTESIAN_POINT('Ctrl Pts',(-1.05946092413453,-60.6571434464981,0.277384156425608));
#1559=CARTESIAN_POINT('Ctrl Pts',(-0.773850315972091,-60.3242859056587,
0.564250949677893));
#1560=CARTESIAN_POINT('Ctrl Pts',(-0.609296041036407,-60.0852168419654,
0.788023003806108));
#1561=CARTESIAN_POINT('Ctrl Pts',(-0.182039826116171,-59.2802866628671,
1.48318493850102));
#1562=CARTESIAN_POINT('Ctrl Pts',(-0.000390148169906715,-58.6395283982143,
1.96817716272089));
#1563=CARTESIAN_POINT('Ctrl Pts',(-2.0904664778082E-7,-57.9430215158841,
2.34121766484864));
#1564=CARTESIAN_POINT('Ctrl Pts',(1.49896086896652E-14,-57.9422750497049,
2.34161730567837));
#1565=CARTESIAN_POINT('Ctrl Pts',(1.49880108324396E-14,-57.9415284188328,
2.34201687722176));
#1566=CARTESIAN_POINT('Origin',(-96.1270166537926,-78.8729833462074,-1.));
#1567=CARTESIAN_POINT('Origin',(-96.1270166537926,-78.8729833462074,-1.));
#1568=CARTESIAN_POINT('Origin',(-96.1270166537926,-78.8729833462074,-1.));
#1569=CARTESIAN_POINT('Origin',(-75.,-78.8729833462074,-1.));
#1570=CARTESIAN_POINT('Origin',(-73.7588441851073,-78.8729833462074,-1.));
#1571=CARTESIAN_POINT('Ctrl Pts',(-73.7588441851073,-78.8729833462074,3.));
#1572=CARTESIAN_POINT('Ctrl Pts',(-74.2415986277368,-78.1197741624058,3.));
#1573=CARTESIAN_POINT('Ctrl Pts',(-75.3690361210773,-76.3607095134701,2.49110980608426));
#1574=CARTESIAN_POINT('Ctrl Pts',(-76.0802376673495,-75.2510697279339,0.972388875024704));
#1575=CARTESIAN_POINT('Ctrl Pts',(-76.2411558148927,-75.,-1.94289029309402E-15));
#1576=CARTESIAN_POINT('Ctrl Pts',(-73.7588441851073,-78.8729833462074,3.));
#1577=CARTESIAN_POINT('Ctrl Pts',(-74.095667312575,-78.0730082756985,3.));
#1578=CARTESIAN_POINT('Ctrl Pts',(-74.8810885155328,-76.2112599680933,2.40615334850167));
#1579=CARTESIAN_POINT('Ctrl Pts',(-75.341257423168,-75.2047240650185,0.858638614900767));
#1580=CARTESIAN_POINT('Ctrl Pts',(-75.4438039822832,-74.9840297876486,-0.0618523664724122));
#1581=CARTESIAN_POINT('Ctrl Pts',(-73.7588441851073,-78.8729833462074,3.));
#1582=CARTESIAN_POINT('Ctrl Pts',(-73.9497359974132,-78.0262423889912,3.));
#1583=CARTESIAN_POINT('Ctrl Pts',(-74.392731699043,-76.0547586748145,2.40615334850167));
#1584=CARTESIAN_POINT('Ctrl Pts',(-74.6033139667083,-74.9682389758317,0.858638614900769));
#1585=CARTESIAN_POINT('Ctrl Pts',(-74.6481443423417,-74.7290486786398,-0.0618523664724125));
#1586=CARTESIAN_POINT('Ctrl Pts',(-73.7588441851073,-78.8729833462074,3.));
#1587=CARTESIAN_POINT('Ctrl Pts',(-73.8038046822514,-77.9794765022839,3.));
#1588=CARTESIAN_POINT('Ctrl Pts',(-73.9088066164093,-75.8927569872679,2.49110980608426));
#1589=CARTESIAN_POINT('Ctrl Pts',(-73.9750431380576,-74.576428450669,0.972388875024702));
#1590=CARTESIAN_POINT('Ctrl Pts',(-73.9900299704389,-74.2785928360278,-2.77555756156289E-15));
#1591=CARTESIAN_POINT('Origin',(-73.7588441851073,-78.8729833462074,-1.));
#1592=CARTESIAN_POINT('Origin',(-27.7488741555462,-46.0087190393781,-1.));
#1593=CARTESIAN_POINT('Origin',(-34.,-50.4738089282737,-1.));
#1594=CARTESIAN_POINT('Ctrl Pts',(-34.,-50.4738089282737,3.));
#1595=CARTESIAN_POINT('Ctrl Pts',(-33.679938477152,-49.5684920493608,3.));
#1596=CARTESIAN_POINT('Ctrl Pts',(-33.0406544352864,-47.7602314737983,2.76878238506692));
#1597=CARTESIAN_POINT('Ctrl Pts',(-32.1076443740215,-45.1211458719345,1.62658659535173));
#1598=CARTESIAN_POINT('Ctrl Pts',(-31.7532939659243,-44.1188404318882,0.319503607301554));
#1599=CARTESIAN_POINT('Ctrl Pts',(-31.6932824303903,-43.949093517092,-0.500000000000001));
#1600=CARTESIAN_POINT('Ctrl Pts',(-32.8032027986324,-50.4738089282737,3.));
#1601=CARTESIAN_POINT('Ctrl Pts',(-32.5443893570164,-49.5698046587986,3.09844335445915));
#1602=CARTESIAN_POINT('Ctrl Pts',(-32.0500390334208,-47.6964491564025,3.02494417439555));
#1603=CARTESIAN_POINT('Ctrl Pts',(-31.3797242653933,-44.8421365707322,1.94525777599305));
#1604=CARTESIAN_POINT('Ctrl Pts',(-31.1389124384221,-43.7227538862992,0.487560949973372));
#1605=CARTESIAN_POINT('Ctrl Pts',(-31.0981307247523,-43.5339370757975,-0.435722448400886));
#1606=CARTESIAN_POINT('Ctrl Pts',(-30.7310028846159,-50.4738089282737,4.00414156190673));
#1607=CARTESIAN_POINT('Ctrl Pts',(-30.6530949718206,-49.455786413173,4.15680908758792));
#1608=CARTESIAN_POINT('Ctrl Pts',(-30.5124292045646,-47.3197275420488,4.11015226261684));
#1609=CARTESIAN_POINT('Ctrl Pts',(-30.3338085879425,-44.0321731655899,2.75728211542202));
#1610=CARTESIAN_POINT('Ctrl Pts',(-30.274536727764,-42.7381190791987,0.901752054629721));
#1611=CARTESIAN_POINT('Ctrl Pts',(-30.2642352061989,-42.5199285276592,-0.278726240967182));
#1612=CARTESIAN_POINT('Ctrl Pts',(-30.,-50.4738089282737,6.10240209897435));
#1613=CARTESIAN_POINT('Ctrl Pts',(-30.0007969995443,-49.2206208902865,6.1474610189089));
#1614=CARTESIAN_POINT('Ctrl Pts',(-30.0005783850515,-46.6874027327827,5.8095390293772));
#1615=CARTESIAN_POINT('Ctrl Pts',(-30.0010647080675,-42.9395994777108,3.80362734034139));
#1616=CARTESIAN_POINT('Ctrl Pts',(-29.9999816105315,-41.5026919129826,1.41795411659192));
#1617=CARTESIAN_POINT('Ctrl Pts',(-30.,-41.259620353071,-0.0835961269545359));
#1618=CARTESIAN_POINT('Ctrl Pts',(-30.,-50.4738089282737,7.));
#1619=CARTESIAN_POINT('Ctrl Pts',(-30.,-49.1204059173736,7.00000000000001));
#1620=CARTESIAN_POINT('Ctrl Pts',(-30.,-46.4171476831993,6.53756477013384));
#1621=CARTESIAN_POINT('Ctrl Pts',(-30.,-42.4718479955647,4.25317319070346));
#1622=CARTESIAN_POINT('Ctrl Pts',(-30.,-40.9734519841822,1.63900721460311));
#1623=CARTESIAN_POINT('Ctrl Pts',(-30.,-40.7196889196385,-2.53269627492614E-15));
#1624=CARTESIAN_POINT('Origin',(-30.,-50.4738089282737,-1.));
#1625=CARTESIAN_POINT('Origin',(-30.,42.8571428571429,0.));
#1626=CARTESIAN_POINT('Origin',(-3.99999999999999,-57.9415284188328,0.));
#1627=CARTESIAN_POINT('Origin',(-96.1270166537926,-75.,-1.));
#1628=CARTESIAN_POINT('Origin',(-96.1270166537925,-125.,-1.));
#1629=CARTESIAN_POINT('Origin',(-4.99999999999999,16.75,0.));
#1630=CARTESIAN_POINT('',(-3.49999999999999,16.75,0.));
#1631=CARTESIAN_POINT('Origin',(-4.99999999999999,-16.75,0.));
#1632=CARTESIAN_POINT('',(-3.49999999999999,-16.75,0.));
#1633=CARTESIAN_POINT('Origin',(-25.,16.75,0.));
#1634=CARTESIAN_POINT('',(-23.5,16.75,0.));
#1635=CARTESIAN_POINT('Origin',(-25.,-16.75,0.));
#1636=CARTESIAN_POINT('',(-23.5,-16.75,0.));
#1637=CARTESIAN_POINT('Origin',(-69.,-141.,0.));
#1638=CARTESIAN_POINT('',(-67.5,-141.,0.));
#1639=CARTESIAN_POINT('Origin',(-101.,-141.,0.));
#1640=CARTESIAN_POINT('',(-99.5,-141.,0.));
#1641=CARTESIAN_POINT('Origin',(-66.,-125.,0.));
#1642=CARTESIAN_POINT('Origin',(-104.,-145.,0.));
#1643=CARTESIAN_POINT('Origin',(-99.9999999999999,-125.,0.));
#1644=UNCERTAINTY_MEASURE_WITH_UNIT(LENGTH_MEASURE(0.01),#1648,
'DISTANCE_ACCURACY_VALUE',
'Maximum model space distance between geometric entities at asserted c
onnectivities');
#1645=UNCERTAINTY_MEASURE_WITH_UNIT(LENGTH_MEASURE(0.01),#1648,
'DISTANCE_ACCURACY_VALUE',
'Maximum model space distance between geometric entities at asserted c
onnectivities');
#1646=(
GEOMETRIC_REPRESENTATION_CONTEXT(3)
GLOBAL_UNCERTAINTY_ASSIGNED_CONTEXT((#1644))
GLOBAL_UNIT_ASSIGNED_CONTEXT((#1648,#1650,#1651))
REPRESENTATION_CONTEXT('','3D')
);
#1647=(
GEOMETRIC_REPRESENTATION_CONTEXT(3)
GLOBAL_UNCERTAINTY_ASSIGNED_CONTEXT((#1645))
GLOBAL_UNIT_ASSIGNED_CONTEXT((#1648,#1650,#1651))
REPRESENTATION_CONTEXT('','3D')
);
#1648=(
LENGTH_UNIT()
NAMED_UNIT(*)
SI_UNIT(.MILLI.,.METRE.)
);
#1649=(
LENGTH_UNIT()
NAMED_UNIT(*)
SI_UNIT(.CENTI.,.METRE.)
);
#1650=(
NAMED_UNIT(*)
PLANE_ANGLE_UNIT()
SI_UNIT($,.RADIAN.)
);
#1651=(
NAMED_UNIT(*)
SI_UNIT($,.STERADIAN.)
SOLID_ANGLE_UNIT()
);
#1652=SHAPE_DEFINITION_REPRESENTATION(#1653,#1654);
#1653=PRODUCT_DEFINITION_SHAPE('',$,#1656);
#1654=SHAPE_REPRESENTATION('',(#933),#1646);
#1655=PRODUCT_DEFINITION_CONTEXT('part definition',#1660,'design');
#1656=PRODUCT_DEFINITION('nakladka_backpart1','nakladka_backpart1',#1657,
#1655);
#1657=PRODUCT_DEFINITION_FORMATION('',$,#1662);
#1658=PRODUCT_RELATED_PRODUCT_CATEGORY('nakladka_backpart1',
'nakladka_backpart1',(#1662));
#1659=APPLICATION_PROTOCOL_DEFINITION('international standard',
'automotive_design',2009,#1660);
#1660=APPLICATION_CONTEXT(
'Core Data for Automotive Mechanical Design Process');
#1661=PRODUCT_CONTEXT('part definition',#1660,'mechanical');
#1662=PRODUCT('nakladka_backpart1','nakladka_backpart1',$,(#1661));
#1663=PRESENTATION_STYLE_ASSIGNMENT((#1664));
#1664=SURFACE_STYLE_USAGE(.BOTH.,#1667);
#1665=SURFACE_STYLE_RENDERING_WITH_PROPERTIES($,#1671,(#1666));
#1666=SURFACE_STYLE_TRANSPARENT(0.);
#1667=SURFACE_SIDE_STYLE('',(#1668,#1665));
#1668=SURFACE_STYLE_FILL_AREA(#1669);
#1669=FILL_AREA_STYLE('',(#1670));
#1670=FILL_AREA_STYLE_COLOUR('',#1671);
#1671=COLOUR_RGB('',0.0392156862745098,0.0392156862745098,0.0392156862745098);
ENDSEC;
END-ISO-10303-21;
