ISO-10303-21;
HEADER;
/* Generated by software containing ST-Developer
 * from STEP Tools, Inc. (www.steptools.com) 
 */

FILE_DESCRIPTION(
/* description */ (''),
/* implementation_level */ '2;1');

FILE_NAME(
/* name */ 'nakladka.stp',
/* time_stamp */ '2026-04-21T00:14:34+02:00',
/* author */ ('ksawe'),
/* organization */ (''),
/* preprocessor_version */ 'ST-DEVELOPER v20',
/* originating_system */ 'Autodesk Inventor 2025',
/* authorisation */ '');

FILE_SCHEMA (('AUTOMOTIVE_DESIGN { 1 0 10303 214 3 1 1 }'));
ENDSEC;

DATA;
#10=MECHANICAL_DESIGN_GEOMETRIC_PRESENTATION_REPRESENTATION('',(#13),#1375);
#11=SHAPE_REPRESENTATION_RELATIONSHIP('SRR','None',#1382,#12);
#12=ADVANCED_BREP_SHAPE_REPRESENTATION('',(#14),#1374);
#13=STYLED_ITEM('',(#1391),#14);
#14=MANIFOLD_SOLID_BREP('Solid1',#805);
#15=FACE_BOUND('',#109,.T.);
#16=FACE_BOUND('',#110,.T.);
#17=FACE_BOUND('',#111,.T.);
#18=FACE_BOUND('',#112,.T.);
#19=FACE_BOUND('',#113,.T.);
#20=FACE_BOUND('',#114,.T.);
#21=FACE_BOUND('',#115,.T.);
#22=FACE_BOUND('',#116,.T.);
#23=FACE_BOUND('',#119,.T.);
#24=FACE_BOUND('',#120,.T.);
#25=FACE_BOUND('',#121,.T.);
#26=FACE_BOUND('',#122,.T.);
#27=FACE_BOUND('',#123,.T.);
#28=FACE_BOUND('',#124,.T.);
#29=FACE_BOUND('',#125,.T.);
#30=FACE_BOUND('',#126,.T.);
#31=FACE_BOUND('',#127,.T.);
#32=FACE_BOUND('',#128,.T.);
#33=PLANE('',#858);
#34=PLANE('',#868);
#35=PLANE('',#874);
#36=PLANE('',#875);
#37=PLANE('',#876);
#38=PLANE('',#877);
#39=PLANE('',#878);
#40=PLANE('',#879);
#41=PLANE('',#880);
#42=PLANE('',#881);
#43=PLANE('',#882);
#44=PLANE('',#883);
#45=PLANE('',#884);
#46=PLANE('',#885);
#47=PLANE('',#886);
#48=PLANE('',#887);
#49=PLANE('',#888);
#50=PLANE('',#889);
#51=SPHERICAL_SURFACE('',#854,3.);
#52=SPHERICAL_SURFACE('',#856,3.);
#53=B_SPLINE_CURVE_WITH_KNOTS('',3,(#1148,#1149,#1150,#1151,#1152,#1153,
#1154,#1155,#1156,#1157),.UNSPECIFIED.,.F.,.F.,(4,2,2,2,4),(0.729734853345591,
0.754925710151961,0.811604987279572,0.869067719303399,0.926530451327225),
 .UNSPECIFIED.);
#54=B_SPLINE_CURVE_WITH_KNOTS('',3,(#1159,#1160,#1161,#1162,#1163,#1164,
#1165,#1166,#1167,#1168),.UNSPECIFIED.,.F.,.F.,(4,2,2,2,4),(0.926530451327225,
0.983993183351051,1.04145591537488,1.09813519250249,1.12332604930886),
 .UNSPECIFIED.);
#55=B_SPLINE_CURVE_WITH_KNOTS('',3,(#1210,#1211,#1212,#1213,#1214,#1215,
#1216,#1217,#1218,#1219,#1220,#1221,#1222,#1223,#1224,#1225,#1226,#1227,
#1228),.UNSPECIFIED.,.F.,.F.,(4,2,2,2,3,2,2,2,4),(0.72974474860596,0.755251360667061,
0.812256288309771,0.869393659007168,0.926531029704565,0.983993761728391,
1.04145649375222,1.09813577087983,1.1233266276862),.UNSPECIFIED.);
#56=FACE_OUTER_BOUND('',#94,.T.);
#57=FACE_OUTER_BOUND('',#95,.T.);
#58=FACE_OUTER_BOUND('',#96,.T.);
#59=FACE_OUTER_BOUND('',#97,.T.);
#60=FACE_OUTER_BOUND('',#98,.T.);
#61=FACE_OUTER_BOUND('',#99,.T.);
#62=FACE_OUTER_BOUND('',#100,.T.);
#63=FACE_OUTER_BOUND('',#101,.T.);
#64=FACE_OUTER_BOUND('',#102,.T.);
#65=FACE_OUTER_BOUND('',#103,.T.);
#66=FACE_OUTER_BOUND('',#104,.T.);
#67=FACE_OUTER_BOUND('',#105,.T.);
#68=FACE_OUTER_BOUND('',#106,.T.);
#69=FACE_OUTER_BOUND('',#107,.T.);
#70=FACE_OUTER_BOUND('',#108,.T.);
#71=FACE_OUTER_BOUND('',#117,.T.);
#72=FACE_OUTER_BOUND('',#118,.T.);
#73=FACE_OUTER_BOUND('',#129,.T.);
#74=FACE_OUTER_BOUND('',#130,.T.);
#75=FACE_OUTER_BOUND('',#131,.T.);
#76=FACE_OUTER_BOUND('',#132,.T.);
#77=FACE_OUTER_BOUND('',#133,.T.);
#78=FACE_OUTER_BOUND('',#134,.T.);
#79=FACE_OUTER_BOUND('',#135,.T.);
#80=FACE_OUTER_BOUND('',#136,.T.);
#81=FACE_OUTER_BOUND('',#137,.T.);
#82=FACE_OUTER_BOUND('',#138,.T.);
#83=FACE_OUTER_BOUND('',#139,.T.);
#84=FACE_OUTER_BOUND('',#140,.T.);
#85=FACE_OUTER_BOUND('',#141,.T.);
#86=FACE_OUTER_BOUND('',#142,.T.);
#87=FACE_OUTER_BOUND('',#143,.T.);
#88=FACE_OUTER_BOUND('',#144,.T.);
#89=FACE_OUTER_BOUND('',#145,.T.);
#90=FACE_OUTER_BOUND('',#146,.T.);
#91=FACE_OUTER_BOUND('',#147,.T.);
#92=FACE_OUTER_BOUND('',#148,.T.);
#93=FACE_OUTER_BOUND('',#149,.T.);
#94=EDGE_LOOP('',(#525,#526,#527,#528));
#95=EDGE_LOOP('',(#529,#530,#531,#532));
#96=EDGE_LOOP('',(#533,#534,#535,#536));
#97=EDGE_LOOP('',(#537,#538,#539,#540));
#98=EDGE_LOOP('',(#541,#542,#543,#544));
#99=EDGE_LOOP('',(#545,#546,#547,#548,#549,#550,#551));
#100=EDGE_LOOP('',(#552,#553,#554,#555));
#101=EDGE_LOOP('',(#556,#557,#558,#559));
#102=EDGE_LOOP('',(#560,#561,#562,#563));
#103=EDGE_LOOP('',(#564,#565,#566,#567));
#104=EDGE_LOOP('',(#568,#569,#570,#571));
#105=EDGE_LOOP('',(#572,#573,#574,#575,#576,#577));
#106=EDGE_LOOP('',(#578,#579,#580));
#107=EDGE_LOOP('',(#581,#582,#583));
#108=EDGE_LOOP('',(#584,#585,#586,#587,#588,#589,#590,#591,#592,#593,#594,
#595,#596,#597,#598,#599,#600));
#109=EDGE_LOOP('',(#601,#602,#603,#604));
#110=EDGE_LOOP('',(#605,#606,#607,#608));
#111=EDGE_LOOP('',(#609,#610,#611,#612));
#112=EDGE_LOOP('',(#613,#614,#615,#616));
#113=EDGE_LOOP('',(#617));
#114=EDGE_LOOP('',(#618));
#115=EDGE_LOOP('',(#619));
#116=EDGE_LOOP('',(#620));
#117=EDGE_LOOP('',(#621,#622,#623,#624,#625,#626));
#118=EDGE_LOOP('',(#627,#628,#629,#630,#631,#632,#633,#634,#635,#636,#637,
#638,#639,#640));
#119=EDGE_LOOP('',(#641));
#120=EDGE_LOOP('',(#642));
#121=EDGE_LOOP('',(#643));
#122=EDGE_LOOP('',(#644));
#123=EDGE_LOOP('',(#645));
#124=EDGE_LOOP('',(#646));
#125=EDGE_LOOP('',(#647,#648,#649,#650));
#126=EDGE_LOOP('',(#651,#652,#653,#654));
#127=EDGE_LOOP('',(#655,#656,#657,#658));
#128=EDGE_LOOP('',(#659,#660,#661,#662));
#129=EDGE_LOOP('',(#663,#664,#665,#666));
#130=EDGE_LOOP('',(#667,#668,#669,#670));
#131=EDGE_LOOP('',(#671,#672,#673,#674));
#132=EDGE_LOOP('',(#675,#676,#677,#678));
#133=EDGE_LOOP('',(#679,#680,#681,#682));
#134=EDGE_LOOP('',(#683,#684,#685,#686));
#135=EDGE_LOOP('',(#687,#688,#689,#690));
#136=EDGE_LOOP('',(#691,#692,#693,#694));
#137=EDGE_LOOP('',(#695,#696,#697,#698));
#138=EDGE_LOOP('',(#699,#700,#701,#702));
#139=EDGE_LOOP('',(#703,#704,#705,#706));
#140=EDGE_LOOP('',(#707,#708,#709,#710));
#141=EDGE_LOOP('',(#711,#712,#713,#714));
#142=EDGE_LOOP('',(#715,#716,#717,#718));
#143=EDGE_LOOP('',(#719,#720,#721,#722));
#144=EDGE_LOOP('',(#723,#724,#725,#726));
#145=EDGE_LOOP('',(#727,#728,#729,#730,#731,#732));
#146=EDGE_LOOP('',(#733,#734,#735,#736));
#147=EDGE_LOOP('',(#737,#738,#739,#740));
#148=EDGE_LOOP('',(#741,#742,#743,#744));
#149=EDGE_LOOP('',(#745,#746,#747,#748));
#150=ELLIPSE('',#830,3.00299692913366,3.);
#151=ELLIPSE('',#832,3.00299692913366,3.);
#152=ELLIPSE('',#834,3.00299692913366,3.);
#153=ELLIPSE('',#836,3.00299692913366,3.);
#154=ELLIPSE('',#840,4.24264068711928,3.);
#155=ELLIPSE('',#843,3.00299692913366,3.);
#156=ELLIPSE('',#845,3.00299692913366,3.);
#157=ELLIPSE('',#847,3.00299692913366,3.);
#158=ELLIPSE('',#849,3.00299692913366,3.);
#159=ELLIPSE('',#851,4.24264068711929,3.);
#160=CIRCLE('',#829,3.);
#161=CIRCLE('',#838,3.);
#162=CIRCLE('',#841,3.00000000000001);
#163=CIRCLE('',#853,3.);
#164=CIRCLE('',#855,3.);
#165=CIRCLE('',#857,3.);
#166=CIRCLE('',#859,1.5);
#167=CIRCLE('',#860,1.5);
#168=CIRCLE('',#861,1.5);
#169=CIRCLE('',#862,1.5);
#170=CIRCLE('',#863,1.5);
#171=CIRCLE('',#864,1.5);
#172=CIRCLE('',#865,1.5);
#173=CIRCLE('',#867,1.5);
#174=CIRCLE('',#869,1.5);
#175=CIRCLE('',#870,1.5);
#176=CIRCLE('',#871,1.5);
#177=CIRCLE('',#872,1.5);
#178=CIRCLE('',#873,1.5);
#179=LINE('',#1115,#259);
#180=LINE('',#1119,#260);
#181=LINE('',#1123,#261);
#182=LINE('',#1126,#262);
#183=LINE('',#1129,#263);
#184=LINE('',#1132,#264);
#185=LINE('',#1135,#265);
#186=LINE('',#1138,#266);
#187=LINE('',#1141,#267);
#188=LINE('',#1144,#268);
#189=LINE('',#1170,#269);
#190=LINE('',#1174,#270);
#191=LINE('',#1176,#271);
#192=LINE('',#1179,#272);
#193=LINE('',#1181,#273);
#194=LINE('',#1185,#274);
#195=LINE('',#1187,#275);
#196=LINE('',#1191,#276);
#197=LINE('',#1193,#277);
#198=LINE('',#1197,#278);
#199=LINE('',#1199,#279);
#200=LINE('',#1203,#280);
#201=LINE('',#1206,#281);
#202=LINE('',#1229,#282);
#203=LINE('',#1232,#283);
#204=LINE('',#1233,#284);
#205=LINE('',#1245,#285);
#206=LINE('',#1247,#286);
#207=LINE('',#1249,#287);
#208=LINE('',#1250,#288);
#209=LINE('',#1253,#289);
#210=LINE('',#1255,#290);
#211=LINE('',#1257,#291);
#212=LINE('',#1258,#292);
#213=LINE('',#1261,#293);
#214=LINE('',#1263,#294);
#215=LINE('',#1265,#295);
#216=LINE('',#1266,#296);
#217=LINE('',#1269,#297);
#218=LINE('',#1271,#298);
#219=LINE('',#1273,#299);
#220=LINE('',#1274,#300);
#221=LINE('',#1285,#301);
#222=LINE('',#1300,#302);
#223=LINE('',#1302,#303);
#224=LINE('',#1304,#304);
#225=LINE('',#1305,#305);
#226=LINE('',#1308,#306);
#227=LINE('',#1310,#307);
#228=LINE('',#1312,#308);
#229=LINE('',#1313,#309);
#230=LINE('',#1316,#310);
#231=LINE('',#1318,#311);
#232=LINE('',#1320,#312);
#233=LINE('',#1321,#313);
#234=LINE('',#1324,#314);
#235=LINE('',#1326,#315);
#236=LINE('',#1328,#316);
#237=LINE('',#1329,#317);
#238=LINE('',#1331,#318);
#239=LINE('',#1332,#319);
#240=LINE('',#1334,#320);
#241=LINE('',#1336,#321);
#242=LINE('',#1339,#322);
#243=LINE('',#1340,#323);
#244=LINE('',#1342,#324);
#245=LINE('',#1344,#325);
#246=LINE('',#1347,#326);
#247=LINE('',#1348,#327);
#248=LINE('',#1350,#328);
#249=LINE('',#1352,#329);
#250=LINE('',#1355,#330);
#251=LINE('',#1356,#331);
#252=LINE('',#1358,#332);
#253=LINE('',#1360,#333);
#254=LINE('',#1363,#334);
#255=LINE('',#1365,#335);
#256=LINE('',#1367,#336);
#257=LINE('',#1369,#337);
#258=LINE('',#1371,#338);
#259=VECTOR('',#899,10.);
#260=VECTOR('',#902,10.);
#261=VECTOR('',#907,10.);
#262=VECTOR('',#910,10.);
#263=VECTOR('',#913,10.);
#264=VECTOR('',#916,10.);
#265=VECTOR('',#919,10.);
#266=VECTOR('',#922,10.);
#267=VECTOR('',#925,10.);
#268=VECTOR('',#928,10.);
#269=VECTOR('',#931,10.);
#270=VECTOR('',#934,10.);
#271=VECTOR('',#937,10.);
#272=VECTOR('',#940,10.);
#273=VECTOR('',#941,10.);
#274=VECTOR('',#946,10.);
#275=VECTOR('',#947,10.);
#276=VECTOR('',#952,10.);
#277=VECTOR('',#953,10.);
#278=VECTOR('',#958,10.);
#279=VECTOR('',#959,10.);
#280=VECTOR('',#964,10.);
#281=VECTOR('',#967,10.);
#282=VECTOR('',#970,10.);
#283=VECTOR('',#973,10.);
#284=VECTOR('',#974,10.);
#285=VECTOR('',#991,10.);
#286=VECTOR('',#992,10.);
#287=VECTOR('',#993,10.);
#288=VECTOR('',#994,10.);
#289=VECTOR('',#995,10.);
#290=VECTOR('',#996,10.);
#291=VECTOR('',#997,10.);
#292=VECTOR('',#998,10.);
#293=VECTOR('',#999,10.);
#294=VECTOR('',#1000,10.);
#295=VECTOR('',#1001,10.);
#296=VECTOR('',#1002,10.);
#297=VECTOR('',#1003,10.);
#298=VECTOR('',#1004,10.);
#299=VECTOR('',#1005,10.);
#300=VECTOR('',#1006,10.);
#301=VECTOR('',#1017,1.5);
#302=VECTOR('',#1032,10.);
#303=VECTOR('',#1033,10.);
#304=VECTOR('',#1034,10.);
#305=VECTOR('',#1035,10.);
#306=VECTOR('',#1036,10.);
#307=VECTOR('',#1037,10.);
#308=VECTOR('',#1038,10.);
#309=VECTOR('',#1039,10.);
#310=VECTOR('',#1040,10.);
#311=VECTOR('',#1041,10.);
#312=VECTOR('',#1042,10.);
#313=VECTOR('',#1043,10.);
#314=VECTOR('',#1044,10.);
#315=VECTOR('',#1045,10.);
#316=VECTOR('',#1046,10.);
#317=VECTOR('',#1047,10.);
#318=VECTOR('',#1050,10.);
#319=VECTOR('',#1051,10.);
#320=VECTOR('',#1054,10.);
#321=VECTOR('',#1057,10.);
#322=VECTOR('',#1062,10.);
#323=VECTOR('',#1063,10.);
#324=VECTOR('',#1066,10.);
#325=VECTOR('',#1069,10.);
#326=VECTOR('',#1074,10.);
#327=VECTOR('',#1075,10.);
#328=VECTOR('',#1078,10.);
#329=VECTOR('',#1081,10.);
#330=VECTOR('',#1086,10.);
#331=VECTOR('',#1087,10.);
#332=VECTOR('',#1090,10.);
#333=VECTOR('',#1093,10.);
#334=VECTOR('',#1098,1.5);
#335=VECTOR('',#1101,1.5);
#336=VECTOR('',#1104,1.5);
#337=VECTOR('',#1107,1.5);
#338=VECTOR('',#1110,1.5);
#339=VERTEX_POINT('',#1113);
#340=VERTEX_POINT('',#1114);
#341=VERTEX_POINT('',#1116);
#342=VERTEX_POINT('',#1118);
#343=VERTEX_POINT('',#1122);
#344=VERTEX_POINT('',#1124);
#345=VERTEX_POINT('',#1128);
#346=VERTEX_POINT('',#1130);
#347=VERTEX_POINT('',#1134);
#348=VERTEX_POINT('',#1136);
#349=VERTEX_POINT('',#1140);
#350=VERTEX_POINT('',#1142);
#351=VERTEX_POINT('',#1146);
#352=VERTEX_POINT('',#1147);
#353=VERTEX_POINT('',#1158);
#354=VERTEX_POINT('',#1169);
#355=VERTEX_POINT('',#1171);
#356=VERTEX_POINT('',#1173);
#357=VERTEX_POINT('',#1178);
#358=VERTEX_POINT('',#1180);
#359=VERTEX_POINT('',#1184);
#360=VERTEX_POINT('',#1186);
#361=VERTEX_POINT('',#1190);
#362=VERTEX_POINT('',#1192);
#363=VERTEX_POINT('',#1196);
#364=VERTEX_POINT('',#1198);
#365=VERTEX_POINT('',#1202);
#366=VERTEX_POINT('',#1204);
#367=VERTEX_POINT('',#1208);
#368=VERTEX_POINT('',#1209);
#369=VERTEX_POINT('',#1230);
#370=VERTEX_POINT('',#1239);
#371=VERTEX_POINT('',#1243);
#372=VERTEX_POINT('',#1244);
#373=VERTEX_POINT('',#1246);
#374=VERTEX_POINT('',#1248);
#375=VERTEX_POINT('',#1251);
#376=VERTEX_POINT('',#1252);
#377=VERTEX_POINT('',#1254);
#378=VERTEX_POINT('',#1256);
#379=VERTEX_POINT('',#1259);
#380=VERTEX_POINT('',#1260);
#381=VERTEX_POINT('',#1262);
#382=VERTEX_POINT('',#1264);
#383=VERTEX_POINT('',#1267);
#384=VERTEX_POINT('',#1268);
#385=VERTEX_POINT('',#1270);
#386=VERTEX_POINT('',#1272);
#387=VERTEX_POINT('',#1275);
#388=VERTEX_POINT('',#1277);
#389=VERTEX_POINT('',#1279);
#390=VERTEX_POINT('',#1281);
#391=VERTEX_POINT('',#1284);
#392=VERTEX_POINT('',#1288);
#393=VERTEX_POINT('',#1290);
#394=VERTEX_POINT('',#1292);
#395=VERTEX_POINT('',#1294);
#396=VERTEX_POINT('',#1296);
#397=VERTEX_POINT('',#1298);
#398=VERTEX_POINT('',#1299);
#399=VERTEX_POINT('',#1301);
#400=VERTEX_POINT('',#1303);
#401=VERTEX_POINT('',#1306);
#402=VERTEX_POINT('',#1307);
#403=VERTEX_POINT('',#1309);
#404=VERTEX_POINT('',#1311);
#405=VERTEX_POINT('',#1314);
#406=VERTEX_POINT('',#1315);
#407=VERTEX_POINT('',#1317);
#408=VERTEX_POINT('',#1319);
#409=VERTEX_POINT('',#1322);
#410=VERTEX_POINT('',#1323);
#411=VERTEX_POINT('',#1325);
#412=VERTEX_POINT('',#1327);
#413=EDGE_CURVE('',#339,#340,#179,.T.);
#414=EDGE_CURVE('',#339,#341,#160,.T.);
#415=EDGE_CURVE('',#341,#342,#180,.T.);
#416=EDGE_CURVE('',#342,#340,#150,.T.);
#417=EDGE_CURVE('',#342,#343,#181,.T.);
#418=EDGE_CURVE('',#343,#344,#151,.T.);
#419=EDGE_CURVE('',#340,#344,#182,.T.);
#420=EDGE_CURVE('',#343,#345,#183,.T.);
#421=EDGE_CURVE('',#345,#346,#152,.T.);
#422=EDGE_CURVE('',#344,#346,#184,.T.);
#423=EDGE_CURVE('',#345,#347,#185,.T.);
#424=EDGE_CURVE('',#347,#348,#153,.T.);
#425=EDGE_CURVE('',#346,#348,#186,.T.);
#426=EDGE_CURVE('',#347,#349,#187,.T.);
#427=EDGE_CURVE('',#349,#350,#161,.T.);
#428=EDGE_CURVE('',#348,#350,#188,.T.);
#429=EDGE_CURVE('',#351,#352,#53,.T.);
#430=EDGE_CURVE('',#352,#353,#54,.T.);
#431=EDGE_CURVE('',#353,#354,#189,.T.);
#432=EDGE_CURVE('',#354,#355,#154,.T.);
#433=EDGE_CURVE('',#356,#355,#190,.T.);
#434=EDGE_CURVE('',#356,#349,#162,.T.);
#435=EDGE_CURVE('',#349,#351,#191,.T.);
#436=EDGE_CURVE('',#355,#357,#192,.T.);
#437=EDGE_CURVE('',#354,#358,#193,.T.);
#438=EDGE_CURVE('',#358,#357,#155,.T.);
#439=EDGE_CURVE('',#357,#359,#194,.T.);
#440=EDGE_CURVE('',#358,#360,#195,.T.);
#441=EDGE_CURVE('',#360,#359,#156,.T.);
#442=EDGE_CURVE('',#359,#361,#196,.T.);
#443=EDGE_CURVE('',#360,#362,#197,.T.);
#444=EDGE_CURVE('',#362,#361,#157,.T.);
#445=EDGE_CURVE('',#361,#363,#198,.T.);
#446=EDGE_CURVE('',#362,#364,#199,.T.);
#447=EDGE_CURVE('',#364,#363,#158,.T.);
#448=EDGE_CURVE('',#364,#365,#200,.T.);
#449=EDGE_CURVE('',#365,#366,#159,.T.);
#450=EDGE_CURVE('',#363,#366,#201,.T.);
#451=EDGE_CURVE('',#367,#368,#55,.T.);
#452=EDGE_CURVE('',#368,#341,#202,.T.);
#453=EDGE_CURVE('',#341,#369,#163,.T.);
#454=EDGE_CURVE('',#366,#369,#203,.T.);
#455=EDGE_CURVE('',#365,#367,#204,.T.);
#456=EDGE_CURVE('',#356,#350,#164,.T.);
#457=EDGE_CURVE('',#339,#369,#165,.T.);
#458=EDGE_CURVE('',#368,#370,#166,.T.);
#459=EDGE_CURVE('',#370,#367,#167,.T.);
#460=EDGE_CURVE('',#353,#351,#168,.T.);
#461=EDGE_CURVE('',#371,#372,#205,.T.);
#462=EDGE_CURVE('',#372,#373,#206,.T.);
#463=EDGE_CURVE('',#373,#374,#207,.T.);
#464=EDGE_CURVE('',#374,#371,#208,.T.);
#465=EDGE_CURVE('',#375,#376,#209,.T.);
#466=EDGE_CURVE('',#376,#377,#210,.T.);
#467=EDGE_CURVE('',#377,#378,#211,.T.);
#468=EDGE_CURVE('',#378,#375,#212,.T.);
#469=EDGE_CURVE('',#379,#380,#213,.T.);
#470=EDGE_CURVE('',#380,#381,#214,.T.);
#471=EDGE_CURVE('',#381,#382,#215,.T.);
#472=EDGE_CURVE('',#382,#379,#216,.T.);
#473=EDGE_CURVE('',#383,#384,#217,.T.);
#474=EDGE_CURVE('',#384,#385,#218,.T.);
#475=EDGE_CURVE('',#385,#386,#219,.T.);
#476=EDGE_CURVE('',#386,#383,#220,.T.);
#477=EDGE_CURVE('',#387,#387,#169,.T.);
#478=EDGE_CURVE('',#388,#388,#170,.T.);
#479=EDGE_CURVE('',#389,#389,#171,.T.);
#480=EDGE_CURVE('',#390,#390,#172,.T.);
#481=EDGE_CURVE('',#370,#391,#221,.T.);
#482=EDGE_CURVE('',#391,#391,#173,.T.);
#483=EDGE_CURVE('',#392,#392,#174,.T.);
#484=EDGE_CURVE('',#393,#393,#175,.T.);
#485=EDGE_CURVE('',#394,#394,#176,.T.);
#486=EDGE_CURVE('',#395,#395,#177,.T.);
#487=EDGE_CURVE('',#396,#396,#178,.T.);
#488=EDGE_CURVE('',#397,#398,#222,.T.);
#489=EDGE_CURVE('',#398,#399,#223,.T.);
#490=EDGE_CURVE('',#399,#400,#224,.T.);
#491=EDGE_CURVE('',#400,#397,#225,.T.);
#492=EDGE_CURVE('',#401,#402,#226,.T.);
#493=EDGE_CURVE('',#402,#403,#227,.T.);
#494=EDGE_CURVE('',#403,#404,#228,.T.);
#495=EDGE_CURVE('',#404,#401,#229,.T.);
#496=EDGE_CURVE('',#405,#406,#230,.T.);
#497=EDGE_CURVE('',#406,#407,#231,.T.);
#498=EDGE_CURVE('',#407,#408,#232,.T.);
#499=EDGE_CURVE('',#408,#405,#233,.T.);
#500=EDGE_CURVE('',#409,#410,#234,.T.);
#501=EDGE_CURVE('',#410,#411,#235,.T.);
#502=EDGE_CURVE('',#411,#412,#236,.T.);
#503=EDGE_CURVE('',#412,#409,#237,.T.);
#504=EDGE_CURVE('',#371,#410,#238,.T.);
#505=EDGE_CURVE('',#411,#374,#239,.T.);
#506=EDGE_CURVE('',#412,#373,#240,.T.);
#507=EDGE_CURVE('',#409,#372,#241,.T.);
#508=EDGE_CURVE('',#375,#406,#242,.T.);
#509=EDGE_CURVE('',#407,#378,#243,.T.);
#510=EDGE_CURVE('',#408,#377,#244,.T.);
#511=EDGE_CURVE('',#405,#376,#245,.T.);
#512=EDGE_CURVE('',#379,#402,#246,.T.);
#513=EDGE_CURVE('',#403,#382,#247,.T.);
#514=EDGE_CURVE('',#404,#381,#248,.T.);
#515=EDGE_CURVE('',#401,#380,#249,.T.);
#516=EDGE_CURVE('',#383,#398,#250,.T.);
#517=EDGE_CURVE('',#399,#386,#251,.T.);
#518=EDGE_CURVE('',#400,#385,#252,.T.);
#519=EDGE_CURVE('',#397,#384,#253,.T.);
#520=EDGE_CURVE('',#352,#396,#254,.T.);
#521=EDGE_CURVE('',#387,#395,#255,.T.);
#522=EDGE_CURVE('',#388,#394,#256,.T.);
#523=EDGE_CURVE('',#389,#393,#257,.T.);
#524=EDGE_CURVE('',#390,#392,#258,.T.);
#525=ORIENTED_EDGE('',*,*,#413,.F.);
#526=ORIENTED_EDGE('',*,*,#414,.T.);
#527=ORIENTED_EDGE('',*,*,#415,.T.);
#528=ORIENTED_EDGE('',*,*,#416,.T.);
#529=ORIENTED_EDGE('',*,*,#417,.T.);
#530=ORIENTED_EDGE('',*,*,#418,.T.);
#531=ORIENTED_EDGE('',*,*,#419,.F.);
#532=ORIENTED_EDGE('',*,*,#416,.F.);
#533=ORIENTED_EDGE('',*,*,#420,.T.);
#534=ORIENTED_EDGE('',*,*,#421,.T.);
#535=ORIENTED_EDGE('',*,*,#422,.F.);
#536=ORIENTED_EDGE('',*,*,#418,.F.);
#537=ORIENTED_EDGE('',*,*,#423,.T.);
#538=ORIENTED_EDGE('',*,*,#424,.T.);
#539=ORIENTED_EDGE('',*,*,#425,.F.);
#540=ORIENTED_EDGE('',*,*,#421,.F.);
#541=ORIENTED_EDGE('',*,*,#426,.T.);
#542=ORIENTED_EDGE('',*,*,#427,.T.);
#543=ORIENTED_EDGE('',*,*,#428,.F.);
#544=ORIENTED_EDGE('',*,*,#424,.F.);
#545=ORIENTED_EDGE('',*,*,#429,.T.);
#546=ORIENTED_EDGE('',*,*,#430,.T.);
#547=ORIENTED_EDGE('',*,*,#431,.T.);
#548=ORIENTED_EDGE('',*,*,#432,.T.);
#549=ORIENTED_EDGE('',*,*,#433,.F.);
#550=ORIENTED_EDGE('',*,*,#434,.T.);
#551=ORIENTED_EDGE('',*,*,#435,.T.);
#552=ORIENTED_EDGE('',*,*,#436,.F.);
#553=ORIENTED_EDGE('',*,*,#432,.F.);
#554=ORIENTED_EDGE('',*,*,#437,.T.);
#555=ORIENTED_EDGE('',*,*,#438,.T.);
#556=ORIENTED_EDGE('',*,*,#439,.F.);
#557=ORIENTED_EDGE('',*,*,#438,.F.);
#558=ORIENTED_EDGE('',*,*,#440,.T.);
#559=ORIENTED_EDGE('',*,*,#441,.T.);
#560=ORIENTED_EDGE('',*,*,#442,.F.);
#561=ORIENTED_EDGE('',*,*,#441,.F.);
#562=ORIENTED_EDGE('',*,*,#443,.T.);
#563=ORIENTED_EDGE('',*,*,#444,.T.);
#564=ORIENTED_EDGE('',*,*,#445,.F.);
#565=ORIENTED_EDGE('',*,*,#444,.F.);
#566=ORIENTED_EDGE('',*,*,#446,.T.);
#567=ORIENTED_EDGE('',*,*,#447,.T.);
#568=ORIENTED_EDGE('',*,*,#448,.T.);
#569=ORIENTED_EDGE('',*,*,#449,.T.);
#570=ORIENTED_EDGE('',*,*,#450,.F.);
#571=ORIENTED_EDGE('',*,*,#447,.F.);
#572=ORIENTED_EDGE('',*,*,#451,.T.);
#573=ORIENTED_EDGE('',*,*,#452,.T.);
#574=ORIENTED_EDGE('',*,*,#453,.T.);
#575=ORIENTED_EDGE('',*,*,#454,.F.);
#576=ORIENTED_EDGE('',*,*,#449,.F.);
#577=ORIENTED_EDGE('',*,*,#455,.T.);
#578=ORIENTED_EDGE('',*,*,#434,.F.);
#579=ORIENTED_EDGE('',*,*,#456,.T.);
#580=ORIENTED_EDGE('',*,*,#427,.F.);
#581=ORIENTED_EDGE('',*,*,#414,.F.);
#582=ORIENTED_EDGE('',*,*,#457,.T.);
#583=ORIENTED_EDGE('',*,*,#453,.F.);
#584=ORIENTED_EDGE('',*,*,#435,.F.);
#585=ORIENTED_EDGE('',*,*,#426,.F.);
#586=ORIENTED_EDGE('',*,*,#423,.F.);
#587=ORIENTED_EDGE('',*,*,#420,.F.);
#588=ORIENTED_EDGE('',*,*,#417,.F.);
#589=ORIENTED_EDGE('',*,*,#415,.F.);
#590=ORIENTED_EDGE('',*,*,#452,.F.);
#591=ORIENTED_EDGE('',*,*,#458,.T.);
#592=ORIENTED_EDGE('',*,*,#459,.T.);
#593=ORIENTED_EDGE('',*,*,#455,.F.);
#594=ORIENTED_EDGE('',*,*,#448,.F.);
#595=ORIENTED_EDGE('',*,*,#446,.F.);
#596=ORIENTED_EDGE('',*,*,#443,.F.);
#597=ORIENTED_EDGE('',*,*,#440,.F.);
#598=ORIENTED_EDGE('',*,*,#437,.F.);
#599=ORIENTED_EDGE('',*,*,#431,.F.);
#600=ORIENTED_EDGE('',*,*,#460,.T.);
#601=ORIENTED_EDGE('',*,*,#461,.T.);
#602=ORIENTED_EDGE('',*,*,#462,.T.);
#603=ORIENTED_EDGE('',*,*,#463,.T.);
#604=ORIENTED_EDGE('',*,*,#464,.T.);
#605=ORIENTED_EDGE('',*,*,#465,.T.);
#606=ORIENTED_EDGE('',*,*,#466,.T.);
#607=ORIENTED_EDGE('',*,*,#467,.T.);
#608=ORIENTED_EDGE('',*,*,#468,.T.);
#609=ORIENTED_EDGE('',*,*,#469,.T.);
#610=ORIENTED_EDGE('',*,*,#470,.T.);
#611=ORIENTED_EDGE('',*,*,#471,.T.);
#612=ORIENTED_EDGE('',*,*,#472,.T.);
#613=ORIENTED_EDGE('',*,*,#473,.T.);
#614=ORIENTED_EDGE('',*,*,#474,.T.);
#615=ORIENTED_EDGE('',*,*,#475,.T.);
#616=ORIENTED_EDGE('',*,*,#476,.T.);
#617=ORIENTED_EDGE('',*,*,#477,.T.);
#618=ORIENTED_EDGE('',*,*,#478,.T.);
#619=ORIENTED_EDGE('',*,*,#479,.T.);
#620=ORIENTED_EDGE('',*,*,#480,.T.);
#621=ORIENTED_EDGE('',*,*,#451,.F.);
#622=ORIENTED_EDGE('',*,*,#459,.F.);
#623=ORIENTED_EDGE('',*,*,#481,.T.);
#624=ORIENTED_EDGE('',*,*,#482,.F.);
#625=ORIENTED_EDGE('',*,*,#481,.F.);
#626=ORIENTED_EDGE('',*,*,#458,.F.);
#627=ORIENTED_EDGE('',*,*,#457,.F.);
#628=ORIENTED_EDGE('',*,*,#413,.T.);
#629=ORIENTED_EDGE('',*,*,#419,.T.);
#630=ORIENTED_EDGE('',*,*,#422,.T.);
#631=ORIENTED_EDGE('',*,*,#425,.T.);
#632=ORIENTED_EDGE('',*,*,#428,.T.);
#633=ORIENTED_EDGE('',*,*,#456,.F.);
#634=ORIENTED_EDGE('',*,*,#433,.T.);
#635=ORIENTED_EDGE('',*,*,#436,.T.);
#636=ORIENTED_EDGE('',*,*,#439,.T.);
#637=ORIENTED_EDGE('',*,*,#442,.T.);
#638=ORIENTED_EDGE('',*,*,#445,.T.);
#639=ORIENTED_EDGE('',*,*,#450,.T.);
#640=ORIENTED_EDGE('',*,*,#454,.T.);
#641=ORIENTED_EDGE('',*,*,#483,.T.);
#642=ORIENTED_EDGE('',*,*,#484,.T.);
#643=ORIENTED_EDGE('',*,*,#485,.T.);
#644=ORIENTED_EDGE('',*,*,#486,.T.);
#645=ORIENTED_EDGE('',*,*,#482,.T.);
#646=ORIENTED_EDGE('',*,*,#487,.T.);
#647=ORIENTED_EDGE('',*,*,#488,.T.);
#648=ORIENTED_EDGE('',*,*,#489,.T.);
#649=ORIENTED_EDGE('',*,*,#490,.T.);
#650=ORIENTED_EDGE('',*,*,#491,.T.);
#651=ORIENTED_EDGE('',*,*,#492,.T.);
#652=ORIENTED_EDGE('',*,*,#493,.T.);
#653=ORIENTED_EDGE('',*,*,#494,.T.);
#654=ORIENTED_EDGE('',*,*,#495,.T.);
#655=ORIENTED_EDGE('',*,*,#496,.T.);
#656=ORIENTED_EDGE('',*,*,#497,.T.);
#657=ORIENTED_EDGE('',*,*,#498,.T.);
#658=ORIENTED_EDGE('',*,*,#499,.T.);
#659=ORIENTED_EDGE('',*,*,#500,.T.);
#660=ORIENTED_EDGE('',*,*,#501,.T.);
#661=ORIENTED_EDGE('',*,*,#502,.T.);
#662=ORIENTED_EDGE('',*,*,#503,.T.);
#663=ORIENTED_EDGE('',*,*,#504,.F.);
#664=ORIENTED_EDGE('',*,*,#464,.F.);
#665=ORIENTED_EDGE('',*,*,#505,.F.);
#666=ORIENTED_EDGE('',*,*,#501,.F.);
#667=ORIENTED_EDGE('',*,*,#505,.T.);
#668=ORIENTED_EDGE('',*,*,#463,.F.);
#669=ORIENTED_EDGE('',*,*,#506,.F.);
#670=ORIENTED_EDGE('',*,*,#502,.F.);
#671=ORIENTED_EDGE('',*,*,#506,.T.);
#672=ORIENTED_EDGE('',*,*,#462,.F.);
#673=ORIENTED_EDGE('',*,*,#507,.F.);
#674=ORIENTED_EDGE('',*,*,#503,.F.);
#675=ORIENTED_EDGE('',*,*,#507,.T.);
#676=ORIENTED_EDGE('',*,*,#461,.F.);
#677=ORIENTED_EDGE('',*,*,#504,.T.);
#678=ORIENTED_EDGE('',*,*,#500,.F.);
#679=ORIENTED_EDGE('',*,*,#508,.F.);
#680=ORIENTED_EDGE('',*,*,#468,.F.);
#681=ORIENTED_EDGE('',*,*,#509,.F.);
#682=ORIENTED_EDGE('',*,*,#497,.F.);
#683=ORIENTED_EDGE('',*,*,#509,.T.);
#684=ORIENTED_EDGE('',*,*,#467,.F.);
#685=ORIENTED_EDGE('',*,*,#510,.F.);
#686=ORIENTED_EDGE('',*,*,#498,.F.);
#687=ORIENTED_EDGE('',*,*,#510,.T.);
#688=ORIENTED_EDGE('',*,*,#466,.F.);
#689=ORIENTED_EDGE('',*,*,#511,.F.);
#690=ORIENTED_EDGE('',*,*,#499,.F.);
#691=ORIENTED_EDGE('',*,*,#511,.T.);
#692=ORIENTED_EDGE('',*,*,#465,.F.);
#693=ORIENTED_EDGE('',*,*,#508,.T.);
#694=ORIENTED_EDGE('',*,*,#496,.F.);
#695=ORIENTED_EDGE('',*,*,#512,.F.);
#696=ORIENTED_EDGE('',*,*,#472,.F.);
#697=ORIENTED_EDGE('',*,*,#513,.F.);
#698=ORIENTED_EDGE('',*,*,#493,.F.);
#699=ORIENTED_EDGE('',*,*,#513,.T.);
#700=ORIENTED_EDGE('',*,*,#471,.F.);
#701=ORIENTED_EDGE('',*,*,#514,.F.);
#702=ORIENTED_EDGE('',*,*,#494,.F.);
#703=ORIENTED_EDGE('',*,*,#514,.T.);
#704=ORIENTED_EDGE('',*,*,#470,.F.);
#705=ORIENTED_EDGE('',*,*,#515,.F.);
#706=ORIENTED_EDGE('',*,*,#495,.F.);
#707=ORIENTED_EDGE('',*,*,#515,.T.);
#708=ORIENTED_EDGE('',*,*,#469,.F.);
#709=ORIENTED_EDGE('',*,*,#512,.T.);
#710=ORIENTED_EDGE('',*,*,#492,.F.);
#711=ORIENTED_EDGE('',*,*,#516,.F.);
#712=ORIENTED_EDGE('',*,*,#476,.F.);
#713=ORIENTED_EDGE('',*,*,#517,.F.);
#714=ORIENTED_EDGE('',*,*,#489,.F.);
#715=ORIENTED_EDGE('',*,*,#517,.T.);
#716=ORIENTED_EDGE('',*,*,#475,.F.);
#717=ORIENTED_EDGE('',*,*,#518,.F.);
#718=ORIENTED_EDGE('',*,*,#490,.F.);
#719=ORIENTED_EDGE('',*,*,#518,.T.);
#720=ORIENTED_EDGE('',*,*,#474,.F.);
#721=ORIENTED_EDGE('',*,*,#519,.F.);
#722=ORIENTED_EDGE('',*,*,#491,.F.);
#723=ORIENTED_EDGE('',*,*,#519,.T.);
#724=ORIENTED_EDGE('',*,*,#473,.F.);
#725=ORIENTED_EDGE('',*,*,#516,.T.);
#726=ORIENTED_EDGE('',*,*,#488,.F.);
#727=ORIENTED_EDGE('',*,*,#429,.F.);
#728=ORIENTED_EDGE('',*,*,#460,.F.);
#729=ORIENTED_EDGE('',*,*,#430,.F.);
#730=ORIENTED_EDGE('',*,*,#520,.T.);
#731=ORIENTED_EDGE('',*,*,#487,.F.);
#732=ORIENTED_EDGE('',*,*,#520,.F.);
#733=ORIENTED_EDGE('',*,*,#477,.F.);
#734=ORIENTED_EDGE('',*,*,#521,.T.);
#735=ORIENTED_EDGE('',*,*,#486,.F.);
#736=ORIENTED_EDGE('',*,*,#521,.F.);
#737=ORIENTED_EDGE('',*,*,#478,.F.);
#738=ORIENTED_EDGE('',*,*,#522,.T.);
#739=ORIENTED_EDGE('',*,*,#485,.F.);
#740=ORIENTED_EDGE('',*,*,#522,.F.);
#741=ORIENTED_EDGE('',*,*,#479,.F.);
#742=ORIENTED_EDGE('',*,*,#523,.T.);
#743=ORIENTED_EDGE('',*,*,#484,.F.);
#744=ORIENTED_EDGE('',*,*,#523,.F.);
#745=ORIENTED_EDGE('',*,*,#480,.F.);
#746=ORIENTED_EDGE('',*,*,#524,.T.);
#747=ORIENTED_EDGE('',*,*,#483,.F.);
#748=ORIENTED_EDGE('',*,*,#524,.F.);
#749=CYLINDRICAL_SURFACE('',#828,3.);
#750=CYLINDRICAL_SURFACE('',#831,3.);
#751=CYLINDRICAL_SURFACE('',#833,3.);
#752=CYLINDRICAL_SURFACE('',#835,3.);
#753=CYLINDRICAL_SURFACE('',#837,3.);
#754=CYLINDRICAL_SURFACE('',#839,3.);
#755=CYLINDRICAL_SURFACE('',#842,3.);
#756=CYLINDRICAL_SURFACE('',#844,3.);
#757=CYLINDRICAL_SURFACE('',#846,3.);
#758=CYLINDRICAL_SURFACE('',#848,3.);
#759=CYLINDRICAL_SURFACE('',#850,3.);
#760=CYLINDRICAL_SURFACE('',#852,3.);
#761=CYLINDRICAL_SURFACE('',#866,1.5);
#762=CYLINDRICAL_SURFACE('',#890,1.5);
#763=CYLINDRICAL_SURFACE('',#891,1.5);
#764=CYLINDRICAL_SURFACE('',#892,1.5);
#765=CYLINDRICAL_SURFACE('',#893,1.5);
#766=CYLINDRICAL_SURFACE('',#894,1.5);
#767=ADVANCED_FACE('',(#56),#749,.T.);
#768=ADVANCED_FACE('',(#57),#750,.T.);
#769=ADVANCED_FACE('',(#58),#751,.T.);
#770=ADVANCED_FACE('',(#59),#752,.T.);
#771=ADVANCED_FACE('',(#60),#753,.T.);
#772=ADVANCED_FACE('',(#61),#754,.T.);
#773=ADVANCED_FACE('',(#62),#755,.T.);
#774=ADVANCED_FACE('',(#63),#756,.T.);
#775=ADVANCED_FACE('',(#64),#757,.T.);
#776=ADVANCED_FACE('',(#65),#758,.T.);
#777=ADVANCED_FACE('',(#66),#759,.T.);
#778=ADVANCED_FACE('',(#67),#760,.T.);
#779=ADVANCED_FACE('',(#68),#51,.T.);
#780=ADVANCED_FACE('',(#69),#52,.T.);
#781=ADVANCED_FACE('',(#70,#15,#16,#17,#18,#19,#20,#21,#22),#33,.T.);
#782=ADVANCED_FACE('',(#71),#761,.F.);
#783=ADVANCED_FACE('',(#72,#23,#24,#25,#26,#27,#28,#29,#30,#31,#32),#34,
 .F.);
#784=ADVANCED_FACE('',(#73),#35,.T.);
#785=ADVANCED_FACE('',(#74),#36,.T.);
#786=ADVANCED_FACE('',(#75),#37,.T.);
#787=ADVANCED_FACE('',(#76),#38,.T.);
#788=ADVANCED_FACE('',(#77),#39,.T.);
#789=ADVANCED_FACE('',(#78),#40,.T.);
#790=ADVANCED_FACE('',(#79),#41,.T.);
#791=ADVANCED_FACE('',(#80),#42,.T.);
#792=ADVANCED_FACE('',(#81),#43,.T.);
#793=ADVANCED_FACE('',(#82),#44,.T.);
#794=ADVANCED_FACE('',(#83),#45,.T.);
#795=ADVANCED_FACE('',(#84),#46,.T.);
#796=ADVANCED_FACE('',(#85),#47,.T.);
#797=ADVANCED_FACE('',(#86),#48,.T.);
#798=ADVANCED_FACE('',(#87),#49,.T.);
#799=ADVANCED_FACE('',(#88),#50,.T.);
#800=ADVANCED_FACE('',(#89),#762,.F.);
#801=ADVANCED_FACE('',(#90),#763,.F.);
#802=ADVANCED_FACE('',(#91),#764,.F.);
#803=ADVANCED_FACE('',(#92),#765,.F.);
#804=ADVANCED_FACE('',(#93),#766,.F.);
#805=CLOSED_SHELL('',(#767,#768,#769,#770,#771,#772,#773,#774,#775,#776,
#777,#778,#779,#780,#781,#782,#783,#784,#785,#786,#787,#788,#789,#790,#791,
#792,#793,#794,#795,#796,#797,#798,#799,#800,#801,#802,#803,#804));
#806=DERIVED_UNIT_ELEMENT(#809,1.);
#807=DERIVED_UNIT_ELEMENT(#1377,-3.);
#808=DIMENSIONAL_EXPONENTS(0.,1.,0.,0.,0.,0.,0.);
#809=(
CONVERSION_BASED_UNIT('gram',#811)
MASS_UNIT()
NAMED_UNIT(#808)
);
#810=(
MASS_UNIT()
NAMED_UNIT(*)
SI_UNIT(.KILO.,.GRAM.)
);
#811=MASS_MEASURE_WITH_UNIT(MASS_MEASURE(0.001),#810);
#812=DERIVED_UNIT((#806,#807));
#813=MEASURE_REPRESENTATION_ITEM('density measure',
POSITIVE_RATIO_MEASURE(1.),#812);
#814=PROPERTY_DEFINITION_REPRESENTATION(#819,#816);
#815=PROPERTY_DEFINITION_REPRESENTATION(#820,#817);
#816=REPRESENTATION('material name',(#818),#1374);
#817=REPRESENTATION('density',(#813),#1374);
#818=DESCRIPTIVE_REPRESENTATION_ITEM('Generic','Generic');
#819=PROPERTY_DEFINITION('material property','material name',#1384);
#820=PROPERTY_DEFINITION('material property','density of part',#1384);
#821=DATE_TIME_ROLE('creation_date');
#822=APPLIED_DATE_AND_TIME_ASSIGNMENT(#823,#821,(#1384));
#823=DATE_AND_TIME(#824,#825);
#824=CALENDAR_DATE(2026,12,4);
#825=LOCAL_TIME(0,0,0.,#826);
#826=COORDINATED_UNIVERSAL_TIME_OFFSET(0,0,.BEHIND.);
#827=AXIS2_PLACEMENT_3D('',#1111,#895,#896);
#828=AXIS2_PLACEMENT_3D('',#1112,#897,#898);
#829=AXIS2_PLACEMENT_3D('',#1117,#900,#901);
#830=AXIS2_PLACEMENT_3D('',#1120,#903,#904);
#831=AXIS2_PLACEMENT_3D('',#1121,#905,#906);
#832=AXIS2_PLACEMENT_3D('',#1125,#908,#909);
#833=AXIS2_PLACEMENT_3D('',#1127,#911,#912);
#834=AXIS2_PLACEMENT_3D('',#1131,#914,#915);
#835=AXIS2_PLACEMENT_3D('',#1133,#917,#918);
#836=AXIS2_PLACEMENT_3D('',#1137,#920,#921);
#837=AXIS2_PLACEMENT_3D('',#1139,#923,#924);
#838=AXIS2_PLACEMENT_3D('',#1143,#926,#927);
#839=AXIS2_PLACEMENT_3D('',#1145,#929,#930);
#840=AXIS2_PLACEMENT_3D('',#1172,#932,#933);
#841=AXIS2_PLACEMENT_3D('',#1175,#935,#936);
#842=AXIS2_PLACEMENT_3D('',#1177,#938,#939);
#843=AXIS2_PLACEMENT_3D('',#1182,#942,#943);
#844=AXIS2_PLACEMENT_3D('',#1183,#944,#945);
#845=AXIS2_PLACEMENT_3D('',#1188,#948,#949);
#846=AXIS2_PLACEMENT_3D('',#1189,#950,#951);
#847=AXIS2_PLACEMENT_3D('',#1194,#954,#955);
#848=AXIS2_PLACEMENT_3D('',#1195,#956,#957);
#849=AXIS2_PLACEMENT_3D('',#1200,#960,#961);
#850=AXIS2_PLACEMENT_3D('',#1201,#962,#963);
#851=AXIS2_PLACEMENT_3D('',#1205,#965,#966);
#852=AXIS2_PLACEMENT_3D('',#1207,#968,#969);
#853=AXIS2_PLACEMENT_3D('',#1231,#971,#972);
#854=AXIS2_PLACEMENT_3D('',#1234,#975,#976);
#855=AXIS2_PLACEMENT_3D('',#1235,#977,#978);
#856=AXIS2_PLACEMENT_3D('',#1236,#979,#980);
#857=AXIS2_PLACEMENT_3D('',#1237,#981,#982);
#858=AXIS2_PLACEMENT_3D('',#1238,#983,#984);
#859=AXIS2_PLACEMENT_3D('',#1240,#985,#986);
#860=AXIS2_PLACEMENT_3D('',#1241,#987,#988);
#861=AXIS2_PLACEMENT_3D('',#1242,#989,#990);
#862=AXIS2_PLACEMENT_3D('',#1276,#1007,#1008);
#863=AXIS2_PLACEMENT_3D('',#1278,#1009,#1010);
#864=AXIS2_PLACEMENT_3D('',#1280,#1011,#1012);
#865=AXIS2_PLACEMENT_3D('',#1282,#1013,#1014);
#866=AXIS2_PLACEMENT_3D('',#1283,#1015,#1016);
#867=AXIS2_PLACEMENT_3D('',#1286,#1018,#1019);
#868=AXIS2_PLACEMENT_3D('',#1287,#1020,#1021);
#869=AXIS2_PLACEMENT_3D('',#1289,#1022,#1023);
#870=AXIS2_PLACEMENT_3D('',#1291,#1024,#1025);
#871=AXIS2_PLACEMENT_3D('',#1293,#1026,#1027);
#872=AXIS2_PLACEMENT_3D('',#1295,#1028,#1029);
#873=AXIS2_PLACEMENT_3D('',#1297,#1030,#1031);
#874=AXIS2_PLACEMENT_3D('',#1330,#1048,#1049);
#875=AXIS2_PLACEMENT_3D('',#1333,#1052,#1053);
#876=AXIS2_PLACEMENT_3D('',#1335,#1055,#1056);
#877=AXIS2_PLACEMENT_3D('',#1337,#1058,#1059);
#878=AXIS2_PLACEMENT_3D('',#1338,#1060,#1061);
#879=AXIS2_PLACEMENT_3D('',#1341,#1064,#1065);
#880=AXIS2_PLACEMENT_3D('',#1343,#1067,#1068);
#881=AXIS2_PLACEMENT_3D('',#1345,#1070,#1071);
#882=AXIS2_PLACEMENT_3D('',#1346,#1072,#1073);
#883=AXIS2_PLACEMENT_3D('',#1349,#1076,#1077);
#884=AXIS2_PLACEMENT_3D('',#1351,#1079,#1080);
#885=AXIS2_PLACEMENT_3D('',#1353,#1082,#1083);
#886=AXIS2_PLACEMENT_3D('',#1354,#1084,#1085);
#887=AXIS2_PLACEMENT_3D('',#1357,#1088,#1089);
#888=AXIS2_PLACEMENT_3D('',#1359,#1091,#1092);
#889=AXIS2_PLACEMENT_3D('',#1361,#1094,#1095);
#890=AXIS2_PLACEMENT_3D('',#1362,#1096,#1097);
#891=AXIS2_PLACEMENT_3D('',#1364,#1099,#1100);
#892=AXIS2_PLACEMENT_3D('',#1366,#1102,#1103);
#893=AXIS2_PLACEMENT_3D('',#1368,#1105,#1106);
#894=AXIS2_PLACEMENT_3D('',#1370,#1108,#1109);
#895=DIRECTION('axis',(0.,0.,1.));
#896=DIRECTION('refdir',(1.,0.,0.));
#897=DIRECTION('center_axis',(1.,0.,-1.62791900806848E-15));
#898=DIRECTION('ref_axis',(0.,0.707106781186547,0.707106781186548));
#899=DIRECTION('',(-1.,0.,1.62791900806848E-15));
#900=DIRECTION('center_axis',(-1.,0.,0.));
#901=DIRECTION('ref_axis',(0.,0.,1.));
#902=DIRECTION('',(-1.,0.,1.62791900806848E-15));
#903=DIRECTION('center_axis',(0.99900202057998,1.652937316654E-17,-0.0446650073000983));
#904=DIRECTION('ref_axis',(-0.0446650073000983,3.69705014964996E-16,-0.99900202057998));
#905=DIRECTION('center_axis',(0.996010074245765,0.,-0.0892408650840276));
#906=DIRECTION('ref_axis',(0.0631028208598686,0.707106781186548,0.704285477629297));
#907=DIRECTION('',(-0.996010074245765,0.,0.0892408650840276));
#908=DIRECTION('center_axis',(0.99900202057998,0.,-0.0446650073000924));
#909=DIRECTION('ref_axis',(0.0446650073000924,0.,0.99900202057998));
#910=DIRECTION('',(-0.996010074245765,0.,0.0892408650840276));
#911=DIRECTION('center_axis',(1.,0.,0.));
#912=DIRECTION('ref_axis',(0.,0.707106781186547,0.707106781186548));
#913=DIRECTION('',(-1.,0.,0.));
#914=DIRECTION('center_axis',(0.99900202057998,0.,0.0446650073000924));
#915=DIRECTION('ref_axis',(-0.0446650073000924,0.,0.99900202057998));
#916=DIRECTION('',(-1.,0.,0.));
#917=DIRECTION('center_axis',(0.996010074245765,0.,0.0892408650840276));
#918=DIRECTION('ref_axis',(-0.0631028208598727,0.707106781186547,0.704285477629297));
#919=DIRECTION('',(-0.996010074245765,0.,-0.0892408650840276));
#920=DIRECTION('center_axis',(0.99900202057998,0.,0.0446650073000924));
#921=DIRECTION('ref_axis',(0.0446650073000924,0.,-0.99900202057998));
#922=DIRECTION('',(-0.996010074245765,0.,-0.0892408650840276));
#923=DIRECTION('center_axis',(1.,0.,6.39539610312619E-16));
#924=DIRECTION('ref_axis',(0.,0.707106781186547,0.707106781186548));
#925=DIRECTION('',(-1.,0.,-6.39539610312619E-16));
#926=DIRECTION('center_axis',(1.,0.,0.));
#927=DIRECTION('ref_axis',(0.,1.,0.));
#928=DIRECTION('',(-1.,0.,-6.39539610312619E-16));
#929=DIRECTION('center_axis',(0.,0.,1.));
#930=DIRECTION('ref_axis',(-0.707106781186548,0.707106781186547,0.));
#931=DIRECTION('',(0.,0.,-1.));
#932=DIRECTION('center_axis',(-0.707106781186547,0.,0.707106781186548));
#933=DIRECTION('ref_axis',(-0.707106781186548,0.,-0.707106781186547));
#934=DIRECTION('',(0.,0.,-1.));
#935=DIRECTION('center_axis',(3.70074341541718E-16,0.,-1.));
#936=DIRECTION('ref_axis',(-1.,0.,-3.70074341541718E-16));
#937=DIRECTION('',(0.,0.,-1.));
#938=DIRECTION('center_axis',(-1.,0.,-5.84327907697451E-17));
#939=DIRECTION('ref_axis',(0.,0.707106781186548,-0.707106781186548));
#940=DIRECTION('',(1.,0.,5.84327907697451E-17));
#941=DIRECTION('',(1.,0.,5.84327907697451E-17));
#942=DIRECTION('center_axis',(-0.99900202057998,0.,0.0446650073000924));
#943=DIRECTION('ref_axis',(0.0446650073000924,0.,0.99900202057998));
#944=DIRECTION('center_axis',(-0.996010074245765,0.,0.0892408650840287));
#945=DIRECTION('ref_axis',(-0.0631028208598686,0.707106781186548,-0.704285477629297));
#946=DIRECTION('',(0.996010074245765,0.,-0.0892408650840287));
#947=DIRECTION('',(0.996010074245765,0.,-0.0892408650840287));
#948=DIRECTION('center_axis',(-0.99900202057998,0.,0.0446650073000924));
#949=DIRECTION('ref_axis',(-0.0446650073000924,0.,-0.99900202057998));
#950=DIRECTION('center_axis',(-1.,0.,0.));
#951=DIRECTION('ref_axis',(0.,0.707106781186547,-0.707106781186548));
#952=DIRECTION('',(1.,0.,0.));
#953=DIRECTION('',(1.,0.,0.));
#954=DIRECTION('center_axis',(-0.99900202057998,0.,-0.0446650073000924));
#955=DIRECTION('ref_axis',(0.0446650073000924,0.,-0.99900202057998));
#956=DIRECTION('center_axis',(-0.996010074245765,0.,-0.0892408650840287));
#957=DIRECTION('ref_axis',(0.0631028208598686,0.707106781186548,-0.704285477629297));
#958=DIRECTION('',(0.996010074245765,0.,0.0892408650840287));
#959=DIRECTION('',(0.996010074245765,0.,0.0892408650840287));
#960=DIRECTION('center_axis',(-0.99900202057998,5.91528023943972E-15,-0.0446650073000924));
#961=DIRECTION('ref_axis',(-0.0446650073000924,1.32304398201324E-13,0.99900202057998));
#962=DIRECTION('center_axis',(-1.,0.,1.05179023385541E-15));
#963=DIRECTION('ref_axis',(0.,0.707106781186548,-0.707106781186548));
#964=DIRECTION('',(1.,0.,-1.05179023385541E-15));
#965=DIRECTION('center_axis',(-0.707106781186547,2.61682076447296E-16,-0.707106781186548));
#966=DIRECTION('ref_axis',(0.707106781186548,2.61682076447295E-16,-0.707106781186547));
#967=DIRECTION('',(1.,0.,-1.05179023385541E-15));
#968=DIRECTION('center_axis',(0.,0.,-1.));
#969=DIRECTION('ref_axis',(0.707106781186548,0.707106781186547,0.));
#970=DIRECTION('',(0.,0.,1.));
#971=DIRECTION('center_axis',(0.,0.,-1.));
#972=DIRECTION('ref_axis',(0.,1.,0.));
#973=DIRECTION('',(0.,0.,1.));
#974=DIRECTION('',(0.,0.,1.));
#975=DIRECTION('center_axis',(-0.40824829046386,0.408248290463863,-0.816496580927728));
#976=DIRECTION('ref_axis',(-0.577350269189624,0.577350269189627,0.577350269189626));
#977=DIRECTION('center_axis',(0.,1.,0.));
#978=DIRECTION('ref_axis',(-0.707106781186548,0.,0.707106781186547));
#979=DIRECTION('center_axis',(0.40824829046386,0.408248290463863,-0.816496580927728));
#980=DIRECTION('ref_axis',(0.577350269189624,0.577350269189627,0.577350269189627));
#981=DIRECTION('center_axis',(0.,1.,0.));
#982=DIRECTION('ref_axis',(0.707106781186548,0.,0.707106781186547));
#983=DIRECTION('center_axis',(0.,1.,0.));
#984=DIRECTION('ref_axis',(0.,0.,1.));
#985=DIRECTION('center_axis',(0.,-1.,0.));
#986=DIRECTION('ref_axis',(1.,0.,0.));
#987=DIRECTION('center_axis',(0.,-1.,0.));
#988=DIRECTION('ref_axis',(1.,0.,0.));
#989=DIRECTION('center_axis',(0.,-1.,0.));
#990=DIRECTION('ref_axis',(1.,0.,0.));
#991=DIRECTION('',(0.,0.,-1.));
#992=DIRECTION('',(0.996010074245765,0.,0.0892408650840326));
#993=DIRECTION('',(0.,0.,1.));
#994=DIRECTION('',(-0.996010074245765,0.,0.0892408650840326));
#995=DIRECTION('',(-3.5527136788005E-16,0.,-1.));
#996=DIRECTION('',(1.,0.,-5.55111512312578E-16));
#997=DIRECTION('',(7.105427357601E-16,0.,1.));
#998=DIRECTION('',(-1.,0.,6.66133814775094E-16));
#999=DIRECTION('',(0.,0.,1.));
#1000=DIRECTION('',(-0.996010074245765,0.,-0.0892408650840326));
#1001=DIRECTION('',(0.,0.,-1.));
#1002=DIRECTION('',(0.996010074245765,0.,-0.0892408650840326));
#1003=DIRECTION('',(7.105427357601E-16,0.,-1.));
#1004=DIRECTION('',(1.,0.,3.33066907387547E-16));
#1005=DIRECTION('',(-3.5527136788005E-16,0.,1.));
#1006=DIRECTION('',(-1.,0.,-4.44089209850063E-16));
#1007=DIRECTION('center_axis',(0.,-1.,0.));
#1008=DIRECTION('ref_axis',(1.,0.,0.));
#1009=DIRECTION('center_axis',(0.,-1.,0.));
#1010=DIRECTION('ref_axis',(1.,0.,0.));
#1011=DIRECTION('center_axis',(0.,-1.,0.));
#1012=DIRECTION('ref_axis',(1.,0.,0.));
#1013=DIRECTION('center_axis',(0.,-1.,0.));
#1014=DIRECTION('ref_axis',(1.,0.,0.));
#1015=DIRECTION('center_axis',(0.,1.,0.));
#1016=DIRECTION('ref_axis',(1.,0.,0.));
#1017=DIRECTION('',(0.,-1.,0.));
#1018=DIRECTION('center_axis',(0.,1.,0.));
#1019=DIRECTION('ref_axis',(1.,0.,0.));
#1020=DIRECTION('center_axis',(0.,1.,0.));
#1021=DIRECTION('ref_axis',(0.,0.,1.));
#1022=DIRECTION('center_axis',(0.,1.,0.));
#1023=DIRECTION('ref_axis',(1.,0.,0.));
#1024=DIRECTION('center_axis',(0.,1.,0.));
#1025=DIRECTION('ref_axis',(1.,0.,0.));
#1026=DIRECTION('center_axis',(0.,1.,0.));
#1027=DIRECTION('ref_axis',(1.,0.,0.));
#1028=DIRECTION('center_axis',(0.,1.,0.));
#1029=DIRECTION('ref_axis',(1.,0.,0.));
#1030=DIRECTION('center_axis',(0.,1.,0.));
#1031=DIRECTION('ref_axis',(1.,0.,0.));
#1032=DIRECTION('',(-7.105427357601E-16,0.,1.));
#1033=DIRECTION('',(1.,0.,4.44089209850063E-16));
#1034=DIRECTION('',(3.5527136788005E-16,0.,-1.));
#1035=DIRECTION('',(-1.,0.,-3.33066907387547E-16));
#1036=DIRECTION('',(0.,0.,-1.));
#1037=DIRECTION('',(-0.996010074245765,0.,0.0892408650840326));
#1038=DIRECTION('',(0.,0.,1.));
#1039=DIRECTION('',(0.996010074245765,0.,0.0892408650840326));
#1040=DIRECTION('',(3.5527136788005E-16,0.,1.));
#1041=DIRECTION('',(1.,0.,-6.66133814775094E-16));
#1042=DIRECTION('',(-7.105427357601E-16,0.,-1.));
#1043=DIRECTION('',(-1.,0.,5.55111512312578E-16));
#1044=DIRECTION('',(0.,0.,1.));
#1045=DIRECTION('',(0.996010074245765,0.,-0.0892408650840326));
#1046=DIRECTION('',(0.,0.,-1.));
#1047=DIRECTION('',(-0.996010074245765,0.,-0.0892408650840326));
#1048=DIRECTION('center_axis',(-0.0892408650840326,0.,-0.996010074245765));
#1049=DIRECTION('ref_axis',(-0.996010074245765,0.,0.0892408650840326));
#1050=DIRECTION('',(0.,-1.,0.));
#1051=DIRECTION('',(0.,1.,0.));
#1052=DIRECTION('center_axis',(-1.,0.,0.));
#1053=DIRECTION('ref_axis',(0.,0.,1.));
#1054=DIRECTION('',(0.,1.,0.));
#1055=DIRECTION('center_axis',(-0.0892408650840326,0.,0.996010074245765));
#1056=DIRECTION('ref_axis',(0.996010074245765,0.,0.0892408650840326));
#1057=DIRECTION('',(0.,1.,0.));
#1058=DIRECTION('center_axis',(1.,0.,0.));
#1059=DIRECTION('ref_axis',(0.,0.,-1.));
#1060=DIRECTION('center_axis',(-6.66133814775094E-16,0.,-1.));
#1061=DIRECTION('ref_axis',(-1.,0.,6.66133814775094E-16));
#1062=DIRECTION('',(0.,-1.,0.));
#1063=DIRECTION('',(0.,1.,0.));
#1064=DIRECTION('center_axis',(-1.,0.,7.105427357601E-16));
#1065=DIRECTION('ref_axis',(7.105427357601E-16,0.,1.));
#1066=DIRECTION('',(0.,1.,0.));
#1067=DIRECTION('center_axis',(5.55111512312578E-16,0.,1.));
#1068=DIRECTION('ref_axis',(1.,0.,-5.55111512312578E-16));
#1069=DIRECTION('',(0.,1.,0.));
#1070=DIRECTION('center_axis',(1.,0.,-3.5527136788005E-16));
#1071=DIRECTION('ref_axis',(-3.5527136788005E-16,0.,-1.));
#1072=DIRECTION('center_axis',(0.0892408650840326,0.,0.996010074245765));
#1073=DIRECTION('ref_axis',(0.996010074245765,0.,-0.0892408650840326));
#1074=DIRECTION('',(0.,-1.,0.));
#1075=DIRECTION('',(0.,1.,0.));
#1076=DIRECTION('center_axis',(1.,0.,0.));
#1077=DIRECTION('ref_axis',(0.,0.,-1.));
#1078=DIRECTION('',(0.,1.,0.));
#1079=DIRECTION('center_axis',(0.0892408650840326,0.,-0.996010074245765));
#1080=DIRECTION('ref_axis',(-0.996010074245765,0.,-0.0892408650840326));
#1081=DIRECTION('',(0.,1.,0.));
#1082=DIRECTION('center_axis',(-1.,0.,0.));
#1083=DIRECTION('ref_axis',(0.,0.,1.));
#1084=DIRECTION('center_axis',(4.44089209850063E-16,0.,-1.));
#1085=DIRECTION('ref_axis',(-1.,0.,-4.44089209850063E-16));
#1086=DIRECTION('',(0.,-1.,0.));
#1087=DIRECTION('',(0.,1.,0.));
#1088=DIRECTION('center_axis',(-1.,0.,-3.5527136788005E-16));
#1089=DIRECTION('ref_axis',(-3.5527136788005E-16,0.,1.));
#1090=DIRECTION('',(0.,1.,0.));
#1091=DIRECTION('center_axis',(-3.33066907387547E-16,0.,1.));
#1092=DIRECTION('ref_axis',(1.,0.,3.33066907387547E-16));
#1093=DIRECTION('',(0.,1.,0.));
#1094=DIRECTION('center_axis',(1.,0.,7.105427357601E-16));
#1095=DIRECTION('ref_axis',(7.105427357601E-16,0.,-1.));
#1096=DIRECTION('center_axis',(0.,1.,0.));
#1097=DIRECTION('ref_axis',(1.,0.,0.));
#1098=DIRECTION('',(0.,-1.,0.));
#1099=DIRECTION('center_axis',(0.,1.,0.));
#1100=DIRECTION('ref_axis',(1.,0.,0.));
#1101=DIRECTION('',(0.,-1.,0.));
#1102=DIRECTION('center_axis',(0.,1.,0.));
#1103=DIRECTION('ref_axis',(1.,0.,0.));
#1104=DIRECTION('',(0.,-1.,0.));
#1105=DIRECTION('center_axis',(0.,1.,0.));
#1106=DIRECTION('ref_axis',(1.,0.,0.));
#1107=DIRECTION('',(0.,-1.,0.));
#1108=DIRECTION('center_axis',(0.,1.,0.));
#1109=DIRECTION('ref_axis',(1.,0.,0.));
#1110=DIRECTION('',(0.,-1.,0.));
#1111=CARTESIAN_POINT('',(0.,0.,0.));
#1112=CARTESIAN_POINT('Origin',(59.9043051064389,-1.5,9.50820779925517));
#1113=CARTESIAN_POINT('',(155.,-1.5,12.508207799255));
#1114=CARTESIAN_POINT('',(119.808610212878,-1.5,12.5082077992551));
#1115=CARTESIAN_POINT('',(119.808610212878,-1.5,12.5082077992551));
#1116=CARTESIAN_POINT('',(155.,1.5,9.50820779925501));
#1117=CARTESIAN_POINT('Origin',(155.,-1.5,9.50820779925501));
#1118=CARTESIAN_POINT('',(119.674481333116,1.5,9.50820779925507));
#1119=CARTESIAN_POINT('',(59.9043051064389,1.5,9.50820779925517));
#1120=CARTESIAN_POINT('Origin',(119.674481333116,-1.5,9.50820779925507));
#1121=CARTESIAN_POINT('Origin',(41.1837459955929,-1.5,16.5408486366545));
#1122=CARTESIAN_POINT('',(80.7028711202381,1.5,13.));
#1123=CARTESIAN_POINT('',(41.1837459955929,1.5,16.5408486366545));
#1124=CARTESIAN_POINT('',(80.837,-1.5,16.));
#1125=CARTESIAN_POINT('Origin',(80.7028711202381,-1.5,13.));
#1126=CARTESIAN_POINT('',(80.837,-1.5,16.));
#1127=CARTESIAN_POINT('Origin',(-40.4185,-1.5,13.));
#1128=CARTESIAN_POINT('',(-80.7028711202381,1.5,13.));
#1129=CARTESIAN_POINT('',(-40.4185,1.5,13.));
#1130=CARTESIAN_POINT('',(-80.837,-1.5,16.));
#1131=CARTESIAN_POINT('Origin',(-80.7028711202381,-1.5,13.));
#1132=CARTESIAN_POINT('',(-80.837,-1.5,16.));
#1133=CARTESIAN_POINT('Origin',(-60.6695511020319,-1.5,14.794952536282));
#1134=CARTESIAN_POINT('',(-119.674481333116,1.5,9.50820779925507));
#1135=CARTESIAN_POINT('',(-60.6695511020319,1.5,14.794952536282));
#1136=CARTESIAN_POINT('',(-119.808610212878,-1.5,12.5082077992551));
#1137=CARTESIAN_POINT('Origin',(-119.674481333116,-1.5,9.50820779925507));
#1138=CARTESIAN_POINT('',(-119.808610212878,-1.5,12.5082077992551));
#1139=CARTESIAN_POINT('Origin',(-79.,-1.5,9.50820779925509));
#1140=CARTESIAN_POINT('',(-155.,1.5,9.50820779925505));
#1141=CARTESIAN_POINT('',(-79.,1.5,9.50820779925509));
#1142=CARTESIAN_POINT('',(-155.,-1.5,12.508207799255));
#1143=CARTESIAN_POINT('Origin',(-155.,-1.5,9.50820779925505));
#1144=CARTESIAN_POINT('',(-158.,-1.5,12.508207799255));
#1145=CARTESIAN_POINT('Origin',(-155.,-1.5,-6.24552979449913));
#1146=CARTESIAN_POINT('',(-155.,1.5,1.46546920813775));
#1147=CARTESIAN_POINT('',(-156.18,1.25818781086423,-3.78989392824115E-14));
#1148=CARTESIAN_POINT('Ctrl Pts',(-155.,1.5,1.46546920813775));
#1149=CARTESIAN_POINT('Ctrl Pts',(-155.08577023642,1.5,1.44674041090194));
#1150=CARTESIAN_POINT('Ctrl Pts',(-155.170776385834,1.49625994154535,1.42020072732969));
#1151=CARTESIAN_POINT('Ctrl Pts',(-155.436610216931,1.47379951125332,1.31041519564881));
#1152=CARTESIAN_POINT('Ctrl Pts',(-155.604117649373,1.44169921315475,1.19607037323781));
#1153=CARTESIAN_POINT('Ctrl Pts',(-155.870028176876,1.37439033461287,0.932401856303416));
#1154=CARTESIAN_POINT('Ctrl Pts',(-155.986126865767,1.33450625685643,0.764410057033719));
#1155=CARTESIAN_POINT('Ctrl Pts',(-156.141153863652,1.27572339069399,0.394105098062713));
#1156=CARTESIAN_POINT('Ctrl Pts',(-156.18,1.25818781086423,0.191542440079383));
#1157=CARTESIAN_POINT('Ctrl Pts',(-156.18,1.25818781086423,-3.76781938982163E-14));
#1158=CARTESIAN_POINT('',(-155.,1.5,-1.46546920813783));
#1159=CARTESIAN_POINT('Ctrl Pts',(-156.18,1.25818781086423,-3.80945275324507E-14));
#1160=CARTESIAN_POINT('Ctrl Pts',(-156.18,1.25818781086423,-0.191542440079459));
#1161=CARTESIAN_POINT('Ctrl Pts',(-156.141153863652,1.27572339069399,-0.394105098062789));
#1162=CARTESIAN_POINT('Ctrl Pts',(-155.986126865767,1.33450625685643,-0.764410057033796));
#1163=CARTESIAN_POINT('Ctrl Pts',(-155.870028176876,1.37439033461287,-0.932401856303493));
#1164=CARTESIAN_POINT('Ctrl Pts',(-155.604117649373,1.44169921315475,-1.19607037323789));
#1165=CARTESIAN_POINT('Ctrl Pts',(-155.436610216931,1.47379951125333,-1.31041519564891));
#1166=CARTESIAN_POINT('Ctrl Pts',(-155.170776385834,1.49625994154535,-1.42020072732977));
#1167=CARTESIAN_POINT('Ctrl Pts',(-155.08577023642,1.5,-1.44674041090201));
#1168=CARTESIAN_POINT('Ctrl Pts',(-155.,1.5,-1.46546920813783));
#1169=CARTESIAN_POINT('',(-155.,1.5,-9.49105958899826));
#1170=CARTESIAN_POINT('',(-155.,1.5,-6.24552979449913));
#1171=CARTESIAN_POINT('',(-158.,-1.5,-12.4910595889983));
#1172=CARTESIAN_POINT('Origin',(-155.,-1.5,-9.49105958899826));
#1173=CARTESIAN_POINT('',(-158.,-1.5,9.50820779925505));
#1174=CARTESIAN_POINT('',(-158.,-1.5,-12.4910595889983));
#1175=CARTESIAN_POINT('Origin',(-155.,-1.5,9.50820779925505));
#1176=CARTESIAN_POINT('',(-155.,1.5,-6.24552979449913));
#1177=CARTESIAN_POINT('Origin',(-60.,-1.5,-9.49105958899825));
#1178=CARTESIAN_POINT('',(-120.,-1.5,-12.4910595889983));
#1179=CARTESIAN_POINT('',(-120.,-1.5,-12.4910595889983));
#1180=CARTESIAN_POINT('',(-119.865871120238,1.5,-9.49105958899825));
#1181=CARTESIAN_POINT('',(-60.,1.5,-9.49105958899825));
#1182=CARTESIAN_POINT('Origin',(-119.865871120238,-1.5,-9.49105958899825));
#1183=CARTESIAN_POINT('Origin',(-41.183745995593,-1.5,-16.5408486366545));
#1184=CARTESIAN_POINT('',(-80.837,-1.5,-16.));
#1185=CARTESIAN_POINT('',(-80.837,-1.5,-16.));
#1186=CARTESIAN_POINT('',(-80.7028711202381,1.5,-13.));
#1187=CARTESIAN_POINT('',(-41.183745995593,1.5,-16.5408486366545));
#1188=CARTESIAN_POINT('Origin',(-80.7028711202381,-1.5,-13.));
#1189=CARTESIAN_POINT('Origin',(40.4185,-1.5,-13.));
#1190=CARTESIAN_POINT('',(80.837,-1.5,-16.));
#1191=CARTESIAN_POINT('',(80.837,-1.5,-16.));
#1192=CARTESIAN_POINT('',(80.7028711202381,1.5,-13.));
#1193=CARTESIAN_POINT('',(40.4185,1.5,-13.));
#1194=CARTESIAN_POINT('Origin',(80.7028711202381,-1.5,-13.));
#1195=CARTESIAN_POINT('Origin',(60.7652459955929,-1.5,-14.7863784311537));
#1196=CARTESIAN_POINT('',(120.,-1.5,-12.4910595889983));
#1197=CARTESIAN_POINT('',(120.,-1.5,-12.4910595889983));
#1198=CARTESIAN_POINT('',(119.865871120238,1.5,-9.49105958899825));
#1199=CARTESIAN_POINT('',(60.7652459955929,1.5,-14.7863784311537));
#1200=CARTESIAN_POINT('Origin',(119.865871120238,-1.5,-9.49105958899825));
#1201=CARTESIAN_POINT('Origin',(79.,-1.5,-9.49105958899821));
#1202=CARTESIAN_POINT('',(155.,1.5,-9.49105958899829));
#1203=CARTESIAN_POINT('',(79.,1.5,-9.49105958899821));
#1204=CARTESIAN_POINT('',(158.,-1.5,-12.4910595889983));
#1205=CARTESIAN_POINT('Origin',(155.,-1.5,-9.49105958899829));
#1206=CARTESIAN_POINT('',(158.,-1.5,-12.4910595889983));
#1207=CARTESIAN_POINT('Origin',(155.,-1.5,6.2541038996275));
#1208=CARTESIAN_POINT('',(155.,1.5,-1.46546920813786));
#1209=CARTESIAN_POINT('',(155.,1.5,1.46546920813771));
#1210=CARTESIAN_POINT('Ctrl Pts',(155.,1.5,-1.46546920813786));
#1211=CARTESIAN_POINT('Ctrl Pts',(155.086802133317,1.5,-1.44651508579448));
#1212=CARTESIAN_POINT('Ctrl Pts',(155.172816540721,1.49616840166486,-1.41956098864883));
#1213=CARTESIAN_POINT('Ctrl Pts',(155.440370175137,1.47329642129415,-1.30839719209904));
#1214=CARTESIAN_POINT('Ctrl Pts',(155.608426933262,1.4408225515089,-1.19289341029798));
#1215=CARTESIAN_POINT('Ctrl Pts',(155.873200635914,1.37336525477766,-0.928119707645276));
#1216=CARTESIAN_POINT('Ctrl Pts',(155.988144900641,1.33377908466656,-0.760677193048074));
#1217=CARTESIAN_POINT('Ctrl Pts',(156.141585734721,1.27552099830386,-0.391968549381126));
#1218=CARTESIAN_POINT('Ctrl Pts',(156.18,1.25818781086423,-0.190457902324732));
#1219=CARTESIAN_POINT('Ctrl Pts',(156.18,1.25818781086423,-7.54951656745106E-14));
#1220=CARTESIAN_POINT('Ctrl Pts',(156.18,1.25818781086423,0.191542440079345));
#1221=CARTESIAN_POINT('Ctrl Pts',(156.141153863652,1.27572339069399,0.394105098062675));
#1222=CARTESIAN_POINT('Ctrl Pts',(155.986126865767,1.33450625685643,0.764410057033681));
#1223=CARTESIAN_POINT('Ctrl Pts',(155.870028176876,1.37439033461287,0.932401856303379));
#1224=CARTESIAN_POINT('Ctrl Pts',(155.604117649373,1.44169921315475,1.19607037323777));
#1225=CARTESIAN_POINT('Ctrl Pts',(155.436610216931,1.47379951125333,1.31041519564879));
#1226=CARTESIAN_POINT('Ctrl Pts',(155.170776385834,1.49625994154535,1.42020072732966));
#1227=CARTESIAN_POINT('Ctrl Pts',(155.08577023642,1.5,1.44674041090189));
#1228=CARTESIAN_POINT('Ctrl Pts',(155.,1.5,1.46546920813771));
#1229=CARTESIAN_POINT('',(155.,1.5,6.2541038996275));
#1230=CARTESIAN_POINT('',(158.,-1.5,9.50820779925501));
#1231=CARTESIAN_POINT('Origin',(155.,-1.5,9.50820779925501));
#1232=CARTESIAN_POINT('',(158.,-1.5,12.508207799255));
#1233=CARTESIAN_POINT('',(155.,1.5,6.2541038996275));
#1234=CARTESIAN_POINT('Origin',(-155.,-1.5,9.50820779925505));
#1235=CARTESIAN_POINT('Origin',(-155.,-1.5,9.50820779925505));
#1236=CARTESIAN_POINT('Origin',(155.,-1.5,9.50820779925501));
#1237=CARTESIAN_POINT('Origin',(155.,-1.5,9.50820779925501));
#1238=CARTESIAN_POINT('Origin',(0.,1.5,0.));
#1239=CARTESIAN_POINT('',(153.18,1.5,-7.55890244107948E-14));
#1240=CARTESIAN_POINT('Origin',(154.68,1.5,-7.57727214306669E-14));
#1241=CARTESIAN_POINT('Origin',(154.68,1.5,-7.57727214306669E-14));
#1242=CARTESIAN_POINT('Origin',(-154.68,1.5,-3.78870480522444E-14));
#1243=CARTESIAN_POINT('',(80.837,1.5,12.4859793183816));
#1244=CARTESIAN_POINT('',(80.837,1.5,-12.4859793183816));
#1245=CARTESIAN_POINT('',(80.837,1.5,12.4859793183816));
#1246=CARTESIAN_POINT('',(114.308610212878,1.5,-9.48697807493065));
#1247=CARTESIAN_POINT('',(80.837,1.5,-12.4859793183816));
#1248=CARTESIAN_POINT('',(114.308610212878,1.5,9.48697807493065));
#1249=CARTESIAN_POINT('',(114.308610212878,1.5,-9.48697807493065));
#1250=CARTESIAN_POINT('',(114.308610212878,1.5,9.48697807493065));
#1251=CARTESIAN_POINT('',(23.,1.5,12.5));
#1252=CARTESIAN_POINT('',(23.,1.5,-12.5));
#1253=CARTESIAN_POINT('',(23.,1.5,12.5));
#1254=CARTESIAN_POINT('',(43.,1.5,-12.5));
#1255=CARTESIAN_POINT('',(23.,1.5,-12.5));
#1256=CARTESIAN_POINT('',(43.,1.5,12.5));
#1257=CARTESIAN_POINT('',(43.,1.5,-12.5));
#1258=CARTESIAN_POINT('',(43.,1.5,12.5));
#1259=CARTESIAN_POINT('',(-80.837,1.5,-12.4859793183816));
#1260=CARTESIAN_POINT('',(-80.837,1.5,12.4859793183816));
#1261=CARTESIAN_POINT('',(-80.837,1.5,-12.4859793183816));
#1262=CARTESIAN_POINT('',(-114.308610212878,1.5,9.48697807493065));
#1263=CARTESIAN_POINT('',(-80.837,1.5,12.4859793183816));
#1264=CARTESIAN_POINT('',(-114.308610212878,1.5,-9.48697807493065));
#1265=CARTESIAN_POINT('',(-114.308610212878,1.5,9.48697807493065));
#1266=CARTESIAN_POINT('',(-114.308610212878,1.5,-9.48697807493065));
#1267=CARTESIAN_POINT('',(-43.,1.5,12.5));
#1268=CARTESIAN_POINT('',(-43.,1.5,-12.5));
#1269=CARTESIAN_POINT('',(-43.,1.5,12.5));
#1270=CARTESIAN_POINT('',(-23.,1.5,-12.5));
#1271=CARTESIAN_POINT('',(-43.,1.5,-12.5));
#1272=CARTESIAN_POINT('',(-23.,1.5,12.5));
#1273=CARTESIAN_POINT('',(-23.,1.5,-12.5));
#1274=CARTESIAN_POINT('',(-23.,1.5,12.5));
#1275=CARTESIAN_POINT('',(-19.,1.5,11.));
#1276=CARTESIAN_POINT('Origin',(-17.5,1.5,11.));
#1277=CARTESIAN_POINT('',(16.,1.5,11.));
#1278=CARTESIAN_POINT('Origin',(17.5,1.5,11.));
#1279=CARTESIAN_POINT('',(-19.,1.5,-11.));
#1280=CARTESIAN_POINT('Origin',(-17.5,1.5,-11.));
#1281=CARTESIAN_POINT('',(16.,1.5,-11.));
#1282=CARTESIAN_POINT('Origin',(17.5,1.5,-11.));
#1283=CARTESIAN_POINT('Origin',(154.68,0.,-7.57727214306669E-14));
#1284=CARTESIAN_POINT('',(153.18,-1.5,-7.54951656745106E-14));
#1285=CARTESIAN_POINT('',(153.18,0.,-7.55890244107948E-14));
#1286=CARTESIAN_POINT('Origin',(154.68,-1.5,-7.57727214306669E-14));
#1287=CARTESIAN_POINT('Origin',(0.,-1.5,0.));
#1288=CARTESIAN_POINT('',(16.,-1.5,-11.));
#1289=CARTESIAN_POINT('Origin',(17.5,-1.5,-11.));
#1290=CARTESIAN_POINT('',(-19.,-1.5,-11.));
#1291=CARTESIAN_POINT('Origin',(-17.5,-1.5,-11.));
#1292=CARTESIAN_POINT('',(16.,-1.5,11.));
#1293=CARTESIAN_POINT('Origin',(17.5,-1.5,11.));
#1294=CARTESIAN_POINT('',(-19.,-1.5,11.));
#1295=CARTESIAN_POINT('Origin',(-17.5,-1.5,11.));
#1296=CARTESIAN_POINT('',(-156.18,-1.5,-3.77475828372553E-14));
#1297=CARTESIAN_POINT('Origin',(-154.68,-1.5,-3.78870480522444E-14));
#1298=CARTESIAN_POINT('',(-43.,-1.5,-12.5));
#1299=CARTESIAN_POINT('',(-43.,-1.5,12.5));
#1300=CARTESIAN_POINT('',(-43.,-1.5,12.5));
#1301=CARTESIAN_POINT('',(-23.,-1.5,12.5));
#1302=CARTESIAN_POINT('',(-23.,-1.5,12.5));
#1303=CARTESIAN_POINT('',(-23.,-1.5,-12.5));
#1304=CARTESIAN_POINT('',(-23.,-1.5,-12.5));
#1305=CARTESIAN_POINT('',(-43.,-1.5,-12.5));
#1306=CARTESIAN_POINT('',(-80.837,-1.5,12.4859793183816));
#1307=CARTESIAN_POINT('',(-80.837,-1.5,-12.4859793183816));
#1308=CARTESIAN_POINT('',(-80.837,-1.5,-12.4859793183816));
#1309=CARTESIAN_POINT('',(-114.308610212878,-1.5,-9.48697807493065));
#1310=CARTESIAN_POINT('',(-114.308610212878,-1.5,-9.48697807493065));
#1311=CARTESIAN_POINT('',(-114.308610212878,-1.5,9.48697807493065));
#1312=CARTESIAN_POINT('',(-114.308610212878,-1.5,9.48697807493065));
#1313=CARTESIAN_POINT('',(-80.837,-1.5,12.4859793183816));
#1314=CARTESIAN_POINT('',(23.,-1.5,-12.5));
#1315=CARTESIAN_POINT('',(23.,-1.5,12.5));
#1316=CARTESIAN_POINT('',(23.,-1.5,12.5));
#1317=CARTESIAN_POINT('',(43.,-1.5,12.5));
#1318=CARTESIAN_POINT('',(43.,-1.5,12.5));
#1319=CARTESIAN_POINT('',(43.,-1.5,-12.5));
#1320=CARTESIAN_POINT('',(43.,-1.5,-12.5));
#1321=CARTESIAN_POINT('',(23.,-1.5,-12.5));
#1322=CARTESIAN_POINT('',(80.837,-1.5,-12.4859793183816));
#1323=CARTESIAN_POINT('',(80.837,-1.5,12.4859793183816));
#1324=CARTESIAN_POINT('',(80.837,-1.5,12.4859793183816));
#1325=CARTESIAN_POINT('',(114.308610212878,-1.5,9.48697807493065));
#1326=CARTESIAN_POINT('',(114.308610212878,-1.5,9.48697807493065));
#1327=CARTESIAN_POINT('',(114.308610212878,-1.5,-9.48697807493065));
#1328=CARTESIAN_POINT('',(114.308610212878,-1.5,-9.48697807493065));
#1329=CARTESIAN_POINT('',(80.837,-1.5,-12.4859793183816));
#1330=CARTESIAN_POINT('Origin',(114.308610212878,0.,9.48697807493065));
#1331=CARTESIAN_POINT('',(80.837,0.,12.4859793183816));
#1332=CARTESIAN_POINT('',(114.308610212878,0.,9.48697807493065));
#1333=CARTESIAN_POINT('Origin',(114.308610212878,0.,-9.48697807493065));
#1334=CARTESIAN_POINT('',(114.308610212878,0.,-9.48697807493065));
#1335=CARTESIAN_POINT('Origin',(80.837,0.,-12.4859793183816));
#1336=CARTESIAN_POINT('',(80.837,0.,-12.4859793183816));
#1337=CARTESIAN_POINT('Origin',(80.837,0.,12.4859793183816));
#1338=CARTESIAN_POINT('Origin',(43.,0.,12.5));
#1339=CARTESIAN_POINT('',(23.,0.,12.5));
#1340=CARTESIAN_POINT('',(43.,0.,12.5));
#1341=CARTESIAN_POINT('Origin',(43.,0.,-12.5));
#1342=CARTESIAN_POINT('',(43.,0.,-12.5));
#1343=CARTESIAN_POINT('Origin',(23.,0.,-12.5));
#1344=CARTESIAN_POINT('',(23.,0.,-12.5));
#1345=CARTESIAN_POINT('Origin',(23.,0.,12.5));
#1346=CARTESIAN_POINT('Origin',(-114.308610212878,0.,-9.48697807493065));
#1347=CARTESIAN_POINT('',(-80.837,0.,-12.4859793183816));
#1348=CARTESIAN_POINT('',(-114.308610212878,0.,-9.48697807493065));
#1349=CARTESIAN_POINT('Origin',(-114.308610212878,0.,9.48697807493065));
#1350=CARTESIAN_POINT('',(-114.308610212878,0.,9.48697807493065));
#1351=CARTESIAN_POINT('Origin',(-80.837,0.,12.4859793183816));
#1352=CARTESIAN_POINT('',(-80.837,0.,12.4859793183816));
#1353=CARTESIAN_POINT('Origin',(-80.837,0.,-12.4859793183816));
#1354=CARTESIAN_POINT('Origin',(-23.,0.,12.5));
#1355=CARTESIAN_POINT('',(-43.,0.,12.5));
#1356=CARTESIAN_POINT('',(-23.,0.,12.5));
#1357=CARTESIAN_POINT('Origin',(-23.,0.,-12.5));
#1358=CARTESIAN_POINT('',(-23.,0.,-12.5));
#1359=CARTESIAN_POINT('Origin',(-43.,0.,-12.5));
#1360=CARTESIAN_POINT('',(-43.,0.,-12.5));
#1361=CARTESIAN_POINT('Origin',(-43.,0.,12.5));
#1362=CARTESIAN_POINT('Origin',(-154.68,0.,-3.78870480522444E-14));
#1363=CARTESIAN_POINT('',(-156.18,0.,-3.77033510323723E-14));
#1364=CARTESIAN_POINT('Origin',(-17.5,0.,11.));
#1365=CARTESIAN_POINT('',(-19.,0.,11.));
#1366=CARTESIAN_POINT('Origin',(17.5,0.,11.));
#1367=CARTESIAN_POINT('',(16.,0.,11.));
#1368=CARTESIAN_POINT('Origin',(-17.5,0.,-11.));
#1369=CARTESIAN_POINT('',(-19.,0.,-11.));
#1370=CARTESIAN_POINT('Origin',(17.5,0.,-11.));
#1371=CARTESIAN_POINT('',(16.,0.,-11.));
#1372=UNCERTAINTY_MEASURE_WITH_UNIT(LENGTH_MEASURE(0.01),#1376,
'DISTANCE_ACCURACY_VALUE',
'Maximum model space distance between geometric entities at asserted c
onnectivities');
#1373=UNCERTAINTY_MEASURE_WITH_UNIT(LENGTH_MEASURE(0.01),#1376,
'DISTANCE_ACCURACY_VALUE',
'Maximum model space distance between geometric entities at asserted c
onnectivities');
#1374=(
GEOMETRIC_REPRESENTATION_CONTEXT(3)
GLOBAL_UNCERTAINTY_ASSIGNED_CONTEXT((#1372))
GLOBAL_UNIT_ASSIGNED_CONTEXT((#1376,#1378,#1379))
REPRESENTATION_CONTEXT('','3D')
);
#1375=(
GEOMETRIC_REPRESENTATION_CONTEXT(3)
GLOBAL_UNCERTAINTY_ASSIGNED_CONTEXT((#1373))
GLOBAL_UNIT_ASSIGNED_CONTEXT((#1376,#1378,#1379))
REPRESENTATION_CONTEXT('','3D')
);
#1376=(
LENGTH_UNIT()
NAMED_UNIT(*)
SI_UNIT(.MILLI.,.METRE.)
);
#1377=(
LENGTH_UNIT()
NAMED_UNIT(*)
SI_UNIT(.CENTI.,.METRE.)
);
#1378=(
NAMED_UNIT(*)
PLANE_ANGLE_UNIT()
SI_UNIT($,.RADIAN.)
);
#1379=(
NAMED_UNIT(*)
SI_UNIT($,.STERADIAN.)
SOLID_ANGLE_UNIT()
);
#1380=SHAPE_DEFINITION_REPRESENTATION(#1381,#1382);
#1381=PRODUCT_DEFINITION_SHAPE('',$,#1384);
#1382=SHAPE_REPRESENTATION('',(#827),#1374);
#1383=PRODUCT_DEFINITION_CONTEXT('part definition',#1388,'design');
#1384=PRODUCT_DEFINITION('nakladka','nakladka',#1385,#1383);
#1385=PRODUCT_DEFINITION_FORMATION('',$,#1390);
#1386=PRODUCT_RELATED_PRODUCT_CATEGORY('nakladka','nakladka',(#1390));
#1387=APPLICATION_PROTOCOL_DEFINITION('international standard',
'automotive_design',2009,#1388);
#1388=APPLICATION_CONTEXT(
'Core Data for Automotive Mechanical Design Process');
#1389=PRODUCT_CONTEXT('part definition',#1388,'mechanical');
#1390=PRODUCT('nakladka','nakladka',$,(#1389));
#1391=PRESENTATION_STYLE_ASSIGNMENT((#1392));
#1392=SURFACE_STYLE_USAGE(.BOTH.,#1395);
#1393=SURFACE_STYLE_RENDERING_WITH_PROPERTIES($,#1399,(#1394));
#1394=SURFACE_STYLE_TRANSPARENT(0.);
#1395=SURFACE_SIDE_STYLE('',(#1396,#1393));
#1396=SURFACE_STYLE_FILL_AREA(#1397);
#1397=FILL_AREA_STYLE('',(#1398));
#1398=FILL_AREA_STYLE_COLOUR('',#1399);
#1399=COLOUR_RGB('',0.749019607843137,0.749019607843137,0.749019607843137);
ENDSEC;
END-ISO-10303-21;
